<svg width="1570" height="477" viewBox="0 0 1570 477" fill="none" xmlns="http://www.w3.org/2000/svg">
<path d="M0 0H896V237.5V356.25V415.625L965 475H896H0V0Z" fill="#99CDFF" fill-opacity="0.2"/>
<path d="M881.976 431.922L907.052 453.5H896H21.5V21.5H874.5V237.5V356.25V415.625V425.488L881.976 431.922Z" stroke="white" stroke-opacity="0.7" stroke-width="43"/>
<path d="M1037.19 0H1148.97V309.716C1148.97 345.828 1141.44 376.417 1126.36 401.483C1111.29 426.337 1090.16 445.136 1062.99 457.882C1035.81 470.627 1003.85 477 967.124 477C930.818 477 898.864 470.627 871.263 457.882C843.874 445.136 822.429 426.337 806.93 401.483C791.643 376.417 784 345.828 784 309.716V0H896.104V309.716C896.104 328.834 898.864 344.447 904.384 356.556C909.904 368.451 917.972 377.161 928.588 382.684C939.204 388.207 952.049 390.968 967.124 390.968C982.411 390.968 995.256 388.207 1005.66 382.684C1016.06 377.161 1023.92 368.451 1029.23 356.556C1034.53 344.447 1037.19 328.834 1037.19 309.716V0Z" fill="url(#paint0_linear_738_27)"/>
<path d="M1458.21 347.315C1458.21 340.093 1457.15 333.614 1455.03 327.878C1452.91 321.93 1448.98 316.407 1443.25 311.309C1437.51 306.211 1429.23 301.113 1418.41 296.015C1407.79 290.704 1393.78 285.181 1376.37 279.446C1355.98 272.648 1336.34 265.001 1317.45 256.504C1298.55 247.794 1281.67 237.704 1266.81 226.233C1251.95 214.55 1240.16 200.955 1231.46 185.448C1222.75 169.729 1218.4 151.46 1218.4 130.642C1218.4 110.675 1222.86 92.7248 1231.78 76.793C1240.7 60.6487 1253.12 46.9474 1269.04 35.6889C1285.18 24.218 1304.07 15.5086 1325.73 9.56072C1347.38 3.40042 1371.06 0.32027 1396.75 0.32027C1430.72 0.32027 1460.66 6.26815 1486.56 18.1639C1512.67 29.8472 1533.06 46.5225 1547.71 68.1898C1562.57 89.6446 1570 115.029 1570 144.344H1458.85C1458.85 132.66 1456.41 122.358 1451.53 113.436C1446.86 104.514 1439.74 97.5043 1430.19 92.4061C1420.63 87.3079 1408.64 84.7589 1394.2 84.7589C1380.19 84.7589 1368.4 86.8831 1358.85 91.1316C1349.3 95.3801 1342.08 101.116 1337.19 108.338C1332.31 115.348 1329.87 123.101 1329.87 131.598C1329.87 138.608 1331.78 144.981 1335.6 150.717C1339.64 156.24 1345.26 161.444 1352.48 166.33C1359.91 171.215 1368.83 175.889 1379.23 180.35C1389.85 184.811 1401.74 189.165 1414.9 193.414C1439.53 201.273 1461.4 210.089 1480.51 219.861C1499.83 229.42 1516.07 240.36 1529.23 252.68C1542.61 264.788 1552.7 278.596 1559.49 294.103C1566.5 309.61 1570 327.135 1570 346.678C1570 367.495 1565.97 385.976 1557.9 402.12C1549.83 418.265 1538.26 431.966 1523.18 443.225C1508.11 454.271 1490.06 462.661 1469.04 468.397C1448.02 474.132 1424.56 477 1398.66 477C1374.88 477 1351.42 474.026 1328.28 468.078C1305.35 461.918 1284.54 452.571 1265.85 440.038C1247.17 427.293 1232.2 411.042 1220.95 391.287C1209.91 371.319 1204.39 347.634 1204.39 320.231H1316.49C1316.49 333.826 1318.3 345.297 1321.91 354.644C1325.52 363.99 1330.82 371.531 1337.83 377.267C1344.84 382.79 1353.44 386.826 1363.63 389.375C1373.82 391.712 1385.5 392.88 1398.66 392.88C1412.88 392.88 1424.35 390.862 1433.06 386.826C1441.76 382.577 1448.13 377.054 1452.16 370.257C1456.2 363.247 1458.21 355.6 1458.21 347.315Z" fill="url(#paint1_linear_738_27)"/>
<path d="M191.875 175.958L140.937 314.969H128L183.587 167.123H192.582L191.875 175.958ZM238.164 314.969L187.125 175.958L186.417 167.123H195.412L251.101 314.969H238.164ZM229.068 262.776V273.54H150.942V262.776H229.068Z" fill="black"/>
<path d="M269.899 159H282.027V293.645L281.219 314.969H269.899V159ZM358.132 259.019V261.152C358.132 269.343 357.188 276.857 355.302 283.694C353.415 290.531 350.686 296.455 347.115 301.464C343.544 306.406 339.165 310.231 333.976 312.938C328.856 315.646 322.96 317 316.289 317C309.754 317 303.959 315.985 298.906 313.954C293.852 311.855 289.54 308.91 285.969 305.12C282.398 301.261 279.534 296.759 277.378 291.614C275.222 286.402 273.706 280.682 272.83 274.454V247.342C273.841 240.708 275.458 234.683 277.682 229.267C279.905 223.852 282.769 219.181 286.272 215.254C289.843 211.328 294.088 208.316 299.007 206.217C303.993 204.119 309.686 203.069 316.087 203.069C322.758 203.069 328.687 204.389 333.875 207.03C339.131 209.602 343.544 213.359 347.115 218.301C350.686 223.175 353.415 229.064 355.302 235.969C357.188 242.806 358.132 250.49 358.132 259.019ZM345.902 261.152V259.019C345.902 252.588 345.296 246.631 344.083 241.148C342.87 235.665 340.95 230.892 338.322 226.83C335.762 222.701 332.46 219.485 328.418 217.184C324.375 214.882 319.524 213.731 313.864 213.731C308.069 213.731 303.117 214.713 299.007 216.676C294.964 218.572 291.595 221.11 288.9 224.292C286.272 227.406 284.184 230.824 282.634 234.548C281.084 238.271 279.939 241.926 279.198 245.514V277.094C280.343 282.171 282.331 286.943 285.161 291.411C287.99 295.879 291.797 299.501 296.581 302.276C301.365 304.984 307.193 306.338 314.066 306.338C319.591 306.338 324.341 305.187 328.317 302.886C332.359 300.584 335.661 297.402 338.221 293.341C340.849 289.279 342.769 284.506 343.982 279.023C345.262 273.54 345.902 267.583 345.902 261.152Z" fill="black"/>
<path d="M378.244 261.761V258.41C378.244 250.422 379.39 243.043 381.68 236.274C383.971 229.504 387.239 223.649 391.484 218.707C395.796 213.765 400.951 209.94 406.947 207.233C412.944 204.457 419.615 203.069 426.959 203.069C434.37 203.069 441.075 204.457 447.071 207.233C453.068 209.94 458.222 213.765 462.535 218.707C466.847 223.649 470.148 229.504 472.439 236.274C474.73 243.043 475.876 250.422 475.876 258.41V261.761C475.876 269.749 474.73 277.128 472.439 283.897C470.148 290.599 466.847 296.421 462.535 301.362C458.29 306.304 453.169 310.163 447.172 312.938C441.176 315.646 434.505 317 427.161 317C419.749 317 413.045 315.646 407.048 312.938C401.052 310.163 395.897 306.304 391.585 301.362C387.273 296.421 383.971 290.599 381.68 283.897C379.39 277.128 378.244 269.749 378.244 261.761ZM390.271 258.41V261.761C390.271 267.786 391.08 273.506 392.697 278.922C394.314 284.269 396.672 289.042 399.772 293.239C402.871 297.368 406.712 300.618 411.293 302.987C415.875 305.356 421.164 306.541 427.161 306.541C433.09 306.541 438.312 305.356 442.826 302.987C447.408 300.618 451.249 297.368 454.348 293.239C457.448 289.042 459.772 284.269 461.322 278.922C462.939 273.506 463.748 267.786 463.748 261.761V258.41C463.748 252.453 462.939 246.8 461.322 241.452C459.772 236.105 457.414 231.332 454.247 227.135C451.148 222.938 447.307 219.621 442.725 217.184C438.144 214.747 432.888 213.528 426.959 213.528C421.029 213.528 415.774 214.747 411.192 217.184C406.678 219.621 402.837 222.938 399.67 227.135C396.571 231.332 394.213 236.105 392.596 241.452C391.046 246.8 390.271 252.453 390.271 258.41Z" fill="black"/>
<path d="M570.981 289.584V205.1H583.109V314.969H571.486L570.981 289.584ZM573.204 269.275L579.47 269.072C579.47 275.977 578.662 282.34 577.045 288.162C575.428 293.984 572.901 299.061 569.465 303.393C566.028 307.726 561.581 311.077 556.124 313.446C550.666 315.815 544.096 317 536.415 317C531.092 317 526.207 316.255 521.76 314.766C517.381 313.209 513.608 310.772 510.441 307.455C507.274 304.138 504.815 299.839 503.063 294.559C501.378 289.279 500.536 282.882 500.536 275.368V205.1H512.563V275.571C512.563 281.46 513.203 286.368 514.484 290.294C515.831 294.221 517.65 297.368 519.941 299.738C522.3 302.107 524.995 303.799 528.027 304.815C531.059 305.83 534.327 306.338 537.83 306.338C546.724 306.338 553.732 304.612 558.852 301.159C564.041 297.707 567.713 293.171 569.869 287.553C572.092 281.866 573.204 275.774 573.204 269.275Z" fill="black"/>
<path d="M656.08 205.1V215.051H601.301V205.1H656.08ZM621.413 176.871H633.441V288.263C633.441 293.341 634.114 297.165 635.462 299.738C636.809 302.31 638.561 304.036 640.717 304.916C642.874 305.796 645.198 306.237 647.691 306.237C649.51 306.237 651.262 306.135 652.947 305.932C654.631 305.661 656.147 305.39 657.495 305.12L658 315.375C656.518 315.849 654.597 316.222 652.239 316.492C649.881 316.831 647.523 317 645.164 317C640.515 317 636.405 316.154 632.834 314.461C629.263 312.701 626.467 309.723 624.445 305.526C622.424 301.261 621.413 295.473 621.413 288.162V176.871Z" fill="black"/>
<defs>
<linearGradient id="paint0_linear_738_27" x1="1171.27" y1="-132.579" x2="1171.27" y2="632.096" gradientUnits="userSpaceOnUse">
<stop stop-color="#0D2E4B"/>
<stop offset="1" stop-color="#99EDFF" stop-opacity="0.65"/>
</linearGradient>
<linearGradient id="paint1_linear_738_27" x1="1171.27" y1="-132.579" x2="1171.27" y2="632.096" gradientUnits="userSpaceOnUse">
<stop stop-color="#0D2E4B"/>
<stop offset="1" stop-color="#99EDFF" stop-opacity="0.65"/>
</linearGradient>
</defs>
</svg>
