<svg width="1326" height="2620" viewBox="0 0 1326 2620" fill="none" xmlns="http://www.w3.org/2000/svg">
<rect x="10" width="1315" height="2620" fill="#101D28"/>
<g filter="url(#filter0_d_643_35)">
<rect x="10" y="473" width="1" height="1674" fill="white"/>
</g>
<rect x="11" y="473" width="1315" height="1674" fill="url(#paint0_linear_643_35)"/>
<path d="M133 484V2147.5" stroke="white" stroke-opacity="0.4"/>
<path d="M265.5 484V2147.5" stroke="white" stroke-opacity="0.35"/>
<path d="M398.5 484V2147.5" stroke="white" stroke-opacity="0.3"/>
<path d="M531.5 484V2147.5" stroke="white" stroke-opacity="0.25"/>
<path d="M797.5 484V2147.5" stroke="white" stroke-opacity="0.15"/>
<path d="M664.5 484V2147.5" stroke="white" stroke-opacity="0.2"/>
<path d="M1063.5 484V2147.5" stroke="white" stroke-opacity="0.05"/>
<path d="M930.5 484V2147.5" stroke="white" stroke-opacity="0.1"/>
<path d="M11 1524L1326 1524" stroke="url(#paint1_linear_643_35)"/>
<path d="M11 1922L1326 1922" stroke="url(#paint2_linear_643_35)"/>
<path d="M11 2055L1326 2055" stroke="url(#paint3_linear_643_35)"/>
<path d="M11 1392L1326 1392" stroke="url(#paint4_linear_643_35)"/>
<path d="M11 1790L1326 1790" stroke="url(#paint5_linear_643_35)"/>
<path d="M11 1259L1326 1259" stroke="url(#paint6_linear_643_35)"/>
<path d="M11 1657L1326 1657" stroke="url(#paint7_linear_643_35)"/>
<path d="M11 1126L1326 1126" stroke="url(#paint8_linear_643_35)"/>
<path d="M11 860L1326 860" stroke="url(#paint9_linear_643_35)"/>
<path d="M11 993L1326 993" stroke="url(#paint10_linear_643_35)"/>
<path d="M11 594L1326 594" stroke="url(#paint11_linear_643_35)"/>
<path d="M11 727L1326 727" stroke="url(#paint12_linear_643_35)"/>
<defs>
<filter id="filter0_d_643_35" x="0" y="457" width="33" height="1706" filterUnits="userSpaceOnUse" color-interpolation-filters="sRGB">
<feFlood flood-opacity="0" result="BackgroundImageFix"/>
<feColorMatrix in="SourceAlpha" type="matrix" values="0 0 0 0 0 0 0 0 0 0 0 0 0 0 0 0 0 0 127 0" result="hardAlpha"/>
<feOffset dx="6"/>
<feGaussianBlur stdDeviation="8"/>
<feComposite in2="hardAlpha" operator="out"/>
<feColorMatrix type="matrix" values="0 0 0 0 0.6 0 0 0 0 0.928 0 0 0 0 1 0 0 0 0.86 0"/>
<feBlend mode="normal" in2="BackgroundImageFix" result="effect1_dropShadow_643_35"/>
<feBlend mode="normal" in="SourceGraphic" in2="effect1_dropShadow_643_35" result="shape"/>
</filter>
<linearGradient id="paint0_linear_643_35" x1="11" y1="1189" x2="1326" y2="1189" gradientUnits="userSpaceOnUse">
<stop stop-color="#5BEBFF" stop-opacity="0.25"/>
<stop offset="1" stop-color="#5BEBFF" stop-opacity="0"/>
</linearGradient>
<linearGradient id="paint1_linear_643_35" x1="11" y1="1523.5" x2="1326" y2="1523.5" gradientUnits="userSpaceOnUse">
<stop stop-color="white" stop-opacity="0.4"/>
<stop offset="1" stop-color="white" stop-opacity="0"/>
</linearGradient>
<linearGradient id="paint2_linear_643_35" x1="11" y1="1921.5" x2="1326" y2="1921.5" gradientUnits="userSpaceOnUse">
<stop stop-color="white" stop-opacity="0.4"/>
<stop offset="1" stop-color="white" stop-opacity="0"/>
</linearGradient>
<linearGradient id="paint3_linear_643_35" x1="11" y1="2054.5" x2="1326" y2="2054.5" gradientUnits="userSpaceOnUse">
<stop stop-color="white" stop-opacity="0.4"/>
<stop offset="1" stop-color="white" stop-opacity="0"/>
</linearGradient>
<linearGradient id="paint4_linear_643_35" x1="11" y1="1391.5" x2="1326" y2="1391.5" gradientUnits="userSpaceOnUse">
<stop stop-color="white" stop-opacity="0.4"/>
<stop offset="1" stop-color="white" stop-opacity="0"/>
</linearGradient>
<linearGradient id="paint5_linear_643_35" x1="11" y1="1789.5" x2="1326" y2="1789.5" gradientUnits="userSpaceOnUse">
<stop stop-color="white" stop-opacity="0.4"/>
<stop offset="1" stop-color="white" stop-opacity="0"/>
</linearGradient>
<linearGradient id="paint6_linear_643_35" x1="11" y1="1258.5" x2="1326" y2="1258.5" gradientUnits="userSpaceOnUse">
<stop stop-color="white" stop-opacity="0.4"/>
<stop offset="1" stop-color="white" stop-opacity="0"/>
</linearGradient>
<linearGradient id="paint7_linear_643_35" x1="11" y1="1656.5" x2="1326" y2="1656.5" gradientUnits="userSpaceOnUse">
<stop stop-color="white" stop-opacity="0.4"/>
<stop offset="1" stop-color="white" stop-opacity="0"/>
</linearGradient>
<linearGradient id="paint8_linear_643_35" x1="11" y1="1125.5" x2="1326" y2="1125.5" gradientUnits="userSpaceOnUse">
<stop stop-color="white" stop-opacity="0.4"/>
<stop offset="1" stop-color="white" stop-opacity="0"/>
</linearGradient>
<linearGradient id="paint9_linear_643_35" x1="11" y1="859.5" x2="1326" y2="859.5" gradientUnits="userSpaceOnUse">
<stop stop-color="white" stop-opacity="0.4"/>
<stop offset="1" stop-color="white" stop-opacity="0"/>
</linearGradient>
<linearGradient id="paint10_linear_643_35" x1="11" y1="992.5" x2="1326" y2="992.5" gradientUnits="userSpaceOnUse">
<stop stop-color="white" stop-opacity="0.4"/>
<stop offset="1" stop-color="white" stop-opacity="0"/>
</linearGradient>
<linearGradient id="paint11_linear_643_35" x1="11" y1="593.5" x2="1326" y2="593.5" gradientUnits="userSpaceOnUse">
<stop stop-color="white" stop-opacity="0.4"/>
<stop offset="1" stop-color="white" stop-opacity="0"/>
</linearGradient>
<linearGradient id="paint12_linear_643_35" x1="11" y1="726.5" x2="1326" y2="726.5" gradientUnits="userSpaceOnUse">
<stop stop-color="white" stop-opacity="0.4"/>
<stop offset="1" stop-color="white" stop-opacity="0"/>
</linearGradient>
</defs>
</svg>
