<svg width="72" height="72" viewBox="0 0 72 72" fill="none" xmlns="http://www.w3.org/2000/svg">
<path d="M0 0H60C66.6274 0 72 5.37258 72 12V72H12C5.37258 72 0 66.6274 0 60V0Z" fill="#181818"/>
<path d="M35.4993 45.4573L28.4706 49.7378C28.1601 49.9376 27.8354 50.0232 27.4967 49.9946C27.158 49.9661 26.8616 49.852 26.6075 49.6522C26.3535 49.4525 26.1559 49.2025 26.0147 48.9023C25.8736 48.6021 25.8454 48.267 25.9301 47.8972L27.7931 39.807L21.5689 34.3707C21.2866 34.1139 21.1104 33.8211 21.0404 33.4924C20.9704 33.1636 20.9913 32.8429 21.1031 32.5301C21.216 32.2162 21.3854 31.9594 21.6112 31.7596C21.837 31.5598 22.1475 31.4314 22.5427 31.3744L30.757 30.6467L33.9326 23.0273C34.0738 22.6849 34.2928 22.4281 34.5898 22.2568C34.8867 22.0856 35.1899 22 35.4993 22C35.8098 22 36.1129 22.0856 36.4088 22.2568C36.7046 22.4281 36.9237 22.6849 37.0659 23.0273L40.2415 30.6467L48.4558 31.3744C48.851 31.4314 49.1615 31.5598 49.3874 31.7596C49.6132 31.9594 49.7825 32.2162 49.8955 32.5301C50.0084 32.844 50.0298 33.1653 49.9598 33.4941C49.8898 33.8228 49.7131 34.115 49.4297 34.3707L43.2055 39.807L45.0685 47.8972C45.1532 48.2682 45.125 48.6038 44.9838 48.904C44.8427 49.2042 44.6451 49.4536 44.391 49.6522C44.137 49.852 43.8406 49.9661 43.5019 49.9946C43.1631 50.0232 42.8385 49.9376 42.528 49.7378L35.4993 45.4573Z" fill="#FFD700"/>
</svg>
