<svg width="1920" height="151" viewBox="0 0 1920 151" fill="none" xmlns="http://www.w3.org/2000/svg">
<rect width="101" height="100" fill="#081E32"/>
<rect x="808" width="101" height="100" fill="#3EA3FB"/>
<rect x="101" width="101" height="100" fill="#0D2E4B"/>
<rect x="909" width="102" height="100" fill="#5BB3FF"/>
<rect x="202" width="101" height="100" fill="#123D62"/>
<rect x="1011" width="101" height="100" fill="#3EA3FB"/>
<rect x="303" width="101" height="100" fill="#184E7C"/>
<rect x="1112" width="101" height="100" fill="#3093E8"/>
<rect x="404" width="101" height="100" fill="#1F5F96"/>
<rect x="1213" width="101" height="100" fill="#3082C8"/>
<rect x="505" width="101" height="100" fill="#2770AE"/>
<rect x="1314" width="101" height="100" fill="#2770AE"/>
<rect x="1617" width="101" height="100" fill="#123D62"/>
<rect x="606" width="101" height="100" fill="#3082C8"/>
<rect x="1415" width="101" height="100" fill="#1F5F96"/>
<rect x="1718" width="101" height="100" fill="#0D2E4B"/>
<rect x="707" width="101" height="100" fill="#3093E8"/>
<rect x="1516" width="101" height="100" fill="#184E7C"/>
<rect x="1819" width="101" height="100" fill="#081E32"/>
<circle cx="960" cy="100" r="51" fill="white"/>
<path d="M960.5 111L944.479 94.5L976.521 94.5L960.5 111Z" fill="#5BB3FF"/>
</svg>
