<svg width="1920" height="191" viewBox="0 0 1920 191" fill="none" xmlns="http://www.w3.org/2000/svg">
<rect width="101" height="100" fill="#081E32"/>
<rect x="808" width="101" height="100" fill="#3EA3FB"/>
<rect x="101" width="101" height="100" fill="#0D2E4B"/>
<rect x="909" width="102" height="100" fill="#5BB3FF"/>
<rect x="202" width="101" height="100" fill="#123D62"/>
<rect x="1011" width="101" height="100" fill="#3EA3FB"/>
<rect x="303" width="101" height="100" fill="#184E7C"/>
<rect x="1112" width="101" height="100" fill="#3093E8"/>
<rect x="404" width="101" height="100" fill="#1F5F96"/>
<rect x="1213" width="101" height="100" fill="#3082C8"/>
<rect x="505" width="101" height="100" fill="#2770AE"/>
<rect x="1314" width="101" height="100" fill="#2770AE"/>
<rect x="1617" width="101" height="100" fill="#123D62"/>
<rect x="606" width="101" height="100" fill="#3082C8"/>
<rect x="1415" width="101" height="100" fill="#1F5F96"/>
<rect x="1718" width="101" height="100" fill="#0D2E4B"/>
<rect x="707" width="101" height="100" fill="#3093E8"/>
<rect x="1516" width="101" height="100" fill="#184E7C"/>
<rect x="1819" width="101" height="100" fill="#081E32"/>
<g filter="url(#filter0_d_520_11)">
<circle cx="960" cy="100" r="51" fill="#2770AE"/>
</g>
<path d="M960.5 111L944.479 94.5L976.521 94.5L960.5 111Z" fill="white"/>
<defs>
<filter id="filter0_d_520_11" x="869" y="9" width="182" height="182" filterUnits="userSpaceOnUse" color-interpolation-filters="sRGB">
<feFlood flood-opacity="0" result="BackgroundImageFix"/>
<feColorMatrix in="SourceAlpha" type="matrix" values="0 0 0 0 0 0 0 0 0 0 0 0 0 0 0 0 0 0 127 0" result="hardAlpha"/>
<feOffset/>
<feGaussianBlur stdDeviation="20"/>
<feComposite in2="hardAlpha" operator="out"/>
<feColorMatrix type="matrix" values="0 0 0 0 0.358333 0 0 0 0 0.702757 0 0 0 0 1 0 0 0 0.3 0"/>
<feBlend mode="normal" in2="BackgroundImageFix" result="effect1_dropShadow_520_11"/>
<feBlend mode="normal" in="SourceGraphic" in2="effect1_dropShadow_520_11" result="shape"/>
</filter>
</defs>
</svg>
