<svg width="232" height="232" viewBox="0 0 232 232" fill="none" xmlns="http://www.w3.org/2000/svg">
<rect width="232" height="232" rx="36" fill="white" fill-opacity="0.1"/>
<path fill-rule="evenodd" clip-rule="evenodd" d="M115.99 80.3716C111.401 80.3591 106.837 81.0636 102.462 82.4598C100.535 83.075 98.477 82.0006 97.866 80.0602C97.255 78.1198 98.3222 76.0482 100.25 75.4331C105.345 73.8069 110.66 72.9862 116.005 73.0002C138.038 73.0022 152.878 86.2926 161.491 97.5541L161.66 97.7754C163.602 100.319 165.392 102.662 166.606 105.429C167.91 108.399 168.475 111.635 168.475 116C168.475 120.367 167.91 123.604 166.606 126.574C165.391 129.343 163.6 131.686 161.656 134.23L161.492 134.445C152.878 145.707 138.036 159 116 159C93.9641 159 79.1228 145.708 70.5094 134.446C70.4594 134.381 70.4096 134.316 70.3599 134.251C68.4087 131.7 66.6121 129.352 65.3934 126.574C64.09 123.603 63.5254 120.365 63.5254 116C63.5254 111.633 64.0899 108.396 65.3937 105.426C66.6091 102.657 68.4 100.314 70.3442 97.7702C70.3979 97.6999 70.4517 97.6295 70.5056 97.5589C73.1664 94.0593 76.1294 90.8034 79.3598 87.8292C80.8519 86.4555 83.1676 86.5596 84.5321 88.0617C85.8966 89.5638 85.7932 91.8952 84.3012 93.2689C81.3882 95.9508 78.7165 98.8869 76.3174 102.043L76.3119 102.05C74.1701 104.853 72.916 106.526 72.091 108.405C71.3202 110.161 70.8474 112.308 70.8474 116C70.8474 119.69 71.3201 121.838 72.0913 123.596C72.9162 125.476 74.1705 127.15 76.311 129.949C84.2648 140.349 97.2081 151.629 116 151.629C134.792 151.629 147.735 140.349 155.689 129.949C157.83 127.147 159.084 125.474 159.909 123.595C160.68 121.839 161.153 119.693 161.153 116C161.153 112.31 160.68 110.165 159.909 108.409C159.084 106.529 157.83 104.856 155.689 102.051C147.735 91.6514 134.792 80.3716 116 80.3716L115.99 80.3716Z" fill="#E3FAFF"/>
<path fill-rule="evenodd" clip-rule="evenodd" d="M116 105.068C113.101 105.068 110.32 106.22 108.27 108.27C106.22 110.32 105.068 113.101 105.068 116C105.068 118.9 106.22 121.68 108.27 123.73C110.32 125.781 113.101 126.932 116 126.932C118.9 126.932 121.68 125.781 123.73 123.73C125.781 121.68 126.932 118.9 126.932 116C126.932 113.101 125.781 110.32 123.73 108.27C121.68 106.22 118.9 105.068 116 105.068ZM103.116 103.116C106.533 99.6994 111.168 97.7798 116 97.7798C120.832 97.7798 125.467 99.6994 128.884 103.116C132.301 106.533 134.22 111.168 134.22 116C134.22 120.832 132.301 125.467 128.884 128.884C125.467 132.301 120.832 134.22 116 134.22C111.168 134.22 106.533 132.301 103.116 128.884C99.6994 125.467 97.7798 120.832 97.7798 116C97.7798 111.168 99.6994 106.533 103.116 103.116Z" fill="white"/>
</svg>
