<svg width="238" height="146" viewBox="0 0 238 146" fill="none" xmlns="http://www.w3.org/2000/svg">
<path d="M15.6733 7.86905C15.4647 7.2142 15.184 6.62771 14.8314 6.10958C14.486 5.58426 14.0722 5.13809 13.59 4.77109C13.1079 4.39688 12.5574 4.11263 11.9385 3.91834C11.3268 3.72404 10.654 3.62689 9.91998 3.62689C8.67503 3.62689 7.55242 3.94712 6.55215 4.58758C5.55188 5.22805 4.76029 6.16715 4.1774 7.4049C3.6017 8.63545 3.31385 10.1431 3.31385 11.9277C3.31385 13.7196 3.6053 15.2344 4.18819 16.4721C4.77109 17.7099 5.56987 18.649 6.58453 19.2894C7.5992 19.9299 8.75419 20.2501 10.0495 20.2501C11.2513 20.2501 12.2983 20.0055 13.1907 19.5161C14.0902 19.0268 14.7846 18.3359 15.274 17.4436C15.7705 16.5441 16.0188 15.4862 16.0188 14.2701L16.8823 14.432H10.5568V11.6794H19.2463V14.1945C19.2463 16.0511 18.8505 17.6631 18.0589 19.0304C17.2745 20.3905 16.1879 21.4411 14.799 22.1823C13.4173 22.9235 11.8342 23.2941 10.0495 23.2941C8.04896 23.2941 6.29309 22.8336 4.78188 21.9125C3.27787 20.9913 2.10489 19.6852 1.26293 17.9941C0.420978 16.2958 0 14.2809 0 11.9493C0 10.1862 0.244671 8.60307 0.734013 7.19981C1.22336 5.79655 1.91059 4.60557 2.79573 3.62689C3.68806 2.64101 4.73511 1.88901 5.93687 1.37088C7.14584 0.845554 8.46634 0.582892 9.89839 0.582892C11.093 0.582892 12.2048 0.759199 13.2338 1.11181C14.2701 1.46443 15.1912 1.96456 15.9972 2.61222C16.8103 3.25988 17.4832 4.02988 18.0157 4.92221C18.5482 5.80734 18.908 6.78962 19.0951 7.86905H15.6733Z" fill="black"/>
<path d="M30.3671 23.3265C28.7336 23.3265 27.3267 22.9775 26.1465 22.2795C24.9735 21.5742 24.0668 20.5848 23.4264 19.311C22.7931 18.0301 22.4765 16.5297 22.4765 14.8098C22.4765 13.1115 22.7931 11.6147 23.4264 10.3194C24.0668 9.02405 24.9592 8.01298 26.1034 7.28616C27.2547 6.55935 28.6004 6.19594 30.1404 6.19594C31.0759 6.19594 31.9827 6.35066 32.8606 6.66009C33.7385 6.96953 34.5265 7.45527 35.2245 8.11732C35.9226 8.77938 36.4731 9.63932 36.8761 10.6972C37.2791 11.7478 37.4806 13.0251 37.4806 14.5291V15.6733H24.3007V13.2554H34.3178C34.3178 12.4063 34.1451 11.6543 33.7997 10.9994C33.4543 10.3374 32.9685 9.81563 32.3425 9.43423C31.7236 9.05283 30.9968 8.86213 30.162 8.86213C29.2553 8.86213 28.4637 9.08521 27.7873 9.53138C27.118 9.97035 26.5999 10.546 26.2329 11.2585C25.8731 11.9637 25.6932 12.7301 25.6932 13.5577V15.4467C25.6932 16.5549 25.8875 17.4976 26.2761 18.2748C26.6719 19.052 27.2224 19.6457 27.9276 20.0558C28.6328 20.4588 29.4568 20.6603 30.3995 20.6603C31.0112 20.6603 31.5689 20.574 32.0726 20.4013C32.5763 20.2213 33.0117 19.9551 33.3787 19.6025C33.7457 19.2499 34.0264 18.8145 34.2207 18.2964L37.2755 18.8469C37.0308 19.7464 36.5918 20.5344 35.9586 21.2108C35.3325 21.8801 34.5445 22.4018 33.5946 22.776C32.6519 23.143 31.5761 23.3265 30.3671 23.3265Z" fill="black"/>
<path d="M48.8011 6.41182V9.00246H39.7447V6.41182H48.8011ZM42.1734 2.43952H45.4009V18.1237C45.4009 18.7497 45.4944 19.2211 45.6815 19.5377C45.8686 19.8471 46.1097 20.0594 46.4048 20.1746C46.707 20.2825 47.0344 20.3365 47.387 20.3365C47.6461 20.3365 47.8728 20.3185 48.0671 20.2825C48.2614 20.2465 48.4125 20.2177 48.5204 20.1962L49.1033 22.8624C48.9162 22.9343 48.65 23.0063 48.3046 23.0782C47.9591 23.1574 47.5274 23.2006 47.0092 23.2078C46.1601 23.2222 45.3685 23.071 44.6345 22.7544C43.9005 22.4378 43.3068 21.9484 42.8534 21.2864C42.4001 20.6243 42.1734 19.7932 42.1734 18.7929V2.43952Z" fill="black"/>
<path d="M60.4158 22.9919V6.41182H63.6433V22.9919H60.4158ZM62.0457 3.85357C61.4844 3.85357 61.0023 3.66647 60.5993 3.29226C60.2035 2.91087 60.0056 2.4575 60.0056 1.93218C60.0056 1.39966 60.2035 0.946301 60.5993 0.572098C61.0023 0.190699 61.4844 0 62.0457 0C62.607 0 63.0856 0.190699 63.4814 0.572098C63.8844 0.946301 64.0858 1.39966 64.0858 1.93218C64.0858 2.4575 63.8844 2.91087 63.4814 3.29226C63.0856 3.66647 62.607 3.85357 62.0457 3.85357Z" fill="black"/>
<path d="M71.2128 13.1475V22.9919H67.9853V6.41182H71.0833V9.1104H71.2884C71.6698 8.23246 72.267 7.52724 73.0802 6.99472C73.9006 6.4622 74.9332 6.19594 76.1782 6.19594C77.308 6.19594 78.2975 6.43341 79.1466 6.90836C79.9958 7.37612 80.6542 8.07415 81.122 9.00246C81.5897 9.93077 81.8236 11.0786 81.8236 12.4458V22.9919H78.5961V12.8344C78.5961 11.6327 78.2831 10.6936 77.657 10.0171C77.0309 9.33348 76.171 8.99166 75.0772 8.99166C74.3288 8.99166 73.6631 9.15358 73.0802 9.47741C72.5045 9.80124 72.0476 10.2762 71.7093 10.9023C71.3783 11.5211 71.2128 12.2695 71.2128 13.1475Z" fill="black"/>
<path d="M136.198 143.453L130.066 121.346H133.575L137.881 138.466H138.087L142.566 121.346H146.042L150.522 138.477H150.727L155.023 121.346H158.542L152.4 143.453H149.043L144.39 126.895H144.218L139.565 143.453H136.198Z" fill="black"/>
<path d="M161.324 143.453V126.873H164.552V143.453H161.324ZM162.954 124.315C162.393 124.315 161.911 124.128 161.508 123.754C161.112 123.372 160.914 122.919 160.914 122.394C160.914 121.861 161.112 121.408 161.508 121.033C161.911 120.652 162.393 120.461 162.954 120.461C163.515 120.461 163.994 120.652 164.39 121.033C164.793 121.408 164.994 121.861 164.994 122.394C164.994 122.919 164.793 123.372 164.39 123.754C163.994 124.128 163.515 124.315 162.954 124.315Z" fill="black"/>
<path d="M176.633 126.873V129.464H167.577V126.873H176.633ZM170.005 122.901H173.233V138.585C173.233 139.211 173.326 139.682 173.514 139.999C173.701 140.309 173.942 140.521 174.237 140.636C174.539 140.744 174.866 140.798 175.219 140.798C175.478 140.798 175.705 140.78 175.899 140.744C176.093 140.708 176.244 140.679 176.352 140.658L176.935 143.324C176.748 143.396 176.482 143.468 176.137 143.54C175.791 143.619 175.359 143.662 174.841 143.669C173.992 143.684 173.2 143.532 172.466 143.216C171.732 142.899 171.139 142.41 170.685 141.748C170.232 141.086 170.005 140.255 170.005 139.254V122.901Z" fill="black"/>
<path d="M183.787 133.609V143.453H180.56V121.346H183.744V129.572H183.949C184.338 128.679 184.931 127.971 185.73 127.445C186.529 126.92 187.572 126.657 188.86 126.657C189.997 126.657 190.99 126.891 191.84 127.359C192.696 127.827 193.358 128.525 193.826 129.453C194.301 130.374 194.538 131.526 194.538 132.907V143.453H191.311V133.296C191.311 132.08 190.998 131.137 190.372 130.468C189.745 129.791 188.875 129.453 187.759 129.453C186.997 129.453 186.313 129.615 185.708 129.939C185.111 130.263 184.64 130.738 184.294 131.364C183.956 131.982 183.787 132.731 183.787 133.609Z" fill="black"/>
<path d="M217.392 136.577V126.873H220.631V143.453H217.457V140.582H217.284C216.903 141.467 216.291 142.205 215.449 142.795C214.615 143.378 213.575 143.669 212.33 143.669C211.265 143.669 210.322 143.435 209.502 142.968C208.689 142.493 208.048 141.791 207.58 140.863C207.12 139.934 206.89 138.787 206.89 137.419V126.873H210.117V137.031C210.117 138.16 210.43 139.06 211.056 139.729C211.682 140.398 212.495 140.733 213.496 140.733C214.1 140.733 214.701 140.582 215.298 140.28C215.903 139.977 216.403 139.521 216.799 138.909C217.202 138.297 217.4 137.52 217.392 136.577Z" fill="black"/>
<path d="M237.392 130.921L234.466 131.439C234.344 131.065 234.15 130.709 233.883 130.371C233.624 130.032 233.272 129.755 232.826 129.539C232.379 129.323 231.822 129.216 231.152 129.216C230.239 129.216 229.476 129.421 228.864 129.831C228.252 130.234 227.947 130.756 227.947 131.396C227.947 131.95 228.152 132.396 228.562 132.734C228.972 133.073 229.634 133.35 230.548 133.566L233.182 134.17C234.707 134.523 235.844 135.066 236.593 135.8C237.341 136.534 237.715 137.488 237.715 138.661C237.715 139.654 237.428 140.539 236.852 141.316C236.283 142.086 235.488 142.69 234.466 143.129C233.452 143.568 232.275 143.788 230.937 143.788C229.08 143.788 227.565 143.392 226.392 142.601C225.219 141.802 224.5 140.668 224.233 139.2L227.353 138.725C227.547 139.539 227.947 140.154 228.551 140.571C229.156 140.981 229.944 141.186 230.915 141.186C231.973 141.186 232.818 140.967 233.452 140.528C234.085 140.082 234.402 139.539 234.402 138.898C234.402 138.38 234.207 137.945 233.819 137.592C233.437 137.239 232.851 136.973 232.059 136.793L229.253 136.178C227.705 135.825 226.561 135.264 225.82 134.494C225.086 133.724 224.719 132.749 224.719 131.569C224.719 130.59 224.993 129.734 225.539 129C226.086 128.266 226.842 127.694 227.806 127.283C228.771 126.866 229.875 126.657 231.12 126.657C232.912 126.657 234.322 127.046 235.351 127.823C236.381 128.593 237.061 129.626 237.392 130.921Z" fill="black"/>
<path d="M1.08203 51.6608V41.67H48.1532V51.6608H30.6065V98.9839H18.6288V51.6608H1.08203Z" fill="url(#paint0_linear_418_343)"/>
<path d="M68.8693 99.8234C64.5223 99.8234 60.7629 98.8999 57.5913 97.0529C54.4383 95.1872 52.0035 92.5939 50.2871 89.273C48.5707 85.9334 47.7125 82.0621 47.7125 77.6591C47.7125 73.2188 48.5707 69.3381 50.2871 66.0172C52.0035 62.6776 54.4383 60.0843 57.5913 58.2373C60.7629 56.3716 64.5223 55.4388 68.8693 55.4388C73.2164 55.4388 76.9664 56.3716 80.1194 58.2373C83.2911 60.0843 85.7351 62.6776 87.4515 66.0172C89.168 69.3381 90.0262 73.2188 90.0262 77.6591C90.0262 82.0621 89.168 85.9334 87.4515 89.273C85.7351 92.5939 83.2911 95.1872 80.1194 97.0529C76.9664 98.8999 73.2164 99.8234 68.8693 99.8234ZM68.9253 90.5883C70.9029 90.5883 72.5541 90.0286 73.8787 88.9092C75.2033 87.7711 76.2015 86.2226 76.8731 84.2636C77.5634 82.3046 77.9086 80.0751 77.9086 77.5751C77.9086 75.0751 77.5634 72.8456 76.8731 70.8867C76.2015 68.9277 75.2033 67.3792 73.8787 66.2411C72.5541 65.103 70.9029 64.534 68.9253 64.534C66.929 64.534 65.2499 65.103 63.888 66.2411C62.5447 67.3792 61.5279 68.9277 60.8376 70.8867C60.1659 72.8456 59.8301 75.0751 59.8301 77.5751C59.8301 80.0751 60.1659 82.3046 60.8376 84.2636C61.5279 86.2226 62.5447 87.7711 63.888 88.9092C65.2499 90.0286 66.929 90.5883 68.9253 90.5883Z" fill="url(#paint1_linear_418_343)"/>
<path d="M125.344 80.6815V55.9985H137.265V98.9839H125.819V91.176H125.372C124.401 93.6946 122.788 95.7189 120.53 97.2488C118.291 98.7786 115.558 99.5436 112.33 99.5436C109.457 99.5436 106.929 98.8906 104.746 97.5846C102.564 96.2786 100.856 94.4223 99.6251 92.0155C98.4124 89.6088 97.7968 86.7263 97.7781 83.3681V55.9985H109.7V81.2412C109.718 83.7785 110.399 85.7841 111.743 87.258C113.086 88.7319 114.886 89.4689 117.144 89.4689C118.58 89.4689 119.924 89.1424 121.174 88.4894C122.424 87.8177 123.431 86.8289 124.196 85.5229C124.98 84.217 125.362 82.6032 125.344 80.6815Z" fill="url(#paint2_linear_418_343)"/>
<path d="M166.223 99.8234C161.82 99.8234 158.033 98.8906 154.861 97.0249C151.708 95.1406 149.283 92.5286 147.585 89.189C145.906 85.8494 145.066 82.0061 145.066 77.6591C145.066 73.2561 145.915 69.3941 147.613 66.0732C149.329 62.7336 151.764 60.131 154.917 58.2653C158.07 56.381 161.82 55.4388 166.167 55.4388C169.917 55.4388 173.201 56.1198 176.018 57.4817C178.835 58.8437 181.065 60.756 182.706 63.2187C184.348 65.6814 185.253 68.5732 185.421 71.8941H174.171C173.854 69.7486 173.014 68.0228 171.652 66.7169C170.309 65.3922 168.546 64.7299 166.363 64.7299C164.516 64.7299 162.902 65.2336 161.522 66.2411C160.16 67.2299 159.096 68.6758 158.331 70.5788C157.566 72.4818 157.184 74.7859 157.184 77.4912C157.184 80.2337 157.557 82.5658 158.303 84.4875C159.068 86.4091 160.141 87.8737 161.522 88.8812C162.902 89.8886 164.516 90.3924 166.363 90.3924C167.725 90.3924 168.947 90.1125 170.029 89.5528C171.13 88.9931 172.035 88.1815 172.744 87.1181C173.471 86.036 173.947 84.7394 174.171 83.2282H185.421C185.234 86.5118 184.339 89.4036 182.734 91.9036C181.148 94.3849 178.956 96.3253 176.158 97.7245C173.359 99.1238 170.048 99.8234 166.223 99.8234Z" fill="url(#paint3_linear_418_343)"/>
<path d="M204.976 74.1329V98.9839H193.054V41.67H204.64V63.5825H205.144C206.114 61.0452 207.681 59.0582 209.845 57.6216C212.009 56.1664 214.724 55.4388 217.989 55.4388C220.974 55.4388 223.576 56.0918 225.797 57.3978C228.035 58.6851 229.771 60.5414 231.002 62.9668C232.252 65.3736 232.868 68.256 232.849 71.6143V98.9839H220.927V73.7412C220.946 71.0919 220.274 69.0303 218.912 67.5564C217.569 66.0825 215.685 65.3456 213.259 65.3456C211.636 65.3456 210.2 65.6907 208.95 66.381C207.718 67.0713 206.748 68.0788 206.039 69.4034C205.349 70.7094 204.994 72.2859 204.976 74.1329Z" fill="url(#paint4_linear_418_343)"/>
<path fill-rule="evenodd" clip-rule="evenodd" d="M73.8408 137.294L74.4183 136.72C75.2162 135.927 76.4587 135.764 77.4795 136.319L79.8986 137.635C81.4526 138.479 81.7959 140.55 80.5813 141.757L78.7828 143.545C78.3243 144.001 77.7569 144.333 77.1034 144.394C75.5937 144.535 72.4869 144.459 68.8215 142.313L73.8408 137.294ZM66.3556 129.852L66.7191 129.489C67.6145 128.6 67.6994 127.172 66.9179 126.128L65.3221 123.996C64.3544 122.705 62.4863 122.534 61.3781 123.636L59.3896 125.611C58.8412 126.158 58.4739 126.865 58.5183 127.65C58.6006 129.094 59.092 131.729 61.24 134.966L66.3556 129.852Z" fill="#2770AE"/>
<path opacity="0.6" d="M68.728 134.936C64.9968 131.226 66.3469 129.859 66.3558 129.85L61.2402 134.967C62.085 136.239 63.1844 137.603 64.6143 139.025C66.0581 140.461 67.4766 141.527 68.8217 142.313L73.841 137.295C73.841 137.295 72.4706 138.658 68.728 134.937V134.936Z" fill="#2770AE"/>
<path d="M120.949 124.408C120.949 123.165 119.941 122.157 118.698 122.157H94.5866C93.343 122.157 92.335 123.165 92.335 124.408V142.796C92.335 144.04 93.343 145.048 94.5866 145.048H118.698C119.941 145.048 120.949 144.04 120.949 142.796V124.408ZM118.088 127.207C118.088 127.625 117.872 128.014 117.518 128.236L107.835 134.287C107.105 134.744 106.179 134.744 105.449 134.287L95.7666 128.236C95.4119 128.014 95.1964 127.625 95.1964 127.207C95.1964 126.254 96.2446 125.673 97.0526 126.178L105.449 131.426C106.179 131.882 107.105 131.882 107.835 131.426L116.232 126.178C117.04 125.673 118.088 126.254 118.088 127.207Z" fill="#2770AE"/>
<defs>
<linearGradient id="paint0_linear_418_343" x1="-1.71649" y1="109.679" x2="237.517" y2="109.679" gradientUnits="userSpaceOnUse">
<stop stop-color="#2770AE"/>
<stop offset="1" stop-color="#101D28"/>
</linearGradient>
<linearGradient id="paint1_linear_418_343" x1="-1.71649" y1="109.679" x2="237.517" y2="109.679" gradientUnits="userSpaceOnUse">
<stop stop-color="#2770AE"/>
<stop offset="1" stop-color="#101D28"/>
</linearGradient>
<linearGradient id="paint2_linear_418_343" x1="-1.71649" y1="109.679" x2="237.517" y2="109.679" gradientUnits="userSpaceOnUse">
<stop stop-color="#2770AE"/>
<stop offset="1" stop-color="#101D28"/>
</linearGradient>
<linearGradient id="paint3_linear_418_343" x1="-1.71649" y1="109.679" x2="237.517" y2="109.679" gradientUnits="userSpaceOnUse">
<stop stop-color="#2770AE"/>
<stop offset="1" stop-color="#101D28"/>
</linearGradient>
<linearGradient id="paint4_linear_418_343" x1="-1.71649" y1="109.679" x2="237.517" y2="109.679" gradientUnits="userSpaceOnUse">
<stop stop-color="#2770AE"/>
<stop offset="1" stop-color="#101D28"/>
</linearGradient>
</defs>
</svg>
