<svg width="130" height="258" viewBox="0 0 130 258" fill="none" xmlns="http://www.w3.org/2000/svg">
<path d="M130 129C130 200.245 72.2447 258 0.999997 258C-70.2447 258 -128 200.245 -128 129C-128 57.7553 -70.2447 0 0.999997 0C72.2447 0 130 57.7553 130 129Z" fill="#2770AE" fill-opacity="0.15"/>
<path d="M90.5101 129C90.5101 178.435 50.4351 218.51 0.999948 218.51C-48.4352 218.51 -88.5103 178.435 -88.5103 129C-88.5103 79.5648 -48.4352 39.4897 0.999948 39.4897C50.4351 39.4897 90.5101 79.5648 90.5101 129Z" fill="#0D2E4B"/>
<path d="M23.3452 109.771H0.125216L-18.0717 130.526L0.125216 151.187H23.3452L5.14832 130.526L23.3452 109.771Z" fill="white"/>
</svg>
