<svg width="38" height="38" viewBox="0 0 38 38" fill="none" xmlns="http://www.w3.org/2000/svg">
<rect width="38" height="38" fill="#C4C4C4" fill-opacity="0.1"/>
<path fill-rule="evenodd" clip-rule="evenodd" d="M16.429 15.969H20.143V17.819C20.678 16.755 22.05 15.799 24.111 15.799C28.062 15.799 29 17.917 29 21.803V29H25V22.688C25 20.475 24.465 19.227 23.103 19.227C21.214 19.227 20.429 20.572 20.429 22.687V29H16.429V15.969ZM9.57 28.83H13.57V15.799H9.57V28.83ZM14.143 11.55C14.1431 11.8853 14.0767 12.2172 13.9474 12.5266C13.8181 12.8359 13.6287 13.1165 13.39 13.352C12.9064 13.8326 12.2518 14.1017 11.57 14.1C10.8894 14.0995 10.2363 13.8312 9.752 13.353C9.51421 13.1167 9.32539 12.8358 9.19634 12.5264C9.0673 12.217 9.00058 11.8852 9 11.55C9 10.873 9.27 10.225 9.753 9.747C10.2369 9.26816 10.8902 8.9997 11.571 9C12.253 9 12.907 9.269 13.39 9.747C13.872 10.225 14.143 10.873 14.143 11.55Z" fill="white"/>
</svg>
