<svg width="1880" height="535" viewBox="0 0 1880 535" fill="none" xmlns="http://www.w3.org/2000/svg">
<g clip-path="url(#clip0_213_2)">
<path d="M1752.5 68C1752.5 83.7804 1758.77 98.9144 1769.93 110.073C1781.09 121.231 1796.22 127.5 1812 127.5C1827.78 127.5 1842.91 121.231 1854.07 110.073C1865.23 98.9144 1871.5 83.7804 1871.5 68C1871.5 52.2196 1865.23 37.0856 1854.07 25.9271C1842.91 14.7687 1827.78 8.5 1812 8.5C1796.22 8.5 1781.09 14.7687 1769.93 25.9271C1758.77 37.0856 1752.5 52.2196 1752.5 68ZM1880 68C1880 86.0347 1872.84 103.331 1860.08 116.083C1847.33 128.836 1830.03 136 1812 136C1793.97 136 1776.67 128.836 1763.92 116.083C1751.16 103.331 1744 86.0347 1744 68C1744 49.9653 1751.16 32.6692 1763.92 19.9167C1776.67 7.16427 1793.97 0 1812 0C1830.03 0 1847.33 7.16427 1860.08 19.9167C1872.84 32.6692 1880 49.9653 1880 68ZM1790.75 34.017H1817.18C1831.72 34.017 1840.48 42.2875 1840.48 54.927C1840.48 64.6 1834.81 71.417 1827.78 73.967L1841.75 102H1828.83L1816.42 75.854H1802.11V102H1790.75V34.017ZM1802.1 43.282V66.8865H1815.26C1823.72 66.8865 1828.63 62.951 1828.63 55.3265C1828.63 47.566 1823.57 43.282 1815.57 43.282H1802.1Z" fill="#ffffff"/>
</g>
<path d="M67.3201 349.72H177.72V403H0.120117V67.96H67.3201V349.72Z" fill="#ffffff"/>
<path d="M338.513 407.32C312.913 407.32 289.873 401.72 269.393 390.52C248.913 379 232.753 362.84 220.913 342.04C209.393 321.24 203.633 297.24 203.633 270.04C203.633 242.84 209.553 218.84 221.393 198.04C233.553 177.24 250.033 161.24 270.833 150.04C291.633 138.52 314.833 132.76 340.433 132.76C366.033 132.76 389.233 138.52 410.033 150.04C430.833 161.24 447.153 177.24 458.993 198.04C471.153 218.84 477.233 242.84 477.233 270.04C477.233 297.24 470.993 321.24 458.513 342.04C446.353 362.84 429.713 379 408.593 390.52C387.793 401.72 364.433 407.32 338.513 407.32ZM338.513 348.76C350.673 348.76 362.033 345.88 372.593 340.12C383.473 334.04 392.113 325.08 398.513 313.24C404.913 301.4 408.113 287 408.113 270.04C408.113 244.76 401.393 225.4 387.953 211.96C374.833 198.2 358.673 191.32 339.473 191.32C320.273 191.32 304.113 198.2 290.993 211.96C278.193 225.4 271.793 244.76 271.793 270.04C271.793 295.32 278.033 314.84 290.513 328.6C303.313 342.04 319.313 348.76 338.513 348.76Z" fill="#ffffff"/>
<path d="M630.686 132.76C650.526 132.76 667.966 136.76 683.006 144.76C698.046 152.44 709.886 162.52 718.526 175V137.08H786.206V404.92C786.206 429.56 781.246 451.48 771.326 470.68C761.406 490.2 746.526 505.56 726.686 516.76C706.846 528.28 682.846 534.04 654.686 534.04C616.926 534.04 585.886 525.24 561.566 507.64C537.566 490.04 523.966 466.04 520.766 435.64H587.486C591.006 447.8 598.526 457.4 610.046 464.44C621.886 471.8 636.126 475.48 652.766 475.48C672.286 475.48 688.126 469.56 700.286 457.72C712.446 446.2 718.526 428.6 718.526 404.92V363.64C709.886 376.12 697.886 386.52 682.526 394.84C667.486 403.16 650.206 407.32 630.686 407.32C608.286 407.32 587.806 401.56 569.246 390.04C550.686 378.52 535.966 362.36 525.086 341.56C514.526 320.44 509.246 296.28 509.246 269.08C509.246 242.2 514.526 218.36 525.086 197.56C535.966 176.76 550.526 160.76 568.766 149.56C587.326 138.36 607.966 132.76 630.686 132.76ZM718.526 270.04C718.526 253.72 715.326 239.8 708.926 228.28C702.526 216.44 693.886 207.48 683.006 201.4C672.126 195 660.446 191.8 647.966 191.8C635.486 191.8 623.966 194.84 613.406 200.92C602.846 207 594.206 215.96 587.486 227.8C581.086 239.32 577.886 253.08 577.886 269.08C577.886 285.08 581.086 299.16 587.486 311.32C594.206 323.16 602.846 332.28 613.406 338.68C624.286 345.08 635.806 348.28 647.966 348.28C660.446 348.28 672.126 345.24 683.006 339.16C693.886 332.76 702.526 323.8 708.926 312.28C715.326 300.44 718.526 286.36 718.526 270.04Z" fill="#ffffff"/>
<path d="M1106.24 137.08L941.599 528.76H870.079L927.679 396.28L821.119 137.08H896.479L965.119 322.84L1034.72 137.08H1106.24Z" fill="#ffffff"/>
<path d="M1172.22 406.36C1160.06 406.36 1149.98 402.68 1141.98 395.32C1134.3 387.64 1130.46 378.2 1130.46 367C1130.46 355.8 1134.3 346.52 1141.98 339.16C1149.98 331.48 1160.06 327.64 1172.22 327.64C1184.06 327.64 1193.82 331.48 1201.5 339.16C1209.18 346.52 1213.02 355.8 1213.02 367C1213.02 378.2 1209.18 387.64 1201.5 395.32C1193.82 402.68 1184.06 406.36 1172.22 406.36Z" fill="#ffffff"/>
<path d="M1472.59 339.16H1339.15L1317.07 403H1246.51L1366.99 67.48H1445.23L1565.71 403H1494.67L1472.59 339.16ZM1454.35 285.4L1405.87 145.24L1357.39 285.4H1454.35Z" fill="#ffffff"/>
<path d="M1677.95 67.96V403H1610.75V67.96H1677.95Z" fill="#ffffff"/>
<defs>
<clipPath id="clip0_213_2">
<rect width="136" height="136" fill="white" transform="translate(1744)"/>
</clipPath>
</defs>
</svg>
