<svg width="351" height="316" viewBox="0 0 351 316" fill="none" xmlns="http://www.w3.org/2000/svg">
<path d="M1 201V262C1 275.807 12.1929 287 26 287H49" stroke="white" stroke-width="2"/>
<path d="M350 87V26C350 12.1929 338.807 0.999999 325 0.999999H302" stroke="white" stroke-width="2"/>
<rect x="1" y="1" width="349" height="286" rx="24" fill="#1F2324"/>
<rect x="49" y="235" width="253" height="81" rx="28" fill="#4F4F4F"/>
<path d="M145.544 271.58H141.294C141.173 270.883 140.949 270.265 140.624 269.727C140.298 269.182 139.893 268.72 139.408 268.341C138.923 267.962 138.37 267.678 137.749 267.489C137.135 267.292 136.472 267.193 135.76 267.193C134.495 267.193 133.374 267.511 132.396 268.148C131.419 268.777 130.654 269.701 130.101 270.92C129.548 272.133 129.271 273.614 129.271 275.364C129.271 277.144 129.548 278.644 130.101 279.864C130.661 281.076 131.427 281.992 132.396 282.614C133.374 283.227 134.491 283.534 135.749 283.534C136.446 283.534 137.097 283.443 137.703 283.261C138.317 283.072 138.866 282.795 139.351 282.432C139.843 282.068 140.256 281.621 140.589 281.091C140.93 280.561 141.165 279.955 141.294 279.273L145.544 279.295C145.385 280.402 145.04 281.439 144.51 282.409C143.987 283.379 143.302 284.235 142.453 284.977C141.605 285.712 140.612 286.288 139.476 286.705C138.339 287.114 137.078 287.318 135.692 287.318C133.646 287.318 131.821 286.845 130.214 285.898C128.608 284.951 127.343 283.583 126.419 281.795C125.495 280.008 125.033 277.864 125.033 275.364C125.033 272.856 125.499 270.712 126.43 268.932C127.362 267.144 128.631 265.777 130.237 264.83C131.843 263.883 133.661 263.409 135.692 263.409C136.987 263.409 138.192 263.591 139.305 263.955C140.419 264.318 141.411 264.852 142.283 265.557C143.154 266.254 143.87 267.11 144.43 268.125C144.999 269.133 145.37 270.284 145.544 271.58ZM153.337 263.727V287H149.223V263.727H153.337ZM157.567 287V269.545H161.68V287H157.567ZM159.635 267.068C158.983 267.068 158.423 266.852 157.953 266.42C157.483 265.981 157.249 265.455 157.249 264.841C157.249 264.22 157.483 263.693 157.953 263.261C158.423 262.822 158.983 262.602 159.635 262.602C160.294 262.602 160.855 262.822 161.317 263.261C161.786 263.693 162.021 264.22 162.021 264.841C162.021 265.455 161.786 265.981 161.317 266.42C160.855 266.852 160.294 267.068 159.635 267.068ZM170.024 276.773V287H165.911V269.545H169.842V272.511H170.047C170.448 271.534 171.089 270.758 171.967 270.182C172.854 269.606 173.948 269.318 175.251 269.318C176.456 269.318 177.505 269.576 178.399 270.091C179.301 270.606 179.998 271.352 180.49 272.33C180.99 273.307 181.236 274.492 181.229 275.886V287H177.115V276.523C177.115 275.356 176.812 274.443 176.206 273.784C175.607 273.125 174.778 272.795 173.717 272.795C172.998 272.795 172.357 272.955 171.797 273.273C171.244 273.583 170.808 274.034 170.49 274.625C170.179 275.216 170.024 275.932 170.024 276.773ZM185.411 287V269.545H189.524V287H185.411ZM187.479 267.068C186.827 267.068 186.267 266.852 185.797 266.42C185.327 265.981 185.092 265.455 185.092 264.841C185.092 264.22 185.327 263.693 185.797 263.261C186.267 262.822 186.827 262.602 187.479 262.602C188.138 262.602 188.698 262.822 189.161 263.261C189.63 263.693 189.865 264.22 189.865 264.841C189.865 265.455 189.63 265.981 189.161 266.42C188.698 266.852 188.138 267.068 187.479 267.068ZM201.368 287.341C199.625 287.341 198.129 286.958 196.879 286.193C195.637 285.428 194.679 284.371 194.004 283.023C193.338 281.667 193.004 280.106 193.004 278.341C193.004 276.568 193.345 275.004 194.027 273.648C194.709 272.284 195.671 271.223 196.913 270.466C198.163 269.701 199.641 269.318 201.345 269.318C202.762 269.318 204.016 269.58 205.107 270.102C206.205 270.617 207.08 271.348 207.732 272.295C208.383 273.235 208.754 274.333 208.845 275.591H204.913C204.754 274.75 204.375 274.049 203.777 273.489C203.186 272.92 202.394 272.636 201.402 272.636C200.561 272.636 199.822 272.864 199.186 273.318C198.55 273.765 198.054 274.409 197.697 275.25C197.349 276.091 197.175 277.098 197.175 278.273C197.175 279.462 197.349 280.485 197.697 281.341C198.046 282.189 198.535 282.845 199.163 283.307C199.8 283.761 200.546 283.989 201.402 283.989C202.008 283.989 202.55 283.875 203.027 283.648C203.512 283.413 203.917 283.076 204.243 282.636C204.569 282.197 204.792 281.663 204.913 281.034H208.845C208.747 282.269 208.383 283.364 207.754 284.318C207.125 285.265 206.269 286.008 205.186 286.545C204.103 287.076 202.83 287.341 201.368 287.341ZM226.018 274.159L222.268 274.568C222.162 274.189 221.977 273.833 221.712 273.5C221.454 273.167 221.106 272.898 220.666 272.693C220.227 272.489 219.689 272.386 219.053 272.386C218.196 272.386 217.477 272.572 216.893 272.943C216.318 273.314 216.034 273.795 216.041 274.386C216.034 274.894 216.219 275.307 216.598 275.625C216.984 275.943 217.621 276.205 218.507 276.409L221.484 277.045C223.136 277.402 224.363 277.966 225.166 278.739C225.977 279.511 226.386 280.523 226.393 281.773C226.386 282.871 226.064 283.841 225.428 284.682C224.799 285.515 223.924 286.167 222.803 286.636C221.681 287.106 220.393 287.341 218.939 287.341C216.803 287.341 215.083 286.894 213.78 286C212.477 285.098 211.7 283.845 211.45 282.239L215.462 281.852C215.643 282.64 216.03 283.235 216.621 283.636C217.212 284.038 217.981 284.239 218.928 284.239C219.905 284.239 220.689 284.038 221.28 283.636C221.878 283.235 222.178 282.739 222.178 282.148C222.178 281.648 221.984 281.235 221.598 280.909C221.219 280.583 220.628 280.333 219.825 280.159L216.848 279.534C215.174 279.186 213.935 278.598 213.132 277.773C212.329 276.939 211.931 275.886 211.939 274.614C211.931 273.538 212.223 272.606 212.814 271.818C213.412 271.023 214.242 270.409 215.303 269.977C216.371 269.538 217.602 269.318 218.996 269.318C221.041 269.318 222.651 269.754 223.825 270.625C225.007 271.496 225.738 272.674 226.018 274.159Z" fill="white"/>
<path d="M57.6762 161V149.1C61.6095 145.233 65.2428 141.633 68.5762 138.3C69.9762 136.9 71.4095 135.467 72.8762 134C74.3428 132.533 75.7095 131.167 76.9762 129.9C78.2428 128.633 79.3762 127.5 80.3762 126.5C81.3762 125.433 82.1428 124.6 82.6762 124C83.7428 122.733 84.6762 121.6 85.4762 120.6C86.3428 119.6 87.0095 118.633 87.4762 117.7C88.0095 116.7 88.4095 115.733 88.6762 114.8C88.9428 113.8 89.0762 112.733 89.0762 111.6C89.0762 109.4 88.2095 107.5 86.4762 105.9C84.7428 104.233 82.3762 103.4 79.3762 103.4C76.3762 103.4 74.0428 104.267 72.3762 106C70.7095 107.667 69.5762 109.567 68.9762 111.7L57.0762 106.8C57.6095 105 58.4762 103.167 59.6762 101.3C60.8762 99.3667 62.4095 97.6667 64.2762 96.2C66.1428 94.6667 68.3428 93.4333 70.8762 92.5C73.4762 91.5 76.3762 91 79.5762 91C83.0428 91 86.1762 91.5333 88.9762 92.6C91.7762 93.6 94.1428 95 96.0762 96.8C98.0095 98.6 99.5095 100.733 100.576 103.2C101.643 105.6 102.176 108.2 102.176 111C102.176 115.267 101.11 119.2 98.9762 122.8C96.9095 126.333 94.3762 129.633 91.3762 132.7L82.7762 141.3C80.5095 143.567 77.9428 146.1 75.0762 148.9L75.4762 149.5H103.176V161H57.6762ZM140.668 162.6C136.268 162.6 132.302 161.7 128.768 159.9C125.235 158.033 122.202 155.5 119.668 152.3C117.202 149.1 115.302 145.333 113.968 141C112.635 136.6 111.968 131.867 111.968 126.8C111.968 121.733 112.635 117.033 113.968 112.7C115.302 108.3 117.202 104.5 119.668 101.3C122.202 98.1 125.235 95.6 128.768 93.8C132.302 91.9333 136.268 91 140.668 91C145.068 91 149.035 91.9333 152.568 93.8C156.102 95.6 159.102 98.1 161.568 101.3C164.102 104.5 166.035 108.3 167.368 112.7C168.702 117.033 169.368 121.733 169.368 126.8C169.368 131.867 168.702 136.6 167.368 141C166.035 145.333 164.102 149.1 161.568 152.3C159.102 155.5 156.102 158.033 152.568 159.9C149.035 161.7 145.068 162.6 140.668 162.6ZM140.668 150.2C143.068 150.2 145.235 149.633 147.168 148.5C149.102 147.3 150.735 145.667 152.068 143.6C153.468 141.467 154.502 138.967 155.168 136.1C155.902 133.233 156.268 130.133 156.268 126.8C156.268 123.4 155.902 120.3 155.168 117.5C154.502 114.633 153.468 112.167 152.068 110.1C150.735 107.967 149.102 106.333 147.168 105.2C145.235 104 143.068 103.4 140.668 103.4C138.202 103.4 136.002 104 134.068 105.2C132.135 106.333 130.502 107.967 129.168 110.1C127.835 112.167 126.802 114.633 126.068 117.5C125.402 120.3 125.068 123.4 125.068 126.8C125.068 130.133 125.402 133.233 126.068 136.1C126.802 138.967 127.835 141.467 129.168 143.6C130.502 145.667 132.135 147.3 134.068 148.5C136.002 149.633 138.202 150.2 140.668 150.2ZM206.879 162.6C202.479 162.6 198.513 161.7 194.979 159.9C191.446 158.033 188.413 155.5 185.879 152.3C183.413 149.1 181.513 145.333 180.179 141C178.846 136.6 178.179 131.867 178.179 126.8C178.179 121.733 178.846 117.033 180.179 112.7C181.513 108.3 183.413 104.5 185.879 101.3C188.413 98.1 191.446 95.6 194.979 93.8C198.513 91.9333 202.479 91 206.879 91C211.279 91 215.246 91.9333 218.779 93.8C222.313 95.6 225.313 98.1 227.779 101.3C230.313 104.5 232.246 108.3 233.579 112.7C234.913 117.033 235.579 121.733 235.579 126.8C235.579 131.867 234.913 136.6 233.579 141C232.246 145.333 230.313 149.1 227.779 152.3C225.313 155.5 222.313 158.033 218.779 159.9C215.246 161.7 211.279 162.6 206.879 162.6ZM206.879 150.2C209.279 150.2 211.446 149.633 213.379 148.5C215.313 147.3 216.946 145.667 218.279 143.6C219.679 141.467 220.713 138.967 221.379 136.1C222.113 133.233 222.479 130.133 222.479 126.8C222.479 123.4 222.113 120.3 221.379 117.5C220.713 114.633 219.679 112.167 218.279 110.1C216.946 107.967 215.313 106.333 213.379 105.2C211.446 104 209.279 103.4 206.879 103.4C204.413 103.4 202.213 104 200.279 105.2C198.346 106.333 196.713 107.967 195.379 110.1C194.046 112.167 193.013 114.633 192.279 117.5C191.613 120.3 191.279 123.4 191.279 126.8C191.279 130.133 191.613 133.233 192.279 136.1C193.013 138.967 194.046 141.467 195.379 143.6C196.713 145.667 198.346 147.3 200.279 148.5C202.213 149.633 204.413 150.2 206.879 150.2ZM274.19 128.1H291.29V139.7H274.19V156.7H262.59V139.7H245.59V128.1H262.59V111.1H274.19V128.1Z" fill="#5BEBFF"/>
</svg>
