<svg width="351" height="316" viewBox="0 0 351 316" fill="none" xmlns="http://www.w3.org/2000/svg">
<rect x="1" y="1" width="349" height="286" rx="24" fill="white" fill-opacity="0.05"/>
<path d="M1 201V262C1 275.807 12.1929 287 26 287H49" stroke="white" stroke-width="2"/>
<path d="M350 87V26C350 12.1929 338.807 0.999999 325 0.999999H302" stroke="white" stroke-width="2"/>
<rect x="49" y="235" width="253" height="81" rx="28" fill="#4F4F4F"/>
<path d="M76.831 284V266.545H83.3764C84.7173 266.545 85.8423 266.778 86.7514 267.244C87.6662 267.71 88.3565 268.364 88.8224 269.205C89.294 270.04 89.5298 271.014 89.5298 272.128C89.5298 273.247 89.2912 274.219 88.8139 275.043C88.3423 275.861 87.6463 276.494 86.7259 276.943C85.8054 277.386 84.6747 277.608 83.3338 277.608H78.6719V274.983H82.9077C83.6918 274.983 84.3338 274.875 84.8338 274.659C85.3338 274.437 85.7031 274.116 85.9418 273.696C86.1861 273.27 86.3082 272.747 86.3082 272.128C86.3082 271.509 86.1861 270.98 85.9418 270.543C85.6974 270.099 85.3253 269.764 84.8253 269.537C84.3253 269.304 83.6804 269.188 82.8906 269.188H79.9929V284H76.831ZM85.848 276.091L90.169 284H86.6406L82.3963 276.091H85.848ZM108.037 275.273C108.037 277.153 107.685 278.764 106.98 280.105C106.281 281.44 105.327 282.463 104.116 283.173C102.912 283.884 101.545 284.239 100.017 284.239C98.4886 284.239 97.1193 283.884 95.9091 283.173C94.7045 282.457 93.75 281.432 93.0455 280.097C92.3466 278.756 91.9972 277.148 91.9972 275.273C91.9972 273.392 92.3466 271.784 93.0455 270.449C93.75 269.108 94.7045 268.082 95.9091 267.372C97.1193 266.662 98.4886 266.307 100.017 266.307C101.545 266.307 102.912 266.662 104.116 267.372C105.327 268.082 106.281 269.108 106.98 270.449C107.685 271.784 108.037 273.392 108.037 275.273ZM104.858 275.273C104.858 273.949 104.651 272.832 104.236 271.923C103.827 271.009 103.259 270.318 102.531 269.852C101.804 269.381 100.966 269.145 100.017 269.145C99.0682 269.145 98.2301 269.381 97.5028 269.852C96.7756 270.318 96.2045 271.009 95.7898 271.923C95.3807 272.832 95.1761 273.949 95.1761 275.273C95.1761 276.597 95.3807 277.716 95.7898 278.631C96.2045 279.54 96.7756 280.23 97.5028 280.702C98.2301 281.168 99.0682 281.401 100.017 281.401C100.966 281.401 101.804 281.168 102.531 280.702C103.259 280.23 103.827 279.54 104.236 278.631C104.651 277.716 104.858 276.597 104.858 275.273ZM114.188 266.545V284H111.026V266.545H114.188ZM123.429 284V270.909H126.514V284H123.429ZM124.98 269.051C124.491 269.051 124.071 268.889 123.719 268.565C123.366 268.236 123.19 267.841 123.19 267.381C123.19 266.915 123.366 266.52 123.719 266.196C124.071 265.866 124.491 265.702 124.98 265.702C125.474 265.702 125.895 265.866 126.241 266.196C126.594 266.52 126.77 266.915 126.77 267.381C126.77 267.841 126.594 268.236 126.241 268.565C125.895 268.889 125.474 269.051 124.98 269.051ZM129.687 284V270.909H132.636V273.134H132.789C133.062 272.384 133.513 271.798 134.144 271.378C134.775 270.952 135.528 270.739 136.403 270.739C137.289 270.739 138.036 270.955 138.644 271.386C139.258 271.812 139.69 272.395 139.94 273.134H140.076C140.366 272.406 140.854 271.827 141.542 271.395C142.235 270.957 143.056 270.739 144.005 270.739C145.21 270.739 146.192 271.119 146.954 271.881C147.715 272.642 148.096 273.753 148.096 275.213V284H145.002V275.69C145.002 274.878 144.786 274.284 144.354 273.909C143.923 273.528 143.394 273.338 142.769 273.338C142.025 273.338 141.442 273.571 141.022 274.037C140.607 274.497 140.4 275.097 140.4 275.835V284H137.374V275.562C137.374 274.886 137.17 274.347 136.761 273.943C136.357 273.54 135.829 273.338 135.175 273.338C134.732 273.338 134.329 273.452 133.965 273.679C133.602 273.901 133.312 274.216 133.096 274.625C132.88 275.028 132.772 275.5 132.772 276.04V284H129.687ZM151.226 288.909V270.909H154.26V273.074H154.439C154.598 272.756 154.822 272.418 155.112 272.06C155.402 271.696 155.794 271.386 156.288 271.131C156.783 270.869 157.413 270.739 158.18 270.739C159.192 270.739 160.104 270.997 160.916 271.514C161.734 272.026 162.382 272.784 162.859 273.79C163.342 274.79 163.584 276.017 163.584 277.472C163.584 278.909 163.348 280.131 162.876 281.136C162.405 282.142 161.763 282.909 160.95 283.438C160.138 283.966 159.217 284.23 158.189 284.23C157.439 284.23 156.817 284.105 156.322 283.855C155.828 283.605 155.43 283.304 155.129 282.952C154.834 282.594 154.604 282.256 154.439 281.938H154.311V288.909H151.226ZM154.251 277.455C154.251 278.301 154.371 279.043 154.609 279.679C154.854 280.315 155.203 280.812 155.658 281.17C156.118 281.523 156.675 281.699 157.328 281.699C158.01 281.699 158.581 281.517 159.041 281.153C159.501 280.784 159.848 280.281 160.081 279.645C160.32 279.003 160.439 278.273 160.439 277.455C160.439 276.642 160.322 275.92 160.089 275.29C159.857 274.659 159.51 274.165 159.05 273.807C158.589 273.449 158.016 273.27 157.328 273.27C156.669 273.27 156.109 273.443 155.649 273.79C155.189 274.136 154.839 274.622 154.601 275.247C154.368 275.872 154.251 276.608 154.251 277.455ZM166.226 284V270.909H169.217V273.091H169.354C169.592 272.335 170.001 271.753 170.581 271.344C171.166 270.929 171.834 270.722 172.584 270.722C172.754 270.722 172.945 270.73 173.155 270.747C173.371 270.759 173.55 270.778 173.692 270.807V273.645C173.561 273.599 173.354 273.56 173.07 273.526C172.791 273.486 172.521 273.466 172.26 273.466C171.697 273.466 171.192 273.588 170.743 273.832C170.3 274.071 169.95 274.403 169.695 274.83C169.439 275.256 169.311 275.747 169.311 276.304V284H166.226ZM180.913 284.256C179.634 284.256 178.526 283.974 177.589 283.412C176.651 282.849 175.924 282.062 175.407 281.051C174.896 280.04 174.64 278.858 174.64 277.506C174.64 276.153 174.896 274.969 175.407 273.952C175.924 272.935 176.651 272.145 177.589 271.582C178.526 271.02 179.634 270.739 180.913 270.739C182.191 270.739 183.299 271.02 184.237 271.582C185.174 272.145 185.898 272.935 186.41 273.952C186.927 274.969 187.185 276.153 187.185 277.506C187.185 278.858 186.927 280.04 186.41 281.051C185.898 282.062 185.174 282.849 184.237 283.412C183.299 283.974 182.191 284.256 180.913 284.256ZM180.93 281.784C181.623 281.784 182.202 281.594 182.668 281.213C183.134 280.827 183.481 280.31 183.708 279.662C183.941 279.014 184.058 278.293 184.058 277.497C184.058 276.696 183.941 275.972 183.708 275.324C183.481 274.67 183.134 274.151 182.668 273.764C182.202 273.378 181.623 273.185 180.93 273.185C180.219 273.185 179.629 273.378 179.157 273.764C178.691 274.151 178.342 274.67 178.109 275.324C177.881 275.972 177.768 276.696 177.768 277.497C177.768 278.293 177.881 279.014 178.109 279.662C178.342 280.31 178.691 280.827 179.157 281.213C179.629 281.594 180.219 281.784 180.93 281.784ZM201.052 270.909L196.39 284H192.981L188.319 270.909H191.609L194.617 280.634H194.754L197.771 270.909H201.052ZM208.537 284.256C207.224 284.256 206.091 283.983 205.136 283.438C204.188 282.886 203.457 282.108 202.946 281.102C202.435 280.091 202.179 278.901 202.179 277.531C202.179 276.185 202.435 275.003 202.946 273.986C203.463 272.963 204.185 272.168 205.111 271.599C206.037 271.026 207.125 270.739 208.375 270.739C209.182 270.739 209.943 270.869 210.659 271.131C211.381 271.386 212.017 271.784 212.568 272.324C213.125 272.864 213.563 273.551 213.881 274.386C214.199 275.216 214.358 276.205 214.358 277.352V278.298H203.628V276.219H211.401C211.395 275.628 211.267 275.102 211.017 274.642C210.767 274.176 210.418 273.81 209.969 273.543C209.526 273.276 209.009 273.142 208.418 273.142C207.787 273.142 207.233 273.295 206.756 273.602C206.278 273.903 205.906 274.301 205.639 274.795C205.378 275.284 205.244 275.821 205.239 276.406V278.222C205.239 278.983 205.378 279.636 205.656 280.182C205.935 280.722 206.324 281.136 206.824 281.426C207.324 281.71 207.909 281.852 208.58 281.852C209.028 281.852 209.435 281.79 209.798 281.665C210.162 281.534 210.477 281.344 210.744 281.094C211.011 280.844 211.213 280.534 211.349 280.165L214.23 280.489C214.048 281.25 213.702 281.915 213.19 282.483C212.685 283.045 212.037 283.483 211.247 283.795C210.457 284.102 209.554 284.256 208.537 284.256ZM216.968 284V270.909H219.917V273.134H220.07C220.343 272.384 220.795 271.798 221.425 271.378C222.056 270.952 222.809 270.739 223.684 270.739C224.57 270.739 225.317 270.955 225.925 271.386C226.539 271.812 226.971 272.395 227.221 273.134H227.357C227.647 272.406 228.136 271.827 228.823 271.395C229.516 270.957 230.337 270.739 231.286 270.739C232.491 270.739 233.474 271.119 234.235 271.881C234.996 272.642 235.377 273.753 235.377 275.213V284H232.283V275.69C232.283 274.878 232.067 274.284 231.636 273.909C231.204 273.528 230.675 273.338 230.05 273.338C229.306 273.338 228.724 273.571 228.303 274.037C227.888 274.497 227.681 275.097 227.681 275.835V284H224.656V275.562C224.656 274.886 224.451 274.347 224.042 273.943C223.638 273.54 223.11 273.338 222.457 273.338C222.013 273.338 221.61 273.452 221.246 273.679C220.883 273.901 220.593 274.216 220.377 274.625C220.161 275.028 220.053 275.5 220.053 276.04V284H216.968ZM244.303 284.256C242.99 284.256 241.857 283.983 240.902 283.438C239.953 282.886 239.223 282.108 238.712 281.102C238.2 280.091 237.945 278.901 237.945 277.531C237.945 276.185 238.2 275.003 238.712 273.986C239.229 272.963 239.95 272.168 240.876 271.599C241.803 271.026 242.891 270.739 244.141 270.739C244.947 270.739 245.709 270.869 246.425 271.131C247.146 271.386 247.783 271.784 248.334 272.324C248.891 272.864 249.328 273.551 249.646 274.386C249.964 275.216 250.124 276.205 250.124 277.352V278.298H239.393V276.219H247.166C247.161 275.628 247.033 275.102 246.783 274.642C246.533 274.176 246.183 273.81 245.734 273.543C245.291 273.276 244.774 273.142 244.183 273.142C243.553 273.142 242.999 273.295 242.521 273.602C242.044 273.903 241.672 274.301 241.405 274.795C241.143 275.284 241.01 275.821 241.004 276.406V278.222C241.004 278.983 241.143 279.636 241.422 280.182C241.7 280.722 242.089 281.136 242.589 281.426C243.089 281.71 243.675 281.852 244.345 281.852C244.794 281.852 245.2 281.79 245.564 281.665C245.928 281.534 246.243 281.344 246.51 281.094C246.777 280.844 246.979 280.534 247.115 280.165L249.996 280.489C249.814 281.25 249.467 281.915 248.956 282.483C248.45 283.045 247.803 283.483 247.013 283.795C246.223 284.102 245.32 284.256 244.303 284.256ZM255.819 276.33V284H252.734V270.909H255.683V273.134H255.836C256.137 272.401 256.617 271.818 257.276 271.386C257.941 270.955 258.762 270.739 259.739 270.739C260.643 270.739 261.43 270.932 262.1 271.318C262.776 271.705 263.299 272.264 263.668 272.997C264.043 273.73 264.228 274.619 264.222 275.665V284H261.137V276.142C261.137 275.267 260.91 274.582 260.455 274.088C260.006 273.594 259.384 273.347 258.589 273.347C258.049 273.347 257.569 273.466 257.148 273.705C256.734 273.937 256.407 274.276 256.168 274.719C255.935 275.162 255.819 275.699 255.819 276.33ZM273.896 270.909V273.295H266.37V270.909H273.896ZM268.228 267.773H271.313V280.062C271.313 280.477 271.376 280.795 271.501 281.017C271.631 281.233 271.802 281.381 272.012 281.46C272.222 281.54 272.455 281.58 272.711 281.58C272.904 281.58 273.08 281.565 273.239 281.537C273.404 281.509 273.529 281.483 273.614 281.46L274.134 283.872C273.969 283.929 273.734 283.991 273.427 284.06C273.126 284.128 272.756 284.168 272.319 284.179C271.546 284.202 270.85 284.085 270.231 283.83C269.612 283.568 269.12 283.165 268.756 282.619C268.398 282.074 268.222 281.392 268.228 280.574V267.773Z" fill="white"/>
<path d="M117.93 161V149.1C121.863 145.233 125.497 141.633 128.83 138.3C130.23 136.9 131.663 135.467 133.13 134C134.597 132.533 135.963 131.167 137.23 129.9C138.497 128.633 139.63 127.5 140.63 126.5C141.63 125.433 142.397 124.6 142.93 124C143.997 122.733 144.93 121.6 145.73 120.6C146.597 119.6 147.263 118.633 147.73 117.7C148.263 116.7 148.663 115.733 148.93 114.8C149.197 113.8 149.33 112.733 149.33 111.6C149.33 109.4 148.463 107.5 146.73 105.9C144.997 104.233 142.63 103.4 139.63 103.4C136.63 103.4 134.297 104.267 132.63 106C130.963 107.667 129.83 109.567 129.23 111.7L117.33 106.8C117.863 105 118.73 103.167 119.93 101.3C121.13 99.3667 122.663 97.6667 124.53 96.2C126.397 94.6667 128.597 93.4333 131.13 92.5C133.73 91.5 136.63 91 139.83 91C143.297 91 146.43 91.5333 149.23 92.6C152.03 93.6 154.397 95 156.33 96.8C158.263 98.6 159.763 100.733 160.83 103.2C161.897 105.6 162.43 108.2 162.43 111C162.43 115.267 161.363 119.2 159.23 122.8C157.163 126.333 154.63 129.633 151.63 132.7L143.03 141.3C140.763 143.567 138.197 146.1 135.33 148.9L135.73 149.5H163.43V161H117.93ZM192.922 123.6L171.222 89.4H187.922L201.822 112.8H202.622L216.522 89.4H233.222L211.522 123.6L235.022 161H218.222L202.622 135.2H201.822L186.222 161H169.422L192.922 123.6Z" fill="#5BEBFF"/>
</svg>
