<svg width="468" height="468" viewBox="0 0 468 468" fill="none" xmlns="http://www.w3.org/2000/svg">
<circle cx="234" cy="234" r="218" fill="#101D28" stroke="#BBDDFA" stroke-width="32"/>
<path d="M436 234C436 207.473 430.775 181.206 420.624 156.698C410.472 132.19 395.593 109.922 376.836 91.1644C358.078 72.407 335.81 57.5278 311.302 47.3763C286.794 37.2249 260.527 32 234 32C207.473 32 181.206 37.2249 156.698 47.3763C132.19 57.5278 109.922 72.407 91.1644 91.1644C72.407 109.922 57.5278 132.19 47.3763 156.698C37.2249 181.206 32 207.473 32 234L234 234H436Z" fill="#428BCC"/>
<path d="M389 234C389 213.645 384.991 193.49 377.201 174.684C369.412 155.879 357.995 138.792 343.602 124.398C329.208 110.005 312.121 98.5881 293.316 90.7987C274.51 83.0092 254.355 79 234 79C213.645 79 193.49 83.0092 174.684 90.7987C155.879 98.5882 138.792 110.005 124.398 124.398C110.005 138.792 98.5881 155.879 90.7987 174.684C83.0092 193.49 79 213.645 79 234L234 234H389Z" fill="white" fill-opacity="0.2"/>
<path d="M74.2152 310L95.7712 262.4H102.503L124.127 310H116.987L97.7432 266.208H100.463L81.2192 310H74.2152ZM83.3952 298.1L85.2312 292.66H112.023L113.995 298.1H83.3952ZM145.652 310.408C141.98 310.408 138.693 309.615 135.792 308.028C132.936 306.441 130.692 304.265 129.06 301.5C127.428 298.735 126.612 295.561 126.612 291.98C126.612 288.399 127.428 285.225 129.06 282.46C130.692 279.695 132.936 277.541 135.792 276C138.693 274.413 141.98 273.62 145.652 273.62C148.916 273.62 151.817 274.277 154.356 275.592C156.94 276.861 158.935 278.765 160.34 281.304L155.376 284.5C154.197 282.732 152.747 281.44 151.024 280.624C149.347 279.763 147.533 279.332 145.584 279.332C143.227 279.332 141.119 279.853 139.26 280.896C137.401 281.939 135.928 283.412 134.84 285.316C133.752 287.175 133.208 289.396 133.208 291.98C133.208 294.564 133.752 296.808 134.84 298.712C135.928 300.616 137.401 302.089 139.26 303.132C141.119 304.175 143.227 304.696 145.584 304.696C147.533 304.696 149.347 304.288 151.024 303.472C152.747 302.611 154.197 301.296 155.376 299.528L160.34 302.656C158.935 305.149 156.94 307.076 154.356 308.436C151.817 309.751 148.916 310.408 145.652 310.408ZM183.968 310.408C180.296 310.408 177.01 309.615 174.108 308.028C171.252 306.441 169.008 304.265 167.376 301.5C165.744 298.735 164.928 295.561 164.928 291.98C164.928 288.399 165.744 285.225 167.376 282.46C169.008 279.695 171.252 277.541 174.108 276C177.01 274.413 180.296 273.62 183.968 273.62C187.232 273.62 190.134 274.277 192.672 275.592C195.256 276.861 197.251 278.765 198.656 281.304L193.692 284.5C192.514 282.732 191.063 281.44 189.34 280.624C187.663 279.763 185.85 279.332 183.9 279.332C181.543 279.332 179.435 279.853 177.576 280.896C175.718 281.939 174.244 283.412 173.156 285.316C172.068 287.175 171.524 289.396 171.524 291.98C171.524 294.564 172.068 296.808 173.156 298.712C174.244 300.616 175.718 302.089 177.576 303.132C179.435 304.175 181.543 304.696 183.9 304.696C185.85 304.696 187.663 304.288 189.34 303.472C191.063 302.611 192.514 301.296 193.692 299.528L198.656 302.656C197.251 305.149 195.256 307.076 192.672 308.436C190.134 309.751 187.232 310.408 183.968 310.408ZM222.272 310.408C219.189 310.408 216.469 309.841 214.112 308.708C211.8 307.575 209.987 305.852 208.672 303.54C207.403 301.183 206.768 298.236 206.768 294.7V273.96H213.296V293.952C213.296 297.488 214.135 300.14 215.812 301.908C217.535 303.676 219.937 304.56 223.02 304.56C225.287 304.56 227.259 304.107 228.936 303.2C230.613 302.248 231.905 300.888 232.812 299.12C233.719 297.307 234.172 295.131 234.172 292.592V273.96H240.7V310H234.512V300.276L235.532 302.86C234.353 305.263 232.585 307.121 230.228 308.436C227.871 309.751 225.219 310.408 222.272 310.408ZM253.127 310V273.96H259.383V283.752L258.771 281.304C259.769 278.811 261.446 276.907 263.803 275.592C266.161 274.277 269.062 273.62 272.507 273.62V279.944C272.235 279.899 271.963 279.876 271.691 279.876C271.465 279.876 271.238 279.876 271.011 279.876C267.521 279.876 264.755 280.919 262.715 283.004C260.675 285.089 259.655 288.104 259.655 292.048V310H253.127ZM300.269 310V302.384L299.929 300.956V287.968C299.929 285.203 299.113 283.072 297.481 281.576C295.894 280.035 293.492 279.264 290.273 279.264C288.142 279.264 286.057 279.627 284.017 280.352C281.977 281.032 280.254 281.961 278.849 283.14L276.129 278.244C277.988 276.748 280.209 275.615 282.793 274.844C285.422 274.028 288.165 273.62 291.021 273.62C295.962 273.62 299.77 274.821 302.445 277.224C305.12 279.627 306.457 283.299 306.457 288.24V310H300.269ZM288.437 310.408C285.762 310.408 283.405 309.955 281.365 309.048C279.37 308.141 277.829 306.895 276.741 305.308C275.653 303.676 275.109 301.84 275.109 299.8C275.109 297.851 275.562 296.083 276.469 294.496C277.421 292.909 278.94 291.64 281.025 290.688C283.156 289.736 286.012 289.26 289.593 289.26H301.017V293.952H289.865C286.601 293.952 284.402 294.496 283.269 295.584C282.136 296.672 281.569 297.987 281.569 299.528C281.569 301.296 282.272 302.724 283.677 303.812C285.082 304.855 287.032 305.376 289.525 305.376C291.973 305.376 294.104 304.832 295.917 303.744C297.776 302.656 299.113 301.069 299.929 298.984L301.221 303.472C300.36 305.603 298.841 307.303 296.665 308.572C294.489 309.796 291.746 310.408 288.437 310.408ZM334.246 310.408C330.574 310.408 327.287 309.615 324.386 308.028C321.53 306.441 319.286 304.265 317.654 301.5C316.022 298.735 315.206 295.561 315.206 291.98C315.206 288.399 316.022 285.225 317.654 282.46C319.286 279.695 321.53 277.541 324.386 276C327.287 274.413 330.574 273.62 334.246 273.62C337.51 273.62 340.411 274.277 342.95 275.592C345.534 276.861 347.528 278.765 348.934 281.304L343.97 284.5C342.791 282.732 341.34 281.44 339.618 280.624C337.94 279.763 336.127 279.332 334.178 279.332C331.82 279.332 329.712 279.853 327.854 280.896C325.995 281.939 324.522 283.412 323.434 285.316C322.346 287.175 321.802 289.396 321.802 291.98C321.802 294.564 322.346 296.808 323.434 298.712C324.522 300.616 325.995 302.089 327.854 303.132C329.712 304.175 331.82 304.696 334.178 304.696C336.127 304.696 337.94 304.288 339.618 303.472C341.34 302.611 342.791 301.296 343.97 299.528L348.934 302.656C347.528 305.149 345.534 307.076 342.95 308.436C340.411 309.751 337.51 310.408 334.246 310.408ZM358.484 323.6C356.762 323.6 355.084 323.305 353.452 322.716C351.82 322.172 350.415 321.356 349.236 320.268L352.024 315.372C352.931 316.233 353.928 316.891 355.016 317.344C356.104 317.797 357.26 318.024 358.484 318.024C360.071 318.024 361.386 317.616 362.428 316.8C363.471 315.984 364.446 314.533 365.352 312.448L367.596 307.484L368.276 306.668L382.42 273.96H388.812L371.336 313.604C370.294 316.143 369.115 318.137 367.8 319.588C366.531 321.039 365.126 322.059 363.584 322.648C362.043 323.283 360.343 323.6 358.484 323.6ZM367.052 311.156L350.596 273.96H357.396L371.404 306.056L367.052 311.156Z" fill="white"/>
<path d="M155.919 212.072V204.947L180.372 196.055V200.045L155.919 191.153V184.028L183.051 194.345V201.755L155.919 212.072ZM218.894 177.416C222.58 177.416 225.753 178.176 228.413 179.696C231.073 181.216 233.125 183.439 234.569 186.365C236.013 189.253 236.735 192.863 236.735 197.195C236.735 201.793 235.861 205.688 234.113 208.88C232.403 212.072 230.028 214.504 226.988 216.176C223.948 217.848 220.414 218.684 216.386 218.684C214.296 218.684 212.282 218.456 210.344 218C208.406 217.544 206.734 216.86 205.328 215.948L208.748 209.165C209.85 209.925 211.028 210.457 212.282 210.761C213.536 211.027 214.847 211.16 216.215 211.16C219.635 211.16 222.352 210.115 224.366 208.025C226.418 205.935 227.444 202.838 227.444 198.734C227.444 198.05 227.425 197.29 227.387 196.454C227.349 195.618 227.254 194.782 227.102 193.946L229.61 196.34C228.964 197.822 228.052 199.076 226.874 200.102C225.696 201.09 224.328 201.85 222.77 202.382C221.212 202.876 219.464 203.123 217.526 203.123C214.98 203.123 212.662 202.61 210.572 201.584C208.52 200.558 206.867 199.114 205.613 197.252C204.397 195.39 203.789 193.205 203.789 190.697C203.789 187.961 204.454 185.605 205.784 183.629C207.152 181.653 208.976 180.133 211.256 179.069C213.574 177.967 216.12 177.416 218.894 177.416ZM219.464 184.313C218.134 184.313 216.975 184.56 215.987 185.054C214.999 185.51 214.22 186.194 213.65 187.106C213.08 187.98 212.795 189.025 212.795 190.241C212.795 192.065 213.403 193.528 214.619 194.63C215.873 195.694 217.526 196.226 219.578 196.226C220.908 196.226 222.086 195.979 223.112 195.485C224.176 194.953 224.993 194.231 225.563 193.319C226.133 192.407 226.418 191.381 226.418 190.241C226.418 189.101 226.133 188.094 225.563 187.22C225.031 186.308 224.252 185.605 223.226 185.111C222.2 184.579 220.946 184.313 219.464 184.313ZM258.265 218.684C254.997 218.684 252.071 217.886 249.487 216.29C246.903 214.656 244.87 212.3 243.388 209.222C241.906 206.144 241.165 202.42 241.165 198.05C241.165 193.68 241.906 189.956 243.388 186.878C244.87 183.8 246.903 181.463 249.487 179.867C252.071 178.233 254.997 177.416 258.265 177.416C261.571 177.416 264.497 178.233 267.043 179.867C269.627 181.463 271.66 183.8 273.142 186.878C274.624 189.956 275.365 193.68 275.365 198.05C275.365 202.42 274.624 206.144 273.142 209.222C271.66 212.3 269.627 214.656 267.043 216.29C264.497 217.886 261.571 218.684 258.265 218.684ZM258.265 210.875C259.823 210.875 261.172 210.438 262.312 209.564C263.49 208.69 264.402 207.303 265.048 205.403C265.732 203.503 266.074 201.052 266.074 198.05C266.074 195.048 265.732 192.597 265.048 190.697C264.402 188.797 263.49 187.41 262.312 186.536C261.172 185.662 259.823 185.225 258.265 185.225C256.745 185.225 255.396 185.662 254.218 186.536C253.078 187.41 252.166 188.797 251.482 190.697C250.836 192.597 250.513 195.048 250.513 198.05C250.513 201.052 250.836 203.503 251.482 205.403C252.166 207.303 253.078 208.69 254.218 209.564C255.396 210.438 256.745 210.875 258.265 210.875ZM285.609 218L312.855 178.1H319.638L292.392 218H285.609ZM289.086 199.646C287.148 199.646 285.438 199.209 283.956 198.335C282.474 197.423 281.296 196.15 280.422 194.516C279.586 192.844 279.168 190.887 279.168 188.645C279.168 186.403 279.586 184.465 280.422 182.831C281.296 181.197 282.474 179.924 283.956 179.012C285.438 178.1 287.148 177.644 289.086 177.644C291.024 177.644 292.734 178.1 294.216 179.012C295.698 179.924 296.857 181.197 297.693 182.831C298.529 184.465 298.947 186.403 298.947 188.645C298.947 190.887 298.529 192.844 297.693 194.516C296.857 196.15 295.698 197.423 294.216 198.335C292.734 199.209 291.024 199.646 289.086 199.646ZM289.086 194.972C290.34 194.972 291.347 194.459 292.107 193.433C292.867 192.369 293.247 190.773 293.247 188.645C293.247 186.517 292.867 184.94 292.107 183.914C291.347 182.85 290.34 182.318 289.086 182.318C287.87 182.318 286.863 182.85 286.065 183.914C285.305 184.94 284.925 186.517 284.925 188.645C284.925 190.735 285.305 192.312 286.065 193.376C286.863 194.44 287.87 194.972 289.086 194.972ZM316.161 218.456C314.261 218.456 312.551 218.019 311.031 217.145C309.549 216.233 308.39 214.96 307.554 213.326C306.718 211.654 306.3 209.697 306.3 207.455C306.3 205.213 306.718 203.275 307.554 201.641C308.39 200.007 309.549 198.734 311.031 197.822C312.551 196.91 314.261 196.454 316.161 196.454C318.137 196.454 319.866 196.91 321.348 197.822C322.83 198.734 323.989 200.007 324.825 201.641C325.661 203.275 326.079 205.213 326.079 207.455C326.079 209.697 325.661 211.654 324.825 213.326C323.989 214.96 322.83 216.233 321.348 217.145C319.866 218.019 318.137 218.456 316.161 218.456ZM316.161 213.782C317.415 213.782 318.422 213.269 319.182 212.243C319.942 211.179 320.322 209.583 320.322 207.455C320.322 205.365 319.942 203.788 319.182 202.724C318.422 201.66 317.415 201.128 316.161 201.128C314.945 201.128 313.938 201.66 313.14 202.724C312.38 203.75 312 205.327 312 207.455C312 209.583 312.38 211.179 313.14 212.243C313.938 213.269 314.945 213.782 316.161 213.782Z" fill="white"/>
</svg>
