<svg width="468" height="468" viewBox="0 0 468 468" fill="none" xmlns="http://www.w3.org/2000/svg">
<circle cx="234" cy="234" r="218" fill="#101D28" stroke="#BBDDFA" stroke-width="32"/>
<path d="M436 234C436 207.473 430.775 181.206 420.624 156.698C410.472 132.19 395.593 109.922 376.836 91.1644C358.078 72.407 335.81 57.5278 311.302 47.3763C286.794 37.2249 260.527 32 234 32C207.473 32 181.206 37.2249 156.698 47.3763C132.19 57.5278 109.922 72.407 91.1644 91.1644C72.407 109.922 57.5278 132.19 47.3763 156.698C37.2249 181.206 32 207.473 32 234L234 234H436Z" fill="#428BCC"/>
<path d="M177.357 310V262.4H195.921C200.091 262.4 203.65 263.057 206.597 264.372C209.543 265.687 211.81 267.591 213.397 270.084C214.983 272.577 215.777 275.547 215.777 278.992C215.777 282.437 214.983 285.407 213.397 287.9C211.81 290.348 209.543 292.229 206.597 293.544C203.65 294.859 200.091 295.516 195.921 295.516H181.097L184.157 292.388V310H177.357ZM209.181 310L197.077 292.728H204.353L216.593 310H209.181ZM184.157 293.068L181.097 289.736H195.717C200.069 289.736 203.355 288.807 205.577 286.948C207.843 285.044 208.977 282.392 208.977 278.992C208.977 275.592 207.843 272.963 205.577 271.104C203.355 269.245 200.069 268.316 195.717 268.316H181.097L184.157 264.916V293.068ZM248.251 310.544C244.624 310.544 241.247 309.932 238.119 308.708C235.036 307.484 232.362 305.784 230.095 303.608C227.828 301.387 226.06 298.803 224.791 295.856C223.522 292.909 222.887 289.691 222.887 286.2C222.887 282.709 223.522 279.491 224.791 276.544C226.06 273.597 227.828 271.036 230.095 268.86C232.362 266.639 235.036 264.916 238.119 263.692C241.202 262.468 244.579 261.856 248.251 261.856C251.878 261.856 255.21 262.468 258.247 263.692C261.33 264.871 264.004 266.571 266.271 268.792C268.583 270.968 270.351 273.529 271.575 276.476C272.844 279.423 273.479 282.664 273.479 286.2C273.479 289.736 272.844 292.977 271.575 295.924C270.351 298.871 268.583 301.455 266.271 303.676C264.004 305.852 261.33 307.552 258.247 308.776C255.21 309.955 251.878 310.544 248.251 310.544ZM248.251 304.492C250.88 304.492 253.306 304.039 255.527 303.132C257.794 302.225 259.743 300.956 261.375 299.324C263.052 297.647 264.344 295.697 265.251 293.476C266.203 291.255 266.679 288.829 266.679 286.2C266.679 283.571 266.203 281.145 265.251 278.924C264.344 276.703 263.052 274.776 261.375 273.144C259.743 271.467 257.794 270.175 255.527 269.268C253.306 268.361 250.88 267.908 248.251 267.908C245.576 267.908 243.106 268.361 240.839 269.268C238.618 270.175 236.668 271.467 234.991 273.144C233.314 274.776 231.999 276.703 231.047 278.924C230.14 281.145 229.687 283.571 229.687 286.2C229.687 288.829 230.14 291.255 231.047 293.476C231.999 295.697 233.314 297.647 234.991 299.324C236.668 300.956 238.618 302.225 240.839 303.132C243.106 304.039 245.576 304.492 248.251 304.492ZM283.872 310V262.4H290.672V310H283.872ZM125.579 349V326.6H128.779V349H125.579ZM156.253 331.88C157.618 331.88 158.824 332.147 159.869 332.68C160.914 333.213 161.725 334.024 162.301 335.112C162.898 336.2 163.197 337.576 163.197 339.24V349H160.125V339.592C160.125 337.949 159.741 336.712 158.973 335.88C158.205 335.048 157.128 334.632 155.741 334.632C154.717 334.632 153.821 334.845 153.053 335.272C152.285 335.699 151.688 336.328 151.261 337.16C150.856 337.992 150.653 339.027 150.653 340.264V349H147.581V339.592C147.581 337.949 147.197 336.712 146.429 335.88C145.682 335.048 144.605 334.632 143.197 334.632C142.194 334.632 141.309 334.845 140.541 335.272C139.773 335.699 139.176 336.328 138.749 337.16C138.322 337.992 138.109 339.027 138.109 340.264V349H135.037V332.04H137.981V336.552L137.501 335.4C138.034 334.291 138.856 333.427 139.965 332.808C141.074 332.189 142.365 331.88 143.837 331.88C145.458 331.88 146.856 332.285 148.029 333.096C149.202 333.885 149.97 335.091 150.333 336.712L149.085 336.2C149.597 334.899 150.493 333.853 151.773 333.064C153.053 332.275 154.546 331.88 156.253 331.88ZM177.842 349.192C176.434 349.192 175.143 348.872 173.97 348.232C172.818 347.571 171.89 346.6 171.186 345.32C170.503 344.04 170.161 342.44 170.161 340.52C170.161 338.6 170.492 337 171.154 335.72C171.836 334.44 172.754 333.48 173.906 332.84C175.079 332.2 176.391 331.88 177.842 331.88C179.506 331.88 180.978 332.243 182.258 332.968C183.538 333.693 184.551 334.707 185.298 336.008C186.044 337.288 186.418 338.792 186.418 340.52C186.418 342.248 186.044 343.763 185.298 345.064C184.551 346.365 183.538 347.379 182.258 348.104C180.978 348.829 179.506 349.192 177.842 349.192ZM168.85 355.208V332.04H171.794V336.616L171.602 340.552L171.922 344.488V355.208H168.85ZM177.586 346.504C178.674 346.504 179.644 346.259 180.498 345.768C181.372 345.277 182.055 344.584 182.546 343.688C183.058 342.771 183.314 341.715 183.314 340.52C183.314 339.304 183.058 338.259 182.546 337.384C182.055 336.488 181.372 335.795 180.498 335.304C179.644 334.813 178.674 334.568 177.586 334.568C176.519 334.568 175.548 334.813 174.674 335.304C173.82 335.795 173.138 336.488 172.626 337.384C172.135 338.259 171.89 339.304 171.89 340.52C171.89 341.715 172.135 342.771 172.626 343.688C173.138 344.584 173.82 345.277 174.674 345.768C175.548 346.259 176.519 346.504 177.586 346.504ZM190.662 349V332.04H193.606V336.648L193.318 335.496C193.787 334.323 194.577 333.427 195.686 332.808C196.795 332.189 198.161 331.88 199.782 331.88V334.856C199.654 334.835 199.526 334.824 199.398 334.824C199.291 334.824 199.185 334.824 199.078 334.824C197.435 334.824 196.134 335.315 195.174 336.296C194.214 337.277 193.734 338.696 193.734 340.552V349H190.662ZM210.676 349.192C208.969 349.192 207.455 348.819 206.132 348.072C204.809 347.325 203.764 346.301 202.996 345C202.228 343.677 201.844 342.184 201.844 340.52C201.844 338.835 202.228 337.341 202.996 336.04C203.764 334.739 204.809 333.725 206.132 333C207.455 332.253 208.969 331.88 210.676 331.88C212.361 331.88 213.865 332.253 215.188 333C216.532 333.725 217.577 334.739 218.324 336.04C219.092 337.32 219.476 338.813 219.476 340.52C219.476 342.205 219.092 343.699 218.324 345C217.577 346.301 216.532 347.325 215.188 348.072C213.865 348.819 212.361 349.192 210.676 349.192ZM210.676 346.504C211.764 346.504 212.735 346.259 213.588 345.768C214.463 345.277 215.145 344.584 215.636 343.688C216.127 342.771 216.372 341.715 216.372 340.52C216.372 339.304 216.127 338.259 215.636 337.384C215.145 336.488 214.463 335.795 213.588 335.304C212.735 334.813 211.764 334.568 210.676 334.568C209.588 334.568 208.617 334.813 207.764 335.304C206.911 335.795 206.228 336.488 205.716 337.384C205.204 338.259 204.948 339.304 204.948 340.52C204.948 341.715 205.204 342.771 205.716 343.688C206.228 344.584 206.911 345.277 207.764 345.768C208.617 346.259 209.588 346.504 210.676 346.504ZM227.704 349L220.28 332.04H223.48L230.072 347.4H228.536L235.256 332.04H238.264L230.84 349H227.704ZM248.214 349.192C246.401 349.192 244.801 348.819 243.414 348.072C242.049 347.325 240.982 346.301 240.214 345C239.467 343.699 239.094 342.205 239.094 340.52C239.094 338.835 239.457 337.341 240.182 336.04C240.929 334.739 241.942 333.725 243.222 333C244.523 332.253 245.985 331.88 247.606 331.88C249.249 331.88 250.699 332.243 251.958 332.968C253.217 333.693 254.198 334.717 254.902 336.04C255.627 337.341 255.99 338.867 255.99 340.616C255.99 340.744 255.979 340.893 255.958 341.064C255.958 341.235 255.947 341.395 255.926 341.544H241.494V339.336H254.326L253.078 340.104C253.099 339.016 252.875 338.045 252.406 337.192C251.937 336.339 251.286 335.677 250.454 335.208C249.643 334.717 248.694 334.472 247.606 334.472C246.539 334.472 245.59 334.717 244.758 335.208C243.926 335.677 243.275 336.349 242.806 337.224C242.337 338.077 242.102 339.059 242.102 340.168V340.68C242.102 341.811 242.358 342.824 242.87 343.72C243.403 344.595 244.139 345.277 245.078 345.768C246.017 346.259 247.094 346.504 248.31 346.504C249.313 346.504 250.219 346.333 251.03 345.992C251.862 345.651 252.587 345.139 253.206 344.456L254.902 346.44C254.134 347.336 253.174 348.019 252.022 348.488C250.891 348.957 249.622 349.192 248.214 349.192ZM281.472 331.88C282.837 331.88 284.042 332.147 285.088 332.68C286.133 333.213 286.944 334.024 287.52 335.112C288.117 336.2 288.416 337.576 288.416 339.24V349H285.344V339.592C285.344 337.949 284.96 336.712 284.192 335.88C283.424 335.048 282.346 334.632 280.96 334.632C279.936 334.632 279.04 334.845 278.272 335.272C277.504 335.699 276.906 336.328 276.48 337.16C276.074 337.992 275.872 339.027 275.872 340.264V349H272.8V339.592C272.8 337.949 272.416 336.712 271.648 335.88C270.901 335.048 269.824 334.632 268.416 334.632C267.413 334.632 266.528 334.845 265.76 335.272C264.992 335.699 264.394 336.328 263.968 337.16C263.541 337.992 263.328 339.027 263.328 340.264V349H260.256V332.04H263.2V336.552L262.72 335.4C263.253 334.291 264.074 333.427 265.184 332.808C266.293 332.189 267.584 331.88 269.056 331.88C270.677 331.88 272.074 332.285 273.248 333.096C274.421 333.885 275.189 335.091 275.552 336.712L274.304 336.2C274.816 334.899 275.712 333.853 276.992 333.064C278.272 332.275 279.765 331.88 281.472 331.88ZM301.62 349.192C299.807 349.192 298.207 348.819 296.82 348.072C295.455 347.325 294.388 346.301 293.62 345C292.874 343.699 292.5 342.205 292.5 340.52C292.5 338.835 292.863 337.341 293.588 336.04C294.335 334.739 295.348 333.725 296.628 333C297.93 332.253 299.391 331.88 301.012 331.88C302.655 331.88 304.106 332.243 305.364 332.968C306.623 333.693 307.604 334.717 308.308 336.04C309.034 337.341 309.396 338.867 309.396 340.616C309.396 340.744 309.386 340.893 309.364 341.064C309.364 341.235 309.354 341.395 309.332 341.544H294.9V339.336H307.732L306.484 340.104C306.506 339.016 306.282 338.045 305.812 337.192C305.343 336.339 304.692 335.677 303.86 335.208C303.05 334.717 302.1 334.472 301.012 334.472C299.946 334.472 298.996 334.717 298.164 335.208C297.332 335.677 296.682 336.349 296.212 337.224C295.743 338.077 295.508 339.059 295.508 340.168V340.68C295.508 341.811 295.764 342.824 296.276 343.72C296.81 344.595 297.546 345.277 298.484 345.768C299.423 346.259 300.5 346.504 301.716 346.504C302.719 346.504 303.626 346.333 304.436 345.992C305.268 345.651 305.994 345.139 306.612 344.456L308.308 346.44C307.54 347.336 306.58 348.019 305.428 348.488C304.298 348.957 303.028 349.192 301.62 349.192ZM322.718 331.88C324.105 331.88 325.321 332.147 326.366 332.68C327.433 333.213 328.265 334.024 328.862 335.112C329.459 336.2 329.758 337.576 329.758 339.24V349H326.686V339.592C326.686 337.949 326.281 336.712 325.47 335.88C324.681 335.048 323.561 334.632 322.11 334.632C321.022 334.632 320.073 334.845 319.262 335.272C318.451 335.699 317.822 336.328 317.374 337.16C316.947 337.992 316.734 339.027 316.734 340.264V349H313.662V332.04H316.606V336.616L316.126 335.4C316.681 334.291 317.534 333.427 318.686 332.808C319.838 332.189 321.182 331.88 322.718 331.88ZM341.267 349.192C339.561 349.192 338.238 348.733 337.299 347.816C336.361 346.899 335.891 345.587 335.891 343.88V328.328H338.963V343.752C338.963 344.669 339.187 345.373 339.635 345.864C340.105 346.355 340.766 346.6 341.619 346.6C342.579 346.6 343.379 346.333 344.019 345.8L344.979 348.008C344.51 348.413 343.945 348.712 343.283 348.904C342.643 349.096 341.971 349.192 341.267 349.192ZM333.011 334.568V332.04H343.827V334.568H333.011Z" fill="white"/>
<path d="M389 234C389 213.645 384.991 193.49 377.201 174.684C369.412 155.879 357.995 138.792 343.602 124.398C329.208 110.005 312.121 98.5882 293.316 90.7987C274.51 83.0092 254.355 79 234 79C213.645 79 193.49 83.0092 174.684 90.7987C155.879 98.5882 138.792 110.005 124.398 124.398C110.005 138.792 98.5881 155.879 90.7987 174.684C83.0092 193.49 79 213.645 79 234L234 234H389Z" fill="white" fill-opacity="0.2"/>
<path d="M192.143 219V210.18L214.823 188.76C216.615 187.136 217.931 185.68 218.771 184.392C219.611 183.104 220.171 181.928 220.451 180.864C220.787 179.8 220.955 178.82 220.955 177.924C220.955 175.572 220.143 173.78 218.519 172.548C216.951 171.26 214.627 170.616 211.547 170.616C209.083 170.616 206.787 171.092 204.659 172.044C202.587 172.996 200.823 174.48 199.367 176.496L189.455 170.112C191.695 166.752 194.831 164.092 198.863 162.132C202.895 160.172 207.543 159.192 212.807 159.192C217.175 159.192 220.983 159.92 224.231 161.376C227.535 162.776 230.083 164.764 231.875 167.34C233.723 169.916 234.647 172.996 234.647 176.58C234.647 178.484 234.395 180.388 233.891 182.292C233.443 184.14 232.491 186.1 231.035 188.172C229.635 190.244 227.563 192.568 224.819 195.144L206.003 212.868L203.399 207.912H236.579V219H192.143ZM239.008 219L259.252 192.456L259 199.68L239.596 173.808H254.296L266.56 190.692L261.016 190.86L273.7 173.808H287.644L268.156 199.428V192.372L288.316 219H273.448L260.596 201.024L266.056 201.78L253.288 219H239.008Z" fill="white"/>
</svg>
