<svg width="351" height="316" viewBox="0 0 351 316" fill="none" xmlns="http://www.w3.org/2000/svg">
<rect x="1" y="1" width="349" height="286" rx="24" fill="#1F2324"/>
<rect x="49" y="235" width="253" height="81" rx="28" fill="#4F4F4F"/>
<path d="M107.44 287H102.94L111.134 263.727H116.338L124.543 287H120.043L113.827 268.5H113.645L107.44 287ZM107.588 277.875H119.861V281.261H107.588V277.875ZM134.509 287.341C132.766 287.341 131.27 286.958 130.02 286.193C128.777 285.428 127.819 284.371 127.145 283.023C126.478 281.667 126.145 280.106 126.145 278.341C126.145 276.568 126.486 275.004 127.168 273.648C127.849 272.284 128.812 271.223 130.054 270.466C131.304 269.701 132.781 269.318 134.486 269.318C135.902 269.318 137.156 269.58 138.247 270.102C139.346 270.617 140.221 271.348 140.872 272.295C141.524 273.235 141.895 274.333 141.986 275.591H138.054C137.895 274.75 137.516 274.049 136.918 273.489C136.327 272.92 135.535 272.636 134.543 272.636C133.702 272.636 132.963 272.864 132.327 273.318C131.69 273.765 131.194 274.409 130.838 275.25C130.49 276.091 130.315 277.098 130.315 278.273C130.315 279.462 130.49 280.485 130.838 281.341C131.187 282.189 131.675 282.845 132.304 283.307C132.94 283.761 133.687 283.989 134.543 283.989C135.149 283.989 135.69 283.875 136.168 283.648C136.652 283.413 137.058 283.076 137.384 282.636C137.709 282.197 137.933 281.663 138.054 281.034H141.986C141.887 282.269 141.524 283.364 140.895 284.318C140.266 285.265 139.41 286.008 138.327 286.545C137.243 287.076 135.971 287.341 134.509 287.341ZM152.977 287.341C151.235 287.341 149.739 286.958 148.489 286.193C147.246 285.428 146.288 284.371 145.614 283.023C144.947 281.667 144.614 280.106 144.614 278.341C144.614 276.568 144.955 275.004 145.636 273.648C146.318 272.284 147.28 271.223 148.523 270.466C149.773 269.701 151.25 269.318 152.955 269.318C154.371 269.318 155.625 269.58 156.716 270.102C157.814 270.617 158.689 271.348 159.341 272.295C159.992 273.235 160.364 274.333 160.455 275.591H156.523C156.364 274.75 155.985 274.049 155.386 273.489C154.795 272.92 154.004 272.636 153.011 272.636C152.17 272.636 151.432 272.864 150.795 273.318C150.159 273.765 149.663 274.409 149.307 275.25C148.958 276.091 148.784 277.098 148.784 278.273C148.784 279.462 148.958 280.485 149.307 281.341C149.655 282.189 150.144 282.845 150.773 283.307C151.409 283.761 152.155 283.989 153.011 283.989C153.617 283.989 154.159 283.875 154.636 283.648C155.121 283.413 155.527 283.076 155.852 282.636C156.178 282.197 156.402 281.663 156.523 281.034H160.455C160.356 282.269 159.992 283.364 159.364 284.318C158.735 285.265 157.879 286.008 156.795 286.545C155.712 287.076 154.439 287.341 152.977 287.341ZM174.957 279.659V269.545H179.071V287H175.082V283.898H174.901C174.507 284.875 173.859 285.674 172.957 286.295C172.063 286.917 170.961 287.227 169.651 287.227C168.507 287.227 167.495 286.973 166.616 286.466C165.745 285.951 165.063 285.205 164.571 284.227C164.079 283.242 163.832 282.053 163.832 280.659V269.545H167.946V280.023C167.946 281.129 168.249 282.008 168.855 282.659C169.461 283.311 170.257 283.636 171.241 283.636C171.848 283.636 172.435 283.489 173.003 283.193C173.571 282.898 174.037 282.458 174.401 281.875C174.772 281.284 174.957 280.545 174.957 279.659ZM183.301 287V269.545H187.29V272.455H187.472C187.79 271.447 188.335 270.67 189.108 270.125C189.888 269.572 190.778 269.295 191.778 269.295C192.006 269.295 192.259 269.307 192.54 269.33C192.828 269.345 193.066 269.371 193.256 269.409V273.193C193.081 273.133 192.805 273.08 192.426 273.034C192.055 272.981 191.695 272.955 191.347 272.955C190.597 272.955 189.922 273.117 189.324 273.443C188.733 273.761 188.267 274.205 187.926 274.773C187.585 275.341 187.415 275.996 187.415 276.739V287H183.301ZM200.699 287.352C199.593 287.352 198.597 287.155 197.71 286.761C196.831 286.36 196.134 285.769 195.619 284.989C195.112 284.208 194.858 283.246 194.858 282.102C194.858 281.117 195.04 280.303 195.403 279.659C195.767 279.015 196.263 278.5 196.892 278.114C197.521 277.727 198.229 277.436 199.017 277.239C199.813 277.034 200.634 276.886 201.483 276.795C202.506 276.689 203.335 276.595 203.972 276.511C204.608 276.42 205.07 276.284 205.358 276.102C205.653 275.913 205.801 275.621 205.801 275.227V275.159C205.801 274.303 205.547 273.64 205.04 273.17C204.532 272.701 203.801 272.466 202.847 272.466C201.839 272.466 201.04 272.686 200.449 273.125C199.866 273.564 199.472 274.083 199.267 274.682L195.426 274.136C195.729 273.076 196.229 272.189 196.926 271.477C197.623 270.758 198.475 270.22 199.483 269.864C200.491 269.5 201.604 269.318 202.824 269.318C203.665 269.318 204.502 269.417 205.335 269.614C206.169 269.811 206.93 270.136 207.619 270.591C208.309 271.038 208.862 271.648 209.278 272.42C209.703 273.193 209.915 274.159 209.915 275.318V287H205.96V284.602H205.824C205.574 285.087 205.222 285.542 204.767 285.966C204.32 286.383 203.756 286.72 203.074 286.977C202.4 287.227 201.608 287.352 200.699 287.352ZM201.767 284.33C202.593 284.33 203.309 284.167 203.915 283.841C204.521 283.508 204.987 283.068 205.312 282.523C205.646 281.977 205.812 281.383 205.812 280.739V278.682C205.684 278.788 205.464 278.886 205.153 278.977C204.85 279.068 204.509 279.148 204.131 279.216C203.752 279.284 203.377 279.345 203.006 279.398C202.634 279.451 202.313 279.496 202.04 279.534C201.426 279.617 200.877 279.754 200.392 279.943C199.907 280.133 199.525 280.398 199.244 280.739C198.964 281.072 198.824 281.504 198.824 282.034C198.824 282.792 199.1 283.364 199.653 283.75C200.206 284.136 200.911 284.33 201.767 284.33ZM221.665 287.341C219.922 287.341 218.426 286.958 217.176 286.193C215.934 285.428 214.975 284.371 214.301 283.023C213.634 281.667 213.301 280.106 213.301 278.341C213.301 276.568 213.642 275.004 214.324 273.648C215.006 272.284 215.968 271.223 217.21 270.466C218.46 269.701 219.938 269.318 221.642 269.318C223.059 269.318 224.313 269.58 225.403 270.102C226.502 270.617 227.377 271.348 228.028 272.295C228.68 273.235 229.051 274.333 229.142 275.591H225.21C225.051 274.75 224.672 274.049 224.074 273.489C223.483 272.92 222.691 272.636 221.699 272.636C220.858 272.636 220.119 272.864 219.483 273.318C218.847 273.765 218.35 274.409 217.994 275.25C217.646 276.091 217.472 277.098 217.472 278.273C217.472 279.462 217.646 280.485 217.994 281.341C218.343 282.189 218.831 282.845 219.46 283.307C220.097 283.761 220.843 283.989 221.699 283.989C222.305 283.989 222.847 283.875 223.324 283.648C223.809 283.413 224.214 283.076 224.54 282.636C224.866 282.197 225.089 281.663 225.21 281.034H229.142C229.044 282.269 228.68 283.364 228.051 284.318C227.422 285.265 226.566 286.008 225.483 286.545C224.4 287.076 223.127 287.341 221.665 287.341ZM235.077 293.545C234.516 293.545 233.997 293.5 233.52 293.409C233.05 293.326 232.675 293.227 232.395 293.114L233.349 289.909C233.948 290.083 234.482 290.167 234.952 290.159C235.421 290.152 235.834 290.004 236.19 289.716C236.554 289.436 236.861 288.966 237.111 288.307L237.463 287.364L231.134 269.545H235.497L239.52 282.727H239.702L243.736 269.545H248.111L241.122 289.114C240.796 290.038 240.365 290.83 239.827 291.489C239.289 292.155 238.63 292.663 237.849 293.011C237.077 293.367 236.152 293.545 235.077 293.545Z" fill="white"/>
<path d="M51.373 158.2V145.3L77.173 134.3V133.5L51.373 122.5V109.6L92.873 128.7V139.1L51.373 158.2ZM123.098 136.5C120.498 136.5 117.965 135.967 115.498 134.9C113.031 133.833 110.831 132.333 108.898 130.4C106.965 128.4 105.398 126.067 104.198 123.4C103.065 120.667 102.498 117.667 102.498 114.4C102.498 111 103.165 107.867 104.498 105C105.831 102.067 107.598 99.5667 109.798 97.5C112.065 95.4333 114.631 93.8333 117.498 92.7C120.431 91.5 123.498 90.9 126.698 90.9C130.365 90.9 133.698 91.5667 136.698 92.9C139.765 94.1667 142.365 95.9 144.498 98.1C146.698 100.233 148.365 102.767 149.498 105.7C150.698 108.567 151.298 111.6 151.298 114.8C151.298 119.4 150.365 123.633 148.498 127.5C146.698 131.3 144.398 135.2 141.598 139.2L124.998 162.9L114.898 156L128.898 136.1L128.398 135.5C126.865 136.167 125.098 136.5 123.098 136.5ZM126.898 103C125.365 103 123.898 103.267 122.498 103.8C121.165 104.333 119.965 105.1 118.898 106.1C117.831 107.1 116.965 108.3 116.298 109.7C115.698 111.033 115.398 112.533 115.398 114.2C115.398 115.933 115.698 117.5 116.298 118.9C116.965 120.233 117.831 121.4 118.898 122.4C119.965 123.4 121.165 124.167 122.498 124.7C123.898 125.233 125.365 125.5 126.898 125.5C128.365 125.5 129.798 125.233 131.198 124.7C132.598 124.167 133.831 123.4 134.898 122.4C136.031 121.4 136.898 120.233 137.498 118.9C138.165 117.5 138.498 115.933 138.498 114.2C138.498 112.533 138.165 111.033 137.498 109.7C136.898 108.3 136.031 107.1 134.898 106.1C133.831 105.1 132.598 104.333 131.198 103.8C129.798 103.267 128.365 103 126.898 103ZM188.434 162.6C184.034 162.6 180.067 161.7 176.534 159.9C173.001 158.033 169.967 155.5 167.434 152.3C164.967 149.1 163.067 145.333 161.734 141C160.401 136.6 159.734 131.867 159.734 126.8C159.734 121.733 160.401 117.033 161.734 112.7C163.067 108.3 164.967 104.5 167.434 101.3C169.967 98.1 173.001 95.6 176.534 93.8C180.067 91.9333 184.034 91 188.434 91C192.834 91 196.801 91.9333 200.334 93.8C203.867 95.6 206.867 98.1 209.334 101.3C211.867 104.5 213.801 108.3 215.134 112.7C216.467 117.033 217.134 121.733 217.134 126.8C217.134 131.867 216.467 136.6 215.134 141C213.801 145.333 211.867 149.1 209.334 152.3C206.867 155.5 203.867 158.033 200.334 159.9C196.801 161.7 192.834 162.6 188.434 162.6ZM188.434 150.2C190.834 150.2 193.001 149.633 194.934 148.5C196.867 147.3 198.501 145.667 199.834 143.6C201.234 141.467 202.267 138.967 202.934 136.1C203.667 133.233 204.034 130.133 204.034 126.8C204.034 123.4 203.667 120.3 202.934 117.5C202.267 114.633 201.234 112.167 199.834 110.1C198.501 107.967 196.867 106.333 194.934 105.2C193.001 104 190.834 103.4 188.434 103.4C185.967 103.4 183.767 104 181.834 105.2C179.901 106.333 178.267 107.967 176.934 110.1C175.601 112.167 174.567 114.633 173.834 117.5C173.167 120.3 172.834 123.4 172.834 126.8C172.834 130.133 173.167 133.233 173.834 136.1C174.567 138.967 175.601 141.467 176.934 143.6C178.267 145.667 179.901 147.3 181.834 148.5C183.767 149.633 185.967 150.2 188.434 150.2ZM224.745 108.1C224.745 105.767 225.178 103.567 226.045 101.5C226.978 99.4333 228.212 97.6333 229.745 96.1C231.345 94.5 233.212 93.2667 235.345 92.4C237.478 91.4667 239.812 91 242.345 91C244.878 91 247.212 91.4667 249.345 92.4C251.545 93.2667 253.412 94.5 254.945 96.1C256.545 97.6333 257.778 99.4333 258.645 101.5C259.578 103.567 260.045 105.767 260.045 108.1C260.045 110.433 259.578 112.667 258.645 114.8C257.778 116.867 256.545 118.667 254.945 120.2C253.412 121.733 251.545 122.967 249.345 123.9C247.212 124.767 244.878 125.2 242.345 125.2C239.812 125.2 237.478 124.767 235.345 123.9C233.212 122.967 231.345 121.733 229.745 120.2C228.212 118.667 226.978 116.867 226.045 114.8C225.178 112.667 224.745 110.433 224.745 108.1ZM235.445 108.1C235.445 110.3 236.112 112.067 237.445 113.4C238.778 114.733 240.412 115.4 242.345 115.4C244.278 115.4 245.912 114.733 247.245 113.4C248.578 112.067 249.245 110.3 249.245 108.1C249.245 105.9 248.578 104.133 247.245 102.8C245.912 101.467 244.278 100.8 242.345 100.8C240.412 100.8 238.778 101.467 237.445 102.8C236.112 104.133 235.445 105.9 235.445 108.1ZM237.445 157.3L281.845 91L289.745 96.3L245.345 162.6L237.445 157.3ZM267.145 145.5C267.145 143.167 267.578 140.967 268.445 138.9C269.378 136.833 270.612 135.033 272.145 133.5C273.745 131.9 275.612 130.667 277.745 129.8C279.878 128.867 282.212 128.4 284.745 128.4C287.278 128.4 289.612 128.867 291.745 129.8C293.945 130.667 295.812 131.9 297.345 133.5C298.945 135.033 300.178 136.833 301.045 138.9C301.978 140.967 302.445 143.167 302.445 145.5C302.445 147.833 301.978 150.067 301.045 152.2C300.178 154.267 298.945 156.067 297.345 157.6C295.812 159.133 293.945 160.333 291.745 161.2C289.612 162.133 287.278 162.6 284.745 162.6C282.212 162.6 279.878 162.133 277.745 161.2C275.612 160.333 273.745 159.133 272.145 157.6C270.612 156.067 269.378 154.267 268.445 152.2C267.578 150.067 267.145 147.833 267.145 145.5ZM277.845 145.5C277.845 147.7 278.512 149.467 279.845 150.8C281.178 152.133 282.812 152.8 284.745 152.8C286.678 152.8 288.312 152.133 289.645 150.8C290.978 149.467 291.645 147.7 291.645 145.5C291.645 143.3 290.978 141.533 289.645 140.2C288.312 138.867 286.678 138.2 284.745 138.2C282.812 138.2 281.178 138.867 279.845 140.2C278.512 141.533 277.845 143.3 277.845 145.5Z" fill="#5BEBFF"/>
<path d="M1 201V262C1 275.807 12.1929 287 26 287H49" stroke="white" stroke-width="2"/>
<path d="M350 87V26C350 12.1929 338.807 0.999999 325 0.999999H302" stroke="white" stroke-width="2"/>
</svg>
