<svg width="351" height="316" viewBox="0 0 351 316" fill="none" xmlns="http://www.w3.org/2000/svg">
<path d="M1 201V262C1 275.807 12.1929 287 26 287H49" stroke="white" stroke-width="2"/>
<path d="M350 87V26C350 12.1929 338.807 0.999999 325 0.999999H302" stroke="white" stroke-width="2"/>
<rect x="1" y="1" width="349" height="286" rx="24" fill="#1F2324"/>
<rect x="49" y="235" width="253" height="81" rx="28" fill="#4F4F4F"/>
<path d="M83.0955 272.435H79.908C79.8171 271.912 79.6495 271.449 79.4052 271.045C79.1609 270.636 78.8569 270.29 78.4933 270.006C78.1296 269.722 77.7148 269.509 77.2489 269.366C76.7887 269.219 76.2915 269.145 75.7575 269.145C74.8086 269.145 73.9677 269.384 73.2347 269.861C72.5018 270.332 71.9279 271.026 71.5131 271.94C71.0984 272.849 70.891 273.96 70.891 275.273C70.891 276.608 71.0984 277.733 71.5131 278.648C71.9336 279.557 72.5075 280.244 73.2347 280.71C73.9677 281.17 74.8058 281.401 75.7489 281.401C76.2717 281.401 76.7603 281.332 77.2148 281.196C77.6751 281.054 78.087 280.847 78.4506 280.574C78.82 280.301 79.1296 279.966 79.3796 279.568C79.6353 279.17 79.8114 278.716 79.908 278.205L83.0955 278.222C82.9762 279.051 82.7177 279.83 82.32 280.557C81.9279 281.284 81.4137 281.926 80.7773 282.483C80.141 283.034 79.3967 283.466 78.5444 283.778C77.6921 284.085 76.7461 284.239 75.7063 284.239C74.1722 284.239 72.8029 283.884 71.5984 283.173C70.3938 282.463 69.445 281.438 68.7518 280.097C68.0586 278.756 67.712 277.148 67.712 275.273C67.712 273.392 68.0614 271.784 68.7603 270.449C69.4592 269.108 70.4109 268.082 71.6154 267.372C72.82 266.662 74.1836 266.307 75.7063 266.307C76.6779 266.307 77.5813 266.443 78.4165 266.716C79.2518 266.989 79.9961 267.389 80.6495 267.918C81.3029 268.44 81.8398 269.082 82.2603 269.844C82.6864 270.599 82.9648 271.463 83.0955 272.435ZM88.94 266.545V284H85.8548V266.545H88.94ZM92.1126 284V270.909H95.1978V284H92.1126ZM93.6637 269.051C93.1751 269.051 92.7546 268.889 92.4023 268.565C92.0501 268.236 91.8739 267.841 91.8739 267.381C91.8739 266.915 92.0501 266.52 92.4023 266.196C92.7546 265.866 93.1751 265.702 93.6637 265.702C94.158 265.702 94.5785 265.866 94.9251 266.196C95.2773 266.52 95.4535 266.915 95.4535 267.381C95.4535 267.841 95.2773 268.236 94.9251 268.565C94.5785 268.889 94.158 269.051 93.6637 269.051ZM101.456 276.33V284H98.3704V270.909H101.319V273.134H101.473C101.774 272.401 102.254 271.818 102.913 271.386C103.578 270.955 104.399 270.739 105.376 270.739C106.279 270.739 107.066 270.932 107.737 271.318C108.413 271.705 108.936 272.264 109.305 272.997C109.68 273.73 109.865 274.619 109.859 275.665V284H106.774V276.142C106.774 275.267 106.547 274.582 106.092 274.088C105.643 273.594 105.021 273.347 104.225 273.347C103.686 273.347 103.206 273.466 102.785 273.705C102.37 273.937 102.044 274.276 101.805 274.719C101.572 275.162 101.456 275.699 101.456 276.33ZM112.995 284V270.909H116.081V284H112.995ZM114.547 269.051C114.058 269.051 113.637 268.889 113.285 268.565C112.933 268.236 112.757 267.841 112.757 267.381C112.757 266.915 112.933 266.52 113.285 266.196C113.637 265.866 114.058 265.702 114.547 265.702C115.041 265.702 115.461 265.866 115.808 266.196C116.16 266.52 116.336 266.915 116.336 267.381C116.336 267.841 116.16 268.236 115.808 268.565C115.461 268.889 115.041 269.051 114.547 269.051ZM124.963 284.256C123.657 284.256 122.534 283.969 121.597 283.395C120.665 282.821 119.946 282.028 119.441 281.017C118.941 280 118.691 278.83 118.691 277.506C118.691 276.176 118.946 275.003 119.458 273.986C119.969 272.963 120.691 272.168 121.623 271.599C122.56 271.026 123.668 270.739 124.946 270.739C126.009 270.739 126.949 270.935 127.767 271.327C128.591 271.713 129.248 272.261 129.736 272.972C130.225 273.676 130.503 274.5 130.571 275.443H127.623C127.503 274.812 127.219 274.287 126.77 273.866C126.327 273.44 125.733 273.227 124.989 273.227C124.358 273.227 123.804 273.398 123.327 273.739C122.85 274.074 122.478 274.557 122.211 275.188C121.949 275.818 121.819 276.574 121.819 277.455C121.819 278.347 121.949 279.114 122.211 279.756C122.472 280.392 122.838 280.884 123.31 281.23C123.787 281.571 124.347 281.741 124.989 281.741C125.444 281.741 125.85 281.656 126.208 281.486C126.571 281.31 126.875 281.057 127.12 280.727C127.364 280.398 127.532 279.997 127.623 279.526H130.571C130.498 280.452 130.225 281.273 129.753 281.989C129.282 282.699 128.64 283.256 127.827 283.659C127.015 284.057 126.06 284.256 124.963 284.256ZM136.872 284.264C136.042 284.264 135.295 284.116 134.63 283.821C133.971 283.52 133.449 283.077 133.062 282.491C132.681 281.906 132.491 281.185 132.491 280.327C132.491 279.588 132.627 278.977 132.9 278.494C133.173 278.011 133.545 277.625 134.017 277.335C134.488 277.045 135.02 276.827 135.61 276.679C136.207 276.526 136.824 276.415 137.46 276.347C138.227 276.267 138.849 276.196 139.326 276.134C139.804 276.065 140.15 275.963 140.366 275.827C140.588 275.685 140.699 275.466 140.699 275.17V275.119C140.699 274.477 140.508 273.98 140.127 273.628C139.747 273.276 139.199 273.099 138.483 273.099C137.727 273.099 137.127 273.264 136.684 273.594C136.247 273.923 135.951 274.312 135.798 274.761L132.917 274.352C133.145 273.557 133.52 272.892 134.042 272.358C134.565 271.818 135.204 271.415 135.96 271.148C136.716 270.875 137.551 270.739 138.466 270.739C139.096 270.739 139.724 270.812 140.349 270.96C140.974 271.108 141.545 271.352 142.062 271.693C142.579 272.028 142.994 272.486 143.306 273.065C143.625 273.645 143.784 274.369 143.784 275.239V284H140.818V282.202H140.716C140.528 282.565 140.264 282.906 139.923 283.224C139.588 283.537 139.164 283.79 138.653 283.983C138.147 284.17 137.554 284.264 136.872 284.264ZM137.673 281.997C138.292 281.997 138.829 281.875 139.284 281.631C139.738 281.381 140.088 281.051 140.332 280.642C140.582 280.233 140.707 279.787 140.707 279.304V277.761C140.61 277.841 140.446 277.915 140.213 277.983C139.985 278.051 139.73 278.111 139.446 278.162C139.162 278.213 138.88 278.259 138.602 278.298C138.324 278.338 138.082 278.372 137.877 278.401C137.417 278.463 137.005 278.565 136.642 278.707C136.278 278.849 135.991 279.048 135.781 279.304C135.571 279.554 135.466 279.878 135.466 280.276C135.466 280.844 135.673 281.273 136.088 281.562C136.502 281.852 137.031 281.997 137.673 281.997ZM149.971 266.545V284H146.886V266.545H149.971ZM156.229 266.545V284H153.144V266.545H156.229ZM161.319 288.909C160.899 288.909 160.51 288.875 160.152 288.807C159.799 288.744 159.518 288.67 159.308 288.585L160.024 286.182C160.473 286.313 160.873 286.375 161.225 286.369C161.578 286.364 161.887 286.253 162.154 286.037C162.427 285.827 162.657 285.474 162.845 284.98L163.109 284.273L158.362 270.909H161.635L164.652 280.795H164.788L167.814 270.909H171.095L165.853 285.585C165.609 286.278 165.285 286.872 164.882 287.366C164.478 287.866 163.984 288.247 163.399 288.509C162.819 288.776 162.126 288.909 161.319 288.909ZM190.876 270.909L186.214 284H182.805L178.143 270.909H181.433L184.441 280.634H184.578L187.595 270.909H190.876ZM196.403 284.264C195.574 284.264 194.826 284.116 194.162 283.821C193.502 283.52 192.98 283.077 192.593 282.491C192.213 281.906 192.022 281.185 192.022 280.327C192.022 279.588 192.159 278.977 192.431 278.494C192.704 278.011 193.076 277.625 193.548 277.335C194.02 277.045 194.551 276.827 195.142 276.679C195.738 276.526 196.355 276.415 196.991 276.347C197.758 276.267 198.38 276.196 198.858 276.134C199.335 276.065 199.681 275.963 199.897 275.827C200.119 275.685 200.23 275.466 200.23 275.17V275.119C200.23 274.477 200.039 273.98 199.659 273.628C199.278 273.276 198.73 273.099 198.014 273.099C197.258 273.099 196.659 273.264 196.216 273.594C195.778 273.923 195.483 274.312 195.329 274.761L192.449 274.352C192.676 273.557 193.051 272.892 193.574 272.358C194.096 271.818 194.735 271.415 195.491 271.148C196.247 270.875 197.082 270.739 197.997 270.739C198.627 270.739 199.255 270.812 199.88 270.96C200.505 271.108 201.076 271.352 201.593 271.693C202.11 272.028 202.525 272.486 202.838 273.065C203.156 273.645 203.315 274.369 203.315 275.239V284H200.349V282.202H200.247C200.059 282.565 199.795 282.906 199.454 283.224C199.119 283.537 198.696 283.79 198.184 283.983C197.679 284.17 197.085 284.264 196.403 284.264ZM197.204 281.997C197.824 281.997 198.36 281.875 198.815 281.631C199.27 281.381 199.619 281.051 199.863 280.642C200.113 280.233 200.238 279.787 200.238 279.304V277.761C200.142 277.841 199.977 277.915 199.744 277.983C199.517 278.051 199.261 278.111 198.977 278.162C198.693 278.213 198.412 278.259 198.133 278.298C197.855 278.338 197.613 278.372 197.409 278.401C196.949 278.463 196.537 278.565 196.173 278.707C195.809 278.849 195.522 279.048 195.312 279.304C195.102 279.554 194.997 279.878 194.997 280.276C194.997 280.844 195.204 281.273 195.619 281.562C196.034 281.852 196.562 281.997 197.204 281.997ZM209.502 266.545V284H206.417V266.545H209.502ZM212.675 284V270.909H215.76V284H212.675ZM214.226 269.051C213.738 269.051 213.317 268.889 212.965 268.565C212.613 268.236 212.436 267.841 212.436 267.381C212.436 266.915 212.613 266.52 212.965 266.196C213.317 265.866 213.738 265.702 214.226 265.702C214.721 265.702 215.141 265.866 215.488 266.196C215.84 266.52 216.016 266.915 216.016 267.381C216.016 267.841 215.84 268.236 215.488 268.565C215.141 268.889 214.721 269.051 214.226 269.051ZM223.791 284.23C222.762 284.23 221.842 283.966 221.029 283.438C220.217 282.909 219.575 282.142 219.103 281.136C218.632 280.131 218.396 278.909 218.396 277.472C218.396 276.017 218.635 274.79 219.112 273.79C219.595 272.784 220.245 272.026 221.064 271.514C221.882 270.997 222.794 270.739 223.799 270.739C224.566 270.739 225.197 270.869 225.691 271.131C226.186 271.386 226.578 271.696 226.868 272.06C227.157 272.418 227.382 272.756 227.541 273.074H227.669V266.545H230.762V284H227.728V281.938H227.541C227.382 282.256 227.152 282.594 226.85 282.952C226.549 283.304 226.152 283.605 225.657 283.855C225.163 284.105 224.541 284.23 223.791 284.23ZM224.652 281.699C225.305 281.699 225.862 281.523 226.322 281.17C226.782 280.812 227.132 280.315 227.37 279.679C227.609 279.043 227.728 278.301 227.728 277.455C227.728 276.608 227.609 275.872 227.37 275.247C227.137 274.622 226.791 274.136 226.331 273.79C225.876 273.443 225.316 273.27 224.652 273.27C223.964 273.27 223.39 273.449 222.93 273.807C222.47 274.165 222.123 274.659 221.89 275.29C221.657 275.92 221.541 276.642 221.541 277.455C221.541 278.273 221.657 279.003 221.89 279.645C222.129 280.281 222.478 280.784 222.939 281.153C223.404 281.517 223.975 281.699 224.652 281.699ZM237.817 284.264C236.988 284.264 236.24 284.116 235.576 283.821C234.917 283.52 234.394 283.077 234.007 282.491C233.627 281.906 233.436 281.185 233.436 280.327C233.436 279.588 233.573 278.977 233.846 278.494C234.118 278.011 234.49 277.625 234.962 277.335C235.434 277.045 235.965 276.827 236.556 276.679C237.152 276.526 237.769 276.415 238.405 276.347C239.172 276.267 239.794 276.196 240.272 276.134C240.749 276.065 241.096 275.963 241.311 275.827C241.533 275.685 241.644 275.466 241.644 275.17V275.119C241.644 274.477 241.453 273.98 241.073 273.628C240.692 273.276 240.144 273.099 239.428 273.099C238.672 273.099 238.073 273.264 237.63 273.594C237.192 273.923 236.897 274.312 236.743 274.761L233.863 274.352C234.09 273.557 234.465 272.892 234.988 272.358C235.51 271.818 236.15 271.415 236.905 271.148C237.661 270.875 238.496 270.739 239.411 270.739C240.042 270.739 240.669 270.812 241.294 270.96C241.919 271.108 242.49 271.352 243.007 271.693C243.525 272.028 243.939 272.486 244.252 273.065C244.57 273.645 244.729 274.369 244.729 275.239V284H241.763V282.202H241.661C241.473 282.565 241.209 282.906 240.868 283.224C240.533 283.537 240.11 283.79 239.598 283.983C239.093 284.17 238.499 284.264 237.817 284.264ZM238.618 281.997C239.238 281.997 239.775 281.875 240.229 281.631C240.684 281.381 241.033 281.051 241.277 280.642C241.527 280.233 241.652 279.787 241.652 279.304V277.761C241.556 277.841 241.391 277.915 241.158 277.983C240.931 278.051 240.675 278.111 240.391 278.162C240.107 278.213 239.826 278.259 239.547 278.298C239.269 278.338 239.027 278.372 238.823 278.401C238.363 278.463 237.951 278.565 237.587 278.707C237.223 278.849 236.936 279.048 236.726 279.304C236.516 279.554 236.411 279.878 236.411 280.276C236.411 280.844 236.618 281.273 237.033 281.562C237.448 281.852 237.976 281.997 238.618 281.997ZM254.368 270.909V273.295H246.843V270.909H254.368ZM248.701 267.773H251.786V280.062C251.786 280.477 251.848 280.795 251.973 281.017C252.104 281.233 252.275 281.381 252.485 281.46C252.695 281.54 252.928 281.58 253.184 281.58C253.377 281.58 253.553 281.565 253.712 281.537C253.877 281.509 254.002 281.483 254.087 281.46L254.607 283.872C254.442 283.929 254.206 283.991 253.9 284.06C253.598 284.128 253.229 284.168 252.792 284.179C252.019 284.202 251.323 284.085 250.703 283.83C250.084 283.568 249.593 283.165 249.229 282.619C248.871 282.074 248.695 281.392 248.701 280.574V267.773ZM262.603 284.256C261.291 284.256 260.157 283.983 259.203 283.438C258.254 282.886 257.524 282.108 257.012 281.102C256.501 280.091 256.245 278.901 256.245 277.531C256.245 276.185 256.501 275.003 257.012 273.986C257.529 272.963 258.251 272.168 259.177 271.599C260.103 271.026 261.191 270.739 262.441 270.739C263.248 270.739 264.01 270.869 264.725 271.131C265.447 271.386 266.083 271.784 266.635 272.324C267.191 272.864 267.629 273.551 267.947 274.386C268.265 275.216 268.424 276.205 268.424 277.352V278.298H257.694V276.219H265.467C265.461 275.628 265.333 275.102 265.083 274.642C264.833 274.176 264.484 273.81 264.035 273.543C263.592 273.276 263.075 273.142 262.484 273.142C261.853 273.142 261.299 273.295 260.822 273.602C260.345 273.903 259.973 274.301 259.706 274.795C259.444 275.284 259.311 275.821 259.305 276.406V278.222C259.305 278.983 259.444 279.636 259.723 280.182C260.001 280.722 260.39 281.136 260.89 281.426C261.39 281.71 261.975 281.852 262.646 281.852C263.095 281.852 263.501 281.79 263.865 281.665C264.228 281.534 264.544 281.344 264.811 281.094C265.078 280.844 265.279 280.534 265.416 280.165L268.297 280.489C268.115 281.25 267.768 281.915 267.257 282.483C266.751 283.045 266.103 283.483 265.314 283.795C264.524 284.102 263.62 284.256 262.603 284.256ZM275.892 284.23C274.864 284.23 273.944 283.966 273.131 283.438C272.319 282.909 271.676 282.142 271.205 281.136C270.733 280.131 270.498 278.909 270.498 277.472C270.498 276.017 270.736 274.79 271.213 273.79C271.696 272.784 272.347 272.026 273.165 271.514C273.983 270.997 274.895 270.739 275.901 270.739C276.668 270.739 277.299 270.869 277.793 271.131C278.287 271.386 278.679 271.696 278.969 272.06C279.259 272.418 279.483 272.756 279.642 273.074H279.77V266.545H282.864V284H279.83V281.938H279.642C279.483 282.256 279.253 282.594 278.952 282.952C278.651 283.304 278.253 283.605 277.759 283.855C277.265 284.105 276.642 284.23 275.892 284.23ZM276.753 281.699C277.407 281.699 277.963 281.523 278.424 281.17C278.884 280.812 279.233 280.315 279.472 279.679C279.711 279.043 279.83 278.301 279.83 277.455C279.83 276.608 279.711 275.872 279.472 275.247C279.239 274.622 278.892 274.136 278.432 273.79C277.978 273.443 277.418 273.27 276.753 273.27C276.066 273.27 275.492 273.449 275.032 273.807C274.571 274.165 274.225 274.659 273.992 275.29C273.759 275.92 273.642 276.642 273.642 277.455C273.642 278.273 273.759 279.003 273.992 279.645C274.23 280.281 274.58 280.784 275.04 281.153C275.506 281.517 276.077 281.699 276.753 281.699Z" fill="white"/>
<path d="M94.234 60.176H104.09L121.306 106H111.77L107.994 95.056H90.33L86.554 106H77.018L94.234 60.176ZM105.178 87.12L101.082 75.664L99.418 70.096H98.906L97.242 75.664L93.146 87.12H105.178ZM138.885 59.664C140.079 59.664 141.189 59.7707 142.213 59.984C143.237 60.1973 144.154 60.4747 144.965 60.816L142.597 68.304C142.17 68.0907 141.701 67.92 141.189 67.792C140.719 67.664 140.122 67.6 139.397 67.6C138.159 67.6 137.178 68.0053 136.453 68.816C135.727 69.584 135.365 70.672 135.365 72.08V74.64H143.173V81.808H135.365V106H126.981V81.808H121.349V74.64H126.981V71.568C126.981 69.648 127.258 67.9627 127.812 66.512C128.41 65.0187 129.242 63.7813 130.309 62.8C131.375 61.776 132.634 61.008 134.085 60.496C135.535 59.9413 137.135 59.664 138.885 59.664ZM148.834 74.64H156.706V78.992H157.218C157.602 78.224 158.114 77.52 158.754 76.88C159.394 76.24 160.098 75.6853 160.866 75.216C161.677 74.7467 162.53 74.384 163.426 74.128C164.365 73.872 165.282 73.744 166.178 73.744C167.287 73.744 168.226 73.8507 168.994 74.064C169.805 74.2773 170.487 74.5547 171.042 74.896L168.802 82.512C168.29 82.256 167.714 82.064 167.074 81.936C166.477 81.7653 165.73 81.68 164.834 81.68C163.682 81.68 162.637 81.9147 161.698 82.384C160.759 82.8107 159.949 83.4293 159.266 84.24C158.626 85.0507 158.114 86.0107 157.73 87.12C157.389 88.1867 157.218 89.36 157.218 90.64V106H148.834V74.64ZM179.569 70.096C178.843 70.096 178.139 69.968 177.457 69.712C176.817 69.4133 176.241 69.0293 175.729 68.56C175.259 68.048 174.875 67.472 174.577 66.832C174.321 66.192 174.193 65.488 174.193 64.72C174.193 63.952 174.321 63.248 174.577 62.608C174.875 61.968 175.259 61.4133 175.729 60.944C176.241 60.432 176.817 60.048 177.457 59.792C178.139 59.4933 178.843 59.344 179.569 59.344C181.062 59.344 182.342 59.8773 183.409 60.944C184.475 61.968 185.009 63.2267 185.009 64.72C185.009 66.2133 184.475 67.4933 183.409 68.56C182.342 69.584 181.062 70.096 179.569 70.096ZM175.409 106V74.64H183.793V106H175.409ZM220.907 98C219.541 100.645 217.621 102.821 215.147 104.528C212.715 106.192 209.664 107.024 205.995 107.024C203.563 107.024 201.323 106.619 199.275 105.808C197.269 104.955 195.52 103.781 194.027 102.288C192.576 100.795 191.424 99.0453 190.571 97.04C189.76 94.992 189.355 92.752 189.355 90.32C189.355 87.888 189.76 85.648 190.571 83.6C191.424 81.552 192.576 79.8027 194.027 78.352C195.52 76.8587 197.269 75.7067 199.275 74.896C201.323 74.0427 203.563 73.616 205.995 73.616C209.621 73.616 212.672 74.448 215.147 76.112C217.621 77.776 219.435 79.9307 220.587 82.576L212.907 85.776C212.181 84.3253 211.243 83.2373 210.091 82.512C208.981 81.744 207.573 81.36 205.867 81.36C204.757 81.36 203.712 81.5733 202.731 82C201.749 82.4267 200.875 83.024 200.107 83.792C199.381 84.56 198.805 85.4987 198.379 86.608C197.952 87.7173 197.739 88.9547 197.739 90.32C197.739 91.6853 197.952 92.9227 198.379 94.032C198.805 95.1413 199.381 96.08 200.107 96.848C200.875 97.616 201.749 98.2133 202.731 98.64C203.712 99.0667 204.757 99.28 205.867 99.28C207.616 99.28 209.088 98.896 210.283 98.128C211.52 97.3173 212.501 96.1653 213.227 94.672L220.907 98ZM245.037 102.672H244.525C243.544 103.867 242.349 104.891 240.941 105.744C239.576 106.597 237.805 107.024 235.629 107.024C234.008 107.024 232.472 106.747 231.021 106.192C229.613 105.68 228.376 104.955 227.309 104.016C226.242 103.077 225.41 101.947 224.813 100.624C224.216 99.3013 223.917 97.8507 223.917 96.272C223.917 94.6507 224.237 93.2 224.877 91.92C225.517 90.5973 226.413 89.4667 227.565 88.528C228.717 87.5893 230.061 86.8853 231.597 86.416C233.176 85.904 234.882 85.648 236.717 85.648C238.765 85.648 240.45 85.8187 241.773 86.16C243.096 86.4587 244.184 86.7787 245.037 87.12V86.16C245.037 84.496 244.376 83.1307 243.053 82.064C241.73 80.9547 240.088 80.4 238.125 80.4C235.224 80.4 232.77 81.616 230.765 84.048L224.685 79.888C228.013 75.7067 232.557 73.616 238.317 73.616C243.181 73.616 246.893 74.768 249.453 77.072C252.013 79.3333 253.293 82.704 253.293 87.184V106H245.037V102.672ZM245.037 93.264C244.056 92.7947 243.032 92.432 241.965 92.176C240.941 91.8773 239.81 91.728 238.573 91.728C236.568 91.728 235.01 92.176 233.901 93.072C232.834 93.9253 232.301 94.992 232.301 96.272C232.301 97.552 232.813 98.576 233.837 99.344C234.904 100.112 236.12 100.496 237.485 100.496C238.594 100.496 239.618 100.304 240.557 99.92C241.496 99.4933 242.285 98.96 242.925 98.32C243.608 97.6373 244.12 96.8693 244.461 96.016C244.845 95.12 245.037 94.2027 245.037 93.264ZM259.191 111.696L262.967 105.872C262.028 105.531 261.218 104.912 260.535 104.016C259.895 103.12 259.575 102.053 259.575 100.816C259.575 99.28 260.108 97.9787 261.175 96.912C262.284 95.8453 263.607 95.312 265.143 95.312C266.679 95.312 267.98 95.8453 269.047 96.912C270.114 97.9787 270.647 99.28 270.647 100.816C270.647 101.627 270.519 102.352 270.263 102.992C270.007 103.589 269.602 104.293 269.047 105.104L262.967 114.192L259.191 111.696ZM107.858 138.176H116.498V184H107.858V138.176ZM132.581 156.736H133.093C134.074 155.157 135.397 153.92 137.061 153.024C138.725 152.085 140.624 151.616 142.757 151.616C144.72 151.616 146.448 151.936 147.941 152.576C149.434 153.216 150.65 154.133 151.589 155.328C152.57 156.48 153.296 157.888 153.765 159.552C154.277 161.173 154.533 162.987 154.533 164.992V184H146.149V166.016C146.149 163.755 145.637 162.091 144.613 161.024C143.632 159.915 142.181 159.36 140.261 159.36C139.109 159.36 138.085 159.616 137.189 160.128C136.336 160.597 135.589 161.259 134.949 162.112C134.352 162.923 133.882 163.904 133.541 165.056C133.242 166.165 133.093 167.36 133.093 168.64V184H124.709V152.64H132.581V156.736ZM184.819 180.224H184.307C183.539 181.547 182.344 182.677 180.723 183.616C179.102 184.555 177.096 185.024 174.707 185.024C172.702 185.024 170.782 184.619 168.947 183.808C167.155 182.955 165.555 181.803 164.147 180.352C162.782 178.859 161.694 177.088 160.883 175.04C160.072 172.992 159.667 170.752 159.667 168.32C159.667 165.888 160.072 163.648 160.883 161.6C161.694 159.552 162.782 157.803 164.147 156.352C165.555 154.859 167.155 153.707 168.947 152.896C170.782 152.043 172.702 151.616 174.707 151.616C177.096 151.616 179.102 152.085 180.723 153.024C182.344 153.963 183.539 155.093 184.307 156.416H184.819L184.307 151.936V138.176H192.691V184H184.819V180.224ZM176.435 177.28C177.544 177.28 178.59 177.088 179.571 176.704C180.595 176.277 181.491 175.68 182.259 174.912C183.027 174.144 183.646 173.205 184.115 172.096C184.584 170.987 184.819 169.728 184.819 168.32C184.819 166.912 184.584 165.653 184.115 164.544C183.646 163.435 183.027 162.496 182.259 161.728C181.491 160.96 180.595 160.384 179.571 160C178.59 159.573 177.544 159.36 176.435 159.36C175.326 159.36 174.259 159.573 173.235 160C172.254 160.427 171.379 161.024 170.611 161.792C169.843 162.56 169.224 163.499 168.755 164.608C168.286 165.717 168.051 166.955 168.051 168.32C168.051 169.685 168.286 170.923 168.755 172.032C169.224 173.141 169.843 174.08 170.611 174.848C171.379 175.616 172.254 176.213 173.235 176.64C174.259 177.067 175.326 177.28 176.435 177.28ZM204.506 148.096C203.781 148.096 203.077 147.968 202.394 147.712C201.754 147.413 201.178 147.029 200.666 146.56C200.197 146.048 199.813 145.472 199.514 144.832C199.258 144.192 199.13 143.488 199.13 142.72C199.13 141.952 199.258 141.248 199.514 140.608C199.813 139.968 200.197 139.413 200.666 138.944C201.178 138.432 201.754 138.048 202.394 137.792C203.077 137.493 203.781 137.344 204.506 137.344C205.999 137.344 207.279 137.877 208.346 138.944C209.413 139.968 209.946 141.227 209.946 142.72C209.946 144.213 209.413 145.493 208.346 146.56C207.279 147.584 205.999 148.096 204.506 148.096ZM200.346 184V152.64H208.73V184H200.346ZM235.412 180.672H234.9C233.919 181.867 232.724 182.891 231.316 183.744C229.951 184.597 228.18 185.024 226.004 185.024C224.383 185.024 222.847 184.747 221.396 184.192C219.988 183.68 218.751 182.955 217.684 182.016C216.617 181.077 215.785 179.947 215.188 178.624C214.591 177.301 214.292 175.851 214.292 174.272C214.292 172.651 214.612 171.2 215.252 169.92C215.892 168.597 216.788 167.467 217.94 166.528C219.092 165.589 220.436 164.885 221.972 164.416C223.551 163.904 225.257 163.648 227.092 163.648C229.14 163.648 230.825 163.819 232.148 164.16C233.471 164.459 234.559 164.779 235.412 165.12V164.16C235.412 162.496 234.751 161.131 233.428 160.064C232.105 158.955 230.463 158.4 228.5 158.4C225.599 158.4 223.145 159.616 221.14 162.048L215.06 157.888C218.388 153.707 222.932 151.616 228.692 151.616C233.556 151.616 237.268 152.768 239.828 155.072C242.388 157.333 243.668 160.704 243.668 165.184V184H235.412V180.672ZM235.412 171.264C234.431 170.795 233.407 170.432 232.34 170.176C231.316 169.877 230.185 169.728 228.948 169.728C226.943 169.728 225.385 170.176 224.276 171.072C223.209 171.925 222.676 172.992 222.676 174.272C222.676 175.552 223.188 176.576 224.212 177.344C225.279 178.112 226.495 178.496 227.86 178.496C228.969 178.496 229.993 178.304 230.932 177.92C231.871 177.493 232.66 176.96 233.3 176.32C233.983 175.637 234.495 174.869 234.836 174.016C235.22 173.12 235.412 172.203 235.412 171.264Z" fill="#5BEBFF"/>
</svg>
