<svg width="351" height="316" viewBox="0 0 351 316" fill="none" xmlns="http://www.w3.org/2000/svg">
<path d="M1 201V262C1 275.807 12.1929 287 26 287H49" stroke="white" stroke-width="2"/>
<path d="M350 87V26C350 12.1929 338.807 0.999999 325 0.999999H302" stroke="white" stroke-width="2"/>
<rect x="1" y="1" width="349" height="286" rx="24" fill="#1F2324"/>
<rect x="49" y="235" width="253" height="81" rx="28" fill="#4F4F4F"/>
<path d="M109.398 267.261V263.727H127.966V267.261H120.773V287H116.591V267.261H109.398ZM136.446 287.341C134.741 287.341 133.264 286.966 132.014 286.216C130.764 285.466 129.795 284.417 129.105 283.068C128.423 281.72 128.082 280.144 128.082 278.341C128.082 276.538 128.423 274.958 129.105 273.602C129.795 272.246 130.764 271.193 132.014 270.443C133.264 269.693 134.741 269.318 136.446 269.318C138.151 269.318 139.628 269.693 140.878 270.443C142.128 271.193 143.094 272.246 143.776 273.602C144.465 274.958 144.81 276.538 144.81 278.341C144.81 280.144 144.465 281.72 143.776 283.068C143.094 284.417 142.128 285.466 140.878 286.216C139.628 286.966 138.151 287.341 136.446 287.341ZM136.469 284.045C137.393 284.045 138.166 283.792 138.787 283.284C139.408 282.769 139.87 282.08 140.173 281.216C140.484 280.352 140.639 279.39 140.639 278.33C140.639 277.261 140.484 276.295 140.173 275.432C139.87 274.561 139.408 273.867 138.787 273.352C138.166 272.837 137.393 272.58 136.469 272.58C135.522 272.58 134.734 272.837 134.105 273.352C133.484 273.867 133.018 274.561 132.707 275.432C132.404 276.295 132.253 277.261 132.253 278.33C132.253 279.39 132.404 280.352 132.707 281.216C133.018 282.08 133.484 282.769 134.105 283.284C134.734 283.792 135.522 284.045 136.469 284.045ZM159.426 279.659V269.545H163.54V287H159.551V283.898H159.369C158.975 284.875 158.328 285.674 157.426 286.295C156.532 286.917 155.43 287.227 154.119 287.227C152.975 287.227 151.964 286.973 151.085 286.466C150.214 285.951 149.532 285.205 149.04 284.227C148.547 283.242 148.301 282.053 148.301 280.659V269.545H152.415V280.023C152.415 281.129 152.718 282.008 153.324 282.659C153.93 283.311 154.725 283.636 155.71 283.636C156.316 283.636 156.903 283.489 157.472 283.193C158.04 282.898 158.506 282.458 158.869 281.875C159.241 281.284 159.426 280.545 159.426 279.659ZM175.384 287.341C173.641 287.341 172.145 286.958 170.895 286.193C169.652 285.428 168.694 284.371 168.02 283.023C167.353 281.667 167.02 280.106 167.02 278.341C167.02 276.568 167.361 275.004 168.043 273.648C168.724 272.284 169.687 271.223 170.929 270.466C172.179 269.701 173.656 269.318 175.361 269.318C176.777 269.318 178.031 269.58 179.122 270.102C180.221 270.617 181.096 271.348 181.747 272.295C182.399 273.235 182.77 274.333 182.861 275.591H178.929C178.77 274.75 178.391 274.049 177.793 273.489C177.202 272.92 176.41 272.636 175.418 272.636C174.577 272.636 173.838 272.864 173.202 273.318C172.565 273.765 172.069 274.409 171.713 275.25C171.365 276.091 171.19 277.098 171.19 278.273C171.19 279.462 171.365 280.485 171.713 281.341C172.062 282.189 172.55 282.845 173.179 283.307C173.815 283.761 174.562 283.989 175.418 283.989C176.024 283.989 176.565 283.875 177.043 283.648C177.527 283.413 177.933 283.076 178.259 282.636C178.584 282.197 178.808 281.663 178.929 281.034H182.861C182.762 282.269 182.399 283.364 181.77 284.318C181.141 285.265 180.285 286.008 179.202 286.545C178.118 287.076 176.846 287.341 175.384 287.341ZM190.352 276.773V287H186.239V263.727H190.261V272.511H190.466C190.875 271.527 191.508 270.75 192.364 270.182C193.227 269.606 194.326 269.318 195.659 269.318C196.871 269.318 197.928 269.572 198.83 270.08C199.731 270.587 200.428 271.33 200.92 272.307C201.42 273.284 201.67 274.477 201.67 275.886V287H197.557V276.523C197.557 275.348 197.254 274.436 196.648 273.784C196.049 273.125 195.208 272.795 194.125 272.795C193.398 272.795 192.746 272.955 192.17 273.273C191.602 273.583 191.155 274.034 190.83 274.625C190.511 275.216 190.352 275.932 190.352 276.773ZM213.591 287.341C211.841 287.341 210.33 286.977 209.057 286.25C207.792 285.515 206.818 284.477 206.136 283.136C205.455 281.788 205.114 280.201 205.114 278.375C205.114 276.58 205.455 275.004 206.136 273.648C206.826 272.284 207.788 271.223 209.023 270.466C210.258 269.701 211.708 269.318 213.375 269.318C214.451 269.318 215.466 269.492 216.42 269.841C217.383 270.182 218.231 270.712 218.966 271.432C219.708 272.152 220.292 273.068 220.716 274.182C221.14 275.288 221.352 276.606 221.352 278.136V279.398H207.045V276.625H217.409C217.402 275.837 217.231 275.136 216.898 274.523C216.564 273.902 216.098 273.413 215.5 273.057C214.909 272.701 214.22 272.523 213.432 272.523C212.591 272.523 211.852 272.727 211.216 273.136C210.58 273.538 210.083 274.068 209.727 274.727C209.379 275.379 209.201 276.095 209.193 276.875V279.295C209.193 280.311 209.379 281.182 209.75 281.909C210.121 282.629 210.64 283.182 211.307 283.568C211.973 283.947 212.754 284.136 213.648 284.136C214.246 284.136 214.788 284.053 215.273 283.886C215.758 283.712 216.178 283.458 216.534 283.125C216.89 282.792 217.159 282.379 217.341 281.886L221.182 282.318C220.939 283.333 220.477 284.22 219.795 284.977C219.121 285.727 218.258 286.311 217.205 286.727C216.152 287.136 214.947 287.341 213.591 287.341ZM231.31 287.307C229.938 287.307 228.711 286.955 227.628 286.25C226.545 285.545 225.688 284.523 225.06 283.182C224.431 281.841 224.116 280.212 224.116 278.295C224.116 276.356 224.435 274.72 225.071 273.386C225.715 272.045 226.582 271.034 227.673 270.352C228.764 269.663 229.98 269.318 231.321 269.318C232.344 269.318 233.185 269.492 233.844 269.841C234.503 270.182 235.026 270.595 235.412 271.08C235.798 271.557 236.098 272.008 236.31 272.432H236.48V263.727H240.605V287H236.56V284.25H236.31C236.098 284.674 235.791 285.125 235.389 285.602C234.988 286.072 234.457 286.473 233.798 286.807C233.139 287.14 232.31 287.307 231.31 287.307ZM232.457 283.932C233.329 283.932 234.071 283.697 234.685 283.227C235.298 282.75 235.764 282.087 236.082 281.239C236.401 280.39 236.56 279.402 236.56 278.273C236.56 277.144 236.401 276.163 236.082 275.33C235.772 274.496 235.31 273.848 234.696 273.386C234.09 272.924 233.344 272.693 232.457 272.693C231.541 272.693 230.776 272.932 230.162 273.409C229.548 273.886 229.086 274.545 228.776 275.386C228.465 276.227 228.31 277.189 228.31 278.273C228.31 279.364 228.465 280.337 228.776 281.193C229.094 282.042 229.56 282.712 230.173 283.205C230.795 283.689 231.556 283.932 232.457 283.932Z" fill="white"/>
<path d="M67.943 76.896C66.375 76.896 64.863 76.6907 63.407 76.28C61.9884 75.8693 60.6817 75.2533 59.487 74.432C58.2924 73.5733 57.2284 72.5093 56.295 71.24C55.399 69.9707 54.7084 68.496 54.223 66.816L61.111 64.072C61.5964 65.9387 62.4177 67.3573 63.575 68.328C64.7324 69.2613 66.1884 69.728 67.943 69.728C68.727 69.728 69.4737 69.616 70.183 69.392C70.8924 69.1307 71.5084 68.776 72.031 68.328C72.5537 67.88 72.9644 67.3573 73.263 66.76C73.599 66.1253 73.767 65.416 73.767 64.632C73.767 62.9893 73.151 61.7013 71.919 60.768C70.7244 59.8347 69.063 59.368 66.935 59.368H63.631V52.704H66.655C67.4017 52.704 68.1297 52.6107 68.839 52.424C69.5484 52.2373 70.1644 51.9573 70.687 51.584C71.247 51.1733 71.6764 50.6693 71.975 50.072C72.311 49.4373 72.479 48.7093 72.479 47.888C72.479 46.6187 72.031 45.592 71.135 44.808C70.239 43.9867 69.0257 43.576 67.495 43.576C65.8524 43.576 64.583 44.024 63.687 44.92C62.8284 45.7787 62.231 46.7493 61.895 47.832L55.175 45.088C55.511 44.1547 56.015 43.2027 56.687 42.232C57.359 41.224 58.199 40.328 59.207 39.544C60.2524 38.7227 61.4657 38.0693 62.847 37.584C64.2284 37.0613 65.815 36.8 67.607 36.8C69.4364 36.8 71.0977 37.0613 72.591 37.584C74.1217 38.1067 75.4284 38.8347 76.511 39.768C77.5937 40.664 78.4337 41.7467 79.031 43.016C79.6284 44.248 79.927 45.592 79.927 47.048C79.927 48.168 79.7777 49.176 79.479 50.072C79.2177 50.968 78.863 51.7707 78.415 52.48C77.967 53.1893 77.4444 53.8053 76.847 54.328C76.287 54.8133 75.7084 55.2053 75.111 55.504V55.952C76.903 56.6613 78.3777 57.8 79.535 59.368C80.7297 60.936 81.327 62.9147 81.327 65.304C81.327 66.984 81.0097 68.5333 80.375 69.952C79.7404 71.3333 78.8257 72.5467 77.631 73.592C76.4737 74.6373 75.0737 75.44 73.431 76C71.7884 76.5973 69.959 76.896 67.943 76.896ZM85.4601 80.984L88.7641 75.888C87.9428 75.5893 87.2334 75.048 86.6361 74.264C86.0761 73.48 85.7961 72.5467 85.7961 71.464C85.7961 70.12 86.2628 68.9813 87.1961 68.048C88.1668 67.1147 89.3241 66.648 90.6681 66.648C92.0121 66.648 93.1508 67.1147 94.0841 68.048C95.0174 68.9813 95.4841 70.12 95.4841 71.464C95.4841 72.1733 95.3721 72.808 95.1481 73.368C94.9241 73.8907 94.5694 74.5067 94.0841 75.216L88.7641 83.168L85.4601 80.984ZM116.735 76.896C114.271 76.896 112.05 76.392 110.071 75.384C108.093 74.3387 106.394 72.92 104.975 71.128C103.594 69.336 102.53 67.2267 101.783 64.8C101.037 62.336 100.663 59.6853 100.663 56.848C100.663 54.0107 101.037 51.3787 101.783 48.952C102.53 46.488 103.594 44.36 104.975 42.568C106.394 40.776 108.093 39.376 110.071 38.368C112.05 37.3227 114.271 36.8 116.735 36.8C119.199 36.8 121.421 37.3227 123.399 38.368C125.378 39.376 127.058 40.776 128.439 42.568C129.858 44.36 130.941 46.488 131.687 48.952C132.434 51.3787 132.807 54.0107 132.807 56.848C132.807 59.6853 132.434 62.336 131.687 64.8C130.941 67.2267 129.858 69.336 128.439 71.128C127.058 72.92 125.378 74.3387 123.399 75.384C121.421 76.392 119.199 76.896 116.735 76.896ZM116.735 69.952C118.079 69.952 119.293 69.6347 120.375 69C121.458 68.328 122.373 67.4133 123.119 66.256C123.903 65.0613 124.482 63.6613 124.855 62.056C125.266 60.4507 125.471 58.7147 125.471 56.848C125.471 54.944 125.266 53.208 124.855 51.64C124.482 50.0347 123.903 48.6533 123.119 47.496C122.373 46.3013 121.458 45.3867 120.375 44.752C119.293 44.08 118.079 43.744 116.735 43.744C115.354 43.744 114.122 44.08 113.039 44.752C111.957 45.3867 111.042 46.3013 110.295 47.496C109.549 48.6533 108.97 50.0347 108.559 51.64C108.186 53.208 107.999 54.944 107.999 56.848C107.999 58.7147 108.186 60.4507 108.559 62.056C108.97 63.6613 109.549 65.0613 110.295 66.256C111.042 67.4133 111.957 68.328 113.039 69C114.122 69.6347 115.354 69.952 116.735 69.952ZM153.813 76.896C151.349 76.896 149.128 76.392 147.149 75.384C145.171 74.3387 143.472 72.92 142.053 71.128C140.672 69.336 139.608 67.2267 138.861 64.8C138.115 62.336 137.741 59.6853 137.741 56.848C137.741 54.0107 138.115 51.3787 138.861 48.952C139.608 46.488 140.672 44.36 142.053 42.568C143.472 40.776 145.171 39.376 147.149 38.368C149.128 37.3227 151.349 36.8 153.813 36.8C156.277 36.8 158.499 37.3227 160.477 38.368C162.456 39.376 164.136 40.776 165.517 42.568C166.936 44.36 168.019 46.488 168.765 48.952C169.512 51.3787 169.885 54.0107 169.885 56.848C169.885 59.6853 169.512 62.336 168.765 64.8C168.019 67.2267 166.936 69.336 165.517 71.128C164.136 72.92 162.456 74.3387 160.477 75.384C158.499 76.392 156.277 76.896 153.813 76.896ZM153.813 69.952C155.157 69.952 156.371 69.6347 157.453 69C158.536 68.328 159.451 67.4133 160.197 66.256C160.981 65.0613 161.56 63.6613 161.933 62.056C162.344 60.4507 162.549 58.7147 162.549 56.848C162.549 54.944 162.344 53.208 161.933 51.64C161.56 50.0347 160.981 48.6533 160.197 47.496C159.451 46.3013 158.536 45.3867 157.453 44.752C156.371 44.08 155.157 43.744 153.813 43.744C152.432 43.744 151.2 44.08 150.117 44.752C149.035 45.3867 148.12 46.3013 147.373 47.496C146.627 48.6533 146.048 50.0347 145.637 51.64C145.264 53.208 145.077 54.944 145.077 56.848C145.077 58.7147 145.264 60.4507 145.637 62.056C146.048 63.6613 146.627 65.0613 147.373 66.256C148.12 67.4133 149.035 68.328 150.117 69C151.2 69.6347 152.432 69.952 153.813 69.952ZM174.819 80.984L178.123 75.888C177.302 75.5893 176.593 75.048 175.995 74.264C175.435 73.48 175.155 72.5467 175.155 71.464C175.155 70.12 175.622 68.9813 176.555 68.048C177.526 67.1147 178.683 66.648 180.027 66.648C181.371 66.648 182.51 67.1147 183.443 68.048C184.377 68.9813 184.843 70.12 184.843 71.464C184.843 72.1733 184.731 72.808 184.507 73.368C184.283 73.8907 183.929 74.5067 183.443 75.216L178.123 83.168L174.819 80.984ZM206.095 76.896C203.631 76.896 201.409 76.392 199.431 75.384C197.452 74.3387 195.753 72.92 194.335 71.128C192.953 69.336 191.889 67.2267 191.143 64.8C190.396 62.336 190.023 59.6853 190.023 56.848C190.023 54.0107 190.396 51.3787 191.143 48.952C191.889 46.488 192.953 44.36 194.335 42.568C195.753 40.776 197.452 39.376 199.431 38.368C201.409 37.3227 203.631 36.8 206.095 36.8C208.559 36.8 210.78 37.3227 212.759 38.368C214.737 39.376 216.417 40.776 217.799 42.568C219.217 44.36 220.3 46.488 221.047 48.952C221.793 51.3787 222.167 54.0107 222.167 56.848C222.167 59.6853 221.793 62.336 221.047 64.8C220.3 67.2267 219.217 69.336 217.799 71.128C216.417 72.92 214.737 74.3387 212.759 75.384C210.78 76.392 208.559 76.896 206.095 76.896ZM206.095 69.952C207.439 69.952 208.652 69.6347 209.735 69C210.817 68.328 211.732 67.4133 212.479 66.256C213.263 65.0613 213.841 63.6613 214.215 62.056C214.625 60.4507 214.831 58.7147 214.831 56.848C214.831 54.944 214.625 53.208 214.215 51.64C213.841 50.0347 213.263 48.6533 212.479 47.496C211.732 46.3013 210.817 45.3867 209.735 44.752C208.652 44.08 207.439 43.744 206.095 43.744C204.713 43.744 203.481 44.08 202.399 44.752C201.316 45.3867 200.401 46.3013 199.655 47.496C198.908 48.6533 198.329 50.0347 197.919 51.64C197.545 53.208 197.359 54.944 197.359 56.848C197.359 58.7147 197.545 60.4507 197.919 62.056C198.329 63.6613 198.908 65.0613 199.655 66.256C200.401 67.4133 201.316 68.328 202.399 69C203.481 69.6347 204.713 69.952 206.095 69.952ZM243.173 76.896C240.709 76.896 238.487 76.392 236.509 75.384C234.53 74.3387 232.831 72.92 231.413 71.128C230.031 69.336 228.967 67.2267 228.221 64.8C227.474 62.336 227.101 59.6853 227.101 56.848C227.101 54.0107 227.474 51.3787 228.221 48.952C228.967 46.488 230.031 44.36 231.413 42.568C232.831 40.776 234.53 39.376 236.509 38.368C238.487 37.3227 240.709 36.8 243.173 36.8C245.637 36.8 247.858 37.3227 249.837 38.368C251.815 39.376 253.495 40.776 254.877 42.568C256.295 44.36 257.378 46.488 258.125 48.952C258.871 51.3787 259.245 54.0107 259.245 56.848C259.245 59.6853 258.871 62.336 258.125 64.8C257.378 67.2267 256.295 69.336 254.877 71.128C253.495 72.92 251.815 74.3387 249.837 75.384C247.858 76.392 245.637 76.896 243.173 76.896ZM243.173 69.952C244.517 69.952 245.73 69.6347 246.813 69C247.895 68.328 248.81 67.4133 249.557 66.256C250.341 65.0613 250.919 63.6613 251.293 62.056C251.703 60.4507 251.909 58.7147 251.909 56.848C251.909 54.944 251.703 53.208 251.293 51.64C250.919 50.0347 250.341 48.6533 249.557 47.496C248.81 46.3013 247.895 45.3867 246.813 44.752C245.73 44.08 244.517 43.744 243.173 43.744C241.791 43.744 240.559 44.08 239.477 44.752C238.394 45.3867 237.479 46.3013 236.733 47.496C235.986 48.6533 235.407 50.0347 234.997 51.64C234.623 53.208 234.437 54.944 234.437 56.848C234.437 58.7147 234.623 60.4507 234.997 62.056C235.407 63.6613 235.986 65.0613 236.733 66.256C237.479 67.4133 238.394 68.328 239.477 69C240.559 69.6347 241.791 69.952 243.173 69.952ZM280.251 76.896C277.787 76.896 275.566 76.392 273.587 75.384C271.608 74.3387 269.91 72.92 268.491 71.128C267.11 69.336 266.046 67.2267 265.299 64.8C264.552 62.336 264.179 59.6853 264.179 56.848C264.179 54.0107 264.552 51.3787 265.299 48.952C266.046 46.488 267.11 44.36 268.491 42.568C269.91 40.776 271.608 39.376 273.587 38.368C275.566 37.3227 277.787 36.8 280.251 36.8C282.715 36.8 284.936 37.3227 286.915 38.368C288.894 39.376 290.574 40.776 291.955 42.568C293.374 44.36 294.456 46.488 295.203 48.952C295.95 51.3787 296.323 54.0107 296.323 56.848C296.323 59.6853 295.95 62.336 295.203 64.8C294.456 67.2267 293.374 69.336 291.955 71.128C290.574 72.92 288.894 74.3387 286.915 75.384C284.936 76.392 282.715 76.896 280.251 76.896ZM280.251 69.952C281.595 69.952 282.808 69.6347 283.891 69C284.974 68.328 285.888 67.4133 286.635 66.256C287.419 65.0613 287.998 63.6613 288.371 62.056C288.782 60.4507 288.987 58.7147 288.987 56.848C288.987 54.944 288.782 53.208 288.371 51.64C287.998 50.0347 287.419 48.6533 286.635 47.496C285.888 46.3013 284.974 45.3867 283.891 44.752C282.808 44.08 281.595 43.744 280.251 43.744C278.87 43.744 277.638 44.08 276.555 44.752C275.472 45.3867 274.558 46.3013 273.811 47.496C273.064 48.6533 272.486 50.0347 272.075 51.64C271.702 53.208 271.515 54.944 271.515 56.848C271.515 58.7147 271.702 60.4507 272.075 62.056C272.486 63.6613 273.064 65.0613 273.811 66.256C274.558 67.4133 275.472 68.328 276.555 69C277.638 69.6347 278.87 69.952 280.251 69.952ZM178.711 119.576H188.287V126.072H178.711V135.592H172.215V126.072H162.695V119.576H172.215V110.056H178.711V119.576Z" fill="#5BEBFF"/>
<path d="M122.151 210V171.336H129.225V210H122.151ZM139.224 179.706C138.612 179.706 138.018 179.598 137.442 179.382C136.902 179.13 136.416 178.806 135.984 178.41C135.588 177.978 135.264 177.492 135.012 176.952C134.796 176.412 134.688 175.818 134.688 175.17C134.688 174.522 134.796 173.928 135.012 173.388C135.264 172.848 135.588 172.38 135.984 171.984C136.416 171.552 136.902 171.228 137.442 171.012C138.018 170.76 138.612 170.634 139.224 170.634C140.484 170.634 141.564 171.084 142.464 171.984C143.364 172.848 143.814 173.91 143.814 175.17C143.814 176.43 143.364 177.51 142.464 178.41C141.564 179.274 140.484 179.706 139.224 179.706ZM135.714 210V183.54H142.788V210H135.714ZM146.448 183.54H154.494L161.082 200.388H161.46L168.102 183.54H176.094L164.7 210H157.734L146.448 183.54ZM203.58 203.628C202.356 205.788 200.7 207.534 198.612 208.866C196.56 210.198 194.04 210.864 191.052 210.864C189.036 210.864 187.164 210.522 185.436 209.838C183.744 209.118 182.268 208.128 181.008 206.868C179.748 205.608 178.758 204.132 178.038 202.44C177.354 200.712 177.012 198.822 177.012 196.77C177.012 194.862 177.354 193.062 178.038 191.37C178.722 189.642 179.676 188.148 180.9 186.888C182.124 185.592 183.564 184.566 185.22 183.81C186.912 183.054 188.766 182.676 190.782 182.676C192.906 182.676 194.796 183.036 196.452 183.756C198.108 184.44 199.494 185.412 200.61 186.672C201.726 187.896 202.572 189.354 203.148 191.046C203.724 192.738 204.012 194.574 204.012 196.554C204.012 196.806 204.012 197.022 204.012 197.202C203.976 197.418 203.958 197.616 203.958 197.796C203.922 197.976 203.904 198.174 203.904 198.39H183.978C184.122 199.47 184.41 200.406 184.842 201.198C185.31 201.954 185.868 202.602 186.516 203.142C187.2 203.646 187.938 204.024 188.73 204.276C189.522 204.492 190.332 204.6 191.16 204.6C192.78 204.6 194.112 204.24 195.156 203.52C196.236 202.764 197.082 201.828 197.694 200.712L203.58 203.628ZM197.154 193.368C197.118 192.9 196.956 192.378 196.668 191.802C196.416 191.226 196.02 190.686 195.48 190.182C194.976 189.678 194.328 189.264 193.536 188.94C192.78 188.616 191.862 188.454 190.782 188.454C189.27 188.454 187.938 188.886 186.786 189.75C185.634 190.614 184.824 191.82 184.356 193.368H197.154ZM219.27 210.864C217.542 210.864 215.994 210.648 214.626 210.216C213.294 209.784 212.124 209.226 211.116 208.542C210.144 207.822 209.316 207.012 208.632 206.112C207.948 205.176 207.426 204.24 207.066 203.304L213.384 200.604C213.996 201.972 214.806 202.998 215.814 203.682C216.858 204.33 218.01 204.654 219.27 204.654C220.566 204.654 221.592 204.42 222.348 203.952C223.104 203.484 223.482 202.926 223.482 202.278C223.482 201.558 223.158 200.982 222.51 200.55C221.898 200.082 220.818 199.668 219.27 199.308L215.544 198.498C214.716 198.318 213.852 198.03 212.952 197.634C212.088 197.238 211.296 196.734 210.576 196.122C209.856 195.51 209.262 194.772 208.794 193.908C208.326 193.044 208.092 192.036 208.092 190.884C208.092 189.588 208.362 188.436 208.902 187.428C209.478 186.42 210.252 185.574 211.224 184.89C212.196 184.17 213.33 183.63 214.626 183.27C215.958 182.874 217.38 182.676 218.892 182.676C221.412 182.676 223.662 183.18 225.642 184.188C227.622 185.16 229.08 186.726 230.016 188.886L223.914 191.37C223.41 190.326 222.672 189.57 221.7 189.102C220.728 188.634 219.756 188.4 218.784 188.4C217.776 188.4 216.894 188.616 216.138 189.048C215.382 189.444 215.004 189.966 215.004 190.614C215.004 191.226 215.31 191.712 215.922 192.072C216.57 192.432 217.434 192.756 218.514 193.044L222.564 194.016C225.264 194.664 227.262 195.708 228.558 197.148C229.89 198.552 230.556 200.226 230.556 202.17C230.556 203.322 230.286 204.42 229.746 205.464C229.206 206.508 228.432 207.444 227.424 208.272C226.452 209.064 225.264 209.694 223.86 210.162C222.492 210.63 220.962 210.864 219.27 210.864Z" fill="white" fill-opacity="0.7"/>
</svg>
