<svg width="468" height="468" viewBox="0 0 468 468" fill="none" xmlns="http://www.w3.org/2000/svg">
<circle cx="234" cy="234" r="218" fill="#101D28" stroke="#BBDDFA" stroke-width="32"/>
<path d="M436 234C436 207.473 430.775 181.206 420.624 156.698C410.472 132.19 395.593 109.922 376.836 91.1644C358.078 72.407 335.81 57.5278 311.302 47.3763C286.794 37.2249 260.527 32 234 32C207.473 32 181.206 37.2249 156.698 47.3763C132.19 57.5278 109.922 72.407 91.1644 91.1644C72.407 109.922 57.5278 132.19 47.3763 156.698C37.2249 181.206 32 207.473 32 234L234 234H436Z" fill="#428BCC"/>
<path d="M389 234C389 213.645 384.991 193.49 377.201 174.684C369.412 155.879 357.995 138.792 343.602 124.398C329.208 110.005 312.121 98.5881 293.316 90.7987C274.51 83.0092 254.355 79 234 79C213.645 79 193.49 83.0092 174.684 90.7987C155.879 98.5882 138.792 110.005 124.398 124.398C110.005 138.792 98.5881 155.879 90.7987 174.684C83.0092 193.49 79 213.645 79 234L234 234H389Z" fill="white" fill-opacity="0.2"/>
<path d="M112.167 310V262.4H130.731C134.902 262.4 138.461 263.057 141.407 264.372C144.354 265.687 146.621 267.591 148.207 270.084C149.794 272.577 150.587 275.547 150.587 278.992C150.587 282.437 149.794 285.407 148.207 287.9C146.621 290.348 144.354 292.252 141.407 293.612C138.461 294.927 134.902 295.584 130.731 295.584H115.907L118.967 292.388V310H112.167ZM118.967 293.068L115.907 289.668H130.527C134.879 289.668 138.166 288.739 140.387 286.88C142.654 285.021 143.787 282.392 143.787 278.992C143.787 275.592 142.654 272.963 140.387 271.104C138.166 269.245 134.879 268.316 130.527 268.316H115.907L118.967 264.916V293.068ZM181.665 310V302.384L181.325 300.956V287.968C181.325 285.203 180.509 283.072 178.877 281.576C177.291 280.035 174.888 279.264 171.669 279.264C169.539 279.264 167.453 279.627 165.413 280.352C163.373 281.032 161.651 281.961 160.245 283.14L157.525 278.244C159.384 276.748 161.605 275.615 164.189 274.844C166.819 274.028 169.561 273.62 172.417 273.62C177.359 273.62 181.167 274.821 183.841 277.224C186.516 279.627 187.853 283.299 187.853 288.24V310H181.665ZM169.833 310.408C167.159 310.408 164.801 309.955 162.761 309.048C160.767 308.141 159.225 306.895 158.137 305.308C157.049 303.676 156.505 301.84 156.505 299.8C156.505 297.851 156.959 296.083 157.865 294.496C158.817 292.909 160.336 291.64 162.421 290.688C164.552 289.736 167.408 289.26 170.989 289.26H182.413V293.952H171.261C167.997 293.952 165.799 294.496 164.665 295.584C163.532 296.672 162.965 297.987 162.965 299.528C162.965 301.296 163.668 302.724 165.073 303.812C166.479 304.855 168.428 305.376 170.921 305.376C173.369 305.376 175.5 304.832 177.313 303.744C179.172 302.656 180.509 301.069 181.325 298.984L182.617 303.472C181.756 305.603 180.237 307.303 178.061 308.572C175.885 309.796 173.143 310.408 169.833 310.408ZM212.31 310.408C208.683 310.408 205.873 309.433 203.878 307.484C201.883 305.535 200.886 302.747 200.886 299.12V266.072H207.414V298.848C207.414 300.797 207.89 302.293 208.842 303.336C209.839 304.379 211.245 304.9 213.058 304.9C215.098 304.9 216.798 304.333 218.158 303.2L220.198 307.892C219.201 308.753 217.999 309.388 216.594 309.796C215.234 310.204 213.806 310.408 212.31 310.408ZM194.766 279.332V273.96H217.75V279.332H194.766ZM228.09 310V273.96H234.618V310H228.09ZM231.354 267.024C230.085 267.024 229.02 266.616 228.158 265.8C227.342 264.984 226.934 263.987 226.934 262.808C226.934 261.584 227.342 260.564 228.158 259.748C229.02 258.932 230.085 258.524 231.354 258.524C232.624 258.524 233.666 258.932 234.482 259.748C235.344 260.519 235.774 261.493 235.774 262.672C235.774 263.896 235.366 264.939 234.55 265.8C233.734 266.616 232.669 267.024 231.354 267.024ZM263.131 310.408C259.277 310.408 255.877 309.615 252.931 308.028C250.029 306.441 247.763 304.265 246.131 301.5C244.544 298.735 243.751 295.561 243.751 291.98C243.751 288.399 244.521 285.225 246.063 282.46C247.649 279.695 249.803 277.541 252.523 276C255.288 274.413 258.393 273.62 261.839 273.62C265.329 273.62 268.412 274.391 271.087 275.932C273.761 277.473 275.847 279.649 277.343 282.46C278.884 285.225 279.655 288.467 279.655 292.184C279.655 292.456 279.632 292.773 279.587 293.136C279.587 293.499 279.564 293.839 279.519 294.156H248.851V289.464H276.119L273.467 291.096C273.512 288.784 273.036 286.721 272.039 284.908C271.041 283.095 269.659 281.689 267.891 280.692C266.168 279.649 264.151 279.128 261.839 279.128C259.572 279.128 257.555 279.649 255.787 280.692C254.019 281.689 252.636 283.117 251.639 284.976C250.641 286.789 250.143 288.875 250.143 291.232V292.32C250.143 294.723 250.687 296.876 251.775 298.78C252.908 300.639 254.472 302.089 256.467 303.132C258.461 304.175 260.751 304.696 263.335 304.696C265.465 304.696 267.392 304.333 269.115 303.608C270.883 302.883 272.424 301.795 273.739 300.344L277.343 304.56C275.711 306.464 273.671 307.915 271.223 308.912C268.82 309.909 266.123 310.408 263.131 310.408ZM307.963 273.62C310.91 273.62 313.494 274.187 315.715 275.32C317.982 276.453 319.75 278.176 321.019 280.488C322.289 282.8 322.923 285.724 322.923 289.26V310H316.395V290.008C316.395 286.517 315.534 283.888 313.811 282.12C312.134 280.352 309.754 279.468 306.671 279.468C304.359 279.468 302.342 279.921 300.619 280.828C298.897 281.735 297.559 283.072 296.607 284.84C295.701 286.608 295.247 288.807 295.247 291.436V310H288.719V273.96H294.975V283.684L293.955 281.1C295.134 278.743 296.947 276.907 299.395 275.592C301.843 274.277 304.699 273.62 307.963 273.62ZM347.38 310.408C343.754 310.408 340.943 309.433 338.948 307.484C336.954 305.535 335.956 302.747 335.956 299.12V266.072H342.484V298.848C342.484 300.797 342.96 302.293 343.912 303.336C344.91 304.379 346.315 304.9 348.128 304.9C350.168 304.9 351.868 304.333 353.228 303.2L355.268 307.892C354.271 308.753 353.07 309.388 351.664 309.796C350.304 310.204 348.876 310.408 347.38 310.408ZM329.836 279.332V273.96H352.82V279.332H329.836ZM176.428 337.192H187.98V339.944H176.428V337.192ZM176.748 349H173.548V326.6H189.356V329.384H176.748V349ZM200.145 349.192C198.438 349.192 196.923 348.819 195.601 348.072C194.278 347.325 193.233 346.301 192.465 345C191.697 343.677 191.313 342.184 191.313 340.52C191.313 338.835 191.697 337.341 192.465 336.04C193.233 334.739 194.278 333.725 195.601 333C196.923 332.253 198.438 331.88 200.145 331.88C201.83 331.88 203.334 332.253 204.657 333C206.001 333.725 207.046 334.739 207.793 336.04C208.561 337.32 208.945 338.813 208.945 340.52C208.945 342.205 208.561 343.699 207.793 345C207.046 346.301 206.001 347.325 204.657 348.072C203.334 348.819 201.83 349.192 200.145 349.192ZM200.145 346.504C201.233 346.504 202.203 346.259 203.057 345.768C203.931 345.277 204.614 344.584 205.105 343.688C205.595 342.771 205.841 341.715 205.841 340.52C205.841 339.304 205.595 338.259 205.105 337.384C204.614 336.488 203.931 335.795 203.057 335.304C202.203 334.813 201.233 334.568 200.145 334.568C199.057 334.568 198.086 334.813 197.233 335.304C196.379 335.795 195.697 336.488 195.185 337.384C194.673 338.259 194.417 339.304 194.417 340.52C194.417 341.715 194.673 342.771 195.185 343.688C195.697 344.584 196.379 345.277 197.233 345.768C198.086 346.259 199.057 346.504 200.145 346.504ZM220.457 349.192C218.751 349.192 217.236 348.819 215.913 348.072C214.591 347.325 213.545 346.301 212.777 345C212.009 343.677 211.625 342.184 211.625 340.52C211.625 338.835 212.009 337.341 212.777 336.04C213.545 334.739 214.591 333.725 215.913 333C217.236 332.253 218.751 331.88 220.457 331.88C222.143 331.88 223.647 332.253 224.969 333C226.313 333.725 227.359 334.739 228.105 336.04C228.873 337.32 229.257 338.813 229.257 340.52C229.257 342.205 228.873 343.699 228.105 345C227.359 346.301 226.313 347.325 224.969 348.072C223.647 348.819 222.143 349.192 220.457 349.192ZM220.457 346.504C221.545 346.504 222.516 346.259 223.369 345.768C224.244 345.277 224.927 344.584 225.417 343.688C225.908 342.771 226.153 341.715 226.153 340.52C226.153 339.304 225.908 338.259 225.417 337.384C224.927 336.488 224.244 335.795 223.369 335.304C222.516 334.813 221.545 334.568 220.457 334.568C219.369 334.568 218.399 334.813 217.545 335.304C216.692 335.795 216.009 336.488 215.497 337.384C214.985 338.259 214.729 339.304 214.729 340.52C214.729 341.715 214.985 342.771 215.497 343.688C216.009 344.584 216.692 345.277 217.545 345.768C218.399 346.259 219.369 346.504 220.457 346.504ZM239.33 349.192C237.623 349.192 236.3 348.733 235.362 347.816C234.423 346.899 233.954 345.587 233.954 343.88V328.328H237.026V343.752C237.026 344.669 237.25 345.373 237.698 345.864C238.167 346.355 238.828 346.6 239.682 346.6C240.642 346.6 241.442 346.333 242.082 345.8L243.042 348.008C242.572 348.413 242.007 348.712 241.346 348.904C240.706 349.096 240.034 349.192 239.33 349.192ZM231.074 334.568V332.04H241.89V334.568H231.074ZM247.204 349V330.536C247.204 328.872 247.684 327.549 248.644 326.568C249.625 325.565 251.012 325.064 252.804 325.064C253.465 325.064 254.094 325.149 254.692 325.32C255.31 325.469 255.833 325.715 256.26 326.056L255.332 328.392C255.012 328.136 254.649 327.944 254.244 327.816C253.838 327.667 253.412 327.592 252.964 327.592C252.068 327.592 251.385 327.848 250.916 328.36C250.446 328.851 250.212 329.587 250.212 330.568V332.84L250.276 334.248V349H247.204ZM244.324 334.568V332.04H255.14V334.568H244.324ZM268.253 349V345.416L268.093 344.744V338.632C268.093 337.331 267.709 336.328 266.941 335.624C266.194 334.899 265.063 334.536 263.549 334.536C262.546 334.536 261.565 334.707 260.605 335.048C259.645 335.368 258.834 335.805 258.173 336.36L256.893 334.056C257.767 333.352 258.813 332.819 260.029 332.456C261.266 332.072 262.557 331.88 263.901 331.88C266.226 331.88 268.018 332.445 269.277 333.576C270.535 334.707 271.165 336.435 271.165 338.76V349H268.253ZM262.685 349.192C261.426 349.192 260.317 348.979 259.357 348.552C258.418 348.125 257.693 347.539 257.181 346.792C256.669 346.024 256.413 345.16 256.413 344.2C256.413 343.283 256.626 342.451 257.053 341.704C257.501 340.957 258.215 340.36 259.197 339.912C260.199 339.464 261.543 339.24 263.229 339.24H268.605V341.448H263.357C261.821 341.448 260.786 341.704 260.253 342.216C259.719 342.728 259.453 343.347 259.453 344.072C259.453 344.904 259.783 345.576 260.445 346.088C261.106 346.579 262.023 346.824 263.197 346.824C264.349 346.824 265.351 346.568 266.205 346.056C267.079 345.544 267.709 344.797 268.093 343.816L268.701 345.928C268.295 346.931 267.581 347.731 266.557 348.328C265.533 348.904 264.242 349.192 262.685 349.192ZM276.85 349V325.256H279.922V349H276.85ZM285.787 349V325.256H288.859V349H285.787Z" fill="white"/>
<path d="M174.734 166V160.015L190.124 145.48C191.34 144.378 192.233 143.39 192.803 142.516C193.373 141.642 193.753 140.844 193.943 140.122C194.171 139.4 194.285 138.735 194.285 138.127C194.285 136.531 193.734 135.315 192.632 134.479C191.568 133.605 189.991 133.168 187.901 133.168C186.229 133.168 184.671 133.491 183.227 134.137C181.821 134.783 180.624 135.79 179.636 137.158L172.91 132.826C174.43 130.546 176.558 128.741 179.294 127.411C182.03 126.081 185.184 125.416 188.756 125.416C191.72 125.416 194.304 125.91 196.508 126.898C198.75 127.848 200.479 129.197 201.695 130.945C202.949 132.693 203.576 134.783 203.576 137.215C203.576 138.507 203.405 139.799 203.063 141.091C202.759 142.345 202.113 143.675 201.125 145.081C200.175 146.487 198.769 148.064 196.907 149.812L184.139 161.839L182.372 158.476H204.887V166H174.734ZM225.797 166.684C222.529 166.684 219.603 165.886 217.019 164.29C214.435 162.656 212.402 160.3 210.92 157.222C209.438 154.144 208.697 150.42 208.697 146.05C208.697 141.68 209.438 137.956 210.92 134.878C212.402 131.8 214.435 129.463 217.019 127.867C219.603 126.233 222.529 125.416 225.797 125.416C229.103 125.416 232.029 126.233 234.575 127.867C237.159 129.463 239.192 131.8 240.674 134.878C242.156 137.956 242.897 141.68 242.897 146.05C242.897 150.42 242.156 154.144 240.674 157.222C239.192 160.3 237.159 162.656 234.575 164.29C232.029 165.886 229.103 166.684 225.797 166.684ZM225.797 158.875C227.355 158.875 228.704 158.438 229.844 157.564C231.022 156.69 231.934 155.303 232.58 153.403C233.264 151.503 233.606 149.052 233.606 146.05C233.606 143.048 233.264 140.597 232.58 138.697C231.934 136.797 231.022 135.41 229.844 134.536C228.704 133.662 227.355 133.225 225.797 133.225C224.277 133.225 222.928 133.662 221.75 134.536C220.61 135.41 219.698 136.797 219.014 138.697C218.368 140.597 218.045 143.048 218.045 146.05C218.045 149.052 218.368 151.503 219.014 153.403C219.698 155.303 220.61 156.69 221.75 157.564C222.928 158.438 224.277 158.875 225.797 158.875ZM253.141 166L280.387 126.1H287.17L259.924 166H253.141ZM256.618 147.646C254.68 147.646 252.97 147.209 251.488 146.335C250.006 145.423 248.828 144.15 247.954 142.516C247.118 140.844 246.7 138.887 246.7 136.645C246.7 134.403 247.118 132.465 247.954 130.831C248.828 129.197 250.006 127.924 251.488 127.012C252.97 126.1 254.68 125.644 256.618 125.644C258.556 125.644 260.266 126.1 261.748 127.012C263.23 127.924 264.389 129.197 265.225 130.831C266.061 132.465 266.479 134.403 266.479 136.645C266.479 138.887 266.061 140.844 265.225 142.516C264.389 144.15 263.23 145.423 261.748 146.335C260.266 147.209 258.556 147.646 256.618 147.646ZM256.618 142.972C257.872 142.972 258.879 142.459 259.639 141.433C260.399 140.369 260.779 138.773 260.779 136.645C260.779 134.517 260.399 132.94 259.639 131.914C258.879 130.85 257.872 130.318 256.618 130.318C255.402 130.318 254.395 130.85 253.597 131.914C252.837 132.94 252.457 134.517 252.457 136.645C252.457 138.735 252.837 140.312 253.597 141.376C254.395 142.44 255.402 142.972 256.618 142.972ZM283.693 166.456C281.793 166.456 280.083 166.019 278.563 165.145C277.081 164.233 275.922 162.96 275.086 161.326C274.25 159.654 273.832 157.697 273.832 155.455C273.832 153.213 274.25 151.275 275.086 149.641C275.922 148.007 277.081 146.734 278.563 145.822C280.083 144.91 281.793 144.454 283.693 144.454C285.669 144.454 287.398 144.91 288.88 145.822C290.362 146.734 291.521 148.007 292.357 149.641C293.193 151.275 293.611 153.213 293.611 155.455C293.611 157.697 293.193 159.654 292.357 161.326C291.521 162.96 290.362 164.233 288.88 165.145C287.398 166.019 285.669 166.456 283.693 166.456ZM283.693 161.782C284.947 161.782 285.954 161.269 286.714 160.243C287.474 159.179 287.854 157.583 287.854 155.455C287.854 153.365 287.474 151.788 286.714 150.724C285.954 149.66 284.947 149.128 283.693 149.128C282.477 149.128 281.47 149.66 280.672 150.724C279.912 151.75 279.532 153.327 279.532 155.455C279.532 157.583 279.912 159.179 280.672 160.243C281.47 161.269 282.477 161.782 283.693 161.782ZM112.554 219V188.334H121.446V219H112.554ZM117 184.059C115.366 184.059 114.036 183.584 113.01 182.634C111.984 181.684 111.471 180.506 111.471 179.1C111.471 177.694 111.984 176.516 113.01 175.566C114.036 174.616 115.366 174.141 117 174.141C118.634 174.141 119.964 174.597 120.99 175.509C122.016 176.383 122.529 177.523 122.529 178.929C122.529 180.411 122.016 181.646 120.99 182.634C120.002 183.584 118.672 184.059 117 184.059ZM148.337 187.878C150.769 187.878 152.935 188.372 154.835 189.36C156.773 190.31 158.293 191.792 159.395 193.806C160.497 195.782 161.048 198.328 161.048 201.444V219H152.156V202.812C152.156 200.342 151.605 198.518 150.503 197.34C149.439 196.162 147.919 195.573 145.943 195.573C144.537 195.573 143.264 195.877 142.124 196.485C141.022 197.055 140.148 197.948 139.502 199.164C138.894 200.38 138.59 201.938 138.59 203.838V219H129.698V188.334H138.191V196.827L136.595 194.262C137.697 192.21 139.274 190.633 141.326 189.531C143.378 188.429 145.715 187.878 148.337 187.878ZM184.151 219.456C180.845 219.456 177.9 218.791 175.316 217.461C172.732 216.093 170.699 214.212 169.217 211.818C167.773 209.424 167.051 206.707 167.051 203.667C167.051 200.589 167.773 197.872 169.217 195.516C170.699 193.122 172.732 191.26 175.316 189.93C177.9 188.562 180.845 187.878 184.151 187.878C187.381 187.878 190.193 188.562 192.587 189.93C194.981 191.26 196.748 193.179 197.888 195.687L190.991 199.392C190.193 197.948 189.186 196.884 187.97 196.2C186.792 195.516 185.5 195.174 184.094 195.174C182.574 195.174 181.206 195.516 179.99 196.2C178.774 196.884 177.805 197.853 177.083 199.107C176.399 200.361 176.057 201.881 176.057 203.667C176.057 205.453 176.399 206.973 177.083 208.227C177.805 209.481 178.774 210.45 179.99 211.134C181.206 211.818 182.574 212.16 184.094 212.16C185.5 212.16 186.792 211.837 187.97 211.191C189.186 210.507 190.193 209.424 190.991 207.942L197.888 211.704C196.748 214.174 194.981 216.093 192.587 217.461C190.193 218.791 187.381 219.456 184.151 219.456ZM203.008 219V188.334H211.501V196.998L210.304 194.49C211.216 192.324 212.679 190.69 214.693 189.588C216.707 188.448 219.158 187.878 222.046 187.878V196.086C221.666 196.048 221.324 196.029 221.02 196.029C220.716 195.991 220.393 195.972 220.051 195.972C217.619 195.972 215.643 196.675 214.123 198.081C212.641 199.449 211.9 201.596 211.9 204.522V219H203.008ZM242.329 219.456C238.833 219.456 235.755 218.772 233.095 217.404C230.473 216.036 228.44 214.174 226.996 211.818C225.552 209.424 224.83 206.707 224.83 203.667C224.83 200.589 225.533 197.872 226.939 195.516C228.383 193.122 230.34 191.26 232.81 189.93C235.28 188.562 238.073 187.878 241.189 187.878C244.191 187.878 246.889 188.524 249.283 189.816C251.715 191.07 253.634 192.894 255.04 195.288C256.446 197.644 257.149 200.475 257.149 203.781C257.149 204.123 257.13 204.522 257.092 204.978C257.054 205.396 257.016 205.795 256.978 206.175H232.069V200.988H252.304L248.884 202.527C248.884 200.931 248.561 199.544 247.915 198.366C247.269 197.188 246.376 196.276 245.236 195.63C244.096 194.946 242.766 194.604 241.246 194.604C239.726 194.604 238.377 194.946 237.199 195.63C236.059 196.276 235.166 197.207 234.52 198.423C233.874 199.601 233.551 201.007 233.551 202.641V204.009C233.551 205.681 233.912 207.163 234.634 208.455C235.394 209.709 236.439 210.678 237.769 211.362C239.137 212.008 240.733 212.331 242.557 212.331C244.191 212.331 245.616 212.084 246.832 211.59C248.086 211.096 249.226 210.355 250.252 209.367L254.983 214.497C253.577 216.093 251.81 217.328 249.682 218.202C247.554 219.038 245.103 219.456 242.329 219.456ZM281.044 219V213.015L280.474 211.704V200.988C280.474 199.088 279.885 197.606 278.707 196.542C277.567 195.478 275.8 194.946 273.406 194.946C271.772 194.946 270.157 195.212 268.561 195.744C267.003 196.238 265.673 196.922 264.571 197.796L261.379 191.583C263.051 190.405 265.065 189.493 267.421 188.847C269.777 188.201 272.171 187.878 274.603 187.878C279.277 187.878 282.906 188.98 285.49 191.184C288.074 193.388 289.366 196.827 289.366 201.501V219H281.044ZM271.696 219.456C269.302 219.456 267.25 219.057 265.54 218.259C263.83 217.423 262.519 216.302 261.607 214.896C260.695 213.49 260.239 211.913 260.239 210.165C260.239 208.341 260.676 206.745 261.55 205.377C262.462 204.009 263.887 202.945 265.825 202.185C267.763 201.387 270.29 200.988 273.406 200.988H281.557V206.175H274.375C272.285 206.175 270.841 206.517 270.043 207.201C269.283 207.885 268.903 208.74 268.903 209.766C268.903 210.906 269.34 211.818 270.214 212.502C271.126 213.148 272.361 213.471 273.919 213.471C275.401 213.471 276.731 213.129 277.909 212.445C279.087 211.723 279.942 210.678 280.474 209.31L281.842 213.414C281.196 215.39 280.018 216.891 278.308 217.917C276.598 218.943 274.394 219.456 271.696 219.456ZM307.731 219.456C305.109 219.456 302.582 219.152 300.15 218.544C297.756 217.898 295.856 217.1 294.45 216.15L297.414 209.766C298.82 210.64 300.473 211.362 302.373 211.932C304.311 212.464 306.211 212.73 308.073 212.73C310.125 212.73 311.569 212.483 312.405 211.989C313.279 211.495 313.716 210.811 313.716 209.937C313.716 209.215 313.374 208.683 312.69 208.341C312.044 207.961 311.17 207.676 310.068 207.486C308.966 207.296 307.75 207.106 306.42 206.916C305.128 206.726 303.817 206.479 302.487 206.175C301.157 205.833 299.941 205.339 298.839 204.693C297.737 204.047 296.844 203.173 296.16 202.071C295.514 200.969 295.191 199.544 295.191 197.796C295.191 195.858 295.742 194.148 296.844 192.666C297.984 191.184 299.618 190.025 301.746 189.189C303.874 188.315 306.42 187.878 309.384 187.878C311.474 187.878 313.602 188.106 315.768 188.562C317.934 189.018 319.739 189.683 321.183 190.557L318.219 196.884C316.737 196.01 315.236 195.421 313.716 195.117C312.234 194.775 310.79 194.604 309.384 194.604C307.408 194.604 305.964 194.87 305.052 195.402C304.14 195.934 303.684 196.618 303.684 197.454C303.684 198.214 304.007 198.784 304.653 199.164C305.337 199.544 306.23 199.848 307.332 200.076C308.434 200.304 309.631 200.513 310.923 200.703C312.253 200.855 313.583 201.102 314.913 201.444C316.243 201.786 317.44 202.28 318.504 202.926C319.606 203.534 320.499 204.389 321.183 205.491C321.867 206.555 322.209 207.961 322.209 209.709C322.209 211.609 321.639 213.3 320.499 214.782C319.359 216.226 317.706 217.366 315.54 218.202C313.412 219.038 310.809 219.456 307.731 219.456ZM342.914 219.456C339.418 219.456 336.34 218.772 333.68 217.404C331.058 216.036 329.025 214.174 327.581 211.818C326.137 209.424 325.415 206.707 325.415 203.667C325.415 200.589 326.118 197.872 327.524 195.516C328.968 193.122 330.925 191.26 333.395 189.93C335.865 188.562 338.658 187.878 341.774 187.878C344.776 187.878 347.474 188.524 349.868 189.816C352.3 191.07 354.219 192.894 355.625 195.288C357.031 197.644 357.734 200.475 357.734 203.781C357.734 204.123 357.715 204.522 357.677 204.978C357.639 205.396 357.601 205.795 357.563 206.175H332.654V200.988H352.889L349.469 202.527C349.469 200.931 349.146 199.544 348.5 198.366C347.854 197.188 346.961 196.276 345.821 195.63C344.681 194.946 343.351 194.604 341.831 194.604C340.311 194.604 338.962 194.946 337.784 195.63C336.644 196.276 335.751 197.207 335.105 198.423C334.459 199.601 334.136 201.007 334.136 202.641V204.009C334.136 205.681 334.497 207.163 335.219 208.455C335.979 209.709 337.024 210.678 338.354 211.362C339.722 212.008 341.318 212.331 343.142 212.331C344.776 212.331 346.201 212.084 347.417 211.59C348.671 211.096 349.811 210.355 350.837 209.367L355.568 214.497C354.162 216.093 352.395 217.328 350.267 218.202C348.139 219.038 345.688 219.456 342.914 219.456Z" fill="white"/>
</svg>
