<svg width="351" height="316" viewBox="0 0 351 316" fill="none" xmlns="http://www.w3.org/2000/svg">
<path d="M1 201V262C1 275.807 12.1929 287 26 287H49" stroke="white" stroke-width="2"/>
<path d="M350 87V26C350 12.1929 338.807 0.999999 325 0.999999H302" stroke="white" stroke-width="2"/>
<rect x="1" y="1" width="349" height="286" rx="24" fill="white" fill-opacity="0.05"/>
<rect x="49" y="235" width="253" height="81" rx="28" fill="#4F4F4F"/>
<path d="M84.8349 284V266.545H87.9968V273.935H96.0849V266.545H99.2553V284H96.0849V276.585H87.9968V284H84.8349ZM108.353 284.256C107.041 284.256 105.907 283.983 104.953 283.438C104.004 282.886 103.274 282.108 102.762 281.102C102.251 280.091 101.995 278.901 101.995 277.531C101.995 276.185 102.251 275.003 102.762 273.986C103.279 272.963 104.001 272.168 104.927 271.599C105.853 271.026 106.941 270.739 108.191 270.739C108.998 270.739 109.76 270.869 110.475 271.131C111.197 271.386 111.833 271.784 112.385 272.324C112.941 272.864 113.379 273.551 113.697 274.386C114.015 275.216 114.174 276.205 114.174 277.352V278.298H103.444V276.219H111.217C111.211 275.628 111.083 275.102 110.833 274.642C110.583 274.176 110.234 273.81 109.785 273.543C109.342 273.276 108.825 273.142 108.234 273.142C107.603 273.142 107.049 273.295 106.572 273.602C106.095 273.903 105.723 274.301 105.456 274.795C105.194 275.284 105.061 275.821 105.055 276.406V278.222C105.055 278.983 105.194 279.636 105.473 280.182C105.751 280.722 106.14 281.136 106.64 281.426C107.14 281.71 107.725 281.852 108.396 281.852C108.845 281.852 109.251 281.79 109.615 281.665C109.978 281.534 110.294 281.344 110.561 281.094C110.828 280.844 111.029 280.534 111.166 280.165L114.047 280.489C113.865 281.25 113.518 281.915 113.007 282.483C112.501 283.045 111.853 283.483 111.064 283.795C110.274 284.102 109.37 284.256 108.353 284.256ZM120.551 284.264C119.722 284.264 118.975 284.116 118.31 283.821C117.651 283.52 117.128 283.077 116.742 282.491C116.361 281.906 116.171 281.185 116.171 280.327C116.171 279.588 116.307 278.977 116.58 278.494C116.853 278.011 117.225 277.625 117.696 277.335C118.168 277.045 118.699 276.827 119.29 276.679C119.887 276.526 120.503 276.415 121.14 276.347C121.907 276.267 122.529 276.196 123.006 276.134C123.483 276.065 123.83 275.963 124.046 275.827C124.267 275.685 124.378 275.466 124.378 275.17V275.119C124.378 274.477 124.188 273.98 123.807 273.628C123.426 273.276 122.878 273.099 122.162 273.099C121.407 273.099 120.807 273.264 120.364 273.594C119.926 273.923 119.631 274.312 119.478 274.761L116.597 274.352C116.824 273.557 117.199 272.892 117.722 272.358C118.245 271.818 118.884 271.415 119.64 271.148C120.395 270.875 121.23 270.739 122.145 270.739C122.776 270.739 123.404 270.812 124.029 270.96C124.654 271.108 125.225 271.352 125.742 271.693C126.259 272.028 126.674 272.486 126.986 273.065C127.304 273.645 127.463 274.369 127.463 275.239V284H124.498V282.202H124.395C124.208 282.565 123.944 282.906 123.603 283.224C123.267 283.537 122.844 283.79 122.333 283.983C121.827 284.17 121.233 284.264 120.551 284.264ZM121.353 281.997C121.972 281.997 122.509 281.875 122.963 281.631C123.418 281.381 123.767 281.051 124.012 280.642C124.262 280.233 124.387 279.787 124.387 279.304V277.761C124.29 277.841 124.125 277.915 123.892 277.983C123.665 278.051 123.409 278.111 123.125 278.162C122.841 278.213 122.56 278.259 122.282 278.298C122.003 278.338 121.762 278.372 121.557 278.401C121.097 278.463 120.685 278.565 120.321 278.707C119.958 278.849 119.671 279.048 119.461 279.304C119.25 279.554 119.145 279.878 119.145 280.276C119.145 280.844 119.353 281.273 119.767 281.562C120.182 281.852 120.711 281.997 121.353 281.997ZM133.651 266.545V284H130.566V266.545H133.651ZM143.36 270.909V273.295H135.835V270.909H143.36ZM137.693 267.773H140.778V280.062C140.778 280.477 140.841 280.795 140.966 281.017C141.096 281.233 141.267 281.381 141.477 281.46C141.687 281.54 141.92 281.58 142.176 281.58C142.369 281.58 142.545 281.565 142.704 281.537C142.869 281.509 142.994 281.483 143.079 281.46L143.599 283.872C143.434 283.929 143.199 283.991 142.892 284.06C142.591 284.128 142.221 284.168 141.784 284.179C141.011 284.202 140.315 284.085 139.696 283.83C139.076 283.568 138.585 283.165 138.221 282.619C137.863 282.074 137.687 281.392 137.693 280.574V267.773ZM149.307 276.33V284H146.222V266.545H149.239V273.134H149.392C149.699 272.395 150.174 271.812 150.816 271.386C151.463 270.955 152.287 270.739 153.287 270.739C154.196 270.739 154.989 270.929 155.665 271.31C156.341 271.69 156.864 272.247 157.233 272.98C157.608 273.713 157.796 274.608 157.796 275.665V284H154.711V276.142C154.711 275.261 154.483 274.577 154.029 274.088C153.58 273.594 152.949 273.347 152.137 273.347C151.591 273.347 151.103 273.466 150.671 273.705C150.245 273.937 149.909 274.276 149.665 274.719C149.426 275.162 149.307 275.699 149.307 276.33ZM166.651 284.256C165.344 284.256 164.222 283.969 163.284 283.395C162.353 282.821 161.634 282.028 161.128 281.017C160.628 280 160.378 278.83 160.378 277.506C160.378 276.176 160.634 275.003 161.145 273.986C161.657 272.963 162.378 272.168 163.31 271.599C164.248 271.026 165.355 270.739 166.634 270.739C167.696 270.739 168.637 270.935 169.455 271.327C170.279 271.713 170.935 272.261 171.424 272.972C171.912 273.676 172.191 274.5 172.259 275.443H169.31C169.191 274.812 168.907 274.287 168.458 273.866C168.015 273.44 167.421 273.227 166.676 273.227C166.046 273.227 165.492 273.398 165.015 273.739C164.537 274.074 164.165 274.557 163.898 275.188C163.637 275.818 163.506 276.574 163.506 277.455C163.506 278.347 163.637 279.114 163.898 279.756C164.159 280.392 164.526 280.884 164.998 281.23C165.475 281.571 166.034 281.741 166.676 281.741C167.131 281.741 167.537 281.656 167.895 281.486C168.259 281.31 168.563 281.057 168.807 280.727C169.051 280.398 169.219 279.997 169.31 279.526H172.259C172.185 280.452 171.912 281.273 171.441 281.989C170.969 282.699 170.327 283.256 169.515 283.659C168.702 284.057 167.748 284.256 166.651 284.256ZM178.559 284.264C177.73 284.264 176.983 284.116 176.318 283.821C175.659 283.52 175.136 283.077 174.75 282.491C174.369 281.906 174.179 281.185 174.179 280.327C174.179 279.588 174.315 278.977 174.588 278.494C174.86 278.011 175.233 277.625 175.704 277.335C176.176 277.045 176.707 276.827 177.298 276.679C177.895 276.526 178.511 276.415 179.147 276.347C179.914 276.267 180.537 276.196 181.014 276.134C181.491 276.065 181.838 275.963 182.054 275.827C182.275 275.685 182.386 275.466 182.386 275.17V275.119C182.386 274.477 182.196 273.98 181.815 273.628C181.434 273.276 180.886 273.099 180.17 273.099C179.414 273.099 178.815 273.264 178.372 273.594C177.934 273.923 177.639 274.312 177.485 274.761L174.605 274.352C174.832 273.557 175.207 272.892 175.73 272.358C176.252 271.818 176.892 271.415 177.647 271.148C178.403 270.875 179.238 270.739 180.153 270.739C180.784 270.739 181.412 270.812 182.037 270.96C182.662 271.108 183.233 271.352 183.75 271.693C184.267 272.028 184.681 272.486 184.994 273.065C185.312 273.645 185.471 274.369 185.471 275.239V284H182.505V282.202H182.403C182.216 282.565 181.951 282.906 181.61 283.224C181.275 283.537 180.852 283.79 180.341 283.983C179.835 284.17 179.241 284.264 178.559 284.264ZM179.36 281.997C179.98 281.997 180.517 281.875 180.971 281.631C181.426 281.381 181.775 281.051 182.02 280.642C182.27 280.233 182.395 279.787 182.395 279.304V277.761C182.298 277.841 182.133 277.915 181.9 277.983C181.673 278.051 181.417 278.111 181.133 278.162C180.849 278.213 180.568 278.259 180.289 278.298C180.011 278.338 179.77 278.372 179.565 278.401C179.105 278.463 178.693 278.565 178.329 278.707C177.966 278.849 177.679 279.048 177.468 279.304C177.258 279.554 177.153 279.878 177.153 280.276C177.153 280.844 177.36 281.273 177.775 281.562C178.19 281.852 178.718 281.997 179.36 281.997ZM188.574 284V270.909H191.565V273.091H191.701C191.94 272.335 192.349 271.753 192.929 271.344C193.514 270.929 194.181 270.722 194.931 270.722C195.102 270.722 195.292 270.73 195.502 270.747C195.718 270.759 195.897 270.778 196.039 270.807V273.645C195.909 273.599 195.701 273.56 195.417 273.526C195.139 273.486 194.869 273.466 194.608 273.466C194.045 273.466 193.539 273.588 193.091 273.832C192.647 274.071 192.298 274.403 192.042 274.83C191.787 275.256 191.659 275.747 191.659 276.304V284H188.574ZM203.346 284.256C202.033 284.256 200.9 283.983 199.945 283.438C198.996 282.886 198.266 282.108 197.755 281.102C197.243 280.091 196.988 278.901 196.988 277.531C196.988 276.185 197.243 275.003 197.755 273.986C198.272 272.963 198.993 272.168 199.919 271.599C200.846 271.026 201.934 270.739 203.184 270.739C203.99 270.739 204.752 270.869 205.468 271.131C206.189 271.386 206.826 271.784 207.377 272.324C207.934 272.864 208.371 273.551 208.689 274.386C209.007 275.216 209.167 276.205 209.167 277.352V278.298H198.436V276.219H206.209C206.203 275.628 206.076 275.102 205.826 274.642C205.576 274.176 205.226 273.81 204.777 273.543C204.334 273.276 203.817 273.142 203.226 273.142C202.596 273.142 202.042 273.295 201.564 273.602C201.087 273.903 200.715 274.301 200.448 274.795C200.186 275.284 200.053 275.821 200.047 276.406V278.222C200.047 278.983 200.186 279.636 200.465 280.182C200.743 280.722 201.132 281.136 201.632 281.426C202.132 281.71 202.718 281.852 203.388 281.852C203.837 281.852 204.243 281.79 204.607 281.665C204.971 281.534 205.286 281.344 205.553 281.094C205.82 280.844 206.022 280.534 206.158 280.165L209.039 280.489C208.857 281.25 208.51 281.915 207.999 282.483C207.493 283.045 206.846 283.483 206.056 283.795C205.266 284.102 204.363 284.256 203.346 284.256ZM223.44 284.256C222.133 284.256 221.011 283.969 220.074 283.395C219.142 282.821 218.423 282.028 217.917 281.017C217.417 280 217.167 278.83 217.167 277.506C217.167 276.176 217.423 275.003 217.934 273.986C218.446 272.963 219.167 272.168 220.099 271.599C221.037 271.026 222.145 270.739 223.423 270.739C224.485 270.739 225.426 270.935 226.244 271.327C227.068 271.713 227.724 272.261 228.213 272.972C228.701 273.676 228.98 274.5 229.048 275.443H226.099C225.98 274.812 225.696 274.287 225.247 273.866C224.804 273.44 224.21 273.227 223.466 273.227C222.835 273.227 222.281 273.398 221.804 273.739C221.326 274.074 220.954 274.557 220.687 275.188C220.426 275.818 220.295 276.574 220.295 277.455C220.295 278.347 220.426 279.114 220.687 279.756C220.949 280.392 221.315 280.884 221.787 281.23C222.264 281.571 222.824 281.741 223.466 281.741C223.92 281.741 224.326 281.656 224.684 281.486C225.048 281.31 225.352 281.057 225.596 280.727C225.841 280.398 226.008 279.997 226.099 279.526H229.048C228.974 280.452 228.701 281.273 228.23 281.989C227.758 282.699 227.116 283.256 226.304 283.659C225.491 284.057 224.537 284.256 223.44 284.256ZM237.292 284.256C236.013 284.256 234.905 283.974 233.968 283.412C233.03 282.849 232.303 282.062 231.786 281.051C231.275 280.04 231.019 278.858 231.019 277.506C231.019 276.153 231.275 274.969 231.786 273.952C232.303 272.935 233.03 272.145 233.968 271.582C234.905 271.02 236.013 270.739 237.292 270.739C238.57 270.739 239.678 271.02 240.615 271.582C241.553 272.145 242.277 272.935 242.789 273.952C243.306 274.969 243.564 276.153 243.564 277.506C243.564 278.858 243.306 280.04 242.789 281.051C242.277 282.062 241.553 282.849 240.615 283.412C239.678 283.974 238.57 284.256 237.292 284.256ZM237.309 281.784C238.002 281.784 238.581 281.594 239.047 281.213C239.513 280.827 239.86 280.31 240.087 279.662C240.32 279.014 240.436 278.293 240.436 277.497C240.436 276.696 240.32 275.972 240.087 275.324C239.86 274.67 239.513 274.151 239.047 273.764C238.581 273.378 238.002 273.185 237.309 273.185C236.598 273.185 236.007 273.378 235.536 273.764C235.07 274.151 234.721 274.67 234.488 275.324C234.26 275.972 234.147 276.696 234.147 277.497C234.147 278.293 234.26 279.014 234.488 279.662C234.721 280.31 235.07 280.827 235.536 281.213C236.007 281.594 236.598 281.784 237.309 281.784ZM256.529 274.369L253.717 274.676C253.637 274.392 253.498 274.125 253.299 273.875C253.106 273.625 252.845 273.423 252.515 273.27C252.186 273.116 251.782 273.04 251.305 273.04C250.663 273.04 250.123 273.179 249.686 273.457C249.254 273.736 249.041 274.097 249.047 274.54C249.041 274.92 249.18 275.23 249.464 275.469C249.754 275.707 250.231 275.903 250.896 276.057L253.129 276.534C254.368 276.801 255.288 277.224 255.89 277.804C256.498 278.384 256.805 279.142 256.811 280.08C256.805 280.903 256.564 281.631 256.086 282.261C255.615 282.886 254.958 283.375 254.118 283.727C253.277 284.08 252.311 284.256 251.22 284.256C249.618 284.256 248.328 283.92 247.35 283.25C246.373 282.574 245.791 281.634 245.603 280.429L248.612 280.139C248.748 280.73 249.038 281.176 249.481 281.477C249.924 281.778 250.501 281.929 251.211 281.929C251.944 281.929 252.532 281.778 252.975 281.477C253.424 281.176 253.649 280.804 253.649 280.361C253.649 279.986 253.504 279.676 253.214 279.432C252.93 279.187 252.487 279 251.885 278.869L249.652 278.401C248.396 278.139 247.467 277.699 246.865 277.08C246.262 276.455 245.964 275.665 245.97 274.71C245.964 273.903 246.183 273.205 246.626 272.614C247.075 272.017 247.697 271.557 248.493 271.233C249.294 270.903 250.217 270.739 251.262 270.739C252.797 270.739 254.004 271.065 254.885 271.719C255.771 272.372 256.319 273.256 256.529 274.369ZM265.892 270.909V273.295H258.366V270.909H265.892ZM260.224 267.773H263.309V280.062C263.309 280.477 263.372 280.795 263.497 281.017C263.627 281.233 263.798 281.381 264.008 281.46C264.218 281.54 264.451 281.58 264.707 281.58C264.9 281.58 265.076 281.565 265.235 281.537C265.4 281.509 265.525 281.483 265.61 281.46L266.13 283.872C265.966 283.929 265.73 283.991 265.423 284.06C265.122 284.128 264.752 284.168 264.315 284.179C263.542 284.202 262.846 284.085 262.227 283.83C261.608 283.568 261.116 283.165 260.752 282.619C260.395 282.074 260.218 281.392 260.224 280.574V267.773Z" fill="white"/>
<path d="M99.4426 137.6C96.8426 137.6 94.2426 137.233 91.6426 136.5C89.1092 135.767 86.7426 134.633 84.5426 133.1C82.3426 131.567 80.4092 129.667 78.7426 127.4C77.1426 125.067 75.9426 122.3 75.1426 119.1L87.0426 114.5C87.7759 117.833 89.1759 120.5 91.2426 122.5C93.3759 124.5 96.0759 125.5 99.3426 125.5C100.943 125.5 102.409 125.233 103.743 124.7C105.143 124.1 106.343 123.3 107.343 122.3C108.409 121.3 109.209 120.133 109.743 118.8C110.343 117.4 110.643 115.867 110.643 114.2C110.643 112.6 110.343 111.133 109.743 109.8C109.209 108.4 108.443 107.2 107.443 106.2C106.443 105.133 105.243 104.333 103.843 103.8C102.509 103.2 101.009 102.9 99.3426 102.9C97.2759 102.9 95.4426 103.367 93.8426 104.3C92.2426 105.167 90.8759 106.267 89.7426 107.6L77.0426 101.8L81.0426 67.6H119.543V79.1H91.9426L89.3426 95.1L90.1426 95.3C91.4759 94.1667 93.1092 93.2 95.0426 92.4C96.9759 91.6 99.3092 91.2 102.043 91.2C104.909 91.2 107.643 91.7667 110.243 92.9C112.843 93.9667 115.143 95.5 117.143 97.5C119.143 99.5 120.743 101.933 121.943 104.8C123.143 107.6 123.743 110.733 123.743 114.2C123.743 117.6 123.143 120.733 121.943 123.6C120.743 126.467 119.043 128.933 116.843 131C114.709 133.067 112.143 134.7 109.143 135.9C106.209 137.033 102.976 137.6 99.4426 137.6ZM161.664 137.6C157.264 137.6 153.298 136.7 149.764 134.9C146.231 133.033 143.198 130.5 140.664 127.3C138.198 124.1 136.298 120.333 134.964 116C133.631 111.6 132.964 106.867 132.964 101.8C132.964 96.7333 133.631 92.0333 134.964 87.7C136.298 83.3 138.198 79.5 140.664 76.3C143.198 73.1 146.231 70.6 149.764 68.8C153.298 66.9333 157.264 66 161.664 66C166.064 66 170.031 66.9333 173.564 68.8C177.098 70.6 180.098 73.1 182.564 76.3C185.098 79.5 187.031 83.3 188.364 87.7C189.698 92.0333 190.364 96.7333 190.364 101.8C190.364 106.867 189.698 111.6 188.364 116C187.031 120.333 185.098 124.1 182.564 127.3C180.098 130.5 177.098 133.033 173.564 134.9C170.031 136.7 166.064 137.6 161.664 137.6ZM161.664 125.2C164.064 125.2 166.231 124.633 168.164 123.5C170.098 122.3 171.731 120.667 173.064 118.6C174.464 116.467 175.498 113.967 176.164 111.1C176.898 108.233 177.264 105.133 177.264 101.8C177.264 98.4 176.898 95.3 176.164 92.5C175.498 89.6333 174.464 87.1667 173.064 85.1C171.731 82.9667 170.098 81.3333 168.164 80.2C166.231 79 164.064 78.4 161.664 78.4C159.198 78.4 156.998 79 155.064 80.2C153.131 81.3333 151.498 82.9667 150.164 85.1C148.831 87.1667 147.798 89.6333 147.064 92.5C146.398 95.3 146.064 98.4 146.064 101.8C146.064 105.133 146.398 108.233 147.064 111.1C147.798 113.967 148.831 116.467 150.164 118.6C151.498 120.667 153.131 122.3 155.064 123.5C156.998 124.633 159.198 125.2 161.664 125.2ZM197.975 83.1C197.975 80.7667 198.409 78.5667 199.275 76.5C200.209 74.4333 201.442 72.6333 202.975 71.1C204.575 69.5 206.442 68.2667 208.575 67.4C210.709 66.4667 213.042 66 215.575 66C218.109 66 220.442 66.4667 222.575 67.4C224.775 68.2667 226.642 69.5 228.175 71.1C229.775 72.6333 231.009 74.4333 231.875 76.5C232.809 78.5667 233.275 80.7667 233.275 83.1C233.275 85.4333 232.809 87.6667 231.875 89.8C231.009 91.8667 229.775 93.6667 228.175 95.2C226.642 96.7333 224.775 97.9667 222.575 98.9C220.442 99.7667 218.109 100.2 215.575 100.2C213.042 100.2 210.709 99.7667 208.575 98.9C206.442 97.9667 204.575 96.7333 202.975 95.2C201.442 93.6667 200.209 91.8667 199.275 89.8C198.409 87.6667 197.975 85.4333 197.975 83.1ZM208.675 83.1C208.675 85.3 209.342 87.0667 210.675 88.4C212.009 89.7333 213.642 90.4 215.575 90.4C217.509 90.4 219.142 89.7333 220.475 88.4C221.809 87.0667 222.475 85.3 222.475 83.1C222.475 80.9 221.809 79.1333 220.475 77.8C219.142 76.4667 217.509 75.8 215.575 75.8C213.642 75.8 212.009 76.4667 210.675 77.8C209.342 79.1333 208.675 80.9 208.675 83.1ZM210.675 132.3L255.075 66L262.975 71.3L218.575 137.6L210.675 132.3ZM240.375 120.5C240.375 118.167 240.809 115.967 241.675 113.9C242.609 111.833 243.842 110.033 245.375 108.5C246.975 106.9 248.842 105.667 250.975 104.8C253.109 103.867 255.442 103.4 257.975 103.4C260.509 103.4 262.842 103.867 264.975 104.8C267.175 105.667 269.042 106.9 270.575 108.5C272.175 110.033 273.409 111.833 274.275 113.9C275.209 115.967 275.675 118.167 275.675 120.5C275.675 122.833 275.209 125.067 274.275 127.2C273.409 129.267 272.175 131.067 270.575 132.6C269.042 134.133 267.175 135.333 264.975 136.2C262.842 137.133 260.509 137.6 257.975 137.6C255.442 137.6 253.109 137.133 250.975 136.2C248.842 135.333 246.975 134.133 245.375 132.6C243.842 131.067 242.609 129.267 241.675 127.2C240.809 125.067 240.375 122.833 240.375 120.5ZM251.075 120.5C251.075 122.7 251.742 124.467 253.075 125.8C254.409 127.133 256.042 127.8 257.975 127.8C259.909 127.8 261.542 127.133 262.875 125.8C264.209 124.467 264.875 122.7 264.875 120.5C264.875 118.3 264.209 116.533 262.875 115.2C261.542 113.867 259.909 113.2 257.975 113.2C256.042 113.2 254.409 113.867 253.075 115.2C251.742 116.533 251.075 118.3 251.075 120.5Z" fill="#5BEBFF"/>
<path d="M78.3297 210V171.336H85.4037V210H78.3297ZM103.725 182.676C105.777 182.676 107.649 183.036 109.341 183.756C111.069 184.44 112.545 185.412 113.769 186.672C115.029 187.896 116.001 189.372 116.685 191.1C117.405 192.828 117.765 194.718 117.765 196.77C117.765 198.822 117.405 200.712 116.685 202.44C116.001 204.168 115.029 205.662 113.769 206.922C112.545 208.146 111.069 209.118 109.341 209.838C107.649 210.522 105.777 210.864 103.725 210.864C101.673 210.864 99.7829 210.522 98.0549 209.838C96.3629 209.118 94.8869 208.146 93.6269 206.922C92.4029 205.662 91.4309 204.168 90.7109 202.44C90.0269 200.712 89.6849 198.822 89.6849 196.77C89.6849 194.718 90.0269 192.828 90.7109 191.1C91.4309 189.372 92.4029 187.896 93.6269 186.672C94.8869 185.412 96.3629 184.44 98.0549 183.756C99.7829 183.036 101.673 182.676 103.725 182.676ZM103.725 204.33C104.625 204.33 105.489 204.168 106.317 203.844C107.181 203.484 107.937 202.98 108.585 202.332C109.233 201.684 109.737 200.892 110.097 199.956C110.493 199.02 110.691 197.958 110.691 196.77C110.691 195.582 110.493 194.52 110.097 193.584C109.737 192.648 109.233 191.856 108.585 191.208C107.937 190.56 107.181 190.074 106.317 189.75C105.489 189.39 104.625 189.21 103.725 189.21C102.789 189.21 101.907 189.39 101.079 189.75C100.251 190.074 99.5129 190.56 98.8649 191.208C98.2169 191.856 97.6949 192.648 97.2989 193.584C96.9389 194.52 96.7589 195.582 96.7589 196.77C96.7589 197.958 96.9389 199.02 97.2989 199.956C97.6949 200.892 98.2169 201.684 98.8649 202.332C99.5129 202.98 100.251 203.484 101.079 203.844C101.907 204.168 102.789 204.33 103.725 204.33ZM118.975 183.54H126.913L131.287 200.118H131.665L136.903 183.54H144.193L149.485 200.118H149.863L154.183 183.54H162.013L153.535 210H145.921L140.629 193.314H140.251L134.959 210H127.453L118.975 183.54ZM189.765 203.628C188.541 205.788 186.885 207.534 184.797 208.866C182.745 210.198 180.225 210.864 177.237 210.864C175.221 210.864 173.349 210.522 171.621 209.838C169.929 209.118 168.453 208.128 167.193 206.868C165.933 205.608 164.943 204.132 164.223 202.44C163.539 200.712 163.197 198.822 163.197 196.77C163.197 194.862 163.539 193.062 164.223 191.37C164.907 189.642 165.861 188.148 167.085 186.888C168.309 185.592 169.749 184.566 171.405 183.81C173.097 183.054 174.951 182.676 176.967 182.676C179.091 182.676 180.981 183.036 182.637 183.756C184.293 184.44 185.679 185.412 186.795 186.672C187.911 187.896 188.757 189.354 189.333 191.046C189.909 192.738 190.197 194.574 190.197 196.554C190.197 196.806 190.197 197.022 190.197 197.202C190.161 197.418 190.143 197.616 190.143 197.796C190.107 197.976 190.089 198.174 190.089 198.39H170.163C170.307 199.47 170.595 200.406 171.027 201.198C171.495 201.954 172.053 202.602 172.701 203.142C173.385 203.646 174.123 204.024 174.915 204.276C175.707 204.492 176.517 204.6 177.345 204.6C178.965 204.6 180.297 204.24 181.341 203.52C182.421 202.764 183.267 201.828 183.879 200.712L189.765 203.628ZM183.339 193.368C183.303 192.9 183.141 192.378 182.853 191.802C182.601 191.226 182.205 190.686 181.665 190.182C181.161 189.678 180.513 189.264 179.721 188.94C178.965 188.616 178.047 188.454 176.967 188.454C175.455 188.454 174.123 188.886 172.971 189.75C171.819 190.614 171.009 191.82 170.541 193.368H183.339ZM194.714 183.54H201.356V187.212H201.788C202.112 186.564 202.544 185.97 203.084 185.43C203.624 184.89 204.218 184.422 204.866 184.026C205.55 183.63 206.27 183.324 207.026 183.108C207.818 182.892 208.592 182.784 209.348 182.784C210.284 182.784 211.076 182.874 211.724 183.054C212.408 183.234 212.984 183.468 213.452 183.756L211.562 190.182C211.13 189.966 210.644 189.804 210.104 189.696C209.6 189.552 208.97 189.48 208.214 189.48C207.242 189.48 206.36 189.678 205.568 190.074C204.776 190.434 204.092 190.956 203.516 191.64C202.976 192.324 202.544 193.134 202.22 194.07C201.932 194.97 201.788 195.96 201.788 197.04V210H194.714V183.54ZM240.126 203.628C238.902 205.788 237.246 207.534 235.158 208.866C233.106 210.198 230.586 210.864 227.598 210.864C225.582 210.864 223.71 210.522 221.982 209.838C220.29 209.118 218.814 208.128 217.554 206.868C216.294 205.608 215.304 204.132 214.584 202.44C213.9 200.712 213.558 198.822 213.558 196.77C213.558 194.862 213.9 193.062 214.584 191.37C215.268 189.642 216.222 188.148 217.446 186.888C218.67 185.592 220.11 184.566 221.766 183.81C223.458 183.054 225.312 182.676 227.328 182.676C229.452 182.676 231.342 183.036 232.998 183.756C234.654 184.44 236.04 185.412 237.156 186.672C238.272 187.896 239.118 189.354 239.694 191.046C240.27 192.738 240.558 194.574 240.558 196.554C240.558 196.806 240.558 197.022 240.558 197.202C240.522 197.418 240.504 197.616 240.504 197.796C240.468 197.976 240.45 198.174 240.45 198.39H220.524C220.668 199.47 220.956 200.406 221.388 201.198C221.856 201.954 222.414 202.602 223.062 203.142C223.746 203.646 224.484 204.024 225.276 204.276C226.068 204.492 226.878 204.6 227.706 204.6C229.326 204.6 230.658 204.24 231.702 203.52C232.782 202.764 233.628 201.828 234.24 200.712L240.126 203.628ZM233.7 193.368C233.664 192.9 233.502 192.378 233.214 191.802C232.962 191.226 232.566 190.686 232.026 190.182C231.522 189.678 230.874 189.264 230.082 188.94C229.326 188.616 228.408 188.454 227.328 188.454C225.816 188.454 224.484 188.886 223.332 189.75C222.18 190.614 221.37 191.82 220.902 193.368H233.7ZM265.049 206.814H264.617C263.969 207.93 262.961 208.884 261.593 209.676C260.225 210.468 258.533 210.864 256.517 210.864C254.825 210.864 253.205 210.522 251.657 209.838C250.145 209.118 248.795 208.146 247.607 206.922C246.455 205.662 245.537 204.168 244.853 202.44C244.169 200.712 243.827 198.822 243.827 196.77C243.827 194.718 244.169 192.828 244.853 191.1C245.537 189.372 246.455 187.896 247.607 186.672C248.795 185.412 250.145 184.44 251.657 183.756C253.205 183.036 254.825 182.676 256.517 182.676C258.533 182.676 260.225 183.072 261.593 183.864C262.961 184.656 263.969 185.61 264.617 186.726H265.049L264.617 182.946V171.336H271.691V210H265.049V206.814ZM257.975 204.33C258.911 204.33 259.793 204.168 260.621 203.844C261.485 203.484 262.241 202.98 262.889 202.332C263.537 201.684 264.059 200.892 264.455 199.956C264.851 199.02 265.049 197.958 265.049 196.77C265.049 195.582 264.851 194.52 264.455 193.584C264.059 192.648 263.537 191.856 262.889 191.208C262.241 190.56 261.485 190.074 260.621 189.75C259.793 189.39 258.911 189.21 257.975 189.21C257.039 189.21 256.139 189.39 255.275 189.75C254.447 190.11 253.709 190.614 253.061 191.262C252.413 191.91 251.891 192.702 251.495 193.638C251.099 194.574 250.901 195.618 250.901 196.77C250.901 197.922 251.099 198.966 251.495 199.902C251.891 200.838 252.413 201.63 253.061 202.278C253.709 202.926 254.447 203.43 255.275 203.79C256.139 204.15 257.039 204.33 257.975 204.33Z" fill="white" fill-opacity="0.7"/>
</svg>
