<svg width="468" height="468" viewBox="0 0 468 468" fill="none" xmlns="http://www.w3.org/2000/svg">
<circle cx="234" cy="234" r="218" fill="#101D28" stroke="#BBDDFA" stroke-width="32"/>
<path d="M155.611 310V262.4H162.411V304.084H188.183V310H155.611ZM195.034 310V273.96H201.562V310H195.034ZM198.298 267.024C197.028 267.024 195.963 266.616 195.102 265.8C194.286 264.984 193.878 263.987 193.878 262.808C193.878 261.584 194.286 260.564 195.102 259.748C195.963 258.932 197.028 258.524 198.298 258.524C199.567 258.524 200.61 258.932 201.426 259.748C202.287 260.519 202.718 261.493 202.718 262.672C202.718 263.896 202.31 264.939 201.494 265.8C200.678 266.616 199.612 267.024 198.298 267.024ZM223.478 310L207.702 273.96H214.502L228.51 306.6H225.246L239.526 273.96H245.918L230.142 310H223.478ZM267.062 310.408C263.209 310.408 259.809 309.615 256.862 308.028C253.961 306.441 251.694 304.265 250.062 301.5C248.476 298.735 247.682 295.561 247.682 291.98C247.682 288.399 248.453 285.225 249.994 282.46C251.581 279.695 253.734 277.541 256.454 276C259.22 274.413 262.325 273.62 265.77 273.62C269.261 273.62 272.344 274.391 275.018 275.932C277.693 277.473 279.778 279.649 281.274 282.46C282.816 285.225 283.586 288.467 283.586 292.184C283.586 292.456 283.564 292.773 283.518 293.136C283.518 293.499 283.496 293.839 283.45 294.156H252.782V289.464H280.05L277.398 291.096C277.444 288.784 276.968 286.721 275.97 284.908C274.973 283.095 273.59 281.689 271.822 280.692C270.1 279.649 268.082 279.128 265.77 279.128C263.504 279.128 261.486 279.649 259.718 280.692C257.95 281.689 256.568 283.117 255.57 284.976C254.573 286.789 254.074 288.875 254.074 291.232V292.32C254.074 294.723 254.618 296.876 255.706 298.78C256.84 300.639 258.404 302.089 260.398 303.132C262.393 304.175 264.682 304.696 267.266 304.696C269.397 304.696 271.324 304.333 273.046 303.608C274.814 302.883 276.356 301.795 277.67 300.344L281.274 304.56C279.642 306.464 277.602 307.915 275.154 308.912C272.752 309.909 270.054 310.408 267.062 310.408ZM302.987 310.408C299.995 310.408 297.139 310 294.419 309.184C291.744 308.368 289.636 307.371 288.095 306.192L290.815 301.024C292.356 302.067 294.26 302.951 296.527 303.676C298.794 304.401 301.106 304.764 303.463 304.764C306.5 304.764 308.676 304.333 309.991 303.472C311.351 302.611 312.031 301.409 312.031 299.868C312.031 298.735 311.623 297.851 310.807 297.216C309.991 296.581 308.903 296.105 307.543 295.788C306.228 295.471 304.755 295.199 303.123 294.972C301.491 294.7 299.859 294.383 298.227 294.02C296.595 293.612 295.099 293.068 293.739 292.388C292.379 291.663 291.291 290.688 290.475 289.464C289.659 288.195 289.251 286.517 289.251 284.432C289.251 282.256 289.863 280.352 291.087 278.72C292.311 277.088 294.034 275.841 296.255 274.98C298.522 274.073 301.196 273.62 304.279 273.62C306.636 273.62 309.016 273.915 311.419 274.504C313.867 275.048 315.862 275.841 317.403 276.884L314.615 282.052C312.983 280.964 311.283 280.216 309.515 279.808C307.747 279.4 305.979 279.196 304.211 279.196C301.355 279.196 299.224 279.672 297.819 280.624C296.414 281.531 295.711 282.709 295.711 284.16C295.711 285.384 296.119 286.336 296.935 287.016C297.796 287.651 298.884 288.149 300.199 288.512C301.559 288.875 303.055 289.192 304.687 289.464C306.319 289.691 307.951 290.008 309.583 290.416C311.215 290.779 312.688 291.3 314.003 291.98C315.363 292.66 316.451 293.612 317.267 294.836C318.128 296.06 318.559 297.692 318.559 299.732C318.559 301.908 317.924 303.789 316.655 305.376C315.386 306.963 313.595 308.209 311.283 309.116C308.971 309.977 306.206 310.408 302.987 310.408ZM172.183 349V329.384H164.503V326.6H183.031V329.384H175.351V349H172.183ZM191.582 349.192C189.876 349.192 188.361 348.819 187.038 348.072C185.716 347.325 184.67 346.301 183.902 345C183.134 343.677 182.75 342.184 182.75 340.52C182.75 338.835 183.134 337.341 183.902 336.04C184.67 334.739 185.716 333.725 187.038 333C188.361 332.253 189.876 331.88 191.582 331.88C193.268 331.88 194.772 332.253 196.094 333C197.438 333.725 198.484 334.739 199.23 336.04C199.998 337.32 200.382 338.813 200.382 340.52C200.382 342.205 199.998 343.699 199.23 345C198.484 346.301 197.438 347.325 196.094 348.072C194.772 348.819 193.268 349.192 191.582 349.192ZM191.582 346.504C192.67 346.504 193.641 346.259 194.494 345.768C195.369 345.277 196.052 344.584 196.542 343.688C197.033 342.771 197.278 341.715 197.278 340.52C197.278 339.304 197.033 338.259 196.542 337.384C196.052 336.488 195.369 335.795 194.494 335.304C193.641 334.813 192.67 334.568 191.582 334.568C190.494 334.568 189.524 334.813 188.67 335.304C187.817 335.795 187.134 336.488 186.622 337.384C186.11 338.259 185.854 339.304 185.854 340.52C185.854 341.715 186.11 342.771 186.622 343.688C187.134 344.584 187.817 345.277 188.67 345.768C189.524 346.259 190.494 346.504 191.582 346.504ZM211.767 349.192C210.316 349.192 209.036 348.925 207.927 348.392C206.839 347.859 205.985 347.048 205.367 345.96C204.769 344.851 204.471 343.464 204.471 341.8V332.04H207.543V341.448C207.543 343.112 207.937 344.36 208.727 345.192C209.537 346.024 210.668 346.44 212.119 346.44C213.185 346.44 214.113 346.227 214.903 345.8C215.692 345.352 216.3 344.712 216.727 343.88C217.153 343.027 217.367 342.003 217.367 340.808V332.04H220.439V349H217.527V344.424L218.007 345.64C217.452 346.771 216.62 347.645 215.511 348.264C214.401 348.883 213.153 349.192 211.767 349.192ZM233.679 349.192C231.951 349.192 230.404 348.819 229.039 348.072C227.695 347.325 226.639 346.301 225.871 345C225.103 343.699 224.719 342.205 224.719 340.52C224.719 338.835 225.103 337.341 225.871 336.04C226.639 334.739 227.695 333.725 229.039 333C230.404 332.253 231.951 331.88 233.679 331.88C235.215 331.88 236.58 332.189 237.775 332.808C238.991 333.405 239.93 334.301 240.591 335.496L238.255 337C237.7 336.168 237.018 335.56 236.207 335.176C235.418 334.771 234.564 334.568 233.647 334.568C232.538 334.568 231.546 334.813 230.671 335.304C229.796 335.795 229.103 336.488 228.591 337.384C228.079 338.259 227.823 339.304 227.823 340.52C227.823 341.736 228.079 342.792 228.591 343.688C229.103 344.584 229.796 345.277 230.671 345.768C231.546 346.259 232.538 346.504 233.647 346.504C234.564 346.504 235.418 346.312 236.207 345.928C237.018 345.523 237.7 344.904 238.255 344.072L240.591 345.544C239.93 346.717 238.991 347.624 237.775 348.264C236.58 348.883 235.215 349.192 233.679 349.192ZM253.406 331.88C254.792 331.88 256.008 332.147 257.054 332.68C258.12 333.213 258.952 334.024 259.55 335.112C260.147 336.2 260.446 337.576 260.446 339.24V349H257.374V339.592C257.374 337.949 256.968 336.712 256.158 335.88C255.368 335.048 254.248 334.632 252.798 334.632C251.71 334.632 250.76 334.845 249.95 335.272C249.139 335.699 248.51 336.328 248.062 337.16C247.635 337.992 247.422 339.027 247.422 340.264V349H244.35V325.256H247.422V336.616L246.814 335.4C247.368 334.291 248.222 333.427 249.374 332.808C250.526 332.189 251.87 331.88 253.406 331.88ZM273.683 349.192C271.869 349.192 270.269 348.819 268.883 348.072C267.517 347.325 266.451 346.301 265.683 345C264.936 343.699 264.563 342.205 264.563 340.52C264.563 338.835 264.925 337.341 265.651 336.04C266.397 334.739 267.411 333.725 268.691 333C269.992 332.253 271.453 331.88 273.075 331.88C274.717 331.88 276.168 332.243 277.427 332.968C278.685 333.693 279.667 334.717 280.371 336.04C281.096 337.341 281.459 338.867 281.459 340.616C281.459 340.744 281.448 340.893 281.427 341.064C281.427 341.235 281.416 341.395 281.395 341.544H266.963V339.336H279.795L278.547 340.104C278.568 339.016 278.344 338.045 277.875 337.192C277.405 336.339 276.755 335.677 275.923 335.208C275.112 334.717 274.163 334.472 273.075 334.472C272.008 334.472 271.059 334.717 270.227 335.208C269.395 335.677 268.744 336.349 268.275 337.224C267.805 338.077 267.571 339.059 267.571 340.168V340.68C267.571 341.811 267.827 342.824 268.339 343.72C268.872 344.595 269.608 345.277 270.547 345.768C271.485 346.259 272.563 346.504 273.779 346.504C274.781 346.504 275.688 346.333 276.499 345.992C277.331 345.651 278.056 345.139 278.675 344.456L280.371 346.44C279.603 347.336 278.643 348.019 277.491 348.488C276.36 348.957 275.091 349.192 273.683 349.192ZM292.733 349.192C291.09 349.192 289.618 348.829 288.317 348.104C287.037 347.379 286.023 346.365 285.277 345.064C284.53 343.763 284.157 342.248 284.157 340.52C284.157 338.792 284.53 337.288 285.277 336.008C286.023 334.707 287.037 333.693 288.317 332.968C289.618 332.243 291.09 331.88 292.733 331.88C294.162 331.88 295.453 332.2 296.605 332.84C297.757 333.48 298.674 334.44 299.357 335.72C300.061 337 300.413 338.6 300.413 340.52C300.413 342.44 300.071 344.04 299.389 345.32C298.727 346.6 297.821 347.571 296.669 348.232C295.517 348.872 294.205 349.192 292.733 349.192ZM292.989 346.504C294.055 346.504 295.015 346.259 295.869 345.768C296.743 345.277 297.426 344.584 297.917 343.688C298.429 342.771 298.685 341.715 298.685 340.52C298.685 339.304 298.429 338.259 297.917 337.384C297.426 336.488 296.743 335.795 295.869 335.304C295.015 334.813 294.055 334.568 292.989 334.568C291.901 334.568 290.93 334.813 290.077 335.304C289.223 335.795 288.541 336.488 288.029 337.384C287.517 338.259 287.261 339.304 287.261 340.52C287.261 341.715 287.517 342.771 288.029 343.688C288.541 344.584 289.223 345.277 290.077 345.768C290.93 346.259 291.901 346.504 292.989 346.504ZM298.781 349V344.424L298.972 340.488L298.653 336.552V325.256H301.725V349H298.781Z" fill="white"/>
<path d="M436 234C436 207.473 430.775 181.206 420.624 156.698C410.472 132.19 395.593 109.922 376.836 91.1644C358.078 72.407 335.81 57.5278 311.302 47.3763C286.794 37.2249 260.527 32 234 32C207.473 32 181.206 37.2249 156.698 47.3763C132.19 57.5278 109.922 72.407 91.1644 91.1644C72.407 109.922 57.5278 132.19 47.3763 156.698C37.2249 181.206 32 207.473 32 234L234 234H436Z" fill="#428BCC"/>
<path d="M389 234C389 213.645 384.991 193.49 377.201 174.684C369.412 155.879 357.995 138.792 343.602 124.398C329.208 110.005 312.121 98.5881 293.316 90.7987C274.51 83.0092 254.355 79 234 79C213.645 79 193.49 83.0092 174.684 90.7987C155.879 98.5882 138.792 110.005 124.398 124.398C110.005 138.792 98.5881 155.879 90.7987 174.684C83.0092 193.49 79 213.645 79 234L234 234H389Z" fill="white" fill-opacity="0.2"/>
<path d="M141.555 222.816C138.245 222.816 134.959 222.385 131.695 221.524C128.431 220.617 125.665 219.348 123.399 217.716L127.683 209.284C129.496 210.599 131.604 211.641 134.007 212.412C136.409 213.183 138.835 213.568 141.283 213.568C144.048 213.568 146.224 213.024 147.811 211.936C149.397 210.848 150.191 209.352 150.191 207.448C150.191 205.635 149.488 204.207 148.083 203.164C146.677 202.121 144.411 201.6 141.283 201.6H136.251V194.324L149.511 179.296L150.735 183.24H125.779V174.4H159.099V181.54L145.907 196.568L140.331 193.372H143.527C149.375 193.372 153.795 194.687 156.787 197.316C159.779 199.945 161.275 203.323 161.275 207.448C161.275 210.123 160.572 212.639 159.167 214.996C157.761 217.308 155.608 219.189 152.707 220.64C149.805 222.091 146.088 222.816 141.555 222.816ZM186.761 222.816C182.862 222.816 179.372 221.864 176.289 219.96C173.206 218.011 170.781 215.2 169.013 211.528C167.245 207.856 166.361 203.413 166.361 198.2C166.361 192.987 167.245 188.544 169.013 184.872C170.781 181.2 173.206 178.412 176.289 176.508C179.372 174.559 182.862 173.584 186.761 173.584C190.705 173.584 194.196 174.559 197.233 176.508C200.316 178.412 202.741 181.2 204.509 184.872C206.277 188.544 207.161 192.987 207.161 198.2C207.161 203.413 206.277 207.856 204.509 211.528C202.741 215.2 200.316 218.011 197.233 219.96C194.196 221.864 190.705 222.816 186.761 222.816ZM186.761 213.5C188.62 213.5 190.229 212.979 191.589 211.936C192.994 210.893 194.082 209.239 194.853 206.972C195.669 204.705 196.077 201.781 196.077 198.2C196.077 194.619 195.669 191.695 194.853 189.428C194.082 187.161 192.994 185.507 191.589 184.464C190.229 183.421 188.62 182.9 186.761 182.9C184.948 182.9 183.338 183.421 181.933 184.464C180.573 185.507 179.485 187.161 178.669 189.428C177.898 191.695 177.513 194.619 177.513 198.2C177.513 201.781 177.898 204.705 178.669 206.972C179.485 209.239 180.573 210.893 181.933 211.936C183.338 212.979 184.948 213.5 186.761 213.5ZM232.913 222.816C229.015 222.816 225.524 221.864 222.441 219.96C219.359 218.011 216.933 215.2 215.165 211.528C213.397 207.856 212.513 203.413 212.513 198.2C212.513 192.987 213.397 188.544 215.165 184.872C216.933 181.2 219.359 178.412 222.441 176.508C225.524 174.559 229.015 173.584 232.913 173.584C236.857 173.584 240.348 174.559 243.385 176.508C246.468 178.412 248.893 181.2 250.661 184.872C252.429 188.544 253.313 192.987 253.313 198.2C253.313 203.413 252.429 207.856 250.661 211.528C248.893 215.2 246.468 218.011 243.385 219.96C240.348 221.864 236.857 222.816 232.913 222.816ZM232.913 213.5C234.772 213.5 236.381 212.979 237.741 211.936C239.147 210.893 240.235 209.239 241.005 206.972C241.821 204.705 242.229 201.781 242.229 198.2C242.229 194.619 241.821 191.695 241.005 189.428C240.235 187.161 239.147 185.507 237.741 184.464C236.381 183.421 234.772 182.9 232.913 182.9C231.1 182.9 229.491 183.421 228.085 184.464C226.725 185.507 225.637 187.161 224.821 189.428C224.051 191.695 223.665 194.619 223.665 198.2C223.665 201.781 224.051 204.705 224.821 206.972C225.637 209.239 226.725 210.893 228.085 211.936C229.491 212.979 231.1 213.5 232.913 213.5ZM271.518 211.12L270.906 198.404L293.686 174.4H305.926L285.39 196.5L279.27 203.028L271.518 211.12ZM261.658 222V174.4H272.606V222H261.658ZM294.23 222L277.298 201.26L284.506 193.44L307.082 222H294.23ZM319.806 213.908V182.492H328.578V213.908H319.806ZM308.042 202.348V194.052H340.41V202.348H308.042Z" fill="white"/>
</svg>
