<svg width="130" height="258" viewBox="0 0 130 258" fill="none" xmlns="http://www.w3.org/2000/svg">
<path d="M6.19888e-06 129C6.19888e-06 200.245 57.7553 258 129 258C200.245 258 258 200.245 258 129C258 57.7553 200.245 0 129 0C57.7553 0 6.19888e-06 57.7553 6.19888e-06 129Z" fill="#2770AE" fill-opacity="0.15"/>
<path d="M39.4899 129C39.4899 178.435 79.5649 218.51 129 218.51C178.435 218.51 218.51 178.435 218.51 129C218.51 79.5648 178.435 39.4897 129 39.4897C79.5649 39.4897 39.4899 79.5648 39.4899 129Z" fill="#0D2E4B"/>
<path d="M106.655 109.771H129.875L148.071 130.526L129.875 151.187H106.655L124.851 130.526L106.655 109.771Z" fill="white"/>
</svg>
