<svg width="2088" height="564" viewBox="0 0 2088 564" fill="none" xmlns="http://www.w3.org/2000/svg">
<rect x="1499" width="589" height="564" fill="#99CDFF" fill-opacity="0.2"/>
<rect x="1520.5" y="21.5" width="546" height="521" stroke="white" stroke-opacity="0.7" stroke-width="43"/>
<path d="M146.631 67.4707L65.4199 315H0L110.947 16.4062H152.578L146.631 67.4707ZM214.102 315L132.686 67.4707L126.123 16.4062H168.164L279.727 315H214.102ZM210.41 203.848V252.041H52.7051V203.848H210.41Z" fill="url(#paint0_linear_736_6)"/>
<path d="M362.783 141.504V315H303.721V93.1055H359.297L362.783 141.504ZM429.639 91.6699L428.613 146.426C425.742 146.016 422.256 145.674 418.154 145.4C414.189 144.99 410.566 144.785 407.285 144.785C398.945 144.785 391.699 145.879 385.547 148.066C379.531 150.117 374.473 153.193 370.371 157.295C366.406 161.396 363.398 166.387 361.348 172.266C359.434 178.145 358.34 184.844 358.066 192.363L346.172 188.672C346.172 174.316 347.607 161.123 350.479 149.092C353.35 136.924 357.52 126.328 362.988 117.305C368.594 108.281 375.43 101.309 383.496 96.3867C391.562 91.4648 400.791 89.0039 411.182 89.0039C414.463 89.0039 417.812 89.2773 421.23 89.8242C424.648 90.2344 427.451 90.8496 429.639 91.6699Z" fill="url(#paint1_linear_736_6)"/>
<path d="M576.475 93.1055V134.941H447.275V93.1055H576.475ZM479.268 38.3496H538.33V248.145C538.33 254.57 539.15 259.492 540.791 262.91C542.568 266.328 545.166 268.721 548.584 270.088C552.002 271.318 556.309 271.934 561.504 271.934C565.195 271.934 568.477 271.797 571.348 271.523C574.355 271.113 576.885 270.703 578.936 270.293L579.141 313.77C574.082 315.41 568.613 316.709 562.734 317.666C556.855 318.623 550.361 319.102 543.252 319.102C530.264 319.102 518.916 316.982 509.209 312.744C499.639 308.369 492.256 301.396 487.061 291.826C481.865 282.256 479.268 269.678 479.268 254.092V38.3496Z" fill="url(#paint2_linear_736_6)"/>
<path d="M672.451 93.1055V315H613.184V93.1055H672.451ZM609.492 35.2734C609.492 26.6602 612.5 19.5508 618.516 13.9453C624.531 8.33984 632.598 5.53711 642.715 5.53711C652.695 5.53711 660.693 8.33984 666.709 13.9453C672.861 19.5508 675.938 26.6602 675.938 35.2734C675.938 43.8867 672.861 50.9961 666.709 56.6016C660.693 62.207 652.695 65.0098 642.715 65.0098C632.598 65.0098 624.531 62.207 618.516 56.6016C612.5 50.9961 609.492 43.8867 609.492 35.2734Z" fill="url(#paint3_linear_736_6)"/>
<path d="M812.93 272.959C820.176 272.959 826.602 271.592 832.207 268.857C837.812 265.986 842.188 262.021 845.332 256.963C848.613 251.768 850.322 245.684 850.459 238.711H906.035C905.898 254.297 901.729 268.174 893.525 280.342C885.322 292.373 874.316 301.875 860.508 308.848C846.699 315.684 831.25 319.102 814.16 319.102C796.934 319.102 781.895 316.23 769.043 310.488C756.328 304.746 745.732 296.816 737.256 286.699C728.779 276.445 722.422 264.551 718.184 251.016C713.945 237.344 711.826 222.715 711.826 207.129V201.182C711.826 185.459 713.945 170.83 718.184 157.295C722.422 143.623 728.779 131.729 737.256 121.611C745.732 111.357 756.328 103.359 769.043 97.6172C781.758 91.875 796.66 89.0039 813.75 89.0039C831.934 89.0039 847.861 92.4902 861.533 99.4629C875.342 106.436 886.143 116.416 893.936 129.404C901.865 142.256 905.898 157.5 906.035 175.137H850.459C850.322 167.754 848.75 161.055 845.742 155.039C842.871 149.023 838.633 144.238 833.027 140.684C827.559 136.992 820.791 135.146 812.725 135.146C804.111 135.146 797.07 136.992 791.602 140.684C786.133 144.238 781.895 149.16 778.887 155.449C775.879 161.602 773.76 168.643 772.529 176.572C771.436 184.365 770.889 192.568 770.889 201.182V207.129C770.889 215.742 771.436 224.014 772.529 231.943C773.623 239.873 775.674 246.914 778.682 253.066C781.826 259.219 786.133 264.072 791.602 267.627C797.07 271.182 804.18 272.959 812.93 272.959Z" fill="url(#paint4_linear_736_6)"/>
<path d="M1002.63 0V315H943.359V0H1002.63Z" fill="url(#paint5_linear_736_6)"/>
<path d="M1153.56 319.102C1136.34 319.102 1120.89 316.367 1107.22 310.898C1093.54 305.293 1081.92 297.568 1072.35 287.725C1062.92 277.881 1055.67 266.465 1050.62 253.477C1045.56 240.352 1043.03 226.406 1043.03 211.641V203.438C1043.03 186.621 1045.42 171.24 1050.21 157.295C1054.99 143.35 1061.83 131.25 1070.71 120.996C1079.74 110.742 1090.67 102.881 1103.53 97.4121C1116.38 91.8066 1130.87 89.0039 1147 89.0039C1162.72 89.0039 1176.67 91.6016 1188.84 96.7969C1201.01 101.992 1211.19 109.375 1219.39 118.945C1227.73 128.516 1234.02 140 1238.26 153.398C1242.5 166.66 1244.62 181.426 1244.62 197.695V222.305H1068.25V182.93H1186.58V178.418C1186.58 170.215 1185.08 162.9 1182.07 156.475C1179.2 149.912 1174.82 144.717 1168.95 140.889C1163.07 137.061 1155.55 135.146 1146.39 135.146C1138.59 135.146 1131.89 136.855 1126.29 140.273C1120.68 143.691 1116.1 148.477 1112.55 154.629C1109.13 160.781 1106.53 168.027 1104.76 176.367C1103.12 184.57 1102.29 193.594 1102.29 203.438V211.641C1102.29 220.527 1103.53 228.73 1105.99 236.25C1108.58 243.77 1112.21 250.264 1116.86 255.732C1121.64 261.201 1127.38 265.439 1134.08 268.447C1140.92 271.455 1148.64 272.959 1157.26 272.959C1167.92 272.959 1177.83 270.908 1186.99 266.807C1196.29 262.568 1204.29 256.211 1210.99 247.734L1239.7 278.906C1235.05 285.605 1228.69 292.031 1220.62 298.184C1212.7 304.336 1203.12 309.395 1191.91 313.359C1180.7 317.188 1167.92 319.102 1153.56 319.102Z" fill="url(#paint6_linear_736_6)"/>
<path d="M1398.22 253.682C1398.22 249.443 1396.99 245.615 1394.53 242.197C1392.07 238.779 1387.49 235.635 1380.79 232.764C1374.23 229.756 1364.73 227.021 1352.29 224.561C1341.07 222.1 1330.62 219.023 1320.91 215.332C1311.34 211.504 1303 206.924 1295.89 201.592C1288.92 196.26 1283.45 189.971 1279.48 182.725C1275.52 175.342 1273.54 166.934 1273.54 157.5C1273.54 148.203 1275.52 139.453 1279.48 131.25C1283.58 123.047 1289.39 115.801 1296.91 109.512C1304.57 103.086 1313.87 98.0957 1324.8 94.541C1335.88 90.8496 1348.32 89.0039 1362.13 89.0039C1381.41 89.0039 1397.95 92.0801 1411.76 98.2324C1425.7 104.385 1436.37 112.861 1443.75 123.662C1451.27 134.326 1455.03 146.494 1455.03 160.166H1395.97C1395.97 154.424 1394.74 149.297 1392.28 144.785C1389.95 140.137 1386.26 136.514 1381.2 133.916C1376.28 131.182 1369.85 129.814 1361.92 129.814C1355.36 129.814 1349.69 130.977 1344.9 133.301C1340.12 135.488 1336.43 138.496 1333.83 142.324C1331.37 146.016 1330.14 150.117 1330.14 154.629C1330.14 158.047 1330.82 161.123 1332.19 163.857C1333.69 166.455 1336.08 168.848 1339.37 171.035C1342.65 173.223 1346.88 175.273 1352.08 177.188C1357.41 178.965 1363.97 180.605 1371.77 182.109C1387.76 185.391 1402.05 189.697 1414.63 195.029C1427.21 200.225 1437.19 207.334 1444.57 216.357C1451.95 225.244 1455.64 236.934 1455.64 251.426C1455.64 261.27 1453.46 270.293 1449.08 278.496C1444.71 286.699 1438.42 293.877 1430.21 300.029C1422.01 306.045 1412.17 310.762 1400.68 314.18C1389.34 317.461 1376.55 319.102 1362.33 319.102C1341.69 319.102 1324.19 315.41 1309.83 308.027C1295.62 300.645 1284.81 291.279 1277.43 279.932C1270.19 268.447 1266.56 256.689 1266.56 244.658H1322.55C1322.82 252.725 1324.87 259.219 1328.7 264.141C1332.67 269.062 1337.66 272.617 1343.67 274.805C1349.82 276.992 1356.46 278.086 1363.56 278.086C1371.22 278.086 1377.58 277.061 1382.64 275.01C1387.7 272.822 1391.52 269.951 1394.12 266.396C1396.86 262.705 1398.22 258.467 1398.22 253.682Z" fill="url(#paint7_linear_736_6)"/>
<path d="M1697.22 269.686L1773.16 220.498C1784.37 213.07 1791.87 205.914 1795.67 199.03C1799.47 192.145 1801.36 184.445 1801.36 175.93C1801.36 167.415 1798.2 159.534 1791.87 152.287C1785.54 144.859 1776.69 141.145 1765.3 141.145C1757.16 141.145 1750.29 143.048 1744.68 146.852C1739.08 150.476 1734.83 155.367 1731.94 161.527C1729.23 167.687 1727.87 174.571 1727.87 182.181C1727.87 190.333 1730.04 198.667 1734.38 207.182C1738.72 215.516 1744.59 224.394 1752.01 233.814C1759.42 243.054 1767.65 253.109 1776.69 263.979L1963 481.385H1874.32L1722.45 305.287C1709.61 289.343 1698.4 274.759 1688.82 261.534C1679.23 248.127 1671.73 235.083 1666.31 222.401C1660.88 209.719 1658.17 196.674 1658.17 183.268C1658.17 162.614 1662.6 144.588 1671.46 129.188C1680.32 113.607 1692.79 101.559 1708.89 93.0443C1724.98 84.3481 1743.87 80 1765.57 80C1786 80 1803.72 84.2575 1818.72 92.7726C1833.73 101.106 1845.3 112.158 1853.44 125.927C1861.75 139.696 1865.91 154.824 1865.91 171.31C1865.91 183.63 1863.65 195.044 1859.13 205.552C1854.61 215.878 1848.37 225.481 1840.42 234.358C1832.46 243.054 1823.33 251.116 1813.03 258.544L1726.51 320.233C1719.82 326.393 1714.76 332.462 1711.33 338.441C1707.89 344.42 1705.54 350.126 1704.28 355.562C1703.01 360.816 1702.38 365.888 1702.38 370.78C1702.38 381.288 1704.64 390.709 1709.16 399.043C1713.68 407.377 1720 413.899 1728.14 418.609C1736.28 423.32 1745.77 424.129 1756.62 424.129C1771.44 424.129 1785.82 422.414 1799.74 415.892C1813.66 409.369 1826.13 400.039 1837.16 387.901C1848.19 375.581 1856.96 360.997 1863.47 344.148C1869.98 327.299 1873.23 308.729 1873.23 288.438H1939.41C1939.41 308.729 1937.42 328.024 1933.44 346.322C1929.46 364.439 1923.04 381.288 1914.18 396.869C1905.32 412.268 1893.57 425.947 1878.93 437.904C1877.84 438.81 1876.31 440.169 1874.32 441.98C1872.51 443.611 1870.97 444.879 1869.71 445.785C1852.35 459.735 1834.27 470.152 1815.47 477.037C1796.66 483.74 1775.69 484 1752.55 484C1726.15 484 1703.28 482.291 1683.94 472.689C1664.77 463.087 1649.94 449.861 1639.46 433.012C1629.15 416.163 1624 396.869 1624 375.128C1624 359.185 1627.07 345.325 1633.22 333.549C1639.55 321.592 1648.23 310.541 1659.26 300.395C1670.28 290.249 1682.94 280.013 1697.22 269.686Z" fill="#0D2E4B"/>
<path d="M86.5522 484.269H32.8535V470.683H86.5522C97.7664 470.683 106.867 468.871 113.854 465.248C120.928 461.539 126.061 456.535 129.252 450.238C132.53 443.941 134.169 436.868 134.169 429.018C134.169 421.34 132.53 414.267 129.252 407.797C126.061 401.327 120.928 396.151 113.854 392.27C106.867 388.301 97.7664 386.317 86.5522 386.317H38.4175V564H22.502V372.602H86.5522C100.354 372.602 111.957 374.974 121.359 379.718C130.848 384.463 138.008 391.062 142.839 399.516C147.67 407.969 150.085 417.717 150.085 428.759C150.085 440.318 147.67 450.281 142.839 458.649C138.008 466.93 130.891 473.271 121.489 477.67C112.086 482.069 100.441 484.269 86.5522 484.269Z" fill="black"/>
<path d="M277.145 528.651V420.995H292.673V564H277.792L277.145 528.651ZM279.992 502.772L288.014 502.514C288.014 511.312 286.979 519.421 284.909 526.84C282.839 534.258 279.604 540.728 275.204 546.249C270.805 551.77 265.112 556.04 258.124 559.059C251.137 562.078 242.726 563.588 232.892 563.588C226.078 563.588 219.823 562.639 214.13 560.741C208.523 558.757 203.692 555.652 199.638 551.425C195.584 547.198 192.435 541.72 190.192 534.992C188.036 528.263 186.957 520.111 186.957 510.536V420.995H202.355V510.795C202.355 518.3 203.175 524.554 204.814 529.557C206.539 534.56 208.868 538.572 211.801 541.591C214.82 544.61 218.271 546.767 222.153 548.061C226.034 549.354 230.218 550.001 234.704 550.001C246.091 550.001 255.062 547.802 261.618 543.402C268.26 539.003 272.961 533.223 275.722 526.063C278.569 518.817 279.992 511.054 279.992 502.772Z" fill="black"/>
<path d="M338.214 362.25H353.742V533.827L352.564 564H338.214V362.25ZM451.176 489.704V492.421C451.176 502.859 449.968 512.434 447.553 521.146C445.137 529.859 441.644 537.407 437.072 543.791C432.5 550.088 426.893 554.962 420.25 558.412C413.694 561.863 406.146 563.588 397.606 563.588C389.239 563.588 381.82 562.294 375.35 559.706C368.881 557.032 363.36 553.279 358.788 548.449C354.216 543.532 350.55 537.795 347.789 531.239C345.029 524.597 343.088 517.308 341.967 509.372V474.823C343.261 466.369 345.331 458.692 348.178 451.791C351.024 444.89 354.691 438.938 359.176 433.935C363.748 428.931 369.183 425.093 375.48 422.418C381.863 419.744 389.153 418.407 397.348 418.407C405.888 418.407 413.479 420.089 420.121 423.454C426.85 426.732 432.5 431.519 437.072 437.816C441.644 444.027 445.137 451.532 447.553 460.331C449.968 469.044 451.176 478.834 451.176 489.704ZM435.519 492.421V489.704C435.519 481.509 434.743 473.917 433.19 466.93C431.637 459.943 429.179 453.861 425.814 448.686C422.536 443.424 418.309 439.326 413.134 436.393C407.958 433.46 401.747 431.994 394.501 431.994C387.082 431.994 380.742 433.244 375.48 435.746C370.304 438.161 365.991 441.396 362.54 445.451C359.176 449.419 356.502 453.775 354.518 458.52C352.534 463.264 351.067 467.922 350.119 472.494V512.736C351.585 519.206 354.13 525.287 357.753 530.98C361.376 536.674 366.25 541.289 372.374 544.826C378.499 548.276 385.961 550.001 394.76 550.001C401.833 550.001 407.915 548.535 413.004 545.602C418.18 542.669 422.407 538.615 425.685 533.439C429.049 528.263 431.508 522.182 433.06 515.194C434.699 508.207 435.519 500.616 435.519 492.421Z" fill="black"/>
<path d="M507.975 362.25V564H492.577V362.25H507.975Z" fill="black"/>
<path d="M572.796 420.995V564H557.398V420.995H572.796ZM554.681 380.495C554.681 377.562 555.587 375.103 557.398 373.119C559.296 371.049 561.884 370.014 565.162 370.014C568.44 370.014 571.028 371.049 572.926 373.119C574.91 375.103 575.902 377.562 575.902 380.495C575.902 383.341 574.91 385.8 572.926 387.87C571.028 389.854 568.44 390.846 565.162 390.846C561.884 390.846 559.296 389.854 557.398 387.87C555.587 385.8 554.681 383.341 554.681 380.495Z" fill="black"/>
<path d="M672.037 550.26C678.593 550.26 684.717 549.053 690.411 546.637C696.19 544.136 700.935 540.469 704.644 535.639C708.44 530.722 710.596 524.726 711.114 517.653H725.865C725.433 526.538 722.716 534.474 717.713 541.461C712.796 548.362 706.326 553.797 698.304 557.765C690.368 561.647 681.612 563.588 672.037 563.588C662.289 563.588 653.663 561.819 646.158 558.283C638.739 554.746 632.528 549.829 627.525 543.532C622.522 537.148 618.726 529.73 616.138 521.276C613.637 512.736 612.386 503.549 612.386 493.715V488.28C612.386 478.446 613.637 469.302 616.138 460.849C618.726 452.309 622.522 444.89 627.525 438.593C632.528 432.209 638.739 427.249 646.158 423.712C653.576 420.176 662.16 418.407 671.907 418.407C681.914 418.407 690.885 420.434 698.821 424.489C706.844 428.543 713.227 434.28 717.972 441.698C722.802 449.117 725.433 457.916 725.865 468.095H711.114C710.682 460.59 708.698 454.12 705.162 448.686C701.625 443.251 696.967 439.067 691.187 436.134C685.407 433.201 678.981 431.735 671.907 431.735C663.971 431.735 657.199 433.288 651.592 436.393C645.985 439.412 641.413 443.596 637.876 448.944C634.426 454.206 631.881 460.245 630.242 467.06C628.603 473.788 627.784 480.862 627.784 488.28V493.715C627.784 501.22 628.56 508.38 630.113 515.194C631.752 521.923 634.297 527.918 637.747 533.18C641.284 538.442 645.856 542.626 651.463 545.731C657.156 548.751 664.014 550.26 672.037 550.26Z" fill="black"/>
<path d="M847.49 535.897V463.695C847.49 457.053 846.11 451.317 843.35 446.486C840.589 441.655 836.535 437.946 831.187 435.358C825.838 432.77 819.239 431.476 811.389 431.476C804.143 431.476 797.674 432.77 791.98 435.358C786.373 437.86 781.931 441.267 778.653 445.58C775.461 449.807 773.865 454.508 773.865 459.684L758.338 459.555C758.338 454.293 759.632 449.203 762.219 444.286C764.807 439.369 768.473 434.97 773.218 431.088C777.962 427.206 783.613 424.144 790.169 421.901C796.811 419.572 804.1 418.407 812.036 418.407C822.043 418.407 830.842 420.089 838.433 423.454C846.11 426.818 852.105 431.864 856.419 438.593C860.732 445.321 862.888 453.775 862.888 463.954V531.627C862.888 536.458 863.233 541.461 863.924 546.637C864.7 551.813 865.778 556.083 867.158 559.447L869.158 564H850.725C849.69 560.895 848.871 554.013 848.267 549.354C847.749 544.61 847.49 540.124 847.49 535.897ZM851.113 479.481L851.372 491.386H820.965C813.028 491.386 805.912 492.119 799.614 493.585C793.404 494.966 788.141 497.036 783.828 499.796C779.515 502.471 776.194 505.705 773.865 509.501C771.622 513.297 770.501 517.61 770.501 522.44C770.501 527.444 771.751 532.016 774.253 536.156C776.841 540.297 780.464 543.618 785.122 546.12C789.867 548.535 795.474 549.743 801.944 549.743C810.57 549.743 818.161 548.147 824.717 544.955C831.359 541.763 836.837 537.58 841.15 532.404C845.463 527.228 848.353 521.578 849.82 515.453L856.548 524.381C855.427 528.694 853.356 533.137 850.337 537.709C847.404 542.195 843.565 546.422 838.821 550.39C834.077 554.271 828.469 557.463 822 559.965C815.616 562.38 808.37 563.588 800.261 563.588C791.118 563.588 783.138 561.863 776.323 558.412C769.595 554.962 764.333 550.26 760.537 544.308C756.828 538.27 754.973 531.455 754.973 523.864C754.973 516.963 756.44 510.795 759.373 505.36C762.306 499.84 766.533 495.181 772.053 491.386C777.661 487.504 784.389 484.571 792.239 482.587C800.175 480.517 809.06 479.481 818.894 479.481H851.113Z" fill="black"/>
<path d="M962.646 420.995V433.676H892.515V420.995H962.646ZM918.264 385.023H933.662V526.969C933.662 533.439 934.525 538.313 936.25 541.591C937.975 544.869 940.218 547.069 942.978 548.19C945.739 549.311 948.715 549.872 951.907 549.872C954.236 549.872 956.479 549.743 958.635 549.484C960.792 549.139 962.733 548.794 964.458 548.449L965.105 561.518C963.207 562.121 960.749 562.596 957.729 562.941C954.71 563.372 951.691 563.588 948.672 563.588C942.72 563.588 937.458 562.51 932.886 560.353C928.314 558.11 924.734 554.315 922.146 548.966C919.558 543.532 918.264 536.156 918.264 526.84V385.023Z" fill="black"/>
<path d="M1017.63 420.995V563.941H1002.24V420.995H1017.63ZM999.519 380.495C999.519 377.562 1000.42 375.103 1002.24 373.119C1004.13 371.049 1006.72 370.014 1010 370.014C1013.28 370.014 1015.87 371.049 1017.76 373.119C1019.75 375.103 1020.74 377.562 1020.74 380.495C1020.74 383.341 1019.75 385.8 1017.76 387.87C1015.87 389.854 1013.28 390.846 1010 390.846C1006.72 390.846 1004.13 389.854 1002.24 387.87C1000.42 385.8 999.519 383.341 999.519 380.495Z" fill="black"/>
<path d="M1056.71 493.197V488.927C1056.71 478.748 1058.17 469.346 1061.11 460.719C1064.04 452.093 1068.22 444.631 1073.66 438.334C1079.18 432.037 1085.78 427.163 1093.45 423.712C1101.13 420.176 1109.67 418.407 1119.07 418.407C1128.56 418.407 1137.15 420.176 1144.82 423.712C1152.5 427.163 1159.1 432.037 1164.62 438.334C1170.14 444.631 1174.37 452.093 1177.3 460.719C1180.23 469.346 1181.7 478.748 1181.7 488.927V493.197C1181.7 503.376 1180.23 512.779 1177.3 521.405C1174.37 529.945 1170.14 537.364 1164.62 543.661C1159.19 549.958 1152.63 554.875 1144.95 558.412C1137.28 561.863 1128.74 563.588 1119.33 563.588C1109.84 563.588 1101.26 561.863 1093.58 558.412C1085.91 554.875 1079.31 549.958 1073.79 543.661C1068.27 537.364 1064.04 529.945 1061.11 521.405C1058.17 512.779 1056.71 503.376 1056.71 493.197ZM1072.1 488.927V493.197C1072.1 500.875 1073.14 508.164 1075.21 515.065C1077.28 521.88 1080.3 527.961 1084.27 533.31C1088.23 538.572 1093.15 542.712 1099.02 545.731C1104.88 548.751 1111.66 550.26 1119.33 550.26C1126.92 550.26 1133.61 548.751 1139.39 545.731C1145.25 542.712 1150.17 538.572 1154.14 533.31C1158.11 527.961 1161.08 521.88 1163.07 515.065C1165.14 508.164 1166.17 500.875 1166.17 493.197V488.927C1166.17 481.336 1165.14 474.133 1163.07 467.318C1161.08 460.504 1158.06 454.422 1154.01 449.074C1150.04 443.725 1145.13 439.499 1139.26 436.393C1133.39 433.288 1126.67 431.735 1119.07 431.735C1111.48 431.735 1104.75 433.288 1098.89 436.393C1093.11 439.499 1088.19 443.725 1084.14 449.074C1080.17 454.422 1077.15 460.504 1075.08 467.318C1073.1 474.133 1072.1 481.336 1072.1 488.927Z" fill="black"/>
<path d="M1234.49 450.885V564H1219.09V420.995H1233.84L1234.49 450.885ZM1231 482.328L1224.14 478.446C1224.65 470.165 1226.34 462.401 1229.18 455.155C1232.03 447.909 1235.87 441.526 1240.7 436.005C1245.62 430.484 1251.35 426.171 1257.91 423.065C1264.55 419.96 1271.88 418.407 1279.91 418.407C1286.89 418.407 1293.15 419.356 1298.67 421.254C1304.19 423.152 1308.89 426.171 1312.77 430.312C1316.65 434.452 1319.59 439.757 1321.57 446.227C1323.64 452.697 1324.68 460.59 1324.68 469.906V564H1309.15V469.777C1309.15 460.115 1307.81 452.567 1305.14 447.133C1302.46 441.612 1298.67 437.687 1293.75 435.358C1288.83 433.029 1283.01 431.864 1276.28 431.864C1268.86 431.864 1262.35 433.503 1256.74 436.781C1251.22 439.973 1246.57 444.157 1242.77 449.333C1239.06 454.422 1236.21 459.9 1234.23 465.766C1232.25 471.545 1231.17 477.066 1231 482.328Z" fill="black"/>
<path d="M1453.94 525.287C1453.94 521.492 1452.99 517.739 1451.09 514.03C1449.19 510.32 1445.53 506.913 1440.09 503.808C1434.74 500.702 1426.85 498.071 1416.41 495.915C1408.65 494.189 1401.7 492.248 1395.58 490.092C1389.54 487.935 1384.45 485.347 1380.31 482.328C1376.17 479.309 1373.02 475.686 1370.87 471.459C1368.71 467.232 1367.63 462.229 1367.63 456.449C1367.63 451.273 1368.75 446.4 1370.99 441.828C1373.32 437.169 1376.6 433.115 1380.83 429.665C1385.14 426.128 1390.32 423.367 1396.36 421.383C1402.48 419.399 1409.34 418.407 1416.93 418.407C1427.71 418.407 1436.94 420.262 1444.62 423.971C1452.38 427.594 1458.29 432.554 1462.35 438.852C1466.49 445.149 1468.56 452.265 1468.56 460.202H1453.16C1453.16 455.371 1451.74 450.799 1448.89 446.486C1446.13 442.173 1442.03 438.636 1436.6 435.875C1431.25 433.115 1424.69 431.735 1416.93 431.735C1408.91 431.735 1402.39 432.943 1397.39 435.358C1392.39 437.773 1388.72 440.836 1386.39 444.545C1384.15 448.254 1383.03 452.093 1383.03 456.061C1383.03 459.167 1383.5 462.013 1384.45 464.601C1385.49 467.103 1387.3 469.432 1389.89 471.588C1392.56 473.745 1396.36 475.772 1401.27 477.67C1406.19 479.568 1412.57 481.422 1420.42 483.234C1431.72 485.736 1440.95 488.798 1448.11 492.421C1455.36 495.958 1460.71 500.357 1464.16 505.619C1467.61 510.795 1469.33 517.092 1469.33 524.511C1469.33 530.29 1468.13 535.596 1465.71 540.426C1463.3 545.171 1459.8 549.268 1455.23 552.719C1450.75 556.169 1445.31 558.843 1438.93 560.741C1432.63 562.639 1425.56 563.588 1417.71 563.588C1405.89 563.588 1395.88 561.647 1387.69 557.765C1379.58 553.797 1373.41 548.621 1369.18 542.238C1365.04 535.768 1362.97 528.91 1362.97 521.664H1378.37C1378.89 528.91 1381.17 534.647 1385.23 538.874C1389.28 543.014 1394.24 545.947 1400.11 547.672C1406.06 549.398 1411.93 550.26 1417.71 550.26C1425.64 550.26 1432.28 549.096 1437.63 546.767C1442.98 544.438 1447.04 541.375 1449.8 537.58C1452.56 533.784 1453.94 529.687 1453.94 525.287Z" fill="black"/>
<defs>
<linearGradient id="paint0_linear_736_6" x1="734.564" y1="-11" x2="735.064" y2="417" gradientUnits="userSpaceOnUse">
<stop stop-color="#0D2E4B"/>
<stop offset="1" stop-color="#99EDFF" stop-opacity="0.65"/>
</linearGradient>
<linearGradient id="paint1_linear_736_6" x1="734.564" y1="-11" x2="735.064" y2="417" gradientUnits="userSpaceOnUse">
<stop stop-color="#0D2E4B"/>
<stop offset="1" stop-color="#99EDFF" stop-opacity="0.65"/>
</linearGradient>
<linearGradient id="paint2_linear_736_6" x1="734.564" y1="-11" x2="735.064" y2="417" gradientUnits="userSpaceOnUse">
<stop stop-color="#0D2E4B"/>
<stop offset="1" stop-color="#99EDFF" stop-opacity="0.65"/>
</linearGradient>
<linearGradient id="paint3_linear_736_6" x1="734.564" y1="-11" x2="735.064" y2="417" gradientUnits="userSpaceOnUse">
<stop stop-color="#0D2E4B"/>
<stop offset="1" stop-color="#99EDFF" stop-opacity="0.65"/>
</linearGradient>
<linearGradient id="paint4_linear_736_6" x1="734.564" y1="-11" x2="735.064" y2="417" gradientUnits="userSpaceOnUse">
<stop stop-color="#0D2E4B"/>
<stop offset="1" stop-color="#99EDFF" stop-opacity="0.65"/>
</linearGradient>
<linearGradient id="paint5_linear_736_6" x1="734.564" y1="-11" x2="735.064" y2="417" gradientUnits="userSpaceOnUse">
<stop stop-color="#0D2E4B"/>
<stop offset="1" stop-color="#99EDFF" stop-opacity="0.65"/>
</linearGradient>
<linearGradient id="paint6_linear_736_6" x1="734.564" y1="-11" x2="735.064" y2="417" gradientUnits="userSpaceOnUse">
<stop stop-color="#0D2E4B"/>
<stop offset="1" stop-color="#99EDFF" stop-opacity="0.65"/>
</linearGradient>
<linearGradient id="paint7_linear_736_6" x1="734.564" y1="-11" x2="735.064" y2="417" gradientUnits="userSpaceOnUse">
<stop stop-color="#0D2E4B"/>
<stop offset="1" stop-color="#99EDFF" stop-opacity="0.65"/>
</linearGradient>
</defs>
</svg>
