<svg width="144" height="118" viewBox="0 0 144 118" fill="none" xmlns="http://www.w3.org/2000/svg">
<path fill-rule="evenodd" clip-rule="evenodd" d="M71.9865 10.1145C65.6893 10.0974 59.4277 11.064 53.4249 12.9798C50.7804 13.8238 47.9569 12.3497 47.1186 9.68728C46.2802 7.02488 47.7444 4.18238 50.389 3.33838C57.3802 1.10717 64.6728 -0.0189196 72.0068 0.000240433C102.238 0.00295771 122.6 18.2387 134.417 33.6905L134.649 33.9942C137.315 37.4848 139.77 40.6997 141.436 44.4961C143.225 48.5713 144 53.0112 144 59.0001C144 64.9918 143.225 69.4336 141.436 73.5092C139.769 77.3084 137.312 80.5232 134.644 84.0132L134.419 84.3079C122.6 99.7609 102.235 118 72 118C41.7648 118 21.4012 99.7627 9.58265 84.3098C9.51417 84.2202 9.44574 84.1308 9.37753 84.0416C6.70035 80.542 4.23518 77.3196 2.56312 73.5083C0.774664 69.4317 0 64.9888 0 59.0001C0 53.0084 0.774576 48.5666 2.56351 44.4911C4.23115 40.6918 6.68844 37.477 9.356 33.987C9.42969 33.8906 9.50355 33.794 9.57756 33.6971C13.2284 28.8954 17.2938 24.4279 21.7263 20.347C23.7735 18.4622 26.9509 18.605 28.8232 20.6661C30.6954 22.7271 30.5535 25.926 28.5063 27.8108C24.5094 31.4907 20.8436 35.5192 17.5518 39.8493L17.5443 39.8591C14.6055 43.7054 12.8848 46.0002 11.7528 48.5792C10.6952 50.9886 10.0465 53.9336 10.0465 59.0001C10.0465 64.063 10.6951 67.0102 11.7532 69.4219C12.885 72.0018 14.6061 74.2991 17.543 78.1394C28.4564 92.4089 46.2158 107.886 72 107.886C97.7842 107.886 115.544 92.4088 126.457 78.1393C129.395 74.2941 131.115 71.9996 132.247 69.421C133.305 67.0116 133.953 64.0666 133.953 59.0001C133.953 53.9375 133.305 50.994 132.247 48.5843C131.115 46.0051 129.395 43.709 126.457 39.8609C115.544 25.5914 97.7842 10.1145 72 10.1145L71.9865 10.1145Z" fill="#5BB3FF"/>
<path fill-rule="evenodd" clip-rule="evenodd" d="M72 44C68.0218 44 64.2064 45.5804 61.3934 48.3934C58.5804 51.2064 57 55.0218 57 59C57 62.9782 58.5804 66.7936 61.3934 69.6066C64.2064 72.4196 68.0218 74 72 74C75.9782 74 79.7936 72.4196 82.6066 69.6066C85.4196 66.7936 87 62.9782 87 59C87 55.0218 85.4196 51.2064 82.6066 48.3934C79.7936 45.5804 75.9782 44 72 44ZM54.3223 41.3223C59.0107 36.6339 65.3696 34 72 34C78.6304 34 84.9893 36.6339 89.6777 41.3223C94.3661 46.0107 97 52.3696 97 59C97 65.6304 94.3661 71.9893 89.6777 76.6777C84.9893 81.3661 78.6304 84 72 84C65.3696 84 59.0107 81.3661 54.3223 76.6777C49.6339 71.9893 47 65.6304 47 59C47 52.3696 49.6339 46.0107 54.3223 41.3223Z" fill="#5BB3FF"/>
</svg>
