<svg width="468" height="468" viewBox="0 0 468 468" fill="none" xmlns="http://www.w3.org/2000/svg">
<circle cx="234" cy="234" r="218" fill="#101D28" stroke="#BBDDFA" stroke-width="32"/>
<path d="M436 234C436 207.473 430.775 181.206 420.624 156.698C410.472 132.19 395.593 109.922 376.836 91.1644C358.078 72.407 335.81 57.5278 311.302 47.3763C286.794 37.2249 260.527 32 234 32C207.473 32 181.206 37.2249 156.698 47.3763C132.19 57.5278 109.922 72.407 91.1644 91.1644C72.407 109.922 57.5278 132.19 47.3763 156.698C37.2249 181.206 32 207.473 32 234L234 234H436Z" fill="#428BCC"/>
<path d="M149.766 310.544C146.139 310.544 142.784 309.955 139.702 308.776C136.664 307.552 134.012 305.852 131.746 303.676C129.524 301.455 127.779 298.871 126.51 295.924C125.24 292.977 124.606 289.736 124.606 286.2C124.606 282.664 125.24 279.423 126.51 276.476C127.779 273.529 129.547 270.968 131.814 268.792C134.08 266.571 136.732 264.871 139.77 263.692C142.852 262.468 146.207 261.856 149.834 261.856C153.506 261.856 156.883 262.491 159.966 263.76C163.094 264.984 165.746 266.82 167.922 269.268L163.502 273.552C161.688 271.648 159.648 270.243 157.382 269.336C155.115 268.384 152.69 267.908 150.106 267.908C147.431 267.908 144.938 268.361 142.626 269.268C140.359 270.175 138.387 271.444 136.71 273.076C135.032 274.708 133.718 276.657 132.766 278.924C131.859 281.145 131.406 283.571 131.406 286.2C131.406 288.829 131.859 291.277 132.766 293.544C133.718 295.765 135.032 297.692 136.71 299.324C138.387 300.956 140.359 302.225 142.626 303.132C144.938 304.039 147.431 304.492 150.106 304.492C152.69 304.492 155.115 304.039 157.382 303.132C159.648 302.18 161.688 300.729 163.502 298.78L167.922 303.064C165.746 305.512 163.094 307.371 159.966 308.64C156.883 309.909 153.483 310.544 149.766 310.544ZM176.67 310V259.544H183.198V310H176.67ZM195.663 310V273.96H202.191V310H195.663ZM198.927 267.024C197.657 267.024 196.592 266.616 195.731 265.8C194.915 264.984 194.507 263.987 194.507 262.808C194.507 261.584 194.915 260.564 195.731 259.748C196.592 258.932 197.657 258.524 198.927 258.524C200.196 258.524 201.239 258.932 202.055 259.748C202.916 260.519 203.347 261.493 203.347 262.672C203.347 263.896 202.939 264.939 202.123 265.8C201.307 266.616 200.241 267.024 198.927 267.024ZM233.899 273.62C236.845 273.62 239.429 274.187 241.651 275.32C243.917 276.453 245.685 278.176 246.955 280.488C248.224 282.8 248.859 285.724 248.859 289.26V310H242.331V290.008C242.331 286.517 241.469 283.888 239.747 282.12C238.069 280.352 235.689 279.468 232.607 279.468C230.295 279.468 228.277 279.921 226.555 280.828C224.832 281.735 223.495 283.072 222.543 284.84C221.636 286.608 221.183 288.807 221.183 291.436V310H214.655V273.96H220.911V283.684L219.891 281.1C221.069 278.743 222.883 276.907 225.331 275.592C227.779 274.277 230.635 273.62 233.899 273.62ZM260.94 310V273.96H267.468V310H260.94ZM264.204 267.024C262.935 267.024 261.869 266.616 261.008 265.8C260.192 264.984 259.784 263.987 259.784 262.808C259.784 261.584 260.192 260.564 261.008 259.748C261.869 258.932 262.935 258.524 264.204 258.524C265.473 258.524 266.516 258.932 267.332 259.748C268.193 260.519 268.624 261.493 268.624 262.672C268.624 263.896 268.216 264.939 267.4 265.8C266.584 266.616 265.519 267.024 264.204 267.024ZM295.64 310.408C291.968 310.408 288.681 309.615 285.78 308.028C282.924 306.441 280.68 304.265 279.048 301.5C277.416 298.735 276.6 295.561 276.6 291.98C276.6 288.399 277.416 285.225 279.048 282.46C280.68 279.695 282.924 277.541 285.78 276C288.681 274.413 291.968 273.62 295.64 273.62C298.904 273.62 301.805 274.277 304.344 275.592C306.928 276.861 308.923 278.765 310.328 281.304L305.364 284.5C304.185 282.732 302.735 281.44 301.012 280.624C299.335 279.763 297.521 279.332 295.572 279.332C293.215 279.332 291.107 279.853 289.248 280.896C287.389 281.939 285.916 283.412 284.828 285.316C283.74 287.175 283.196 289.396 283.196 291.98C283.196 294.564 283.74 296.808 284.828 298.712C285.916 300.616 287.389 302.089 289.248 303.132C291.107 304.175 293.215 304.696 295.572 304.696C297.521 304.696 299.335 304.288 301.012 303.472C302.735 302.611 304.185 301.296 305.364 299.528L310.328 302.656C308.923 305.149 306.928 307.076 304.344 308.436C301.805 309.751 298.904 310.408 295.64 310.408ZM329.116 310.408C326.124 310.408 323.268 310 320.548 309.184C317.873 308.368 315.765 307.371 314.224 306.192L316.944 301.024C318.485 302.067 320.389 302.951 322.656 303.676C324.922 304.401 327.234 304.764 329.592 304.764C332.629 304.764 334.805 304.333 336.12 303.472C337.48 302.611 338.16 301.409 338.16 299.868C338.16 298.735 337.752 297.851 336.936 297.216C336.12 296.581 335.032 296.105 333.672 295.788C332.357 295.471 330.884 295.199 329.252 294.972C327.62 294.7 325.988 294.383 324.356 294.02C322.724 293.612 321.228 293.068 319.868 292.388C318.508 291.663 317.42 290.688 316.604 289.464C315.788 288.195 315.38 286.517 315.38 284.432C315.38 282.256 315.992 280.352 317.216 278.72C318.44 277.088 320.162 275.841 322.384 274.98C324.65 274.073 327.325 273.62 330.408 273.62C332.765 273.62 335.145 273.915 337.548 274.504C339.996 275.048 341.99 275.841 343.532 276.884L340.744 282.052C339.112 280.964 337.412 280.216 335.644 279.808C333.876 279.4 332.108 279.196 330.34 279.196C327.484 279.196 325.353 279.672 323.948 280.624C322.542 281.531 321.84 282.709 321.84 284.16C321.84 285.384 322.248 286.336 323.064 287.016C323.925 287.651 325.013 288.149 326.328 288.512C327.688 288.875 329.184 289.192 330.816 289.464C332.448 289.691 334.08 290.008 335.712 290.416C337.344 290.779 338.817 291.3 340.132 291.98C341.492 292.66 342.58 293.612 343.396 294.836C344.257 296.06 344.688 297.692 344.688 299.732C344.688 301.908 344.053 303.789 342.784 305.376C341.514 306.963 339.724 308.209 337.412 309.116C335.1 309.977 332.334 310.408 329.116 310.408Z" fill="white"/>
<path d="M389 234C389 213.645 384.991 193.49 377.201 174.684C369.412 155.879 357.995 138.792 343.602 124.398C329.208 110.005 312.121 98.5882 293.316 90.7987C274.51 83.0092 254.355 79 234 79C213.645 79 193.49 83.0092 174.684 90.7987C155.879 98.5882 138.792 110.005 124.398 124.398C110.005 138.792 98.5881 155.879 90.7987 174.684C83.0092 193.49 79 213.645 79 234L234 234H389Z" fill="white" fill-opacity="0.2"/>
<path d="M126.772 230V221.18L149.452 199.76C151.244 198.136 152.56 196.68 153.4 195.392C154.24 194.104 154.8 192.928 155.08 191.864C155.416 190.8 155.584 189.82 155.584 188.924C155.584 186.572 154.772 184.78 153.148 183.548C151.58 182.26 149.256 181.616 146.176 181.616C143.712 181.616 141.416 182.092 139.288 183.044C137.216 183.996 135.452 185.48 133.996 187.496L124.084 181.112C126.324 177.752 129.46 175.092 133.492 173.132C137.524 171.172 142.172 170.192 147.436 170.192C151.804 170.192 155.612 170.92 158.86 172.376C162.164 173.776 164.712 175.764 166.504 178.34C168.352 180.916 169.276 183.996 169.276 187.58C169.276 189.484 169.024 191.388 168.52 193.292C168.072 195.14 167.12 197.1 165.664 199.172C164.264 201.244 162.192 203.568 159.448 206.144L140.632 223.868L138.028 218.912H171.208V230H126.772ZM202.023 231.008C197.207 231.008 192.895 229.832 189.087 227.48C185.279 225.072 182.283 221.6 180.099 217.064C177.915 212.528 176.823 207.04 176.823 200.6C176.823 194.16 177.915 188.672 180.099 184.136C182.283 179.6 185.279 176.156 189.087 173.804C192.895 171.396 197.207 170.192 202.023 170.192C206.895 170.192 211.207 171.396 214.959 173.804C218.767 176.156 221.763 179.6 223.947 184.136C226.131 188.672 227.223 194.16 227.223 200.6C227.223 207.04 226.131 212.528 223.947 217.064C221.763 221.6 218.767 225.072 214.959 227.48C211.207 229.832 206.895 231.008 202.023 231.008ZM202.023 219.5C204.319 219.5 206.307 218.856 207.987 217.568C209.723 216.28 211.067 214.236 212.019 211.436C213.027 208.636 213.531 205.024 213.531 200.6C213.531 196.176 213.027 192.564 212.019 189.764C211.067 186.964 209.723 184.92 207.987 183.632C206.307 182.344 204.319 181.7 202.023 181.7C199.783 181.7 197.795 182.344 196.059 183.632C194.379 184.92 193.035 186.964 192.027 189.764C191.075 192.564 190.599 196.176 190.599 200.6C190.599 205.024 191.075 208.636 192.027 211.436C193.035 214.236 194.379 216.28 196.059 217.568C197.795 218.856 199.783 219.5 202.023 219.5ZM259.035 231.008C254.219 231.008 249.907 229.832 246.099 227.48C242.291 225.072 239.295 221.6 237.111 217.064C234.927 212.528 233.835 207.04 233.835 200.6C233.835 194.16 234.927 188.672 237.111 184.136C239.295 179.6 242.291 176.156 246.099 173.804C249.907 171.396 254.219 170.192 259.035 170.192C263.907 170.192 268.219 171.396 271.971 173.804C275.779 176.156 278.775 179.6 280.959 184.136C283.143 188.672 284.235 194.16 284.235 200.6C284.235 207.04 283.143 212.528 280.959 217.064C278.775 221.6 275.779 225.072 271.971 227.48C268.219 229.832 263.907 231.008 259.035 231.008ZM259.035 219.5C261.331 219.5 263.319 218.856 264.999 217.568C266.735 216.28 268.079 214.236 269.031 211.436C270.039 208.636 270.543 205.024 270.543 200.6C270.543 196.176 270.039 192.564 269.031 189.764C268.079 186.964 266.735 184.92 264.999 183.632C263.319 182.344 261.331 181.7 259.035 181.7C256.795 181.7 254.807 182.344 253.071 183.632C251.391 184.92 250.047 186.964 249.039 189.764C248.087 192.564 247.611 196.176 247.611 200.6C247.611 205.024 248.087 208.636 249.039 211.436C250.047 214.236 251.391 216.28 253.071 217.568C254.807 218.856 256.795 219.5 259.035 219.5Z" fill="white"/>
<path d="M309.19 219.052V176.548H321.058V219.052H309.19ZM293.274 203.412V192.188H337.066V203.412H293.274Z" fill="white" fill-opacity="0.65"/>
</svg>
