<svg width="351" height="316" viewBox="0 0 351 316" fill="none" xmlns="http://www.w3.org/2000/svg">
<rect x="1" y="1" width="349" height="286" rx="24" fill="white" fill-opacity="0.05"/>
<rect x="49" y="235" width="253" height="81" rx="28" fill="#4F4F4F"/>
<path d="M70.7798 287V263.727H74.9957V283.466H85.2457V287H70.7798ZM88.723 287V269.545H92.8366V287H88.723ZM90.7912 267.068C90.1397 267.068 89.5791 266.852 89.1094 266.42C88.6397 265.981 88.4048 265.455 88.4048 264.841C88.4048 264.22 88.6397 263.693 89.1094 263.261C89.5791 262.822 90.1397 262.602 90.7912 262.602C91.4503 262.602 92.0109 262.822 92.473 263.261C92.9427 263.693 93.1776 264.22 93.1776 264.841C93.1776 265.455 92.9427 265.981 92.473 266.42C92.0109 266.852 91.4503 267.068 90.7912 267.068ZM112.658 269.545L106.442 287H101.896L95.6804 269.545H100.067L104.078 282.511H104.26L108.283 269.545H112.658ZM122.638 287.341C120.888 287.341 119.376 286.977 118.104 286.25C116.839 285.515 115.865 284.477 115.183 283.136C114.501 281.788 114.161 280.201 114.161 278.375C114.161 276.58 114.501 275.004 115.183 273.648C115.873 272.284 116.835 271.223 118.07 270.466C119.304 269.701 120.755 269.318 122.422 269.318C123.498 269.318 124.513 269.492 125.467 269.841C126.429 270.182 127.278 270.712 128.013 271.432C128.755 272.152 129.339 273.068 129.763 274.182C130.187 275.288 130.399 276.606 130.399 278.136V279.398H116.092V276.625H126.456C126.448 275.837 126.278 275.136 125.945 274.523C125.611 273.902 125.145 273.413 124.547 273.057C123.956 272.701 123.267 272.523 122.479 272.523C121.638 272.523 120.899 272.727 120.263 273.136C119.626 273.538 119.13 274.068 118.774 274.727C118.426 275.379 118.248 276.095 118.24 276.875V279.295C118.24 280.311 118.426 281.182 118.797 281.909C119.168 282.629 119.687 283.182 120.354 283.568C121.02 283.947 121.801 284.136 122.695 284.136C123.293 284.136 123.835 284.053 124.32 283.886C124.804 283.712 125.225 283.458 125.581 283.125C125.937 282.792 126.206 282.379 126.388 281.886L130.229 282.318C129.986 283.333 129.524 284.22 128.842 284.977C128.168 285.727 127.304 286.311 126.251 286.727C125.198 287.136 123.994 287.341 122.638 287.341ZM147.675 274.159L143.925 274.568C143.819 274.189 143.633 273.833 143.368 273.5C143.11 273.167 142.762 272.898 142.322 272.693C141.883 272.489 141.345 272.386 140.709 272.386C139.853 272.386 139.133 272.572 138.55 272.943C137.974 273.314 137.69 273.795 137.697 274.386C137.69 274.894 137.875 275.307 138.254 275.625C138.641 275.943 139.277 276.205 140.163 276.409L143.141 277.045C144.792 277.402 146.019 277.966 146.822 278.739C147.633 279.511 148.042 280.523 148.05 281.773C148.042 282.871 147.72 283.841 147.084 284.682C146.455 285.515 145.58 286.167 144.459 286.636C143.338 287.106 142.05 287.341 140.595 287.341C138.459 287.341 136.739 286.894 135.436 286C134.133 285.098 133.357 283.845 133.107 282.239L137.118 281.852C137.3 282.64 137.686 283.235 138.277 283.636C138.868 284.038 139.637 284.239 140.584 284.239C141.561 284.239 142.345 284.038 142.936 283.636C143.535 283.235 143.834 282.739 143.834 282.148C143.834 281.648 143.641 281.235 143.254 280.909C142.875 280.583 142.285 280.333 141.482 280.159L138.504 279.534C136.83 279.186 135.591 278.598 134.788 277.773C133.985 276.939 133.588 275.886 133.595 274.614C133.588 273.538 133.879 272.606 134.47 271.818C135.069 271.023 135.898 270.409 136.959 269.977C138.027 269.538 139.258 269.318 140.652 269.318C142.697 269.318 144.307 269.754 145.482 270.625C146.663 271.496 147.394 272.674 147.675 274.159ZM166.993 287.341C165.25 287.341 163.754 286.958 162.504 286.193C161.262 285.428 160.304 284.371 159.629 283.023C158.963 281.667 158.629 280.106 158.629 278.341C158.629 276.568 158.97 275.004 159.652 273.648C160.334 272.284 161.296 271.223 162.538 270.466C163.788 269.701 165.266 269.318 166.97 269.318C168.387 269.318 169.641 269.58 170.732 270.102C171.83 270.617 172.705 271.348 173.357 272.295C174.008 273.235 174.379 274.333 174.47 275.591H170.538C170.379 274.75 170 274.049 169.402 273.489C168.811 272.92 168.019 272.636 167.027 272.636C166.186 272.636 165.447 272.864 164.811 273.318C164.175 273.765 163.679 274.409 163.322 275.25C162.974 276.091 162.8 277.098 162.8 278.273C162.8 279.462 162.974 280.485 163.322 281.341C163.671 282.189 164.16 282.845 164.788 283.307C165.425 283.761 166.171 283.989 167.027 283.989C167.633 283.989 168.175 283.875 168.652 283.648C169.137 283.413 169.542 283.076 169.868 282.636C170.194 282.197 170.417 281.663 170.538 281.034H174.47C174.372 282.269 174.008 283.364 173.379 284.318C172.75 285.265 171.894 286.008 170.811 286.545C169.728 287.076 168.455 287.341 166.993 287.341ZM185.462 287.341C183.757 287.341 182.28 286.966 181.03 286.216C179.78 285.466 178.81 284.417 178.121 283.068C177.439 281.72 177.098 280.144 177.098 278.341C177.098 276.538 177.439 274.958 178.121 273.602C178.81 272.246 179.78 271.193 181.03 270.443C182.28 269.693 183.757 269.318 185.462 269.318C187.166 269.318 188.643 269.693 189.893 270.443C191.143 271.193 192.109 272.246 192.791 273.602C193.481 274.958 193.825 276.538 193.825 278.341C193.825 280.144 193.481 281.72 192.791 283.068C192.109 284.417 191.143 285.466 189.893 286.216C188.643 286.966 187.166 287.341 185.462 287.341ZM185.484 284.045C186.409 284.045 187.181 283.792 187.803 283.284C188.424 282.769 188.886 282.08 189.189 281.216C189.5 280.352 189.655 279.39 189.655 278.33C189.655 277.261 189.5 276.295 189.189 275.432C188.886 274.561 188.424 273.867 187.803 273.352C187.181 272.837 186.409 272.58 185.484 272.58C184.537 272.58 183.75 272.837 183.121 273.352C182.5 273.867 182.034 274.561 181.723 275.432C181.42 276.295 181.268 277.261 181.268 278.33C181.268 279.39 181.42 280.352 181.723 281.216C182.034 282.08 182.5 282.769 183.121 283.284C183.75 283.792 184.537 284.045 185.484 284.045ZM212.314 269.545L206.098 287H201.553L195.337 269.545H199.723L203.734 282.511H203.916L207.939 269.545H212.314ZM222.294 287.341C220.544 287.341 219.033 286.977 217.76 286.25C216.495 285.515 215.521 284.477 214.839 283.136C214.158 281.788 213.817 280.201 213.817 278.375C213.817 276.58 214.158 275.004 214.839 273.648C215.529 272.284 216.491 271.223 217.726 270.466C218.961 269.701 220.411 269.318 222.078 269.318C223.154 269.318 224.169 269.492 225.124 269.841C226.086 270.182 226.934 270.712 227.669 271.432C228.411 272.152 228.995 273.068 229.419 274.182C229.843 275.288 230.055 276.606 230.055 278.136V279.398H215.749V276.625H226.112C226.105 275.837 225.934 275.136 225.601 274.523C225.268 273.902 224.802 273.413 224.203 273.057C223.612 272.701 222.923 272.523 222.135 272.523C221.294 272.523 220.555 272.727 219.919 273.136C219.283 273.538 218.786 274.068 218.43 274.727C218.082 275.379 217.904 276.095 217.896 276.875V279.295C217.896 280.311 218.082 281.182 218.453 281.909C218.824 282.629 219.343 283.182 220.01 283.568C220.677 283.947 221.457 284.136 222.351 284.136C222.949 284.136 223.491 284.053 223.976 283.886C224.461 283.712 224.881 283.458 225.237 283.125C225.593 282.792 225.862 282.379 226.044 281.886L229.885 282.318C229.643 283.333 229.18 284.22 228.499 284.977C227.824 285.727 226.961 286.311 225.908 286.727C224.855 287.136 223.65 287.341 222.294 287.341ZM233.536 287V269.545H237.524V272.455H237.706C238.024 271.447 238.57 270.67 239.342 270.125C240.123 269.572 241.013 269.295 242.013 269.295C242.24 269.295 242.494 269.307 242.774 269.33C243.062 269.345 243.301 269.371 243.49 269.409V273.193C243.316 273.133 243.039 273.08 242.661 273.034C242.289 272.981 241.929 272.955 241.581 272.955C240.831 272.955 240.157 273.117 239.558 273.443C238.967 273.761 238.501 274.205 238.161 274.773C237.82 275.341 237.649 275.996 237.649 276.739V287H233.536ZM253.232 287.341C251.482 287.341 249.97 286.977 248.697 286.25C247.432 285.515 246.459 284.477 245.777 283.136C245.095 281.788 244.754 280.201 244.754 278.375C244.754 276.58 245.095 275.004 245.777 273.648C246.466 272.284 247.429 271.223 248.663 270.466C249.898 269.701 251.349 269.318 253.016 269.318C254.091 269.318 255.107 269.492 256.061 269.841C257.023 270.182 257.872 270.712 258.607 271.432C259.349 272.152 259.932 273.068 260.357 274.182C260.781 275.288 260.993 276.606 260.993 278.136V279.398H246.686V276.625H257.05C257.042 275.837 256.872 275.136 256.538 274.523C256.205 273.902 255.739 273.413 255.141 273.057C254.55 272.701 253.86 272.523 253.072 272.523C252.232 272.523 251.493 272.727 250.857 273.136C250.22 273.538 249.724 274.068 249.368 274.727C249.019 275.379 248.841 276.095 248.834 276.875V279.295C248.834 280.311 249.019 281.182 249.391 281.909C249.762 282.629 250.281 283.182 250.947 283.568C251.614 283.947 252.394 284.136 253.288 284.136C253.887 284.136 254.429 284.053 254.913 283.886C255.398 283.712 255.819 283.458 256.175 283.125C256.531 282.792 256.8 282.379 256.982 281.886L260.822 282.318C260.58 283.333 260.118 284.22 259.436 284.977C258.762 285.727 257.898 286.311 256.845 286.727C255.792 287.136 254.588 287.341 253.232 287.341ZM270.95 287.307C269.579 287.307 268.352 286.955 267.268 286.25C266.185 285.545 265.329 284.523 264.7 283.182C264.071 281.841 263.757 280.212 263.757 278.295C263.757 276.356 264.075 274.72 264.712 273.386C265.356 272.045 266.223 271.034 267.314 270.352C268.405 269.663 269.621 269.318 270.962 269.318C271.984 269.318 272.825 269.492 273.484 269.841C274.143 270.182 274.666 270.595 275.053 271.08C275.439 271.557 275.738 272.008 275.95 272.432H276.121V263.727H280.246V287H276.2V284.25H275.95C275.738 284.674 275.431 285.125 275.03 285.602C274.628 286.072 274.098 286.473 273.439 286.807C272.78 287.14 271.95 287.307 270.95 287.307ZM272.098 283.932C272.969 283.932 273.712 283.697 274.325 283.227C274.939 282.75 275.405 282.087 275.723 281.239C276.041 280.39 276.2 279.402 276.2 278.273C276.2 277.144 276.041 276.163 275.723 275.33C275.412 274.496 274.95 273.848 274.337 273.386C273.731 272.924 272.984 272.693 272.098 272.693C271.181 272.693 270.416 272.932 269.803 273.409C269.189 273.886 268.727 274.545 268.416 275.386C268.106 276.227 267.95 277.189 267.95 278.273C267.95 279.364 268.106 280.337 268.416 281.193C268.734 282.042 269.2 282.712 269.814 283.205C270.435 283.689 271.196 283.932 272.098 283.932Z" fill="white"/>
<path d="M149.221 140V76.4L134.701 82.52L128.941 69.2L153.061 57.92H164.941V140H149.221ZM200.08 140V76.4L185.56 82.52L179.8 69.2L203.92 57.92H215.8V140H200.08Z" fill="#5BEBFF"/>
<path d="M96.4967 183.54H103.139V186.996H103.571C104.399 185.7 105.515 184.656 106.919 183.864C108.359 183.072 109.943 182.676 111.671 182.676C113.687 182.676 115.379 183.144 116.747 184.08C118.115 185.016 119.087 186.168 119.663 187.536C120.491 186.204 121.661 185.07 123.173 184.134C124.685 183.162 126.521 182.676 128.681 182.676C130.301 182.676 131.705 182.946 132.893 183.486C134.081 183.99 135.053 184.71 135.809 185.646C136.601 186.582 137.195 187.716 137.591 189.048C137.987 190.344 138.185 191.766 138.185 193.314V210H131.111V194.61C131.111 191.01 129.635 189.21 126.683 189.21C125.747 189.21 124.919 189.426 124.199 189.858C123.479 190.254 122.867 190.812 122.363 191.532C121.895 192.216 121.517 193.044 121.229 194.016C120.977 194.988 120.851 196.032 120.851 197.148V210H113.777V194.61C113.777 191.01 112.229 189.21 109.133 189.21C108.233 189.21 107.441 189.426 106.757 189.858C106.073 190.254 105.497 190.812 105.029 191.532C104.561 192.216 104.201 193.044 103.949 194.016C103.697 194.988 103.571 196.032 103.571 197.148V210H96.4967V183.54ZM147.952 179.706C147.34 179.706 146.746 179.598 146.17 179.382C145.63 179.13 145.144 178.806 144.712 178.41C144.316 177.978 143.992 177.492 143.74 176.952C143.524 176.412 143.416 175.818 143.416 175.17C143.416 174.522 143.524 173.928 143.74 173.388C143.992 172.848 144.316 172.38 144.712 171.984C145.144 171.552 145.63 171.228 146.17 171.012C146.746 170.76 147.34 170.634 147.952 170.634C149.212 170.634 150.292 171.084 151.192 171.984C152.092 172.848 152.542 173.91 152.542 175.17C152.542 176.43 152.092 177.51 151.192 178.41C150.292 179.274 149.212 179.706 147.952 179.706ZM144.442 210V183.54H151.516V210H144.442ZM157.985 210V171.336H165.059V210H157.985ZM171.116 210V171.336H178.19V210H171.116ZM188.189 179.706C187.577 179.706 186.983 179.598 186.407 179.382C185.867 179.13 185.381 178.806 184.949 178.41C184.553 177.978 184.229 177.492 183.977 176.952C183.761 176.412 183.653 175.818 183.653 175.17C183.653 174.522 183.761 173.928 183.977 173.388C184.229 172.848 184.553 172.38 184.949 171.984C185.381 171.552 185.867 171.228 186.407 171.012C186.983 170.76 187.577 170.634 188.189 170.634C189.449 170.634 190.529 171.084 191.429 171.984C192.329 172.848 192.779 173.91 192.779 175.17C192.779 176.43 192.329 177.51 191.429 178.41C190.529 179.274 189.449 179.706 188.189 179.706ZM184.679 210V183.54H191.753V210H184.679ZM210.486 182.676C212.538 182.676 214.41 183.036 216.102 183.756C217.83 184.44 219.306 185.412 220.53 186.672C221.79 187.896 222.762 189.372 223.446 191.1C224.166 192.828 224.526 194.718 224.526 196.77C224.526 198.822 224.166 200.712 223.446 202.44C222.762 204.168 221.79 205.662 220.53 206.922C219.306 208.146 217.83 209.118 216.102 209.838C214.41 210.522 212.538 210.864 210.486 210.864C208.434 210.864 206.544 210.522 204.816 209.838C203.124 209.118 201.648 208.146 200.388 206.922C199.164 205.662 198.192 204.168 197.472 202.44C196.788 200.712 196.446 198.822 196.446 196.77C196.446 194.718 196.788 192.828 197.472 191.1C198.192 189.372 199.164 187.896 200.388 186.672C201.648 185.412 203.124 184.44 204.816 183.756C206.544 183.036 208.434 182.676 210.486 182.676ZM210.486 204.33C211.386 204.33 212.25 204.168 213.078 203.844C213.942 203.484 214.698 202.98 215.346 202.332C215.994 201.684 216.498 200.892 216.858 199.956C217.254 199.02 217.452 197.958 217.452 196.77C217.452 195.582 217.254 194.52 216.858 193.584C216.498 192.648 215.994 191.856 215.346 191.208C214.698 190.56 213.942 190.074 213.078 189.75C212.25 189.39 211.386 189.21 210.486 189.21C209.55 189.21 208.668 189.39 207.84 189.75C207.012 190.074 206.274 190.56 205.626 191.208C204.978 191.856 204.456 192.648 204.06 193.584C203.7 194.52 203.52 195.582 203.52 196.77C203.52 197.958 203.7 199.02 204.06 199.956C204.456 200.892 204.978 201.684 205.626 202.332C206.274 202.98 207.012 203.484 207.84 203.844C208.668 204.168 209.55 204.33 210.486 204.33ZM235.186 186.996H235.618C236.446 185.664 237.562 184.62 238.966 183.864C240.37 183.072 241.972 182.676 243.772 182.676C245.428 182.676 246.886 182.946 248.146 183.486C249.406 184.026 250.432 184.8 251.224 185.808C252.052 186.78 252.664 187.968 253.06 189.372C253.492 190.74 253.708 192.27 253.708 193.962V210H246.634V194.826C246.634 192.918 246.202 191.514 245.338 190.614C244.51 189.678 243.286 189.21 241.666 189.21C240.694 189.21 239.83 189.426 239.074 189.858C238.354 190.254 237.724 190.812 237.184 191.532C236.68 192.216 236.284 193.044 235.996 194.016C235.744 194.952 235.618 195.96 235.618 197.04V210H228.544V183.54H235.186V186.996Z" fill="white" fill-opacity="0.7"/>
<path d="M1 201V262C1 275.807 12.1929 287 26 287H49" stroke="white" stroke-width="2"/>
<path d="M350 87V26C350 12.1929 338.807 0.999999 325 0.999999H302" stroke="white" stroke-width="2"/>
</svg>
