<svg width="468" height="468" viewBox="0 0 468 468" fill="none" xmlns="http://www.w3.org/2000/svg">
<circle cx="234" cy="234" r="218" fill="#101D28" stroke="#BBDDFA" stroke-width="32"/>
<path d="M436 234C436 207.473 430.775 181.206 420.624 156.698C410.472 132.19 395.593 109.922 376.836 91.1644C358.078 72.407 335.81 57.5278 311.302 47.3763C286.794 37.2249 260.527 32 234 32C207.473 32 181.206 37.2249 156.698 47.3763C132.19 57.5278 109.922 72.407 91.1644 91.1644C72.407 109.922 57.5278 132.19 47.3763 156.698C37.2249 181.206 32 207.473 32 234L234 234H436Z" fill="#428BCC"/>
<path d="M107.554 261.4H113.354V302H107.554V261.4ZM84.2377 302H78.4377V261.4H84.2377V302ZM108.076 283.904H83.6577V278.858H108.076V283.904ZM138.382 302.348C135.095 302.348 132.195 301.671 129.682 300.318C127.207 298.965 125.274 297.109 123.882 294.75C122.529 292.391 121.852 289.685 121.852 286.63C121.852 283.575 122.509 280.869 123.824 278.51C125.177 276.151 127.014 274.315 129.334 273C131.693 271.647 134.341 270.97 137.28 270.97C140.257 270.97 142.887 271.627 145.168 272.942C147.449 274.257 149.228 276.113 150.504 278.51C151.819 280.869 152.476 283.633 152.476 286.804C152.476 287.036 152.457 287.307 152.418 287.616C152.418 287.925 152.399 288.215 152.36 288.486H126.202V284.484H149.46L147.198 285.876C147.237 283.904 146.831 282.145 145.98 280.598C145.129 279.051 143.95 277.853 142.442 277.002C140.973 276.113 139.252 275.668 137.28 275.668C135.347 275.668 133.626 276.113 132.118 277.002C130.61 277.853 129.431 279.071 128.58 280.656C127.729 282.203 127.304 283.981 127.304 285.992V286.92C127.304 288.969 127.768 290.806 128.696 292.43C129.663 294.015 130.997 295.253 132.698 296.142C134.399 297.031 136.352 297.476 138.556 297.476C140.373 297.476 142.017 297.167 143.486 296.548C144.994 295.929 146.309 295.001 147.43 293.764L150.504 297.36C149.112 298.984 147.372 300.221 145.284 301.072C143.235 301.923 140.934 302.348 138.382 302.348ZM178.44 302V295.504L178.15 294.286V283.208C178.15 280.849 177.454 279.032 176.062 277.756C174.709 276.441 172.659 275.784 169.914 275.784C168.097 275.784 166.318 276.093 164.578 276.712C162.838 277.292 161.369 278.085 160.17 279.09L157.85 274.914C159.435 273.638 161.33 272.671 163.534 272.014C165.777 271.318 168.116 270.97 170.552 270.97C174.767 270.97 178.015 271.995 180.296 274.044C182.577 276.093 183.718 279.225 183.718 283.44V302H178.44ZM168.348 302.348C166.067 302.348 164.056 301.961 162.316 301.188C160.615 300.415 159.3 299.351 158.372 297.998C157.444 296.606 156.98 295.04 156.98 293.3C156.98 291.637 157.367 290.129 158.14 288.776C158.952 287.423 160.247 286.34 162.026 285.528C163.843 284.716 166.279 284.31 169.334 284.31H179.078V288.312H169.566C166.782 288.312 164.907 288.776 163.94 289.704C162.973 290.632 162.49 291.753 162.49 293.068C162.49 294.576 163.089 295.794 164.288 296.722C165.487 297.611 167.149 298.056 169.276 298.056C171.364 298.056 173.181 297.592 174.728 296.664C176.313 295.736 177.454 294.383 178.15 292.604L179.252 296.432C178.517 298.249 177.222 299.699 175.366 300.782C173.51 301.826 171.171 302.348 168.348 302.348ZM194.022 302V258.964H199.59V302H194.022ZM221.57 302.348C218.477 302.348 216.08 301.517 214.378 299.854C212.677 298.191 211.826 295.813 211.826 292.72V264.532H217.394V292.488C217.394 294.151 217.8 295.427 218.612 296.316C219.463 297.205 220.662 297.65 222.208 297.65C223.948 297.65 225.398 297.167 226.558 296.2L228.298 300.202C227.448 300.937 226.423 301.478 225.224 301.826C224.064 302.174 222.846 302.348 221.57 302.348ZM206.606 275.842V271.26H226.21V275.842H206.606ZM251.444 270.97C253.957 270.97 256.161 271.453 258.056 272.42C259.989 273.387 261.497 274.856 262.58 276.828C263.663 278.8 264.204 281.294 264.204 284.31V302H258.636V284.948C258.636 281.971 257.901 279.728 256.432 278.22C255.001 276.712 252.971 275.958 250.342 275.958C248.37 275.958 246.649 276.345 245.18 277.118C243.711 277.891 242.57 279.032 241.758 280.54C240.985 282.048 240.598 283.923 240.598 286.166V302H235.03V258.964H240.598V279.554L239.496 277.35C240.501 275.339 242.048 273.773 244.136 272.652C246.224 271.531 248.66 270.97 251.444 270.97ZM287.906 302.348C284.774 302.348 281.971 301.671 279.496 300.318C277.06 298.965 275.146 297.109 273.754 294.75C272.362 292.391 271.666 289.685 271.666 286.63C271.666 283.575 272.362 280.869 273.754 278.51C275.146 276.151 277.06 274.315 279.496 273C281.971 271.647 284.774 270.97 287.906 270.97C290.69 270.97 293.165 271.531 295.33 272.652C297.534 273.735 299.236 275.359 300.434 277.524L296.2 280.25C295.195 278.742 293.958 277.64 292.488 276.944C291.058 276.209 289.511 275.842 287.848 275.842C285.838 275.842 284.04 276.287 282.454 277.176C280.869 278.065 279.612 279.322 278.684 280.946C277.756 282.531 277.292 284.426 277.292 286.63C277.292 288.834 277.756 290.748 278.684 292.372C279.612 293.996 280.869 295.253 282.454 296.142C284.04 297.031 285.838 297.476 287.848 297.476C289.511 297.476 291.058 297.128 292.488 296.432C293.958 295.697 295.195 294.576 296.2 293.068L300.434 295.736C299.236 297.863 297.534 299.506 295.33 300.666C293.165 301.787 290.69 302.348 287.906 302.348ZM326.725 302V295.504L326.435 294.286V283.208C326.435 280.849 325.739 279.032 324.347 277.756C322.994 276.441 320.945 275.784 318.199 275.784C316.382 275.784 314.603 276.093 312.863 276.712C311.123 277.292 309.654 278.085 308.455 279.09L306.135 274.914C307.721 273.638 309.615 272.671 311.819 272.014C314.062 271.318 316.401 270.97 318.837 270.97C323.052 270.97 326.3 271.995 328.581 274.044C330.863 276.093 332.003 279.225 332.003 283.44V302H326.725ZM316.633 302.348C314.352 302.348 312.341 301.961 310.601 301.188C308.9 300.415 307.585 299.351 306.657 297.998C305.729 296.606 305.265 295.04 305.265 293.3C305.265 291.637 305.652 290.129 306.425 288.776C307.237 287.423 308.533 286.34 310.311 285.528C312.129 284.716 314.565 284.31 317.619 284.31H327.363V288.312H317.851C315.067 288.312 313.192 288.776 312.225 289.704C311.259 290.632 310.775 291.753 310.775 293.068C310.775 294.576 311.375 295.794 312.573 296.722C313.772 297.611 315.435 298.056 317.561 298.056C319.649 298.056 321.467 297.592 323.013 296.664C324.599 295.736 325.739 294.383 326.435 292.604L327.537 296.432C326.803 298.249 325.507 299.699 323.651 300.782C321.795 301.826 319.456 302.348 316.633 302.348ZM342.307 302V271.26H347.643V279.612L347.121 277.524C347.972 275.397 349.403 273.773 351.413 272.652C353.424 271.531 355.899 270.97 358.837 270.97V276.364C358.605 276.325 358.373 276.306 358.141 276.306C357.948 276.306 357.755 276.306 357.561 276.306C354.584 276.306 352.225 277.195 350.485 278.974C348.745 280.753 347.875 283.324 347.875 286.688V302H342.307ZM379.105 302.348C375.818 302.348 372.918 301.671 370.405 300.318C367.93 298.965 365.997 297.109 364.605 294.75C363.251 292.391 362.575 289.685 362.575 286.63C362.575 283.575 363.232 280.869 364.547 278.51C365.9 276.151 367.737 274.315 370.057 273C372.415 271.647 375.064 270.97 378.003 270.97C380.98 270.97 383.609 271.627 385.891 272.942C388.172 274.257 389.951 276.113 391.227 278.51C392.541 280.869 393.199 283.633 393.199 286.804C393.199 287.036 393.179 287.307 393.141 287.616C393.141 287.925 393.121 288.215 393.083 288.486H366.925V284.484H390.183L387.921 285.876C387.959 283.904 387.553 282.145 386.703 280.598C385.852 279.051 384.673 277.853 383.165 277.002C381.695 276.113 379.975 275.668 378.003 275.668C376.069 275.668 374.349 276.113 372.841 277.002C371.333 277.853 370.153 279.071 369.303 280.656C368.452 282.203 368.027 283.981 368.027 285.992V286.92C368.027 288.969 368.491 290.806 369.419 292.43C370.385 294.015 371.719 295.253 373.421 296.142C375.122 297.031 377.075 297.476 379.279 297.476C381.096 297.476 382.739 297.167 384.209 296.548C385.717 295.929 387.031 295.001 388.153 293.764L391.227 297.36C389.835 298.984 388.095 300.221 386.007 301.072C383.957 301.923 381.657 302.348 379.105 302.348ZM211.376 341.256C209.669 341.256 208.091 340.979 206.64 340.424C205.211 339.848 203.963 339.048 202.896 338.024C201.851 336.979 201.029 335.763 200.432 334.376C199.835 332.989 199.536 331.464 199.536 329.8C199.536 328.136 199.835 326.611 200.432 325.224C201.029 323.837 201.861 322.632 202.928 321.608C203.995 320.563 205.243 319.763 206.672 319.208C208.123 318.632 209.701 318.344 211.408 318.344C213.136 318.344 214.725 318.643 216.176 319.24C217.648 319.816 218.896 320.68 219.92 321.832L217.84 323.848C216.987 322.952 216.027 322.291 214.96 321.864C213.893 321.416 212.752 321.192 211.536 321.192C210.277 321.192 209.104 321.405 208.016 321.832C206.949 322.259 206.021 322.856 205.232 323.624C204.443 324.392 203.824 325.309 203.376 326.376C202.949 327.421 202.736 328.563 202.736 329.8C202.736 331.037 202.949 332.189 203.376 333.256C203.824 334.301 204.443 335.208 205.232 335.976C206.021 336.744 206.949 337.341 208.016 337.768C209.104 338.195 210.277 338.408 211.536 338.408C212.752 338.408 213.893 338.195 214.96 337.768C216.027 337.32 216.987 336.637 217.84 335.72L219.92 337.736C218.896 338.888 217.648 339.763 216.176 340.36C214.725 340.957 213.125 341.256 211.376 341.256ZM230.582 341.192C228.876 341.192 227.361 340.819 226.038 340.072C224.716 339.325 223.67 338.301 222.902 337C222.134 335.677 221.75 334.184 221.75 332.52C221.75 330.835 222.134 329.341 222.902 328.04C223.67 326.739 224.716 325.725 226.038 325C227.361 324.253 228.876 323.88 230.582 323.88C232.268 323.88 233.772 324.253 235.094 325C236.438 325.725 237.484 326.739 238.23 328.04C238.998 329.32 239.382 330.813 239.382 332.52C239.382 334.205 238.998 335.699 238.23 337C237.484 338.301 236.438 339.325 235.094 340.072C233.772 340.819 232.268 341.192 230.582 341.192ZM230.582 338.504C231.67 338.504 232.641 338.259 233.494 337.768C234.369 337.277 235.052 336.584 235.542 335.688C236.033 334.771 236.278 333.715 236.278 332.52C236.278 331.304 236.033 330.259 235.542 329.384C235.052 328.488 234.369 327.795 233.494 327.304C232.641 326.813 231.67 326.568 230.582 326.568C229.494 326.568 228.524 326.813 227.67 327.304C226.817 327.795 226.134 328.488 225.622 329.384C225.11 330.259 224.854 331.304 224.854 332.52C224.854 333.715 225.11 334.771 225.622 335.688C226.134 336.584 226.817 337.277 227.67 337.768C228.524 338.259 229.494 338.504 230.582 338.504ZM248.495 341.192C247.087 341.192 245.743 341 244.463 340.616C243.204 340.232 242.212 339.763 241.487 339.208L242.767 336.776C243.492 337.267 244.388 337.683 245.455 338.024C246.521 338.365 247.609 338.536 248.719 338.536C250.148 338.536 251.172 338.333 251.791 337.928C252.431 337.523 252.751 336.957 252.751 336.232C252.751 335.699 252.559 335.283 252.175 334.984C251.791 334.685 251.279 334.461 250.639 334.312C250.02 334.163 249.327 334.035 248.559 333.928C247.791 333.8 247.023 333.651 246.255 333.48C245.487 333.288 244.783 333.032 244.143 332.712C243.503 332.371 242.991 331.912 242.607 331.336C242.223 330.739 242.031 329.949 242.031 328.968C242.031 327.944 242.319 327.048 242.895 326.28C243.471 325.512 244.281 324.925 245.327 324.52C246.393 324.093 247.652 323.88 249.103 323.88C250.212 323.88 251.332 324.019 252.463 324.296C253.615 324.552 254.553 324.925 255.279 325.416L253.967 327.848C253.199 327.336 252.399 326.984 251.567 326.792C250.735 326.6 249.903 326.504 249.071 326.504C247.727 326.504 246.724 326.728 246.063 327.176C245.401 327.603 245.071 328.157 245.071 328.84C245.071 329.416 245.263 329.864 245.647 330.184C246.052 330.483 246.564 330.717 247.183 330.888C247.823 331.059 248.527 331.208 249.295 331.336C250.063 331.443 250.831 331.592 251.599 331.784C252.367 331.955 253.06 332.2 253.679 332.52C254.319 332.84 254.831 333.288 255.215 333.864C255.62 334.44 255.823 335.208 255.823 336.168C255.823 337.192 255.524 338.077 254.927 338.824C254.329 339.571 253.487 340.157 252.399 340.584C251.311 340.989 250.009 341.192 248.495 341.192ZM265.486 341.192C263.779 341.192 262.457 340.733 261.518 339.816C260.579 338.899 260.11 337.587 260.11 335.88V320.328H263.182V335.752C263.182 336.669 263.406 337.373 263.854 337.864C264.323 338.355 264.985 338.6 265.838 338.6C266.798 338.6 267.598 338.333 268.238 337.8L269.198 340.008C268.729 340.413 268.163 340.712 267.502 340.904C266.862 341.096 266.19 341.192 265.486 341.192ZM257.23 326.568V324.04H268.046V326.568H257.23Z" fill="white"/>
<path d="M389 234C389 213.645 384.991 193.49 377.201 174.684C369.412 155.879 357.995 138.792 343.602 124.398C329.208 110.005 312.121 98.5881 293.316 90.7987C274.51 83.0092 254.355 79 234 79C213.645 79 193.49 83.0092 174.684 90.7987C155.879 98.5882 138.792 110.005 124.398 124.398C110.005 138.792 98.5881 155.879 90.7987 174.684C83.0092 193.49 79 213.645 79 234L234 234H389Z" fill="white" fill-opacity="0.2"/>
<path d="M188.503 166.684C185.729 166.684 182.974 166.323 180.238 165.601C177.54 164.841 175.222 163.777 173.284 162.409L176.932 155.341C178.452 156.443 180.2 157.317 182.176 157.963C184.19 158.609 186.223 158.932 188.275 158.932C190.593 158.932 192.417 158.476 193.747 157.564C195.077 156.652 195.742 155.379 195.742 153.745C195.742 152.719 195.476 151.807 194.944 151.009C194.412 150.211 193.462 149.603 192.094 149.185C190.764 148.767 188.883 148.558 186.451 148.558H176.248L178.3 126.1H202.639V133.51H181.606L186.394 129.292L184.969 145.309L180.181 141.091H188.617C192.569 141.091 195.742 141.642 198.136 142.744C200.568 143.808 202.335 145.271 203.437 147.133C204.539 148.995 205.09 151.104 205.09 153.46C205.09 155.816 204.501 158.001 203.323 160.015C202.145 161.991 200.321 163.606 197.851 164.86C195.419 166.076 192.303 166.684 188.503 166.684ZM225.936 166.684C222.668 166.684 219.742 165.886 217.158 164.29C214.574 162.656 212.541 160.3 211.059 157.222C209.577 154.144 208.836 150.42 208.836 146.05C208.836 141.68 209.577 137.956 211.059 134.878C212.541 131.8 214.574 129.463 217.158 127.867C219.742 126.233 222.668 125.416 225.936 125.416C229.242 125.416 232.168 126.233 234.714 127.867C237.298 129.463 239.331 131.8 240.813 134.878C242.295 137.956 243.036 141.68 243.036 146.05C243.036 150.42 242.295 154.144 240.813 157.222C239.331 160.3 237.298 162.656 234.714 164.29C232.168 165.886 229.242 166.684 225.936 166.684ZM225.936 158.875C227.494 158.875 228.843 158.438 229.983 157.564C231.161 156.69 232.073 155.303 232.719 153.403C233.403 151.503 233.745 149.052 233.745 146.05C233.745 143.048 233.403 140.597 232.719 138.697C232.073 136.797 231.161 135.41 229.983 134.536C228.843 133.662 227.494 133.225 225.936 133.225C224.416 133.225 223.067 133.662 221.889 134.536C220.749 135.41 219.837 136.797 219.153 138.697C218.507 140.597 218.184 143.048 218.184 146.05C218.184 149.052 218.507 151.503 219.153 153.403C219.837 155.303 220.749 156.69 221.889 157.564C223.067 158.438 224.416 158.875 225.936 158.875ZM253.28 166L280.526 126.1H287.309L260.063 166H253.28ZM256.757 147.646C254.819 147.646 253.109 147.209 251.627 146.335C250.145 145.423 248.967 144.15 248.093 142.516C247.257 140.844 246.839 138.887 246.839 136.645C246.839 134.403 247.257 132.465 248.093 130.831C248.967 129.197 250.145 127.924 251.627 127.012C253.109 126.1 254.819 125.644 256.757 125.644C258.695 125.644 260.405 126.1 261.887 127.012C263.369 127.924 264.528 129.197 265.364 130.831C266.2 132.465 266.618 134.403 266.618 136.645C266.618 138.887 266.2 140.844 265.364 142.516C264.528 144.15 263.369 145.423 261.887 146.335C260.405 147.209 258.695 147.646 256.757 147.646ZM256.757 142.972C258.011 142.972 259.018 142.459 259.778 141.433C260.538 140.369 260.918 138.773 260.918 136.645C260.918 134.517 260.538 132.94 259.778 131.914C259.018 130.85 258.011 130.318 256.757 130.318C255.541 130.318 254.534 130.85 253.736 131.914C252.976 132.94 252.596 134.517 252.596 136.645C252.596 138.735 252.976 140.312 253.736 141.376C254.534 142.44 255.541 142.972 256.757 142.972ZM283.832 166.456C281.932 166.456 280.222 166.019 278.702 165.145C277.22 164.233 276.061 162.96 275.225 161.326C274.389 159.654 273.971 157.697 273.971 155.455C273.971 153.213 274.389 151.275 275.225 149.641C276.061 148.007 277.22 146.734 278.702 145.822C280.222 144.91 281.932 144.454 283.832 144.454C285.808 144.454 287.537 144.91 289.019 145.822C290.501 146.734 291.66 148.007 292.496 149.641C293.332 151.275 293.75 153.213 293.75 155.455C293.75 157.697 293.332 159.654 292.496 161.326C291.66 162.96 290.501 164.233 289.019 165.145C287.537 166.019 285.808 166.456 283.832 166.456ZM283.832 161.782C285.086 161.782 286.093 161.269 286.853 160.243C287.613 159.179 287.993 157.583 287.993 155.455C287.993 153.365 287.613 151.788 286.853 150.724C286.093 149.66 285.086 149.128 283.832 149.128C282.616 149.128 281.609 149.66 280.811 150.724C280.051 151.75 279.671 153.327 279.671 155.455C279.671 157.583 280.051 159.179 280.811 160.243C281.609 161.269 282.616 161.782 283.832 161.782ZM117.257 219V176.706H126.149V219H117.257ZM148.994 219.456C145.726 219.456 142.819 218.772 140.273 217.404C137.765 216.036 135.77 214.174 134.288 211.818C132.844 209.424 132.122 206.707 132.122 203.667C132.122 200.589 132.844 197.872 134.288 195.516C135.77 193.122 137.765 191.26 140.273 189.93C142.819 188.562 145.726 187.878 148.994 187.878C152.224 187.878 155.112 188.562 157.658 189.93C160.204 191.26 162.199 193.103 163.643 195.459C165.087 197.815 165.809 200.551 165.809 203.667C165.809 206.707 165.087 209.424 163.643 211.818C162.199 214.174 160.204 216.036 157.658 217.404C155.112 218.772 152.224 219.456 148.994 219.456ZM148.994 212.16C150.476 212.16 151.806 211.818 152.984 211.134C154.162 210.45 155.093 209.481 155.777 208.227C156.461 206.935 156.803 205.415 156.803 203.667C156.803 201.881 156.461 200.361 155.777 199.107C155.093 197.853 154.162 196.884 152.984 196.2C151.806 195.516 150.476 195.174 148.994 195.174C147.512 195.174 146.182 195.516 145.004 196.2C143.826 196.884 142.876 197.853 142.154 199.107C141.47 200.361 141.128 201.881 141.128 203.667C141.128 205.415 141.47 206.935 142.154 208.227C142.876 209.481 143.826 210.45 145.004 211.134C146.182 211.818 147.512 212.16 148.994 212.16ZM177.928 219L166.87 188.334H175.249L184.426 214.725H180.436L190.012 188.334H197.536L206.827 214.725H202.837L212.299 188.334H220.165L209.05 219H200.443L192.292 196.371H194.914L186.478 219H177.928ZM238.683 219.456C235.187 219.456 232.109 218.772 229.449 217.404C226.827 216.036 224.794 214.174 223.35 211.818C221.906 209.424 221.184 206.707 221.184 203.667C221.184 200.589 221.887 197.872 223.293 195.516C224.737 193.122 226.694 191.26 229.164 189.93C231.634 188.562 234.427 187.878 237.543 187.878C240.545 187.878 243.243 188.524 245.637 189.816C248.069 191.07 249.988 192.894 251.394 195.288C252.8 197.644 253.503 200.475 253.503 203.781C253.503 204.123 253.484 204.522 253.446 204.978C253.408 205.396 253.37 205.795 253.332 206.175H228.423V200.988H248.658L245.238 202.527C245.238 200.931 244.915 199.544 244.269 198.366C243.623 197.188 242.73 196.276 241.59 195.63C240.45 194.946 239.12 194.604 237.6 194.604C236.08 194.604 234.731 194.946 233.553 195.63C232.413 196.276 231.52 197.207 230.874 198.423C230.228 199.601 229.905 201.007 229.905 202.641V204.009C229.905 205.681 230.266 207.163 230.988 208.455C231.748 209.709 232.793 210.678 234.123 211.362C235.491 212.008 237.087 212.331 238.911 212.331C240.545 212.331 241.97 212.084 243.186 211.59C244.44 211.096 245.58 210.355 246.606 209.367L251.337 214.497C249.931 216.093 248.164 217.328 246.036 218.202C243.908 219.038 241.457 219.456 238.683 219.456ZM259.423 219V188.334H267.916V196.998L266.719 194.49C267.631 192.324 269.094 190.69 271.108 189.588C273.122 188.448 275.573 187.878 278.461 187.878V196.086C278.081 196.048 277.739 196.029 277.435 196.029C277.131 195.991 276.808 195.972 276.466 195.972C274.034 195.972 272.058 196.675 270.538 198.081C269.056 199.449 268.315 201.596 268.315 204.522V219H259.423ZM298.745 219.456C295.249 219.456 292.171 218.772 289.511 217.404C286.889 216.036 284.856 214.174 283.412 211.818C281.968 209.424 281.246 206.707 281.246 203.667C281.246 200.589 281.949 197.872 283.355 195.516C284.799 193.122 286.756 191.26 289.226 189.93C291.696 188.562 294.489 187.878 297.605 187.878C300.607 187.878 303.305 188.524 305.699 189.816C308.131 191.07 310.05 192.894 311.456 195.288C312.862 197.644 313.565 200.475 313.565 203.781C313.565 204.123 313.546 204.522 313.508 204.978C313.47 205.396 313.432 205.795 313.394 206.175H288.485V200.988H308.72L305.3 202.527C305.3 200.931 304.977 199.544 304.331 198.366C303.685 197.188 302.792 196.276 301.652 195.63C300.512 194.946 299.182 194.604 297.662 194.604C296.142 194.604 294.793 194.946 293.615 195.63C292.475 196.276 291.582 197.207 290.936 198.423C290.29 199.601 289.967 201.007 289.967 202.641V204.009C289.967 205.681 290.328 207.163 291.05 208.455C291.81 209.709 292.855 210.678 294.185 211.362C295.553 212.008 297.149 212.331 298.973 212.331C300.607 212.331 302.032 212.084 303.248 211.59C304.502 211.096 305.642 210.355 306.668 209.367L311.399 214.497C309.993 216.093 308.226 217.328 306.098 218.202C303.97 219.038 301.519 219.456 298.745 219.456ZM332.652 219.456C329.764 219.456 327.161 218.81 324.843 217.518C322.525 216.188 320.682 214.345 319.314 211.989C317.984 209.633 317.319 206.859 317.319 203.667C317.319 200.437 317.984 197.644 319.314 195.288C320.682 192.932 322.525 191.108 324.843 189.816C327.161 188.524 329.764 187.878 332.652 187.878C335.236 187.878 337.497 188.448 339.435 189.588C341.373 190.728 342.874 192.457 343.938 194.775C345.002 197.093 345.534 200.057 345.534 203.667C345.534 207.239 345.021 210.203 343.995 212.559C342.969 214.877 341.487 216.606 339.549 217.746C337.649 218.886 335.35 219.456 332.652 219.456ZM334.191 212.16C335.635 212.16 336.946 211.818 338.124 211.134C339.302 210.45 340.233 209.481 340.917 208.227C341.639 206.935 342 205.415 342 203.667C342 201.881 341.639 200.361 340.917 199.107C340.233 197.853 339.302 196.884 338.124 196.2C336.946 195.516 335.635 195.174 334.191 195.174C332.709 195.174 331.379 195.516 330.201 196.2C329.023 196.884 328.073 197.853 327.351 199.107C326.667 200.361 326.325 201.881 326.325 203.667C326.325 205.415 326.667 206.935 327.351 208.227C328.073 209.481 329.023 210.45 330.201 211.134C331.379 211.818 332.709 212.16 334.191 212.16ZM342.228 219V212.73L342.399 203.61L341.829 194.547V176.706H350.721V219H342.228Z" fill="white"/>
</svg>
