<svg width="351" height="316" viewBox="0 0 351 316" fill="none" xmlns="http://www.w3.org/2000/svg">
<rect x="1" y="1" width="349" height="286" rx="24" fill="white" fill-opacity="0.05"/>
<rect x="49" y="235" width="253" height="81" rx="28" fill="#4F4F4F"/>
<path d="M91.6594 288.909V270.909H94.6935V273.074H94.8725C95.0316 272.756 95.256 272.418 95.5458 272.06C95.8356 271.696 96.2276 271.386 96.7219 271.131C97.2163 270.869 97.8469 270.739 98.614 270.739C99.6254 270.739 100.537 270.997 101.35 271.514C102.168 272.026 102.816 272.784 103.293 273.79C103.776 274.79 104.017 276.017 104.017 277.472C104.017 278.909 103.782 280.131 103.31 281.136C102.838 282.142 102.196 282.909 101.384 283.438C100.571 283.966 99.6509 284.23 98.6225 284.23C97.8725 284.23 97.2504 284.105 96.756 283.855C96.2617 283.605 95.864 283.304 95.5629 282.952C95.2674 282.594 95.0373 282.256 94.8725 281.938H94.7447V288.909H91.6594ZM94.685 277.455C94.685 278.301 94.8043 279.043 95.043 279.679C95.2873 280.315 95.6367 280.812 96.0913 281.17C96.5515 281.523 97.1083 281.699 97.7617 281.699C98.4435 281.699 99.0146 281.517 99.4748 281.153C99.935 280.784 100.282 280.281 100.515 279.645C100.753 279.003 100.873 278.273 100.873 277.455C100.873 276.642 100.756 275.92 100.523 275.29C100.29 274.659 99.9435 274.165 99.4833 273.807C99.0231 273.449 98.4492 273.27 97.7617 273.27C97.1026 273.27 96.543 273.443 96.0827 273.79C95.6225 274.136 95.2731 274.622 95.0344 275.247C94.8015 275.872 94.685 276.608 94.685 277.455ZM110.426 284.264C109.597 284.264 108.85 284.116 108.185 283.821C107.526 283.52 107.003 283.077 106.617 282.491C106.236 281.906 106.046 281.185 106.046 280.327C106.046 279.588 106.182 278.977 106.455 278.494C106.728 278.011 107.1 277.625 107.571 277.335C108.043 277.045 108.574 276.827 109.165 276.679C109.762 276.526 110.378 276.415 111.015 276.347C111.782 276.267 112.404 276.196 112.881 276.134C113.358 276.065 113.705 275.963 113.921 275.827C114.142 275.685 114.253 275.466 114.253 275.17V275.119C114.253 274.477 114.063 273.98 113.682 273.628C113.301 273.276 112.753 273.099 112.037 273.099C111.282 273.099 110.682 273.264 110.239 273.594C109.801 273.923 109.506 274.312 109.353 274.761L106.472 274.352C106.699 273.557 107.074 272.892 107.597 272.358C108.12 271.818 108.759 271.415 109.515 271.148C110.27 270.875 111.105 270.739 112.02 270.739C112.651 270.739 113.279 270.812 113.904 270.96C114.529 271.108 115.1 271.352 115.617 271.693C116.134 272.028 116.549 272.486 116.861 273.065C117.179 273.645 117.338 274.369 117.338 275.239V284H114.373V282.202H114.27C114.083 282.565 113.819 282.906 113.478 283.224C113.142 283.537 112.719 283.79 112.208 283.983C111.702 284.17 111.108 284.264 110.426 284.264ZM111.228 281.997C111.847 281.997 112.384 281.875 112.838 281.631C113.293 281.381 113.642 281.051 113.887 280.642C114.137 280.233 114.262 279.787 114.262 279.304V277.761C114.165 277.841 114 277.915 113.767 277.983C113.54 278.051 113.284 278.111 113 278.162C112.716 278.213 112.435 278.259 112.157 278.298C111.878 278.338 111.637 278.372 111.432 278.401C110.972 278.463 110.56 278.565 110.196 278.707C109.833 278.849 109.546 279.048 109.336 279.304C109.125 279.554 109.02 279.878 109.02 280.276C109.02 280.844 109.228 281.273 109.642 281.562C110.057 281.852 110.586 281.997 111.228 281.997ZM126.978 270.909V273.295H119.452V270.909H126.978ZM121.31 267.773H124.395V280.062C124.395 280.477 124.458 280.795 124.583 281.017C124.713 281.233 124.884 281.381 125.094 281.46C125.304 281.54 125.537 281.58 125.793 281.58C125.986 281.58 126.162 281.565 126.321 281.537C126.486 281.509 126.611 281.483 126.696 281.46L127.216 283.872C127.051 283.929 126.816 283.991 126.509 284.06C126.208 284.128 125.838 284.168 125.401 284.179C124.628 284.202 123.932 284.085 123.313 283.83C122.694 283.568 122.202 283.165 121.838 282.619C121.48 282.074 121.304 281.392 121.31 280.574V267.773ZM129.558 284V270.909H132.643V284H129.558ZM131.109 269.051C130.62 269.051 130.2 268.889 129.848 268.565C129.495 268.236 129.319 267.841 129.319 267.381C129.319 266.915 129.495 266.52 129.848 266.196C130.2 265.866 130.62 265.702 131.109 265.702C131.603 265.702 132.024 265.866 132.37 266.196C132.723 266.52 132.899 266.915 132.899 267.381C132.899 267.841 132.723 268.236 132.37 268.565C132.024 268.889 131.603 269.051 131.109 269.051ZM141.611 284.256C140.299 284.256 139.165 283.983 138.211 283.438C137.262 282.886 136.532 282.108 136.02 281.102C135.509 280.091 135.253 278.901 135.253 277.531C135.253 276.185 135.509 275.003 136.02 273.986C136.537 272.963 137.259 272.168 138.185 271.599C139.111 271.026 140.199 270.739 141.449 270.739C142.256 270.739 143.017 270.869 143.733 271.131C144.455 271.386 145.091 271.784 145.642 272.324C146.199 272.864 146.637 273.551 146.955 274.386C147.273 275.216 147.432 276.205 147.432 277.352V278.298H136.702V276.219H144.475C144.469 275.628 144.341 275.102 144.091 274.642C143.841 274.176 143.492 273.81 143.043 273.543C142.6 273.276 142.083 273.142 141.492 273.142C140.861 273.142 140.307 273.295 139.83 273.602C139.353 273.903 138.98 274.301 138.713 274.795C138.452 275.284 138.319 275.821 138.313 276.406V278.222C138.313 278.983 138.452 279.636 138.73 280.182C139.009 280.722 139.398 281.136 139.898 281.426C140.398 281.71 140.983 281.852 141.654 281.852C142.103 281.852 142.509 281.79 142.873 281.665C143.236 281.534 143.551 281.344 143.819 281.094C144.086 280.844 144.287 280.534 144.424 280.165L147.304 280.489C147.123 281.25 146.776 281.915 146.265 282.483C145.759 283.045 145.111 283.483 144.321 283.795C143.532 284.102 142.628 284.256 141.611 284.256ZM153.127 276.33V284H150.042V270.909H152.991V273.134H153.145C153.446 272.401 153.926 271.818 154.585 271.386C155.25 270.955 156.071 270.739 157.048 270.739C157.951 270.739 158.738 270.932 159.409 271.318C160.085 271.705 160.608 272.264 160.977 272.997C161.352 273.73 161.537 274.619 161.531 275.665V284H158.446V276.142C158.446 275.267 158.218 274.582 157.764 274.088C157.315 273.594 156.693 273.347 155.897 273.347C155.358 273.347 154.877 273.466 154.457 273.705C154.042 273.937 153.716 274.276 153.477 274.719C153.244 275.162 153.127 275.699 153.127 276.33ZM171.204 270.909V273.295H163.679V270.909H171.204ZM165.537 267.773H168.622V280.062C168.622 280.477 168.684 280.795 168.809 281.017C168.94 281.233 169.11 281.381 169.321 281.46C169.531 281.54 169.764 281.58 170.02 281.58C170.213 281.58 170.389 281.565 170.548 281.537C170.713 281.509 170.838 281.483 170.923 281.46L171.443 283.872C171.278 283.929 171.042 283.991 170.735 284.06C170.434 284.128 170.065 284.168 169.627 284.179C168.855 284.202 168.159 284.085 167.539 283.83C166.92 283.568 166.429 283.165 166.065 282.619C165.707 282.074 165.531 281.392 165.537 280.574V267.773ZM186.368 270.909V273.295H178.63V270.909H186.368ZM180.564 284V269.673C180.564 268.793 180.746 268.06 181.11 267.474C181.479 266.889 181.973 266.452 182.593 266.162C183.212 265.872 183.9 265.727 184.655 265.727C185.189 265.727 185.664 265.77 186.078 265.855C186.493 265.94 186.8 266.017 186.999 266.085L186.385 268.472C186.255 268.432 186.09 268.392 185.891 268.352C185.692 268.307 185.471 268.284 185.226 268.284C184.652 268.284 184.246 268.423 184.007 268.702C183.775 268.974 183.658 269.366 183.658 269.878V284H180.564ZM194.002 284.256C192.724 284.256 191.616 283.974 190.679 283.412C189.741 282.849 189.014 282.062 188.497 281.051C187.985 280.04 187.73 278.858 187.73 277.506C187.73 276.153 187.985 274.969 188.497 273.952C189.014 272.935 189.741 272.145 190.679 271.582C191.616 271.02 192.724 270.739 194.002 270.739C195.281 270.739 196.389 271.02 197.326 271.582C198.264 272.145 198.988 272.935 199.5 273.952C200.017 274.969 200.275 276.153 200.275 277.506C200.275 278.858 200.017 280.04 199.5 281.051C198.988 282.062 198.264 282.849 197.326 283.412C196.389 283.974 195.281 284.256 194.002 284.256ZM194.02 281.784C194.713 281.784 195.292 281.594 195.758 281.213C196.224 280.827 196.571 280.31 196.798 279.662C197.031 279.014 197.147 278.293 197.147 277.497C197.147 276.696 197.031 275.972 196.798 275.324C196.571 274.67 196.224 274.151 195.758 273.764C195.292 273.378 194.713 273.185 194.02 273.185C193.309 273.185 192.718 273.378 192.247 273.764C191.781 274.151 191.431 274.67 191.199 275.324C190.971 275.972 190.858 276.696 190.858 277.497C190.858 278.293 190.971 279.014 191.199 279.662C191.431 280.31 191.781 280.827 192.247 281.213C192.718 281.594 193.309 281.784 194.02 281.784ZM208.604 284.256C207.326 284.256 206.218 283.974 205.28 283.412C204.343 282.849 203.615 282.062 203.098 281.051C202.587 280.04 202.331 278.858 202.331 277.506C202.331 276.153 202.587 274.969 203.098 273.952C203.615 272.935 204.343 272.145 205.28 271.582C206.218 271.02 207.326 270.739 208.604 270.739C209.882 270.739 210.99 271.02 211.928 271.582C212.865 272.145 213.59 272.935 214.101 273.952C214.618 274.969 214.877 276.153 214.877 277.506C214.877 278.858 214.618 280.04 214.101 281.051C213.59 282.062 212.865 282.849 211.928 283.412C210.99 283.974 209.882 284.256 208.604 284.256ZM208.621 281.784C209.314 281.784 209.894 281.594 210.36 281.213C210.826 280.827 211.172 280.31 211.4 279.662C211.632 279.014 211.749 278.293 211.749 277.497C211.749 276.696 211.632 275.972 211.4 275.324C211.172 274.67 210.826 274.151 210.36 273.764C209.894 273.378 209.314 273.185 208.621 273.185C207.911 273.185 207.32 273.378 206.848 273.764C206.382 274.151 206.033 274.67 205.8 275.324C205.573 275.972 205.459 276.696 205.459 277.497C205.459 278.293 205.573 279.014 205.8 279.662C206.033 280.31 206.382 280.827 206.848 281.213C207.32 281.594 207.911 281.784 208.621 281.784ZM224.032 270.909V273.295H216.507V270.909H224.032ZM218.365 267.773H221.45V280.062C221.45 280.477 221.512 280.795 221.637 281.017C221.768 281.233 221.939 281.381 222.149 281.46C222.359 281.54 222.592 281.58 222.848 281.58C223.041 281.58 223.217 281.565 223.376 281.537C223.541 281.509 223.666 281.483 223.751 281.46L224.271 283.872C224.106 283.929 223.87 283.991 223.564 284.06C223.262 284.128 222.893 284.168 222.456 284.179C221.683 284.202 220.987 284.085 220.368 283.83C219.748 283.568 219.257 283.165 218.893 282.619C218.535 282.074 218.359 281.392 218.365 280.574V267.773ZM233.243 270.909V273.295H225.505V270.909H233.243ZM227.439 284V269.673C227.439 268.793 227.621 268.06 227.985 267.474C228.354 266.889 228.848 266.452 229.468 266.162C230.087 265.872 230.775 265.727 231.53 265.727C232.064 265.727 232.539 265.77 232.953 265.855C233.368 265.94 233.675 266.017 233.874 266.085L233.26 268.472C233.13 268.432 232.965 268.392 232.766 268.352C232.567 268.307 232.346 268.284 232.101 268.284C231.527 268.284 231.121 268.423 230.882 268.702C230.65 268.974 230.533 269.366 230.533 269.878V284H227.439ZM238.981 284.264C238.152 284.264 237.404 284.116 236.74 283.821C236.081 283.52 235.558 283.077 235.172 282.491C234.791 281.906 234.6 281.185 234.6 280.327C234.6 279.588 234.737 278.977 235.01 278.494C235.282 278.011 235.654 277.625 236.126 277.335C236.598 277.045 237.129 276.827 237.72 276.679C238.316 276.526 238.933 276.415 239.569 276.347C240.336 276.267 240.958 276.196 241.436 276.134C241.913 276.065 242.26 275.963 242.475 275.827C242.697 275.685 242.808 275.466 242.808 275.17V275.119C242.808 274.477 242.618 273.98 242.237 273.628C241.856 273.276 241.308 273.099 240.592 273.099C239.836 273.099 239.237 273.264 238.794 273.594C238.356 273.923 238.061 274.312 237.907 274.761L235.027 274.352C235.254 273.557 235.629 272.892 236.152 272.358C236.674 271.818 237.314 271.415 238.069 271.148C238.825 270.875 239.66 270.739 240.575 270.739C241.206 270.739 241.833 270.812 242.458 270.96C243.083 271.108 243.654 271.352 244.172 271.693C244.689 272.028 245.103 272.486 245.416 273.065C245.734 273.645 245.893 274.369 245.893 275.239V284H242.927V282.202H242.825C242.637 282.565 242.373 282.906 242.032 283.224C241.697 283.537 241.274 283.79 240.762 283.983C240.257 284.17 239.663 284.264 238.981 284.264ZM239.782 281.997C240.402 281.997 240.939 281.875 241.393 281.631C241.848 281.381 242.197 281.051 242.441 280.642C242.691 280.233 242.816 279.787 242.816 279.304V277.761C242.72 277.841 242.555 277.915 242.322 277.983C242.095 278.051 241.839 278.111 241.555 278.162C241.271 278.213 240.99 278.259 240.711 278.298C240.433 278.338 240.191 278.372 239.987 278.401C239.527 278.463 239.115 278.565 238.751 278.707C238.387 278.849 238.1 279.048 237.89 279.304C237.68 279.554 237.575 279.878 237.575 280.276C237.575 280.844 237.782 281.273 238.197 281.562C238.612 281.852 239.14 281.997 239.782 281.997ZM252.081 266.545V284H248.995V266.545H252.081ZM258.338 266.545V284H255.253V266.545H258.338Z" fill="white"/>
<path d="M77.7074 136V124.1C81.6408 120.233 85.2741 116.633 88.6074 113.3C90.0074 111.9 91.4408 110.467 92.9074 109C94.3741 107.533 95.7408 106.167 97.0074 104.9C98.2741 103.633 99.4074 102.5 100.407 101.5C101.407 100.433 102.174 99.6 102.707 99C103.774 97.7333 104.707 96.6 105.507 95.6C106.374 94.6 107.041 93.6333 107.507 92.7C108.041 91.7 108.441 90.7333 108.707 89.8C108.974 88.8 109.107 87.7333 109.107 86.6C109.107 84.4 108.241 82.5 106.507 80.9C104.774 79.2333 102.407 78.4 99.4074 78.4C96.4074 78.4 94.0741 79.2667 92.4074 81C90.7408 82.6667 89.6074 84.5667 89.0074 86.7L77.1074 81.8C77.6408 80 78.5074 78.1667 79.7074 76.3C80.9074 74.3667 82.4408 72.6667 84.3074 71.2C86.1741 69.6667 88.3741 68.4333 90.9074 67.5C93.5074 66.5 96.4074 66 99.6074 66C103.074 66 106.207 66.5333 109.007 67.6C111.807 68.6 114.174 70 116.107 71.8C118.041 73.6 119.541 75.7333 120.607 78.2C121.674 80.6 122.207 83.2 122.207 86C122.207 90.2667 121.141 94.2 119.007 97.8C116.941 101.333 114.407 104.633 111.407 107.7L102.807 116.3C100.541 118.567 97.9741 121.1 95.1074 123.9L95.5074 124.5H123.207V136H77.7074ZM160.7 137.6C156.3 137.6 152.333 136.7 148.8 134.9C145.266 133.033 142.233 130.5 139.7 127.3C137.233 124.1 135.333 120.333 134 116C132.666 111.6 132 106.867 132 101.8C132 96.7333 132.666 92.0333 134 87.7C135.333 83.3 137.233 79.5 139.7 76.3C142.233 73.1 145.266 70.6 148.8 68.8C152.333 66.9333 156.3 66 160.7 66C165.1 66 169.066 66.9333 172.6 68.8C176.133 70.6 179.133 73.1 181.6 76.3C184.133 79.5 186.066 83.3 187.4 87.7C188.733 92.0333 189.4 96.7333 189.4 101.8C189.4 106.867 188.733 111.6 187.4 116C186.066 120.333 184.133 124.1 181.6 127.3C179.133 130.5 176.133 133.033 172.6 134.9C169.066 136.7 165.1 137.6 160.7 137.6ZM160.7 125.2C163.1 125.2 165.266 124.633 167.2 123.5C169.133 122.3 170.766 120.667 172.1 118.6C173.5 116.467 174.533 113.967 175.2 111.1C175.933 108.233 176.3 105.133 176.3 101.8C176.3 98.4 175.933 95.3 175.2 92.5C174.533 89.6333 173.5 87.1667 172.1 85.1C170.766 82.9667 169.133 81.3333 167.2 80.2C165.266 79 163.1 78.4 160.7 78.4C158.233 78.4 156.033 79 154.1 80.2C152.166 81.3333 150.533 82.9667 149.2 85.1C147.866 87.1667 146.833 89.6333 146.1 92.5C145.433 95.3 145.1 98.4 145.1 101.8C145.1 105.133 145.433 108.233 146.1 111.1C146.833 113.967 147.866 116.467 149.2 118.6C150.533 120.667 152.166 122.3 154.1 123.5C156.033 124.633 158.233 125.2 160.7 125.2ZM197.011 83.1C197.011 80.7667 197.444 78.5667 198.311 76.5C199.244 74.4333 200.477 72.6333 202.011 71.1C203.611 69.5 205.477 68.2667 207.611 67.4C209.744 66.4667 212.077 66 214.611 66C217.144 66 219.477 66.4667 221.611 67.4C223.811 68.2667 225.677 69.5 227.211 71.1C228.811 72.6333 230.044 74.4333 230.911 76.5C231.844 78.5667 232.311 80.7667 232.311 83.1C232.311 85.4333 231.844 87.6667 230.911 89.8C230.044 91.8667 228.811 93.6667 227.211 95.2C225.677 96.7333 223.811 97.9667 221.611 98.9C219.477 99.7667 217.144 100.2 214.611 100.2C212.077 100.2 209.744 99.7667 207.611 98.9C205.477 97.9667 203.611 96.7333 202.011 95.2C200.477 93.6667 199.244 91.8667 198.311 89.8C197.444 87.6667 197.011 85.4333 197.011 83.1ZM207.711 83.1C207.711 85.3 208.377 87.0667 209.711 88.4C211.044 89.7333 212.677 90.4 214.611 90.4C216.544 90.4 218.177 89.7333 219.511 88.4C220.844 87.0667 221.511 85.3 221.511 83.1C221.511 80.9 220.844 79.1333 219.511 77.8C218.177 76.4667 216.544 75.8 214.611 75.8C212.677 75.8 211.044 76.4667 209.711 77.8C208.377 79.1333 207.711 80.9 207.711 83.1ZM209.711 132.3L254.111 66L262.011 71.3L217.611 137.6L209.711 132.3ZM239.411 120.5C239.411 118.167 239.844 115.967 240.711 113.9C241.644 111.833 242.877 110.033 244.411 108.5C246.011 106.9 247.877 105.667 250.011 104.8C252.144 103.867 254.477 103.4 257.011 103.4C259.544 103.4 261.877 103.867 264.011 104.8C266.211 105.667 268.077 106.9 269.611 108.5C271.211 110.033 272.444 111.833 273.311 113.9C274.244 115.967 274.711 118.167 274.711 120.5C274.711 122.833 274.244 125.067 273.311 127.2C272.444 129.267 271.211 131.067 269.611 132.6C268.077 134.133 266.211 135.333 264.011 136.2C261.877 137.133 259.544 137.6 257.011 137.6C254.477 137.6 252.144 137.133 250.011 136.2C247.877 135.333 246.011 134.133 244.411 132.6C242.877 131.067 241.644 129.267 240.711 127.2C239.844 125.067 239.411 122.833 239.411 120.5ZM250.111 120.5C250.111 122.7 250.777 124.467 252.111 125.8C253.444 127.133 255.077 127.8 257.011 127.8C258.944 127.8 260.577 127.133 261.911 125.8C263.244 124.467 263.911 122.7 263.911 120.5C263.911 118.3 263.244 116.533 261.911 115.2C260.577 113.867 258.944 113.2 257.011 113.2C255.077 113.2 253.444 113.867 252.111 115.2C250.777 116.533 250.111 118.3 250.111 120.5Z" fill="#5BEBFF"/>
<path d="M77.0773 179.706C76.4653 179.706 75.8713 179.598 75.2953 179.382C74.7553 179.13 74.2693 178.806 73.8373 178.41C73.4413 177.978 73.1173 177.492 72.8653 176.952C72.6493 176.412 72.5413 175.818 72.5413 175.17C72.5413 174.522 72.6493 173.928 72.8653 173.388C73.1173 172.848 73.4413 172.38 73.8373 171.984C74.2693 171.552 74.7553 171.228 75.2953 171.012C75.8713 170.76 76.4653 170.634 77.0773 170.634C78.3373 170.634 79.4173 171.084 80.3173 171.984C81.2173 172.848 81.6673 173.91 81.6673 175.17C81.6673 176.43 81.2173 177.51 80.3173 178.41C79.4173 179.274 78.3373 179.706 77.0773 179.706ZM73.5673 210V183.54H80.6413V210H73.5673ZM93.7519 186.996H94.1839C95.0119 185.664 96.1279 184.62 97.5319 183.864C98.9359 183.072 100.538 182.676 102.338 182.676C103.994 182.676 105.452 182.946 106.712 183.486C107.972 184.026 108.998 184.8 109.79 185.808C110.618 186.78 111.23 187.968 111.626 189.372C112.058 190.74 112.274 192.27 112.274 193.962V210H105.2V194.826C105.2 192.918 104.768 191.514 103.904 190.614C103.076 189.678 101.852 189.21 100.232 189.21C99.2599 189.21 98.3959 189.426 97.6399 189.858C96.9199 190.254 96.2899 190.812 95.7499 191.532C95.2459 192.216 94.8499 193.044 94.5619 194.016C94.3099 194.952 94.1839 195.96 94.1839 197.04V210H87.1099V183.54H93.7519V186.996ZM143.228 203.25C142.076 205.482 140.456 207.318 138.368 208.758C136.316 210.162 133.742 210.864 130.646 210.864C128.594 210.864 126.704 210.522 124.976 209.838C123.284 209.118 121.808 208.128 120.548 206.868C119.324 205.608 118.352 204.132 117.632 202.44C116.948 200.712 116.606 198.822 116.606 196.77C116.606 194.718 116.948 192.828 117.632 191.1C118.352 189.372 119.324 187.896 120.548 186.672C121.808 185.412 123.284 184.44 124.976 183.756C126.704 183.036 128.594 182.676 130.646 182.676C133.706 182.676 136.28 183.378 138.368 184.782C140.456 186.186 141.986 188.004 142.958 190.236L136.478 192.936C135.866 191.712 135.074 190.794 134.102 190.182C133.166 189.534 131.978 189.21 130.538 189.21C129.602 189.21 128.72 189.39 127.892 189.75C127.064 190.11 126.326 190.614 125.678 191.262C125.066 191.91 124.58 192.702 124.22 193.638C123.86 194.574 123.68 195.618 123.68 196.77C123.68 197.922 123.86 198.966 124.22 199.902C124.58 200.838 125.066 201.63 125.678 202.278C126.326 202.926 127.064 203.43 127.892 203.79C128.72 204.15 129.602 204.33 130.538 204.33C132.014 204.33 133.256 204.006 134.264 203.358C135.308 202.674 136.136 201.702 136.748 200.442L143.228 203.25ZM147.28 183.54H153.922V187.212H154.354C154.678 186.564 155.11 185.97 155.65 185.43C156.19 184.89 156.784 184.422 157.432 184.026C158.116 183.63 158.836 183.324 159.592 183.108C160.384 182.892 161.158 182.784 161.914 182.784C162.85 182.784 163.642 182.874 164.29 183.054C164.974 183.234 165.55 183.468 166.018 183.756L164.128 190.182C163.696 189.966 163.21 189.804 162.67 189.696C162.166 189.552 161.536 189.48 160.78 189.48C159.808 189.48 158.926 189.678 158.134 190.074C157.342 190.434 156.658 190.956 156.082 191.64C155.542 192.324 155.11 193.134 154.786 194.07C154.498 194.97 154.354 195.96 154.354 197.04V210H147.28V183.54ZM192.691 203.628C191.467 205.788 189.811 207.534 187.723 208.866C185.671 210.198 183.151 210.864 180.163 210.864C178.147 210.864 176.275 210.522 174.547 209.838C172.855 209.118 171.379 208.128 170.119 206.868C168.859 205.608 167.869 204.132 167.149 202.44C166.465 200.712 166.123 198.822 166.123 196.77C166.123 194.862 166.465 193.062 167.149 191.37C167.833 189.642 168.787 188.148 170.011 186.888C171.235 185.592 172.675 184.566 174.331 183.81C176.023 183.054 177.877 182.676 179.893 182.676C182.017 182.676 183.907 183.036 185.563 183.756C187.219 184.44 188.605 185.412 189.721 186.672C190.837 187.896 191.683 189.354 192.259 191.046C192.835 192.738 193.123 194.574 193.123 196.554C193.123 196.806 193.123 197.022 193.123 197.202C193.087 197.418 193.069 197.616 193.069 197.796C193.033 197.976 193.015 198.174 193.015 198.39H173.089C173.233 199.47 173.521 200.406 173.953 201.198C174.421 201.954 174.979 202.602 175.627 203.142C176.311 203.646 177.049 204.024 177.841 204.276C178.633 204.492 179.443 204.6 180.271 204.6C181.891 204.6 183.223 204.24 184.267 203.52C185.347 202.764 186.193 201.828 186.805 200.712L192.691 203.628ZM186.265 193.368C186.229 192.9 186.067 192.378 185.779 191.802C185.527 191.226 185.131 190.686 184.591 190.182C184.087 189.678 183.439 189.264 182.647 188.94C181.891 188.616 180.973 188.454 179.893 188.454C178.381 188.454 177.049 188.886 175.897 189.75C174.745 190.614 173.935 191.82 173.467 193.368H186.265ZM214.213 207.192H213.781C212.953 208.2 211.945 209.064 210.757 209.784C209.605 210.504 208.111 210.864 206.275 210.864C204.907 210.864 203.611 210.63 202.387 210.162C201.199 209.73 200.155 209.118 199.255 208.326C198.355 207.534 197.653 206.58 197.149 205.464C196.645 204.348 196.393 203.124 196.393 201.792C196.393 200.424 196.663 199.2 197.203 198.12C197.743 197.004 198.499 196.05 199.471 195.258C200.443 194.466 201.577 193.872 202.873 193.476C204.205 193.044 205.645 192.828 207.193 192.828C208.921 192.828 210.343 192.972 211.459 193.26C212.575 193.512 213.493 193.782 214.213 194.07V193.26C214.213 191.856 213.655 190.704 212.539 189.804C211.423 188.868 210.037 188.4 208.381 188.4C205.933 188.4 203.863 189.426 202.171 191.478L197.041 187.968C199.849 184.44 203.683 182.676 208.543 182.676C212.647 182.676 215.779 183.648 217.939 185.592C220.099 187.5 221.179 190.344 221.179 194.124V210H214.213V207.192ZM214.213 199.254C213.385 198.858 212.521 198.552 211.621 198.336C210.757 198.084 209.803 197.958 208.759 197.958C207.067 197.958 205.753 198.336 204.817 199.092C203.917 199.812 203.467 200.712 203.467 201.792C203.467 202.872 203.899 203.736 204.763 204.384C205.663 205.032 206.689 205.356 207.841 205.356C208.777 205.356 209.641 205.194 210.433 204.87C211.225 204.51 211.891 204.06 212.431 203.52C213.007 202.944 213.439 202.296 213.727 201.576C214.051 200.82 214.213 200.046 214.213 199.254ZM237.016 210.864C235.288 210.864 233.74 210.648 232.372 210.216C231.04 209.784 229.87 209.226 228.862 208.542C227.89 207.822 227.062 207.012 226.378 206.112C225.694 205.176 225.172 204.24 224.812 203.304L231.13 200.604C231.742 201.972 232.552 202.998 233.56 203.682C234.604 204.33 235.756 204.654 237.016 204.654C238.312 204.654 239.338 204.42 240.094 203.952C240.85 203.484 241.228 202.926 241.228 202.278C241.228 201.558 240.904 200.982 240.256 200.55C239.644 200.082 238.564 199.668 237.016 199.308L233.29 198.498C232.462 198.318 231.598 198.03 230.698 197.634C229.834 197.238 229.042 196.734 228.322 196.122C227.602 195.51 227.008 194.772 226.54 193.908C226.072 193.044 225.838 192.036 225.838 190.884C225.838 189.588 226.108 188.436 226.648 187.428C227.224 186.42 227.998 185.574 228.97 184.89C229.942 184.17 231.076 183.63 232.372 183.27C233.704 182.874 235.126 182.676 236.638 182.676C239.158 182.676 241.408 183.18 243.388 184.188C245.368 185.16 246.826 186.726 247.762 188.886L241.66 191.37C241.156 190.326 240.418 189.57 239.446 189.102C238.474 188.634 237.502 188.4 236.53 188.4C235.522 188.4 234.64 188.616 233.884 189.048C233.128 189.444 232.75 189.966 232.75 190.614C232.75 191.226 233.056 191.712 233.668 192.072C234.316 192.432 235.18 192.756 236.26 193.044L240.31 194.016C243.01 194.664 245.008 195.708 246.304 197.148C247.636 198.552 248.302 200.226 248.302 202.17C248.302 203.322 248.032 204.42 247.492 205.464C246.952 206.508 246.178 207.444 245.17 208.272C244.198 209.064 243.01 209.694 241.606 210.162C240.238 210.63 238.708 210.864 237.016 210.864ZM277.963 203.628C276.739 205.788 275.083 207.534 272.995 208.866C270.943 210.198 268.423 210.864 265.435 210.864C263.419 210.864 261.547 210.522 259.819 209.838C258.127 209.118 256.651 208.128 255.391 206.868C254.131 205.608 253.141 204.132 252.421 202.44C251.737 200.712 251.395 198.822 251.395 196.77C251.395 194.862 251.737 193.062 252.421 191.37C253.105 189.642 254.059 188.148 255.283 186.888C256.507 185.592 257.947 184.566 259.603 183.81C261.295 183.054 263.149 182.676 265.165 182.676C267.289 182.676 269.179 183.036 270.835 183.756C272.491 184.44 273.877 185.412 274.993 186.672C276.109 187.896 276.955 189.354 277.531 191.046C278.107 192.738 278.395 194.574 278.395 196.554C278.395 196.806 278.395 197.022 278.395 197.202C278.359 197.418 278.341 197.616 278.341 197.796C278.305 197.976 278.287 198.174 278.287 198.39H258.361C258.505 199.47 258.793 200.406 259.225 201.198C259.693 201.954 260.251 202.602 260.899 203.142C261.583 203.646 262.321 204.024 263.113 204.276C263.905 204.492 264.715 204.6 265.543 204.6C267.163 204.6 268.495 204.24 269.539 203.52C270.619 202.764 271.465 201.828 272.077 200.712L277.963 203.628ZM271.537 193.368C271.501 192.9 271.339 192.378 271.051 191.802C270.799 191.226 270.403 190.686 269.863 190.182C269.359 189.678 268.711 189.264 267.919 188.94C267.163 188.616 266.245 188.454 265.165 188.454C263.653 188.454 262.321 188.886 261.169 189.75C260.017 190.614 259.207 191.82 258.739 193.368H271.537Z" fill="white" fill-opacity="0.7"/>
<path d="M1 201V262C1 275.807 12.1929 287 26 287H49" stroke="white" stroke-width="2"/>
<path d="M350 87V26C350 12.1929 338.807 0.999999 325 0.999999H302" stroke="white" stroke-width="2"/>
</svg>
