<svg width="468" height="468" viewBox="0 0 468 468" fill="none" xmlns="http://www.w3.org/2000/svg">
<circle cx="234" cy="234" r="218" fill="#101D28" stroke="#BBDDFA" stroke-width="32"/>
<path d="M436 234C436 207.473 430.775 181.206 420.624 156.698C410.472 132.19 395.593 109.922 376.836 91.1644C358.078 72.407 335.81 57.5278 311.302 47.3763C286.794 37.2249 260.527 32 234 32C207.473 32 181.206 37.2249 156.698 47.3763C132.19 57.5278 109.922 72.407 91.1644 91.1644C72.407 109.922 57.5278 132.19 47.3763 156.698C37.2249 181.206 32 207.473 32 234L234 234H436Z" fill="#428BCC"/>
<path d="M108.494 310.544C104.868 310.544 101.513 309.955 98.4303 308.776C95.393 307.552 92.741 305.852 90.4743 303.676C88.253 301.455 86.5076 298.871 85.2383 295.924C83.969 292.977 83.3343 289.736 83.3343 286.2C83.3343 282.664 83.969 279.423 85.2383 276.476C86.5076 273.529 88.2756 270.968 90.5423 268.792C92.809 266.571 95.461 264.871 98.4983 263.692C101.581 262.468 104.936 261.856 108.562 261.856C112.234 261.856 115.612 262.491 118.694 263.76C121.822 264.984 124.474 266.82 126.65 269.268L122.23 273.552C120.417 271.648 118.377 270.243 116.11 269.336C113.844 268.384 111.418 267.908 108.834 267.908C106.16 267.908 103.666 268.361 101.354 269.268C99.0876 270.175 97.1156 271.444 95.4383 273.076C93.761 274.708 92.4463 276.657 91.4943 278.924C90.5876 281.145 90.1343 283.571 90.1343 286.2C90.1343 288.829 90.5876 291.277 91.4943 293.544C92.4463 295.765 93.761 297.692 95.4383 299.324C97.1156 300.956 99.0876 302.225 101.354 303.132C103.666 304.039 106.16 304.492 108.834 304.492C111.418 304.492 113.844 304.039 116.11 303.132C118.377 302.18 120.417 300.729 122.23 298.78L126.65 303.064C124.474 305.512 121.822 307.371 118.694 308.64C115.612 309.909 112.212 310.544 108.494 310.544ZM135.399 310V259.544H141.927V310H135.399ZM154.391 310V273.96H160.919V310H154.391ZM157.655 267.024C156.386 267.024 155.32 266.616 154.459 265.8C153.643 264.984 153.235 263.987 153.235 262.808C153.235 261.584 153.643 260.564 154.459 259.748C155.32 258.932 156.386 258.524 157.655 258.524C158.924 258.524 159.967 258.932 160.783 259.748C161.644 260.519 162.075 261.493 162.075 262.672C162.075 263.896 161.667 264.939 160.851 265.8C160.035 266.616 158.97 267.024 157.655 267.024ZM192.627 273.62C195.574 273.62 198.158 274.187 200.379 275.32C202.646 276.453 204.414 278.176 205.683 280.488C206.953 282.8 207.587 285.724 207.587 289.26V310H201.059V290.008C201.059 286.517 200.198 283.888 198.475 282.12C196.798 280.352 194.418 279.468 191.335 279.468C189.023 279.468 187.006 279.921 185.283 280.828C183.561 281.735 182.223 283.072 181.271 284.84C180.365 286.608 179.911 288.807 179.911 291.436V310H173.383V273.96H179.639V283.684L178.619 281.1C179.798 278.743 181.611 276.907 184.059 275.592C186.507 274.277 189.363 273.62 192.627 273.62ZM219.668 310V273.96H226.196V310H219.668ZM222.932 267.024C221.663 267.024 220.598 266.616 219.736 265.8C218.92 264.984 218.512 263.987 218.512 262.808C218.512 261.584 218.92 260.564 219.736 259.748C220.598 258.932 221.663 258.524 222.932 258.524C224.202 258.524 225.244 258.932 226.06 259.748C226.922 260.519 227.352 261.493 227.352 262.672C227.352 263.896 226.944 264.939 226.128 265.8C225.312 266.616 224.247 267.024 222.932 267.024ZM254.369 310.408C250.697 310.408 247.41 309.615 244.509 308.028C241.653 306.441 239.409 304.265 237.777 301.5C236.145 298.735 235.329 295.561 235.329 291.98C235.329 288.399 236.145 285.225 237.777 282.46C239.409 279.695 241.653 277.541 244.509 276C247.41 274.413 250.697 273.62 254.369 273.62C257.633 273.62 260.534 274.277 263.073 275.592C265.657 276.861 267.651 278.765 269.057 281.304L264.093 284.5C262.914 282.732 261.463 281.44 259.741 280.624C258.063 279.763 256.25 279.332 254.301 279.332C251.943 279.332 249.835 279.853 247.977 280.896C246.118 281.939 244.645 283.412 243.557 285.316C242.469 287.175 241.925 289.396 241.925 291.98C241.925 294.564 242.469 296.808 243.557 298.712C244.645 300.616 246.118 302.089 247.977 303.132C249.835 304.175 251.943 304.696 254.301 304.696C256.25 304.696 258.063 304.288 259.741 303.472C261.463 302.611 262.914 301.296 264.093 299.528L269.057 302.656C267.651 305.149 265.657 307.076 263.073 308.436C260.534 309.751 257.633 310.408 254.369 310.408ZM299.88 310V302.384L299.54 300.956V287.968C299.54 285.203 298.724 283.072 297.092 281.576C295.506 280.035 293.103 279.264 289.884 279.264C287.754 279.264 285.668 279.627 283.628 280.352C281.588 281.032 279.866 281.961 278.46 283.14L275.74 278.244C277.599 276.748 279.82 275.615 282.404 274.844C285.034 274.028 287.776 273.62 290.632 273.62C295.574 273.62 299.382 274.821 302.056 277.224C304.731 279.627 306.068 283.299 306.068 288.24V310H299.88ZM288.048 310.408C285.374 310.408 283.016 309.955 280.976 309.048C278.982 308.141 277.44 306.895 276.352 305.308C275.264 303.676 274.72 301.84 274.72 299.8C274.72 297.851 275.174 296.083 276.08 294.496C277.032 292.909 278.551 291.64 280.636 290.688C282.767 289.736 285.623 289.26 289.204 289.26H300.628V293.952H289.476C286.212 293.952 284.014 294.496 282.88 295.584C281.747 296.672 281.18 297.987 281.18 299.528C281.18 301.296 281.883 302.724 283.288 303.812C284.694 304.855 286.643 305.376 289.136 305.376C291.584 305.376 293.715 304.832 295.528 303.744C297.387 302.656 298.724 301.069 299.54 298.984L300.832 303.472C299.971 305.603 298.452 307.303 296.276 308.572C294.1 309.796 291.358 310.408 288.048 310.408ZM318.149 310V259.544H324.677V310H318.149ZM337.141 310V259.544H343.669V310H337.141ZM357.697 323.6C355.975 323.6 354.297 323.305 352.665 322.716C351.033 322.172 349.628 321.356 348.449 320.268L351.237 315.372C352.144 316.233 353.141 316.891 354.229 317.344C355.317 317.797 356.473 318.024 357.697 318.024C359.284 318.024 360.599 317.616 361.641 316.8C362.684 315.984 363.659 314.533 364.565 312.448L366.809 307.484L367.489 306.668L381.633 273.96H388.025L370.549 313.604C369.507 316.143 368.328 318.137 367.013 319.588C365.744 321.039 364.339 322.059 362.797 322.648C361.256 323.283 359.556 323.6 357.697 323.6ZM366.265 311.156L349.809 273.96H356.609L370.617 306.056L366.265 311.156ZM167.293 349L157.437 326.6H160.893L169.949 347.272H167.965L177.085 326.6H180.285L170.461 349H167.293ZM191.94 349V345.416L191.78 344.744V338.632C191.78 337.331 191.396 336.328 190.628 335.624C189.881 334.899 188.751 334.536 187.236 334.536C186.233 334.536 185.252 334.707 184.292 335.048C183.332 335.368 182.521 335.805 181.86 336.36L180.58 334.056C181.455 333.352 182.5 332.819 183.716 332.456C184.953 332.072 186.244 331.88 187.588 331.88C189.913 331.88 191.705 332.445 192.964 333.576C194.223 334.707 194.852 336.435 194.852 338.76V349H191.94ZM186.372 349.192C185.113 349.192 184.004 348.979 183.044 348.552C182.105 348.125 181.38 347.539 180.868 346.792C180.356 346.024 180.1 345.16 180.1 344.2C180.1 343.283 180.313 342.451 180.74 341.704C181.188 340.957 181.903 340.36 182.884 339.912C183.887 339.464 185.231 339.24 186.916 339.24H192.292V341.448H187.044C185.508 341.448 184.473 341.704 183.94 342.216C183.407 342.728 183.14 343.347 183.14 344.072C183.14 344.904 183.471 345.576 184.132 346.088C184.793 346.579 185.711 346.824 186.884 346.824C188.036 346.824 189.039 346.568 189.892 346.056C190.767 345.544 191.396 344.797 191.78 343.816L192.388 345.928C191.983 346.931 191.268 347.731 190.244 348.328C189.22 348.904 187.929 349.192 186.372 349.192ZM200.537 349V325.256H203.609V349H200.537ZM209.475 349V332.04H212.547V349H209.475ZM211.011 328.776C210.413 328.776 209.912 328.584 209.507 328.2C209.123 327.816 208.931 327.347 208.931 326.792C208.931 326.216 209.123 325.736 209.507 325.352C209.912 324.968 210.413 324.776 211.011 324.776C211.608 324.776 212.099 324.968 212.483 325.352C212.888 325.715 213.091 326.173 213.091 326.728C213.091 327.304 212.899 327.795 212.515 328.2C212.131 328.584 211.629 328.776 211.011 328.776ZM225.42 349.192C223.777 349.192 222.305 348.829 221.004 348.104C219.724 347.379 218.711 346.365 217.964 345.064C217.217 343.763 216.844 342.248 216.844 340.52C216.844 338.792 217.217 337.288 217.964 336.008C218.711 334.707 219.724 333.693 221.004 332.968C222.305 332.243 223.777 331.88 225.42 331.88C226.849 331.88 228.14 332.2 229.292 332.84C230.444 333.48 231.361 334.44 232.044 335.72C232.748 337 233.1 338.6 233.1 340.52C233.1 342.44 232.759 344.04 232.076 345.32C231.415 346.6 230.508 347.571 229.356 348.232C228.204 348.872 226.892 349.192 225.42 349.192ZM225.676 346.504C226.743 346.504 227.703 346.259 228.556 345.768C229.431 345.277 230.113 344.584 230.604 343.688C231.116 342.771 231.372 341.715 231.372 340.52C231.372 339.304 231.116 338.259 230.604 337.384C230.113 336.488 229.431 335.795 228.556 335.304C227.703 334.813 226.743 334.568 225.676 334.568C224.588 334.568 223.617 334.813 222.764 335.304C221.911 335.795 221.228 336.488 220.716 337.384C220.204 338.259 219.948 339.304 219.948 340.52C219.948 341.715 220.204 342.771 220.716 343.688C221.228 344.584 221.911 345.277 222.764 345.768C223.617 346.259 224.588 346.504 225.676 346.504ZM231.468 349V344.424L231.66 340.488L231.34 336.552V325.256H234.412V349H231.468ZM250.753 349V345.416L250.593 344.744V338.632C250.593 337.331 250.209 336.328 249.441 335.624C248.694 334.899 247.563 334.536 246.049 334.536C245.046 334.536 244.065 334.707 243.105 335.048C242.145 335.368 241.334 335.805 240.673 336.36L239.393 334.056C240.267 333.352 241.313 332.819 242.529 332.456C243.766 332.072 245.057 331.88 246.401 331.88C248.726 331.88 250.518 332.445 251.777 333.576C253.035 334.707 253.665 336.435 253.665 338.76V349H250.753ZM245.185 349.192C243.926 349.192 242.817 348.979 241.857 348.552C240.918 348.125 240.193 347.539 239.681 346.792C239.169 346.024 238.913 345.16 238.913 344.2C238.913 343.283 239.126 342.451 239.553 341.704C240.001 340.957 240.715 340.36 241.697 339.912C242.699 339.464 244.043 339.24 245.729 339.24H251.105V341.448H245.857C244.321 341.448 243.286 341.704 242.753 342.216C242.219 342.728 241.953 343.347 241.953 344.072C241.953 344.904 242.283 345.576 242.945 346.088C243.606 346.579 244.523 346.824 245.697 346.824C246.849 346.824 247.851 346.568 248.705 346.056C249.579 345.544 250.209 344.797 250.593 343.816L251.201 345.928C250.795 346.931 250.081 347.731 249.057 348.328C248.033 348.904 246.742 349.192 245.185 349.192ZM265.174 349.192C263.467 349.192 262.144 348.733 261.206 347.816C260.267 346.899 259.798 345.587 259.798 343.88V328.328H262.87V343.752C262.87 344.669 263.094 345.373 263.542 345.864C264.011 346.355 264.672 346.6 265.526 346.6C266.486 346.6 267.286 346.333 267.926 345.8L268.886 348.008C268.416 348.413 267.851 348.712 267.19 348.904C266.55 349.096 265.878 349.192 265.174 349.192ZM256.918 334.568V332.04H267.734V334.568H256.918ZM279.589 349.192C277.776 349.192 276.176 348.819 274.789 348.072C273.424 347.325 272.357 346.301 271.589 345C270.842 343.699 270.469 342.205 270.469 340.52C270.469 338.835 270.832 337.341 271.557 336.04C272.304 334.739 273.317 333.725 274.597 333C275.898 332.253 277.36 331.88 278.981 331.88C280.624 331.88 282.074 332.243 283.333 332.968C284.592 333.693 285.573 334.717 286.277 336.04C287.002 337.341 287.365 338.867 287.365 340.616C287.365 340.744 287.354 340.893 287.333 341.064C287.333 341.235 287.322 341.395 287.301 341.544H272.869V339.336H285.701L284.453 340.104C284.474 339.016 284.25 338.045 283.781 337.192C283.312 336.339 282.661 335.677 281.829 335.208C281.018 334.717 280.069 334.472 278.981 334.472C277.914 334.472 276.965 334.717 276.133 335.208C275.301 335.677 274.65 336.349 274.181 337.224C273.712 338.077 273.477 339.059 273.477 340.168V340.68C273.477 341.811 273.733 342.824 274.245 343.72C274.778 344.595 275.514 345.277 276.453 345.768C277.392 346.259 278.469 346.504 279.685 346.504C280.688 346.504 281.594 346.333 282.405 345.992C283.237 345.651 283.962 345.139 284.581 344.456L286.277 346.44C285.509 347.336 284.549 348.019 283.397 348.488C282.266 348.957 280.997 349.192 279.589 349.192ZM298.639 349.192C296.996 349.192 295.524 348.829 294.223 348.104C292.943 347.379 291.929 346.365 291.183 345.064C290.436 343.763 290.063 342.248 290.063 340.52C290.063 338.792 290.436 337.288 291.183 336.008C291.929 334.707 292.943 333.693 294.223 332.968C295.524 332.243 296.996 331.88 298.639 331.88C300.068 331.88 301.359 332.2 302.511 332.84C303.663 333.48 304.58 334.44 305.263 335.72C305.967 337 306.319 338.6 306.319 340.52C306.319 342.44 305.977 344.04 305.295 345.32C304.633 346.6 303.727 347.571 302.575 348.232C301.423 348.872 300.111 349.192 298.639 349.192ZM298.895 346.504C299.961 346.504 300.921 346.259 301.775 345.768C302.649 345.277 303.332 344.584 303.823 343.688C304.335 342.771 304.591 341.715 304.591 340.52C304.591 339.304 304.335 338.259 303.823 337.384C303.332 336.488 302.649 335.795 301.775 335.304C300.921 334.813 299.961 334.568 298.895 334.568C297.807 334.568 296.836 334.813 295.983 335.304C295.129 335.795 294.447 336.488 293.935 337.384C293.423 338.259 293.167 339.304 293.167 340.52C293.167 341.715 293.423 342.771 293.935 343.688C294.447 344.584 295.129 345.277 295.983 345.768C296.836 346.259 297.807 346.504 298.895 346.504ZM304.687 349V344.424L304.879 340.488L304.559 336.552V325.256H307.631V349H304.687Z" fill="white"/>
<path d="M389 234C389 213.645 384.991 193.49 377.201 174.684C369.412 155.879 357.995 138.792 343.602 124.398C329.208 110.005 312.121 98.5881 293.316 90.7987C274.51 83.0092 254.355 79 234 79C213.645 79 193.49 83.0092 174.684 90.7987C155.879 98.5882 138.792 110.005 124.398 124.398C110.005 138.792 98.5881 155.879 90.7987 174.684C83.0092 193.49 79 213.645 79 234L234 234H389Z" fill="white" fill-opacity="0.2"/>
<path d="M147.943 164L164.791 126.2H173.431L190.333 164H181.153L167.329 130.628H170.785L156.907 164H147.943ZM156.367 155.9L158.689 149.258H178.129L180.505 155.9H156.367ZM194.686 164V134.3C194.686 131.024 195.658 128.414 197.602 126.47C199.546 124.49 202.318 123.5 205.918 123.5C207.142 123.5 208.312 123.626 209.428 123.878C210.58 124.13 211.552 124.526 212.344 125.066L210.13 131.168C209.662 130.844 209.14 130.592 208.564 130.412C207.988 130.232 207.376 130.142 206.728 130.142C205.504 130.142 204.55 130.502 203.866 131.222C203.218 131.906 202.894 132.95 202.894 134.354V137.054L203.11 140.672V164H194.686ZM190.204 142.076V135.596H210.346V142.076H190.204ZM214.754 164V134.948H222.8V143.156L221.666 140.78C222.53 138.728 223.916 137.18 225.824 136.136C227.732 135.056 230.054 134.516 232.79 134.516V142.292C232.43 142.256 232.106 142.238 231.818 142.238C231.53 142.202 231.224 142.184 230.9 142.184C228.596 142.184 226.724 142.85 225.284 144.182C223.88 145.478 223.178 147.512 223.178 150.284V164H214.754ZM237.852 164V134.948H246.276V164H237.852ZM242.064 130.898C240.516 130.898 239.256 130.448 238.284 129.548C237.312 128.648 236.826 127.532 236.826 126.2C236.826 124.868 237.312 123.752 238.284 122.852C239.256 121.952 240.516 121.502 242.064 121.502C243.612 121.502 244.872 121.934 245.844 122.798C246.816 123.626 247.302 124.706 247.302 126.038C247.302 127.442 246.816 128.612 245.844 129.548C244.908 130.448 243.648 130.898 242.064 130.898ZM268.134 164.432C265.002 164.432 262.212 163.802 259.764 162.542C257.316 161.246 255.39 159.464 253.986 157.196C252.618 154.928 251.934 152.354 251.934 149.474C251.934 146.558 252.618 143.984 253.986 141.752C255.39 139.484 257.316 137.72 259.764 136.46C262.212 135.164 265.002 134.516 268.134 134.516C271.194 134.516 273.858 135.164 276.126 136.46C278.394 137.72 280.068 139.538 281.148 141.914L274.614 145.424C273.858 144.056 272.904 143.048 271.752 142.4C270.636 141.752 269.412 141.428 268.08 141.428C266.64 141.428 265.344 141.752 264.192 142.4C263.04 143.048 262.122 143.966 261.438 145.154C260.79 146.342 260.466 147.782 260.466 149.474C260.466 151.166 260.79 152.606 261.438 153.794C262.122 154.982 263.04 155.9 264.192 156.548C265.344 157.196 266.64 157.52 268.08 157.52C269.412 157.52 270.636 157.214 271.752 156.602C272.904 155.954 273.858 154.928 274.614 153.524L281.148 157.088C280.068 159.428 278.394 161.246 276.126 162.542C273.858 163.802 271.194 164.432 268.134 164.432ZM303.818 164V158.33L303.278 157.088V146.936C303.278 145.136 302.72 143.732 301.604 142.724C300.524 141.716 298.85 141.212 296.582 141.212C295.034 141.212 293.504 141.464 291.992 141.968C290.516 142.436 289.256 143.084 288.212 143.912L285.188 138.026C286.772 136.91 288.68 136.046 290.912 135.434C293.144 134.822 295.412 134.516 297.716 134.516C302.144 134.516 305.582 135.56 308.03 137.648C310.478 139.736 311.702 142.994 311.702 147.422V164H303.818ZM294.962 164.432C292.694 164.432 290.75 164.054 289.13 163.298C287.51 162.506 286.268 161.444 285.404 160.112C284.54 158.78 284.108 157.286 284.108 155.63C284.108 153.902 284.522 152.39 285.35 151.094C286.214 149.798 287.564 148.79 289.4 148.07C291.236 147.314 293.63 146.936 296.582 146.936H304.304V151.85H297.5C295.52 151.85 294.152 152.174 293.396 152.822C292.676 153.47 292.316 154.28 292.316 155.252C292.316 156.332 292.73 157.196 293.558 157.844C294.422 158.456 295.592 158.762 297.068 158.762C298.472 158.762 299.732 158.438 300.848 157.79C301.964 157.106 302.774 156.116 303.278 154.82L304.574 158.708C303.962 160.58 302.846 162.002 301.226 162.974C299.606 163.946 297.518 164.432 294.962 164.432ZM317.868 172.316L321.432 159.356L322.62 164.216C321.072 164.216 319.794 163.766 318.786 162.866C317.814 161.966 317.328 160.724 317.328 159.14C317.328 157.556 317.832 156.296 318.84 155.36C319.848 154.424 321.09 153.956 322.566 153.956C324.078 153.956 325.32 154.442 326.292 155.414C327.264 156.35 327.75 157.592 327.75 159.14C327.75 159.608 327.714 160.076 327.642 160.544C327.57 160.976 327.426 161.516 327.21 162.164C327.03 162.776 326.724 163.568 326.292 164.54L323.214 172.316H317.868ZM172.37 218V180.2H181.118V218H172.37ZM207.152 188.516C209.456 188.516 211.508 188.984 213.308 189.92C215.144 190.82 216.584 192.224 217.628 194.132C218.672 196.004 219.194 198.416 219.194 201.368V218H210.77V202.664C210.77 200.324 210.248 198.596 209.204 197.48C208.196 196.364 206.756 195.806 204.884 195.806C203.552 195.806 202.346 196.094 201.266 196.67C200.222 197.21 199.394 198.056 198.782 199.208C198.206 200.36 197.918 201.836 197.918 203.636V218H189.494V188.948H197.54V196.994L196.028 194.564C197.072 192.62 198.566 191.126 200.51 190.082C202.454 189.038 204.668 188.516 207.152 188.516ZM239.515 218.432C236.779 218.432 234.313 217.82 232.117 216.596C229.921 215.336 228.175 213.59 226.879 211.358C225.619 209.126 224.989 206.498 224.989 203.474C224.989 200.414 225.619 197.768 226.879 195.536C228.175 193.304 229.921 191.576 232.117 190.352C234.313 189.128 236.779 188.516 239.515 188.516C241.963 188.516 244.105 189.056 245.941 190.136C247.777 191.216 249.199 192.854 250.207 195.05C251.215 197.246 251.719 200.054 251.719 203.474C251.719 206.858 251.233 209.666 250.261 211.898C249.289 214.094 247.885 215.732 246.049 216.812C244.249 217.892 242.071 218.432 239.515 218.432ZM240.973 211.52C242.341 211.52 243.583 211.196 244.699 210.548C245.815 209.9 246.697 208.982 247.345 207.794C248.029 206.57 248.371 205.13 248.371 203.474C248.371 201.782 248.029 200.342 247.345 199.154C246.697 197.966 245.815 197.048 244.699 196.4C243.583 195.752 242.341 195.428 240.973 195.428C239.569 195.428 238.309 195.752 237.193 196.4C236.077 197.048 235.177 197.966 234.493 199.154C233.845 200.342 233.521 201.782 233.521 203.474C233.521 205.13 233.845 206.57 234.493 207.794C235.177 208.982 236.077 209.9 237.193 210.548C238.309 211.196 239.569 211.52 240.973 211.52ZM248.587 218V212.06L248.749 203.42L248.209 194.834V177.932H256.633V218H248.587ZM264.43 218V188.948H272.854V218H264.43ZM268.642 184.898C267.094 184.898 265.834 184.448 264.862 183.548C263.89 182.648 263.404 181.532 263.404 180.2C263.404 178.868 263.89 177.752 264.862 176.852C265.834 175.952 267.094 175.502 268.642 175.502C270.19 175.502 271.45 175.934 272.422 176.798C273.394 177.626 273.88 178.706 273.88 180.038C273.88 181.442 273.394 182.612 272.422 183.548C271.486 184.448 270.226 184.898 268.642 184.898ZM298.492 218V212.33L297.952 211.088V200.936C297.952 199.136 297.394 197.732 296.278 196.724C295.198 195.716 293.524 195.212 291.256 195.212C289.708 195.212 288.178 195.464 286.666 195.968C285.19 196.436 283.93 197.084 282.886 197.912L279.862 192.026C281.446 190.91 283.354 190.046 285.586 189.434C287.818 188.822 290.086 188.516 292.39 188.516C296.818 188.516 300.256 189.56 302.704 191.648C305.152 193.736 306.376 196.994 306.376 201.422V218H298.492ZM289.636 218.432C287.368 218.432 285.424 218.054 283.804 217.298C282.184 216.506 280.942 215.444 280.078 214.112C279.214 212.78 278.782 211.286 278.782 209.63C278.782 207.902 279.196 206.39 280.024 205.094C280.888 203.798 282.238 202.79 284.074 202.07C285.91 201.314 288.304 200.936 291.256 200.936H298.978V205.85H292.174C290.194 205.85 288.826 206.174 288.07 206.822C287.35 207.47 286.99 208.28 286.99 209.252C286.99 210.332 287.404 211.196 288.232 211.844C289.096 212.456 290.266 212.762 291.742 212.762C293.146 212.762 294.406 212.438 295.522 211.79C296.638 211.106 297.448 210.116 297.952 208.82L299.248 212.708C298.636 214.58 297.52 216.002 295.9 216.974C294.28 217.946 292.192 218.432 289.636 218.432Z" fill="white"/>
</svg>
