<svg width="468" height="468" viewBox="0 0 468 468" fill="none" xmlns="http://www.w3.org/2000/svg">
<circle cx="234" cy="234" r="218" fill="#101D28" stroke="#BBDDFA" stroke-width="32"/>
<path d="M436 234C436 207.473 430.775 181.206 420.624 156.698C410.472 132.19 395.593 109.922 376.836 91.1644C358.078 72.407 335.81 57.5278 311.302 47.3763C286.794 37.2249 260.527 32 234 32C207.473 32 181.206 37.2249 156.698 47.3763C132.19 57.5278 109.922 72.407 91.1644 91.1644C72.407 109.922 57.5278 132.19 47.3763 156.698C37.2249 181.206 32 207.473 32 234L234 234H436Z" fill="#428BCC"/>
<path d="M389 234C389 213.645 384.991 193.49 377.201 174.684C369.412 155.879 357.995 138.792 343.602 124.398C329.208 110.005 312.121 98.5882 293.316 90.7987C274.51 83.0092 254.355 79 234 79C213.645 79 193.49 83.0092 174.684 90.7987C155.879 98.5882 138.792 110.005 124.398 124.398C110.005 138.792 98.5881 155.879 90.7987 174.684C83.0092 193.49 79 213.645 79 234L234 234H389Z" fill="white" fill-opacity="0.2"/>
<path d="M152.611 310V262.4H159.411V304.084H185.183V310H152.611ZM192.034 310V273.96H198.562V310H192.034ZM195.298 267.024C194.028 267.024 192.963 266.616 192.102 265.8C191.286 264.984 190.878 263.987 190.878 262.808C190.878 261.584 191.286 260.564 192.102 259.748C192.963 258.932 194.028 258.524 195.298 258.524C196.567 258.524 197.61 258.932 198.426 259.748C199.287 260.519 199.718 261.493 199.718 262.672C199.718 263.896 199.31 264.939 198.494 265.8C197.678 266.616 196.612 267.024 195.298 267.024ZM220.478 310L204.702 273.96H211.502L225.51 306.6H222.246L236.526 273.96H242.918L227.142 310H220.478ZM264.062 310.408C260.209 310.408 256.809 309.615 253.862 308.028C250.961 306.441 248.694 304.265 247.062 301.5C245.476 298.735 244.682 295.561 244.682 291.98C244.682 288.399 245.453 285.225 246.994 282.46C248.581 279.695 250.734 277.541 253.454 276C256.22 274.413 259.325 273.62 262.77 273.62C266.261 273.62 269.344 274.391 272.018 275.932C274.693 277.473 276.778 279.649 278.274 282.46C279.816 285.225 280.586 288.467 280.586 292.184C280.586 292.456 280.564 292.773 280.518 293.136C280.518 293.499 280.496 293.839 280.45 294.156H249.782V289.464H277.05L274.398 291.096C274.444 288.784 273.968 286.721 272.97 284.908C271.973 283.095 270.59 281.689 268.822 280.692C267.1 279.649 265.082 279.128 262.77 279.128C260.504 279.128 258.486 279.649 256.718 280.692C254.95 281.689 253.568 283.117 252.57 284.976C251.573 286.789 251.074 288.875 251.074 291.232V292.32C251.074 294.723 251.618 296.876 252.706 298.78C253.84 300.639 255.404 302.089 257.398 303.132C259.393 304.175 261.682 304.696 264.266 304.696C266.397 304.696 268.324 304.333 270.046 303.608C271.814 302.883 273.356 301.795 274.67 300.344L278.274 304.56C276.642 306.464 274.602 307.915 272.154 308.912C269.752 309.909 267.054 310.408 264.062 310.408ZM299.987 310.408C296.995 310.408 294.139 310 291.419 309.184C288.744 308.368 286.636 307.371 285.095 306.192L287.815 301.024C289.356 302.067 291.26 302.951 293.527 303.676C295.794 304.401 298.106 304.764 300.463 304.764C303.5 304.764 305.676 304.333 306.991 303.472C308.351 302.611 309.031 301.409 309.031 299.868C309.031 298.735 308.623 297.851 307.807 297.216C306.991 296.581 305.903 296.105 304.543 295.788C303.228 295.471 301.755 295.199 300.123 294.972C298.491 294.7 296.859 294.383 295.227 294.02C293.595 293.612 292.099 293.068 290.739 292.388C289.379 291.663 288.291 290.688 287.475 289.464C286.659 288.195 286.251 286.517 286.251 284.432C286.251 282.256 286.863 280.352 288.087 278.72C289.311 277.088 291.034 275.841 293.255 274.98C295.522 274.073 298.196 273.62 301.279 273.62C303.636 273.62 306.016 273.915 308.419 274.504C310.867 275.048 312.862 275.841 314.403 276.884L311.615 282.052C309.983 280.964 308.283 280.216 306.515 279.808C304.747 279.4 302.979 279.196 301.211 279.196C298.355 279.196 296.224 279.672 294.819 280.624C293.414 281.531 292.711 282.709 292.711 284.16C292.711 285.384 293.119 286.336 293.935 287.016C294.796 287.651 295.884 288.149 297.199 288.512C298.559 288.875 300.055 289.192 301.687 289.464C303.319 289.691 304.951 290.008 306.583 290.416C308.215 290.779 309.688 291.3 311.003 291.98C312.363 292.66 313.451 293.612 314.267 294.836C315.128 296.06 315.559 297.692 315.559 299.732C315.559 301.908 314.924 303.789 313.655 305.376C312.386 306.963 310.595 308.209 308.283 309.116C305.971 309.977 303.206 310.408 299.987 310.408ZM178.173 349.256C176.466 349.256 174.888 348.979 173.437 348.424C172.008 347.848 170.76 347.048 169.693 346.024C168.648 344.979 167.826 343.763 167.229 342.376C166.632 340.989 166.333 339.464 166.333 337.8C166.333 336.136 166.632 334.611 167.229 333.224C167.826 331.837 168.658 330.632 169.725 329.608C170.792 328.563 172.04 327.763 173.469 327.208C174.92 326.632 176.498 326.344 178.205 326.344C179.933 326.344 181.522 326.643 182.973 327.24C184.445 327.816 185.693 328.68 186.717 329.832L184.637 331.848C183.784 330.952 182.824 330.291 181.757 329.864C180.69 329.416 179.549 329.192 178.333 329.192C177.074 329.192 175.901 329.405 174.813 329.832C173.746 330.259 172.818 330.856 172.029 331.624C171.24 332.392 170.621 333.309 170.173 334.376C169.746 335.421 169.533 336.563 169.533 337.8C169.533 339.037 169.746 340.189 170.173 341.256C170.621 342.301 171.24 343.208 172.029 343.976C172.818 344.744 173.746 345.341 174.813 345.768C175.901 346.195 177.074 346.408 178.333 346.408C179.549 346.408 180.69 346.195 181.757 345.768C182.824 345.32 183.784 344.637 184.637 343.72L186.717 345.736C185.693 346.888 184.445 347.763 182.973 348.36C181.522 348.957 179.922 349.256 178.173 349.256ZM197.379 349.192C195.672 349.192 194.158 348.819 192.835 348.072C191.512 347.325 190.467 346.301 189.699 345C188.931 343.677 188.547 342.184 188.547 340.52C188.547 338.835 188.931 337.341 189.699 336.04C190.467 334.739 191.512 333.725 192.835 333C194.158 332.253 195.672 331.88 197.379 331.88C199.064 331.88 200.568 332.253 201.891 333C203.235 333.725 204.28 334.739 205.027 336.04C205.795 337.32 206.179 338.813 206.179 340.52C206.179 342.205 205.795 343.699 205.027 345C204.28 346.301 203.235 347.325 201.891 348.072C200.568 348.819 199.064 349.192 197.379 349.192ZM197.379 346.504C198.467 346.504 199.438 346.259 200.291 345.768C201.166 345.277 201.848 344.584 202.339 343.688C202.83 342.771 203.075 341.715 203.075 340.52C203.075 339.304 202.83 338.259 202.339 337.384C201.848 336.488 201.166 335.795 200.291 335.304C199.438 334.813 198.467 334.568 197.379 334.568C196.291 334.568 195.32 334.813 194.467 335.304C193.614 335.795 192.931 336.488 192.419 337.384C191.907 338.259 191.651 339.304 191.651 340.52C191.651 341.715 191.907 342.771 192.419 343.688C192.931 344.584 193.614 345.277 194.467 345.768C195.32 346.259 196.291 346.504 197.379 346.504ZM214.407 349L206.983 332.04H210.183L216.775 347.4H215.239L221.959 332.04H224.967L217.543 349H214.407ZM234.917 349.192C233.104 349.192 231.504 348.819 230.117 348.072C228.752 347.325 227.685 346.301 226.917 345C226.17 343.699 225.797 342.205 225.797 340.52C225.797 338.835 226.16 337.341 226.885 336.04C227.632 334.739 228.645 333.725 229.925 333C231.226 332.253 232.688 331.88 234.309 331.88C235.952 331.88 237.402 332.243 238.661 332.968C239.92 333.693 240.901 334.717 241.605 336.04C242.33 337.341 242.693 338.867 242.693 340.616C242.693 340.744 242.682 340.893 242.661 341.064C242.661 341.235 242.65 341.395 242.629 341.544H228.197V339.336H241.029L239.781 340.104C239.802 339.016 239.578 338.045 239.109 337.192C238.64 336.339 237.989 335.677 237.157 335.208C236.346 334.717 235.397 334.472 234.309 334.472C233.242 334.472 232.293 334.717 231.461 335.208C230.629 335.677 229.978 336.349 229.509 337.224C229.04 338.077 228.805 339.059 228.805 340.168V340.68C228.805 341.811 229.061 342.824 229.573 343.72C230.106 344.595 230.842 345.277 231.781 345.768C232.72 346.259 233.797 346.504 235.013 346.504C236.016 346.504 236.922 346.333 237.733 345.992C238.565 345.651 239.29 345.139 239.909 344.456L241.605 346.44C240.837 347.336 239.877 348.019 238.725 348.488C237.594 348.957 236.325 349.192 234.917 349.192ZM246.959 349V332.04H249.903V336.648L249.615 335.496C250.084 334.323 250.874 333.427 251.983 332.808C253.092 332.189 254.458 331.88 256.079 331.88V334.856C255.951 334.835 255.823 334.824 255.695 334.824C255.588 334.824 255.482 334.824 255.375 334.824C253.732 334.824 252.431 335.315 251.471 336.296C250.511 337.277 250.031 338.696 250.031 340.552V349H246.959ZM267.261 349.192C265.448 349.192 263.848 348.819 262.461 348.072C261.096 347.325 260.029 346.301 259.261 345C258.514 343.699 258.141 342.205 258.141 340.52C258.141 338.835 258.504 337.341 259.229 336.04C259.976 334.739 260.989 333.725 262.269 333C263.57 332.253 265.032 331.88 266.653 331.88C268.296 331.88 269.746 332.243 271.005 332.968C272.264 333.693 273.245 334.717 273.949 336.04C274.674 337.341 275.037 338.867 275.037 340.616C275.037 340.744 275.026 340.893 275.005 341.064C275.005 341.235 274.994 341.395 274.973 341.544H260.541V339.336H273.373L272.125 340.104C272.146 339.016 271.922 338.045 271.453 337.192C270.984 336.339 270.333 335.677 269.501 335.208C268.69 334.717 267.741 334.472 266.653 334.472C265.586 334.472 264.637 334.717 263.805 335.208C262.973 335.677 262.322 336.349 261.853 337.224C261.384 338.077 261.149 339.059 261.149 340.168V340.68C261.149 341.811 261.405 342.824 261.917 343.72C262.45 344.595 263.186 345.277 264.125 345.768C265.064 346.259 266.141 346.504 267.357 346.504C268.36 346.504 269.266 346.333 270.077 345.992C270.909 345.651 271.634 345.139 272.253 344.456L273.949 346.44C273.181 347.336 272.221 348.019 271.069 348.488C269.938 348.957 268.669 349.192 267.261 349.192ZM286.311 349.192C284.668 349.192 283.196 348.829 281.895 348.104C280.615 347.379 279.601 346.365 278.855 345.064C278.108 343.763 277.735 342.248 277.735 340.52C277.735 338.792 278.108 337.288 278.855 336.008C279.601 334.707 280.615 333.693 281.895 332.968C283.196 332.243 284.668 331.88 286.311 331.88C287.74 331.88 289.031 332.2 290.183 332.84C291.335 333.48 292.252 334.44 292.935 335.72C293.639 337 293.991 338.6 293.991 340.52C293.991 342.44 293.649 344.04 292.967 345.32C292.305 346.6 291.399 347.571 290.247 348.232C289.095 348.872 287.783 349.192 286.311 349.192ZM286.567 346.504C287.633 346.504 288.593 346.259 289.447 345.768C290.321 345.277 291.004 344.584 291.495 343.688C292.007 342.771 292.263 341.715 292.263 340.52C292.263 339.304 292.007 338.259 291.495 337.384C291.004 336.488 290.321 335.795 289.447 335.304C288.593 334.813 287.633 334.568 286.567 334.568C285.479 334.568 284.508 334.813 283.655 335.304C282.801 335.795 282.119 336.488 281.607 337.384C281.095 338.259 280.839 339.304 280.839 340.52C280.839 341.715 281.095 342.771 281.607 343.688C282.119 344.584 282.801 345.277 283.655 345.768C284.508 346.259 285.479 346.504 286.567 346.504ZM292.359 349V344.424L292.551 340.488L292.231 336.552V325.256H295.303V349H292.359Z" fill="white"/>
<path d="M115.379 218V181.52L119.369 185.51H107.399V178.1H124.613V218H115.379ZM137.7 218V181.52L141.69 185.51H129.72V178.1H146.934V218H137.7ZM211.162 186.878C213.594 186.878 215.741 187.372 217.603 188.36C219.503 189.31 220.985 190.792 222.049 192.806C223.151 194.782 223.702 197.328 223.702 200.444V218H214.81V201.812C214.81 199.342 214.297 197.518 213.271 196.34C212.245 195.162 210.801 194.573 208.939 194.573C207.647 194.573 206.488 194.877 205.462 195.485C204.436 196.055 203.638 196.929 203.068 198.107C202.498 199.285 202.213 200.786 202.213 202.61V218H193.321V201.812C193.321 199.342 192.808 197.518 191.782 196.34C190.794 195.162 189.369 194.573 187.507 194.573C186.215 194.573 185.056 194.877 184.03 195.485C183.004 196.055 182.206 196.929 181.636 198.107C181.066 199.285 180.781 200.786 180.781 202.61V218H171.889V187.334H180.382V195.713L178.786 193.262C179.85 191.172 181.351 189.595 183.289 188.531C185.265 187.429 187.507 186.878 190.015 186.878C192.827 186.878 195.278 187.6 197.368 189.044C199.496 190.45 200.902 192.616 201.586 195.542L198.451 194.687C199.477 192.293 201.111 190.393 203.353 188.987C205.633 187.581 208.236 186.878 211.162 186.878ZM231.672 218V187.334H240.564V218H231.672ZM236.118 183.059C234.484 183.059 233.154 182.584 232.128 181.634C231.102 180.684 230.589 179.506 230.589 178.1C230.589 176.694 231.102 175.516 232.128 174.566C233.154 173.616 234.484 173.141 236.118 173.141C237.752 173.141 239.082 173.597 240.108 174.509C241.134 175.383 241.647 176.523 241.647 177.929C241.647 179.411 241.134 180.646 240.108 181.634C239.12 182.584 237.79 183.059 236.118 183.059ZM248.817 218V175.706H257.709V218H248.817ZM265.961 218V175.706H274.853V218H265.961ZM283.106 218V187.334H291.998V218H283.106ZM287.552 183.059C285.918 183.059 284.588 182.584 283.562 181.634C282.536 180.684 282.023 179.506 282.023 178.1C282.023 176.694 282.536 175.516 283.562 174.566C284.588 173.616 285.918 173.141 287.552 173.141C289.186 173.141 290.516 173.597 291.542 174.509C292.568 175.383 293.081 176.523 293.081 177.929C293.081 179.411 292.568 180.646 291.542 181.634C290.554 182.584 289.224 183.059 287.552 183.059ZM314.842 218.456C311.574 218.456 308.667 217.772 306.121 216.404C303.613 215.036 301.618 213.174 300.136 210.818C298.692 208.424 297.97 205.707 297.97 202.667C297.97 199.589 298.692 196.872 300.136 194.516C301.618 192.122 303.613 190.26 306.121 188.93C308.667 187.562 311.574 186.878 314.842 186.878C318.072 186.878 320.96 187.562 323.506 188.93C326.052 190.26 328.047 192.103 329.491 194.459C330.935 196.815 331.657 199.551 331.657 202.667C331.657 205.707 330.935 208.424 329.491 210.818C328.047 213.174 326.052 215.036 323.506 216.404C320.96 217.772 318.072 218.456 314.842 218.456ZM314.842 211.16C316.324 211.16 317.654 210.818 318.832 210.134C320.01 209.45 320.941 208.481 321.625 207.227C322.309 205.935 322.651 204.415 322.651 202.667C322.651 200.881 322.309 199.361 321.625 198.107C320.941 196.853 320.01 195.884 318.832 195.2C317.654 194.516 316.324 194.174 314.842 194.174C313.36 194.174 312.03 194.516 310.852 195.2C309.674 195.884 308.724 196.853 308.002 198.107C307.318 199.361 306.976 200.881 306.976 202.667C306.976 204.415 307.318 205.935 308.002 207.227C308.724 208.481 309.674 209.45 310.852 210.134C312.03 210.818 313.36 211.16 314.842 211.16ZM356.24 186.878C358.672 186.878 360.838 187.372 362.738 188.36C364.676 189.31 366.196 190.792 367.298 192.806C368.4 194.782 368.951 197.328 368.951 200.444V218H360.059V201.812C360.059 199.342 359.508 197.518 358.406 196.34C357.342 195.162 355.822 194.573 353.846 194.573C352.44 194.573 351.167 194.877 350.027 195.485C348.925 196.055 348.051 196.948 347.405 198.164C346.797 199.38 346.493 200.938 346.493 202.838V218H337.601V187.334H346.094V195.827L344.498 193.262C345.6 191.21 347.177 189.633 349.229 188.531C351.281 187.429 353.618 186.878 356.24 186.878Z" fill="white"/>
</svg>
