<svg width="351" height="316" viewBox="0 0 351 316" fill="none" xmlns="http://www.w3.org/2000/svg">
<path d="M1 201V262C1 275.807 12.1929 287 26 287H49" stroke="white" stroke-width="2"/>
<path d="M350 87V26C350 12.1929 338.807 0.999999 325 0.999999H302" stroke="white" stroke-width="2"/>
<rect x="1" y="1" width="349" height="286" rx="24" fill="white" fill-opacity="0.05"/>
<rect x="49" y="235" width="253" height="81" rx="28" fill="#4F4F4F"/>
<path d="M121.247 271.58H116.997C116.876 270.883 116.652 270.265 116.327 269.727C116.001 269.182 115.596 268.72 115.111 268.341C114.626 267.962 114.073 267.678 113.452 267.489C112.838 267.292 112.175 267.193 111.463 267.193C110.198 267.193 109.077 267.511 108.099 268.148C107.122 268.777 106.357 269.701 105.804 270.92C105.251 272.133 104.974 273.614 104.974 275.364C104.974 277.144 105.251 278.644 105.804 279.864C106.365 281.076 107.13 281.992 108.099 282.614C109.077 283.227 110.194 283.534 111.452 283.534C112.149 283.534 112.8 283.443 113.406 283.261C114.02 283.072 114.569 282.795 115.054 282.432C115.546 282.068 115.959 281.621 116.293 281.091C116.634 280.561 116.868 279.955 116.997 279.273L121.247 279.295C121.088 280.402 120.743 281.439 120.213 282.409C119.69 283.379 119.005 284.235 118.156 284.977C117.308 285.712 116.315 286.288 115.179 286.705C114.043 287.114 112.781 287.318 111.395 287.318C109.349 287.318 107.524 286.845 105.918 285.898C104.312 284.951 103.046 283.583 102.122 281.795C101.198 280.008 100.736 277.864 100.736 275.364C100.736 272.856 101.202 270.712 102.134 268.932C103.065 267.144 104.334 265.777 105.94 264.83C107.546 263.883 109.365 263.409 111.395 263.409C112.69 263.409 113.895 263.591 115.009 263.955C116.122 264.318 117.115 264.852 117.986 265.557C118.857 266.254 119.573 267.11 120.134 268.125C120.702 269.133 121.073 270.284 121.247 271.58ZM132.54 287.341C130.835 287.341 129.358 286.966 128.108 286.216C126.858 285.466 125.888 284.417 125.199 283.068C124.517 281.72 124.176 280.144 124.176 278.341C124.176 276.538 124.517 274.958 125.199 273.602C125.888 272.246 126.858 271.193 128.108 270.443C129.358 269.693 130.835 269.318 132.54 269.318C134.244 269.318 135.722 269.693 136.972 270.443C138.222 271.193 139.188 272.246 139.869 273.602C140.559 274.958 140.903 276.538 140.903 278.341C140.903 280.144 140.559 281.72 139.869 283.068C139.188 284.417 138.222 285.466 136.972 286.216C135.722 286.966 134.244 287.341 132.54 287.341ZM132.562 284.045C133.487 284.045 134.259 283.792 134.881 283.284C135.502 282.769 135.964 282.08 136.267 281.216C136.578 280.352 136.733 279.39 136.733 278.33C136.733 277.261 136.578 276.295 136.267 275.432C135.964 274.561 135.502 273.867 134.881 273.352C134.259 272.837 133.487 272.58 132.562 272.58C131.616 272.58 130.828 272.837 130.199 273.352C129.578 273.867 129.112 274.561 128.801 275.432C128.498 276.295 128.347 277.261 128.347 278.33C128.347 279.39 128.498 280.352 128.801 281.216C129.112 282.08 129.578 282.769 130.199 283.284C130.828 283.792 131.616 284.045 132.562 284.045ZM155.52 279.659V269.545H159.634V287H155.645V283.898H155.463C155.069 284.875 154.421 285.674 153.52 286.295C152.626 286.917 151.524 287.227 150.213 287.227C149.069 287.227 148.058 286.973 147.179 286.466C146.308 285.951 145.626 285.205 145.134 284.227C144.641 283.242 144.395 282.053 144.395 280.659V269.545H148.509V280.023C148.509 281.129 148.812 282.008 149.418 282.659C150.024 283.311 150.819 283.636 151.804 283.636C152.41 283.636 152.997 283.489 153.565 283.193C154.134 282.898 154.599 282.458 154.963 281.875C155.334 281.284 155.52 280.545 155.52 279.659ZM167.977 276.773V287H163.864V269.545H167.795V272.511H168C168.402 271.534 169.042 270.758 169.92 270.182C170.807 269.606 171.902 269.318 173.205 269.318C174.409 269.318 175.458 269.576 176.352 270.091C177.254 270.606 177.951 271.352 178.443 272.33C178.943 273.307 179.189 274.492 179.182 275.886V287H175.068V276.523C175.068 275.356 174.765 274.443 174.159 273.784C173.561 273.125 172.731 272.795 171.67 272.795C170.951 272.795 170.311 272.955 169.75 273.273C169.197 273.583 168.761 274.034 168.443 274.625C168.133 275.216 167.977 275.932 167.977 276.773ZM192.08 269.545V272.727H182.045V269.545H192.08ZM184.523 265.364H188.636V281.75C188.636 282.303 188.72 282.727 188.886 283.023C189.061 283.311 189.288 283.508 189.568 283.614C189.848 283.72 190.159 283.773 190.5 283.773C190.758 283.773 190.992 283.754 191.205 283.716C191.424 283.678 191.591 283.644 191.705 283.614L192.398 286.83C192.178 286.905 191.864 286.989 191.455 287.08C191.053 287.17 190.561 287.223 189.977 287.239C188.947 287.269 188.019 287.114 187.193 286.773C186.367 286.424 185.712 285.886 185.227 285.159C184.75 284.432 184.515 283.523 184.523 282.432V265.364ZM195.52 287V269.545H199.509V272.455H199.69C200.009 271.447 200.554 270.67 201.327 270.125C202.107 269.572 202.997 269.295 203.997 269.295C204.224 269.295 204.478 269.307 204.759 269.33C205.046 269.345 205.285 269.371 205.474 269.409V273.193C205.3 273.133 205.024 273.08 204.645 273.034C204.274 272.981 203.914 272.955 203.565 272.955C202.815 272.955 202.141 273.117 201.543 273.443C200.952 273.761 200.486 274.205 200.145 274.773C199.804 275.341 199.634 275.996 199.634 276.739V287H195.52ZM208.207 287V269.545H212.321V287H208.207ZM210.276 267.068C209.624 267.068 209.063 266.852 208.594 266.42C208.124 265.981 207.889 265.455 207.889 264.841C207.889 264.22 208.124 263.693 208.594 263.261C209.063 262.822 209.624 262.602 210.276 262.602C210.935 262.602 211.495 262.822 211.957 263.261C212.427 263.693 212.662 264.22 212.662 264.841C212.662 265.455 212.427 265.981 211.957 266.42C211.495 266.852 210.935 267.068 210.276 267.068ZM224.278 287.341C222.528 287.341 221.017 286.977 219.744 286.25C218.479 285.515 217.506 284.477 216.824 283.136C216.142 281.788 215.801 280.201 215.801 278.375C215.801 276.58 216.142 275.004 216.824 273.648C217.513 272.284 218.475 271.223 219.71 270.466C220.945 269.701 222.396 269.318 224.062 269.318C225.138 269.318 226.153 269.492 227.108 269.841C228.07 270.182 228.919 270.712 229.653 271.432C230.396 272.152 230.979 273.068 231.403 274.182C231.828 275.288 232.04 276.606 232.04 278.136V279.398H217.733V276.625H228.097C228.089 275.837 227.919 275.136 227.585 274.523C227.252 273.902 226.786 273.413 226.188 273.057C225.597 272.701 224.907 272.523 224.119 272.523C223.278 272.523 222.54 272.727 221.903 273.136C221.267 273.538 220.771 274.068 220.415 274.727C220.066 275.379 219.888 276.095 219.881 276.875V279.295C219.881 280.311 220.066 281.182 220.438 281.909C220.809 282.629 221.328 283.182 221.994 283.568C222.661 283.947 223.441 284.136 224.335 284.136C224.934 284.136 225.475 284.053 225.96 283.886C226.445 283.712 226.866 283.458 227.222 283.125C227.578 282.792 227.847 282.379 228.028 281.886L231.869 282.318C231.627 283.333 231.165 284.22 230.483 284.977C229.809 285.727 228.945 286.311 227.892 286.727C226.839 287.136 225.634 287.341 224.278 287.341ZM249.315 274.159L245.565 274.568C245.459 274.189 245.274 273.833 245.009 273.5C244.751 273.167 244.402 272.898 243.963 272.693C243.524 272.489 242.986 272.386 242.349 272.386C241.493 272.386 240.774 272.572 240.19 272.943C239.615 273.314 239.33 273.795 239.338 274.386C239.33 274.894 239.516 275.307 239.895 275.625C240.281 275.943 240.918 276.205 241.804 276.409L244.781 277.045C246.433 277.402 247.66 277.966 248.463 278.739C249.274 279.511 249.683 280.523 249.69 281.773C249.683 282.871 249.361 283.841 248.724 284.682C248.096 285.515 247.221 286.167 246.099 286.636C244.978 287.106 243.69 287.341 242.236 287.341C240.099 287.341 238.38 286.894 237.077 286C235.774 285.098 234.997 283.845 234.747 282.239L238.759 281.852C238.94 282.64 239.327 283.235 239.918 283.636C240.509 284.038 241.277 284.239 242.224 284.239C243.202 284.239 243.986 284.038 244.577 283.636C245.175 283.235 245.474 282.739 245.474 282.148C245.474 281.648 245.281 281.235 244.895 280.909C244.516 280.583 243.925 280.333 243.122 280.159L240.145 279.534C238.471 279.186 237.232 278.598 236.429 277.773C235.626 276.939 235.228 275.886 235.236 274.614C235.228 273.538 235.52 272.606 236.111 271.818C236.709 271.023 237.539 270.409 238.599 269.977C239.668 269.538 240.899 269.318 242.293 269.318C244.338 269.318 245.948 269.754 247.122 270.625C248.304 271.496 249.035 272.674 249.315 274.159Z" fill="white"/>
<path d="M164.311 125.12L138.271 84.08H158.311L174.991 112.16H175.951L192.631 84.08H212.671L186.631 125.12L214.831 170H194.671L175.951 139.04H174.991L156.271 170H136.111L164.311 125.12Z" fill="#5BEBFF"/>
</svg>
