<svg width="468" height="468" viewBox="0 0 468 468" fill="none" xmlns="http://www.w3.org/2000/svg">
<circle cx="234" cy="234" r="218" fill="#101D28" stroke="#BBDDFA" stroke-width="32"/>
<path d="M436 234C436 207.473 430.775 181.206 420.624 156.698C410.472 132.19 395.593 109.922 376.836 91.1644C358.078 72.407 335.81 57.5278 311.302 47.3763C286.794 37.2249 260.527 32 234 32C207.473 32 181.206 37.2249 156.698 47.3763C132.19 57.5278 109.922 72.407 91.1644 91.1644C72.407 109.922 57.5278 132.19 47.3763 156.698C37.2249 181.206 32 207.473 32 234L234 234H436Z" fill="#428BCC"/>
<path d="M103.877 306.512C100.464 306.512 97.3063 305.957 94.405 304.848C91.5463 303.696 89.0503 302.096 86.917 300.048C84.8263 297.957 83.1837 295.525 81.989 292.752C80.7943 289.979 80.197 286.928 80.197 283.6C80.197 280.272 80.7943 277.221 81.989 274.448C83.1837 271.675 84.8477 269.264 86.981 267.216C89.1143 265.125 91.6103 263.525 94.469 262.416C97.3703 261.264 100.528 260.688 103.941 260.688C107.397 260.688 110.576 261.285 113.477 262.48C116.421 263.632 118.917 265.36 120.965 267.664L116.805 271.696C115.098 269.904 113.178 268.581 111.045 267.728C108.912 266.832 106.629 266.384 104.197 266.384C101.68 266.384 99.333 266.811 97.157 267.664C95.0237 268.517 93.1677 269.712 91.589 271.248C90.0103 272.784 88.773 274.619 87.877 276.752C87.0237 278.843 86.597 281.125 86.597 283.6C86.597 286.075 87.0237 288.379 87.877 290.512C88.773 292.603 90.0103 294.416 91.589 295.952C93.1677 297.488 95.0237 298.683 97.157 299.536C99.333 300.389 101.68 300.816 104.197 300.816C106.629 300.816 108.912 300.389 111.045 299.536C113.178 298.64 115.098 297.275 116.805 295.44L120.965 299.472C118.917 301.776 116.421 303.525 113.477 304.72C110.576 305.915 107.376 306.512 103.877 306.512ZM142.29 306.384C138.876 306.384 135.847 305.637 133.202 304.144C130.556 302.651 128.466 300.603 126.93 298C125.394 295.355 124.626 292.368 124.626 289.04C124.626 285.669 125.394 282.683 126.93 280.08C128.466 277.477 130.556 275.451 133.202 274C135.847 272.507 138.876 271.76 142.29 271.76C145.66 271.76 148.668 272.507 151.314 274C154.002 275.451 156.092 277.477 157.586 280.08C159.122 282.64 159.89 285.627 159.89 289.04C159.89 292.411 159.122 295.397 157.586 298C156.092 300.603 154.002 302.651 151.314 304.144C148.668 305.637 145.66 306.384 142.29 306.384ZM142.29 301.008C144.466 301.008 146.407 300.517 148.114 299.536C149.863 298.555 151.228 297.168 152.21 295.376C153.191 293.541 153.682 291.429 153.682 289.04C153.682 286.608 153.191 284.517 152.21 282.768C151.228 280.976 149.863 279.589 148.114 278.608C146.407 277.627 144.466 277.136 142.29 277.136C140.114 277.136 138.172 277.627 136.466 278.608C134.759 279.589 133.394 280.976 132.37 282.768C131.346 284.517 130.834 286.608 130.834 289.04C130.834 291.429 131.346 293.541 132.37 295.376C133.394 297.168 134.759 298.555 136.466 299.536C138.172 300.517 140.114 301.008 142.29 301.008ZM182.659 306.384C179.757 306.384 177.197 305.851 174.979 304.784C172.803 303.717 171.096 302.096 169.859 299.92C168.664 297.701 168.067 294.928 168.067 291.6V272.08H174.211V290.896C174.211 294.224 175 296.72 176.579 298.384C178.2 300.048 180.461 300.88 183.363 300.88C185.496 300.88 187.352 300.453 188.931 299.6C190.509 298.704 191.725 297.424 192.579 295.76C193.432 294.053 193.859 292.005 193.859 289.616V272.08H200.003V306H194.179V296.848L195.139 299.28C194.029 301.541 192.365 303.291 190.147 304.528C187.928 305.765 185.432 306.384 182.659 306.384ZM229.811 271.76C232.584 271.76 235.016 272.293 237.107 273.36C239.24 274.427 240.904 276.048 242.099 278.224C243.294 280.4 243.891 283.152 243.891 286.48V306H237.747V287.184C237.747 283.899 236.936 281.424 235.315 279.76C233.736 278.096 231.496 277.264 228.595 277.264C226.419 277.264 224.52 277.691 222.899 278.544C221.278 279.397 220.019 280.656 219.123 282.32C218.27 283.984 217.843 286.053 217.843 288.528V306H211.699V272.08H217.587V281.232L216.627 278.8C217.736 276.581 219.443 274.853 221.747 273.616C224.051 272.379 226.739 271.76 229.811 271.76ZM266.91 306.384C263.496 306.384 260.851 305.467 258.974 303.632C257.096 301.797 256.158 299.173 256.158 295.76V264.656H262.302V295.504C262.302 297.339 262.75 298.747 263.646 299.728C264.584 300.709 265.907 301.2 267.614 301.2C269.534 301.2 271.134 300.667 272.414 299.6L274.334 304.016C273.395 304.827 272.264 305.424 270.942 305.808C269.662 306.192 268.318 306.384 266.91 306.384ZM250.398 277.136V272.08H272.03V277.136H250.398ZM281.762 306V272.08H287.65V281.296L287.074 278.992C288.012 276.645 289.591 274.853 291.81 273.616C294.028 272.379 296.759 271.76 300.002 271.76V277.712C299.746 277.669 299.49 277.648 299.234 277.648C299.02 277.648 298.807 277.648 298.594 277.648C295.308 277.648 292.706 278.629 290.786 280.592C288.866 282.555 287.906 285.392 287.906 289.104V306H281.762ZM307.574 306V272.08H313.718V306H307.574ZM310.646 265.552C309.451 265.552 308.449 265.168 307.638 264.4C306.87 263.632 306.486 262.693 306.486 261.584C306.486 260.432 306.87 259.472 307.638 258.704C308.449 257.936 309.451 257.552 310.646 257.552C311.841 257.552 312.822 257.936 313.59 258.704C314.401 259.429 314.806 260.347 314.806 261.456C314.806 262.608 314.422 263.589 313.654 264.4C312.886 265.168 311.883 265.552 310.646 265.552ZM340.553 306.384C336.926 306.384 333.726 305.637 330.953 304.144C328.222 302.651 326.089 300.603 324.553 298C323.06 295.397 322.313 292.411 322.313 289.04C322.313 285.669 323.038 282.683 324.489 280.08C325.982 277.477 328.009 275.451 330.569 274C333.172 272.507 336.094 271.76 339.337 271.76C342.622 271.76 345.524 272.485 348.041 273.936C350.558 275.387 352.521 277.435 353.929 280.08C355.38 282.683 356.105 285.733 356.105 289.232C356.105 289.488 356.084 289.787 356.041 290.128C356.041 290.469 356.02 290.789 355.977 291.088H327.113V286.672H352.777L350.281 288.208C350.324 286.032 349.876 284.091 348.937 282.384C347.998 280.677 346.697 279.355 345.033 278.416C343.412 277.435 341.513 276.944 339.337 276.944C337.204 276.944 335.305 277.435 333.641 278.416C331.977 279.355 330.676 280.699 329.737 282.448C328.798 284.155 328.329 286.117 328.329 288.336V289.36C328.329 291.621 328.841 293.648 329.865 295.44C330.932 297.189 332.404 298.555 334.281 299.536C336.158 300.517 338.313 301.008 340.745 301.008C342.75 301.008 344.564 300.667 346.185 299.984C347.849 299.301 349.3 298.277 350.537 296.912L353.929 300.88C352.393 302.672 350.473 304.037 348.169 304.976C345.908 305.915 343.369 306.384 340.553 306.384ZM374.365 306.384C371.549 306.384 368.861 306 366.301 305.232C363.783 304.464 361.799 303.525 360.349 302.416L362.909 297.552C364.359 298.533 366.151 299.365 368.285 300.048C370.418 300.731 372.594 301.072 374.812 301.072C377.671 301.072 379.719 300.667 380.957 299.856C382.237 299.045 382.877 297.915 382.877 296.464C382.877 295.397 382.493 294.565 381.725 293.968C380.957 293.371 379.933 292.923 378.653 292.624C377.415 292.325 376.029 292.069 374.493 291.856C372.957 291.6 371.421 291.301 369.885 290.96C368.349 290.576 366.941 290.064 365.661 289.424C364.381 288.741 363.357 287.824 362.589 286.672C361.821 285.477 361.437 283.899 361.437 281.936C361.437 279.888 362.013 278.096 363.165 276.56C364.317 275.024 365.938 273.851 368.029 273.04C370.162 272.187 372.679 271.76 375.581 271.76C377.799 271.76 380.039 272.037 382.301 272.592C384.605 273.104 386.482 273.851 387.933 274.832L385.309 279.696C383.773 278.672 382.173 277.968 380.509 277.584C378.845 277.2 377.181 277.008 375.517 277.008C372.829 277.008 370.823 277.456 369.501 278.352C368.178 279.205 367.517 280.315 367.517 281.68C367.517 282.832 367.901 283.728 368.669 284.368C369.479 284.965 370.503 285.435 371.741 285.776C373.021 286.117 374.429 286.416 375.965 286.672C377.501 286.885 379.037 287.184 380.573 287.568C382.109 287.909 383.495 288.4 384.733 289.04C386.013 289.68 387.037 290.576 387.805 291.728C388.615 292.88 389.021 294.416 389.021 296.336C389.021 298.384 388.423 300.155 387.229 301.648C386.034 303.141 384.349 304.315 382.173 305.168C379.997 305.979 377.394 306.384 374.365 306.384Z" fill="white"/>
<path d="M389 234C389 213.645 384.991 193.49 377.201 174.684C369.412 155.879 357.995 138.792 343.602 124.398C329.208 110.005 312.121 98.5881 293.316 90.7987C274.51 83.0092 254.355 79 234 79C213.645 79 193.49 83.0092 174.684 90.7987C155.879 98.5882 138.792 110.005 124.398 124.398C110.005 138.792 98.5881 155.879 90.7987 174.684C83.0092 193.49 79 213.645 79 234L234 234H389Z" fill="white" fill-opacity="0.2"/>
<path d="M203.27 218L228.554 183.14V193.052L204.362 159.2H219.818L236.534 182.804L230.066 182.888L246.53 159.2H261.314L237.29 192.464V182.72L262.742 218H247.034L229.73 193.052H235.946L218.894 218H203.27Z" fill="white"/>
</svg>
