<svg width="232" height="232" viewBox="0 0 232 232" fill="none" xmlns="http://www.w3.org/2000/svg">
<rect width="232" height="232" rx="36" fill="white" fill-opacity="0.1"/>
<path d="M103.932 95.8699C105.155 97.1555 107.602 94.7927 107.132 93.4868C102.389 80.5015 95.2409 74 88.0932 74C80.9481 74 73.8004 80.5015 69.0591 93.4868C68.5896 94.7927 71.0342 97.1529 72.2591 95.8699C76.8575 91.0427 82.3593 89.1169 88.0958 89.1169C93.8348 89.1169 99.3391 91.0427 103.932 95.8699ZM143.902 74.0025C136.754 74.0025 129.606 80.5041 124.863 93.4893C124.393 94.7952 126.84 97.1555 128.063 95.8725C132.663 91.0452 138.16 89.1194 143.902 89.1194C149.643 89.1194 155.14 91.0452 159.741 95.8725C160.963 97.158 163.41 94.7952 162.941 93.4893C158.195 80.5015 151.047 74.0025 143.902 74.0025ZM154.732 116.68C145.895 114.998 132.832 113.266 116 113.266H115.995C99.1682 113.266 86.1053 114.998 77.2683 116.68C73.8234 117.336 72.6189 119.892 72.6189 121.932C72.6189 140.405 86.9398 159 115.997 159C145.06 159 159.381 140.408 159.381 121.932C159.381 119.892 158.174 117.336 154.732 116.68ZM151.662 126.299C151.521 127.425 151.312 128.776 150.983 130.245C150.623 131.873 150.314 132.623 147.752 132.318C142.853 131.736 89.1446 131.736 84.2451 132.318C81.683 132.62 81.3793 131.871 81.0144 130.245C80.7267 128.941 80.501 127.624 80.3382 126.299C80.1085 124.414 80.3101 123.078 83.6122 122.524C89.2135 121.591 101.062 119.953 115.997 119.953C130.933 119.953 142.781 121.591 148.383 122.524C151.685 123.078 151.889 124.412 151.662 126.299Z" fill="#E3FAFF"/>
</svg>
