<svg width="126" height="114" viewBox="0 0 126 114" fill="none" xmlns="http://www.w3.org/2000/svg">
<path d="M47.0398 29.8015C48.6564 31.5093 51.893 28.3705 51.272 26.6358C44.9979 9.38614 35.5445 0.749512 26.0912 0.749512C16.6412 0.749512 7.1878 9.38614 0.917045 26.6358C0.296045 28.3705 3.5293 31.5059 5.1493 29.8015C11.231 23.389 18.5075 20.8308 26.0945 20.8308C33.6849 20.8308 40.9648 23.389 47.0398 29.8015ZM99.9024 0.752891C90.449 0.752891 80.9957 9.38952 74.7215 26.6391C74.1005 28.3739 77.3372 31.5093 78.9538 29.8049C85.0389 23.3924 92.3087 20.8341 99.9024 20.8341C107.496 20.8341 114.766 23.3924 120.851 29.8049C122.468 31.5126 125.704 28.3739 125.083 26.6391C118.806 9.38614 109.352 0.752891 99.9024 0.752891ZM114.226 57.4461C102.538 55.2119 85.2617 52.9101 63.0002 52.9101H62.9934C40.7387 52.9101 23.462 55.2119 11.7744 57.4461C7.21817 58.3169 5.62517 61.7121 5.62517 64.4223C5.62517 88.9619 24.5657 113.664 62.9968 113.664C101.435 113.664 120.375 88.9653 120.375 64.4223C120.375 61.7121 118.779 58.3169 114.226 57.4461ZM110.166 70.2239C109.98 71.719 109.703 73.5145 109.268 75.4653C108.792 77.6286 108.384 78.6243 104.995 78.2193C98.5153 77.4464 27.4817 77.4464 21.0017 78.2193C17.6132 78.6209 17.2115 77.6253 16.7289 75.4653C16.3484 73.7332 16.0499 71.9841 15.8345 70.2239C15.5308 67.7196 15.7974 65.9444 20.1647 65.2086C27.5728 63.97 43.2429 61.7931 62.9968 61.7931C82.7507 61.7931 98.4208 63.97 105.829 65.2086C110.196 65.9444 110.466 67.7163 110.166 70.2239Z" fill="#5BB3FF"/>
</svg>
