<svg width="2034" height="620" viewBox="0 0 2034 620" fill="none" xmlns="http://www.w3.org/2000/svg">
<rect width="999" height="619" fill="#99CDFF" fill-opacity="0.2"/>
<rect x="21.5" y="21.5" width="956" height="576" stroke="white" stroke-opacity="0.7" stroke-width="43"/>
<path d="M348.223 310.445V322.443C348.223 345.083 345.038 365.418 338.666 383.449C332.43 401.344 323.55 416.663 312.027 429.407C300.503 442.015 286.879 451.708 271.153 458.486C255.427 465.129 238.074 468.451 219.095 468.451C199.979 468.451 182.491 465.129 166.629 458.486C150.904 451.708 137.211 442.015 125.552 429.407C114.029 416.663 105.081 401.344 98.7097 383.449C92.4735 365.418 89.3555 345.083 89.3555 322.443V310.445C89.3555 287.806 92.4735 267.47 98.7097 249.44C105.081 231.409 113.961 216.09 125.349 203.482C136.872 190.739 150.497 181.045 166.223 174.402C182.084 167.624 199.573 164.235 218.688 164.235C237.667 164.235 255.02 167.624 270.746 174.402C286.608 181.045 300.3 190.739 311.823 203.482C323.347 216.09 332.294 231.409 338.666 249.44C345.038 267.47 348.223 287.806 348.223 310.445ZM275.83 322.443V310.039C275.83 295.397 274.542 282.518 271.966 271.402C269.526 260.15 265.866 250.728 260.985 243.136C256.105 235.544 250.072 229.85 242.887 226.054C235.837 222.123 227.771 220.157 218.688 220.157C209.198 220.157 200.928 222.123 193.879 226.054C186.829 229.85 180.932 235.544 176.187 243.136C171.442 250.728 167.85 260.15 165.409 271.402C163.105 282.518 161.952 295.397 161.952 310.039V322.443C161.952 336.949 163.105 349.828 165.409 361.08C167.85 372.197 171.442 381.619 176.187 389.346C181.068 397.074 187.033 402.903 194.082 406.835C201.267 410.766 209.605 412.732 219.095 412.732C228.178 412.732 236.244 410.766 243.293 406.835C250.343 402.903 256.24 397.074 260.985 389.346C265.866 381.619 269.526 372.197 271.966 361.08C274.542 349.828 275.83 336.949 275.83 322.443Z" fill="url(#paint0_linear_736_17)"/>
<path d="M545.882 168.302H617.259V361.69C617.259 384.737 612.446 404.259 602.821 420.256C593.196 436.117 579.707 448.115 562.354 456.249C545.001 464.383 524.598 468.451 501.145 468.451C477.963 468.451 457.559 464.383 439.936 456.249C422.447 448.115 408.755 436.117 398.858 420.256C389.097 404.259 384.217 384.737 384.217 361.69V168.302H455.797V361.69C455.797 373.892 457.559 383.856 461.084 391.583C464.609 399.175 469.761 404.733 476.539 408.258C483.317 411.783 491.519 413.545 501.145 413.545C510.906 413.545 519.108 411.783 525.75 408.258C532.393 404.733 537.409 399.175 540.798 391.583C544.188 383.856 545.882 373.892 545.882 361.69V168.302Z" fill="url(#paint1_linear_736_17)"/>
<path d="M662.2 168.302H778.721C801.497 168.302 821.29 171.691 838.1 178.47C854.911 185.248 867.857 195.28 876.941 208.566C886.159 221.851 890.769 238.255 890.769 257.777C890.769 274.723 888.125 288.89 882.838 300.278C877.551 311.666 870.162 321.088 860.672 328.544C851.318 335.865 840.405 341.897 827.933 346.642L804.547 359.86H706.734L706.328 304.752H778.721C787.804 304.752 795.328 303.125 801.293 299.871C807.258 296.617 811.732 292.008 814.715 286.043C817.833 279.943 819.392 272.69 819.392 264.284C819.392 255.744 817.833 248.423 814.715 242.322C811.597 236.222 806.987 231.545 800.887 228.291C794.922 225.037 787.533 223.411 778.721 223.411H733.577V464.383H662.2V168.302ZM824.272 464.383L758.793 333.424L834.44 333.018L900.733 461.333V464.383H824.272Z" fill="url(#paint2_linear_736_17)"/>
<path d="M902.352 524.219H838.054V507.951H902.352C915.78 507.951 926.677 505.782 935.044 501.444C943.513 497.002 949.659 491.012 953.481 483.471C957.406 475.931 959.368 467.461 959.368 458.062C959.368 448.869 957.406 440.399 953.481 432.653C949.659 424.906 943.513 418.708 935.044 414.06C926.677 409.309 915.78 406.933 902.352 406.933H844.716V619.071H825.659V390.51H902.352C918.879 390.51 932.771 393.351 944.03 399.032C955.392 404.713 963.965 412.614 969.749 422.737C975.533 432.859 978.425 444.531 978.425 457.752C978.425 471.593 975.533 483.523 969.749 493.542C963.965 503.458 955.443 511.05 944.185 516.318C932.926 521.586 918.982 524.219 902.352 524.219Z" fill="black"/>
<path d="M1035.29 476.189V619.071H1016.85V448.456H1034.82L1035.29 476.189ZM1094.63 447.217L1094.16 464.259C1092.1 463.95 1090.08 463.691 1088.12 463.485C1086.16 463.278 1084.04 463.175 1081.77 463.175C1073.71 463.175 1066.64 464.673 1060.54 467.668C1054.55 470.56 1049.49 474.64 1045.36 479.908C1041.23 485.072 1038.08 491.167 1035.91 498.19C1033.74 505.111 1032.5 512.548 1032.19 520.501L1025.37 523.135C1025.37 512.186 1026.51 502.012 1028.78 492.613C1031.05 483.213 1034.51 475.002 1039.16 467.978C1043.91 460.851 1049.85 455.325 1056.98 451.4C1064.21 447.371 1072.68 445.357 1082.39 445.357C1084.76 445.357 1087.09 445.564 1089.36 445.977C1091.73 446.287 1093.49 446.7 1094.63 447.217Z" fill="black"/>
<path d="M1110.43 534.91V529.797C1110.43 517.609 1112.19 506.35 1115.7 496.021C1119.21 485.692 1124.22 476.758 1130.73 469.217C1137.34 461.677 1145.24 455.841 1154.43 451.71C1163.62 447.475 1173.85 445.357 1185.11 445.357C1196.47 445.357 1206.75 447.475 1215.94 451.71C1225.13 455.841 1233.04 461.677 1239.65 469.217C1246.26 476.758 1251.32 485.692 1254.83 496.021C1258.34 506.35 1260.1 517.609 1260.1 529.797V534.91C1260.1 547.098 1258.34 558.357 1254.83 568.686C1251.32 578.912 1246.26 587.795 1239.65 595.335C1233.14 602.875 1225.29 608.763 1216.1 612.997C1206.9 617.129 1196.68 619.195 1185.42 619.195C1174.06 619.195 1163.78 617.129 1154.59 612.997C1145.39 608.763 1137.49 602.875 1130.88 595.335C1124.27 587.795 1119.21 578.912 1115.7 568.686C1112.19 558.357 1110.43 547.098 1110.43 534.91ZM1128.87 529.797V534.91C1128.87 544.103 1130.11 552.831 1132.59 561.094C1135.07 569.254 1138.68 576.536 1143.43 582.94C1148.18 589.241 1154.07 594.199 1161.09 597.814C1168.12 601.429 1176.23 603.236 1185.42 603.236C1194.51 603.236 1202.51 601.429 1209.43 597.814C1216.46 594.199 1222.35 589.241 1227.1 582.94C1231.85 576.536 1235.41 569.254 1237.79 561.094C1240.27 552.831 1241.51 544.103 1241.51 534.91V529.797C1241.51 520.708 1240.27 512.083 1237.79 503.923C1235.41 495.763 1231.8 488.481 1226.94 482.077C1222.19 475.673 1216.3 470.612 1209.28 466.893C1202.26 463.175 1194.2 461.316 1185.11 461.316C1176.02 461.316 1167.96 463.175 1160.94 466.893C1154.02 470.612 1148.13 475.673 1143.28 482.077C1138.53 488.481 1134.91 495.763 1132.43 503.923C1130.06 512.083 1128.87 520.708 1128.87 529.797Z" fill="black"/>
<path d="M1407.44 583.56V378.115H1426.03V618.761H1408.68L1407.44 583.56ZM1291.09 533.98V530.727C1291.09 517.712 1292.58 505.989 1295.58 495.556C1298.57 485.021 1302.86 476.035 1308.44 468.598C1314.12 461.057 1320.94 455.325 1328.89 451.4C1336.84 447.371 1345.83 445.357 1355.85 445.357C1365.66 445.357 1374.34 446.958 1381.88 450.16C1389.42 453.362 1395.87 457.959 1401.24 463.95C1406.72 469.94 1411.11 477.067 1414.41 485.331C1417.82 493.594 1420.3 502.787 1421.85 512.909V554.277C1420.61 563.78 1418.34 572.508 1415.03 580.461C1411.73 588.311 1407.34 595.18 1401.86 601.067C1396.39 606.852 1389.78 611.345 1382.03 614.547C1374.39 617.645 1365.56 619.195 1355.54 619.195C1345.62 619.195 1336.69 617.129 1328.73 612.997C1320.78 608.866 1314.02 603.03 1308.44 595.49C1302.86 587.846 1298.57 578.808 1295.58 568.376C1292.58 557.944 1291.09 546.478 1291.09 533.98ZM1309.68 530.727V533.98C1309.68 543.793 1310.66 552.882 1312.62 561.249C1314.58 569.616 1317.58 576.897 1321.61 583.095C1325.64 589.292 1330.75 594.147 1336.95 597.659C1343.14 601.171 1350.48 602.927 1358.95 602.927C1369.59 602.927 1378.52 600.912 1385.75 596.884C1392.98 592.753 1398.77 587.33 1403.1 580.616C1407.44 573.799 1410.59 566.362 1412.55 558.305V510.12C1411.31 504.646 1409.51 499.068 1407.13 493.387C1404.76 487.706 1401.5 482.49 1397.37 477.739C1393.34 472.884 1388.18 469.011 1381.88 466.119C1375.68 463.123 1368.14 461.626 1359.26 461.626C1350.68 461.626 1343.3 463.381 1337.1 466.893C1330.9 470.405 1325.74 475.311 1321.61 481.612C1317.58 487.81 1314.58 495.092 1312.62 503.458C1310.66 511.825 1309.68 520.914 1309.68 530.727Z" fill="black"/>
<path d="M1582.21 577.362V448.456H1600.8V619.071H1582.98L1582.21 577.362ZM1585.62 546.375L1595.22 546.065C1595.22 556.601 1593.98 566.31 1591.5 575.193C1589.03 584.076 1585.15 591.823 1579.88 598.433C1574.62 605.044 1567.8 610.157 1559.43 613.772C1551.07 617.387 1541 619.195 1529.22 619.195C1521.06 619.195 1513.57 618.059 1506.76 615.786C1500.04 613.411 1494.26 609.692 1489.4 604.631C1484.55 599.57 1480.78 593.011 1478.09 584.954C1475.51 576.897 1474.22 567.137 1474.22 555.671V448.456H1492.66V555.981C1492.66 564.967 1493.64 572.456 1495.6 578.447C1497.67 584.438 1500.45 589.241 1503.97 592.856C1507.58 596.471 1511.71 599.053 1516.36 600.603C1521.01 602.152 1526.02 602.927 1531.39 602.927C1545.02 602.927 1555.77 600.293 1563.62 595.025C1571.57 589.757 1577.2 582.837 1580.5 574.264C1583.91 565.587 1585.62 556.291 1585.62 546.375Z" fill="black"/>
<path d="M1711.11 603.236C1718.97 603.236 1726.3 601.79 1733.12 598.898C1740.04 595.903 1745.72 591.513 1750.16 585.729C1754.7 579.841 1757.29 572.663 1757.91 564.193H1775.57C1775.05 574.832 1771.8 584.334 1765.81 592.701C1759.92 600.964 1752.17 607.471 1742.57 612.223C1733.06 616.871 1722.58 619.195 1711.11 619.195C1699.44 619.195 1689.11 617.077 1680.13 612.842C1671.24 608.608 1663.81 602.72 1657.82 595.18C1651.83 587.536 1647.28 578.653 1644.18 568.531C1641.19 558.305 1639.69 547.305 1639.69 535.53V529.022C1639.69 517.247 1641.19 506.299 1644.18 496.176C1647.28 485.95 1651.83 477.067 1657.82 469.527C1663.81 461.884 1671.24 455.945 1680.13 451.71C1689.01 447.475 1699.29 445.357 1710.96 445.357C1722.94 445.357 1733.68 447.785 1743.19 452.639C1752.79 457.494 1760.44 464.363 1766.12 473.246C1771.9 482.129 1775.05 492.664 1775.57 504.853H1757.91C1757.39 495.866 1755.01 488.119 1750.78 481.612C1746.54 475.105 1740.97 470.095 1734.05 466.583C1727.12 463.072 1719.43 461.316 1710.96 461.316C1701.46 461.316 1693.35 463.175 1686.64 466.893C1679.92 470.509 1674.45 475.518 1670.21 481.922C1666.08 488.223 1663.03 495.453 1661.07 503.613C1659.11 511.67 1658.13 520.139 1658.13 529.022V535.53C1658.13 544.516 1659.06 553.089 1660.92 561.249C1662.88 569.306 1665.93 576.484 1670.06 582.785C1674.29 589.086 1679.77 594.095 1686.48 597.814C1693.3 601.429 1701.51 603.236 1711.11 603.236Z" fill="black"/>
<path d="M1876.28 448.456V463.64H1792.3V448.456H1876.28ZM1823.13 405.384H1841.57V575.348C1841.57 583.095 1842.6 588.931 1844.67 592.856C1846.74 596.781 1849.42 599.415 1852.73 600.758C1856.03 602.1 1859.59 602.772 1863.42 602.772C1866.21 602.772 1868.89 602.617 1871.47 602.307C1874.06 601.894 1876.38 601.481 1878.45 601.067L1879.22 616.716C1876.95 617.439 1874 618.007 1870.39 618.42C1866.77 618.937 1863.16 619.195 1859.54 619.195C1852.42 619.195 1846.12 617.904 1840.64 615.321C1835.17 612.636 1830.88 608.091 1827.78 601.687C1824.68 595.18 1823.13 586.349 1823.13 575.193V405.384Z" fill="black"/>
<path d="M2015.56 573.334C2015.56 568.789 2014.43 564.296 2012.15 559.855C2009.88 555.413 2005.49 551.333 1998.98 547.615C1992.58 543.896 1983.13 540.746 1970.63 538.164C1961.34 536.098 1953.02 533.774 1945.69 531.192C1938.46 528.609 1932.36 525.511 1927.4 521.895C1922.45 518.28 1918.68 513.942 1916.09 508.881C1913.51 503.82 1912.22 497.829 1912.22 490.908C1912.22 484.711 1913.56 478.875 1916.25 473.401C1919.04 467.823 1922.96 462.968 1928.02 458.837C1933.19 454.602 1939.39 451.297 1946.62 448.921C1953.95 446.545 1962.16 445.357 1971.25 445.357C1984.16 445.357 1995.21 447.578 2004.41 452.02C2013.7 456.358 2020.78 462.297 2025.63 469.837C2030.59 477.377 2033.07 485.899 2033.07 495.401H2014.63C2014.63 489.617 2012.93 484.143 2009.52 478.978C2006.22 473.814 2001.31 469.579 1994.8 466.274C1988.4 462.968 1980.55 461.316 1971.25 461.316C1961.65 461.316 1953.85 462.762 1947.86 465.654C1941.87 468.546 1937.48 472.213 1934.69 476.654C1932 481.096 1930.66 485.692 1930.66 490.444C1930.66 494.162 1931.23 497.571 1932.36 500.669C1933.6 503.665 1935.77 506.454 1938.87 509.036C1942.07 511.618 1946.62 514.045 1952.5 516.318C1958.39 518.59 1966.04 520.811 1975.43 522.98C1988.97 525.975 2000.02 529.642 2008.59 533.98C2017.27 538.215 2023.67 543.483 2027.8 549.784C2031.93 555.981 2034 563.521 2034 572.404C2034 579.325 2032.55 585.677 2029.66 591.461C2026.77 597.142 2022.59 602.049 2017.11 606.18C2011.74 610.312 2005.23 613.514 1997.59 615.786C1990.05 618.059 1981.58 619.195 1972.18 619.195C1958.03 619.195 1946.05 616.871 1936.24 612.223C1926.53 607.471 1919.14 601.274 1914.08 593.63C1909.12 585.884 1906.64 577.672 1906.64 568.996H1925.08C1925.7 577.672 1928.44 584.541 1933.29 589.602C1938.15 594.56 1944.09 598.072 1951.11 600.138C1958.24 602.204 1965.26 603.236 1972.18 603.236C1981.68 603.236 1989.64 601.842 1996.04 599.053C2002.45 596.264 2007.3 592.598 2010.61 588.053C2013.91 583.508 2015.56 578.602 2015.56 573.334Z" fill="black"/>
<defs>
<linearGradient id="paint0_linear_736_17" x1="493.57" y1="77.6647" x2="493.57" y2="565.525" gradientUnits="userSpaceOnUse">
<stop stop-color="#0D2E4B"/>
<stop offset="1" stop-color="#99EDFF" stop-opacity="0.65"/>
</linearGradient>
<linearGradient id="paint1_linear_736_17" x1="493.57" y1="77.6647" x2="493.57" y2="565.525" gradientUnits="userSpaceOnUse">
<stop stop-color="#0D2E4B"/>
<stop offset="1" stop-color="#99EDFF" stop-opacity="0.65"/>
</linearGradient>
<linearGradient id="paint2_linear_736_17" x1="493.57" y1="77.6647" x2="493.57" y2="565.525" gradientUnits="userSpaceOnUse">
<stop stop-color="#0D2E4B"/>
<stop offset="1" stop-color="#99EDFF" stop-opacity="0.65"/>
</linearGradient>
</defs>
</svg>
