<svg width="86" height="62" viewBox="0 0 86 62" fill="none" xmlns="http://www.w3.org/2000/svg">
<path d="M84.2037 44.0399C80.4704 41.8932 77.9971 39.0465 76.7837 35.4999L85.3237 31.2999V2.59986L59.2837 0.359863L45.2837 7.35987V34.7999C45.2837 41.0532 46.4971 46.3265 48.9237 50.6199C51.2571 54.9132 54.6171 58.5999 59.0037 61.6799L73.0037 54.6799L84.2037 44.0399ZM83.9237 3.85986V29.7599L74.5437 28.9199C74.5437 32.7465 75.1971 35.9665 76.5037 38.5799C77.8104 41.0999 79.6304 43.0599 81.9637 44.4599L73.0037 52.9999C69.1771 50.2932 66.1904 46.9332 64.0437 42.9199C61.8037 38.8132 60.6837 33.7732 60.6837 27.7999V1.89986L83.9237 3.85986Z" fill="#3093E8" fill-opacity="0.5"/>
<path d="M39.36 44.0399C35.6266 41.8932 33.1533 39.0465 31.94 35.4999L40.48 31.2999V2.59986L14.44 0.359863L0.439972 7.35987V34.7999C0.439972 41.0532 1.65331 46.3265 4.07997 50.6199C6.41331 54.9132 9.77331 58.5999 14.16 61.6799L28.16 54.6799L39.36 44.0399ZM39.08 3.85986V29.7599L29.7 28.9199C29.7 32.7465 30.3533 35.9665 31.66 38.5799C32.9666 41.0999 34.7866 43.0599 37.12 44.4599L28.16 52.9999C24.3333 50.2932 21.3466 46.9332 19.2 42.9199C16.96 38.8132 15.84 33.7732 15.84 27.7999V1.89986L39.08 3.85986Z" fill="#3093E8" fill-opacity="0.5"/>
</svg>
