<svg width="1920" height="95" viewBox="0 0 1920 95" fill="none" xmlns="http://www.w3.org/2000/svg">
<path d="M706.994 76.248C704.602 76.248 702.314 75.91 700.13 75.234C697.946 74.558 695.944 73.544 694.124 72.192C692.304 70.84 690.718 69.202 689.366 67.278C688.014 65.302 686.948 63.014 686.168 60.414L696.074 56.514C696.802 59.322 698.076 61.662 699.896 63.534C701.716 65.354 704.108 66.264 707.072 66.264C708.164 66.264 709.204 66.134 710.192 65.874C711.232 65.562 712.142 65.146 712.922 64.626C713.754 64.054 714.404 63.352 714.872 62.52C715.34 61.688 715.574 60.726 715.574 59.634C715.574 58.594 715.392 57.658 715.028 56.826C714.664 55.994 714.04 55.214 713.156 54.486C712.324 53.758 711.206 53.056 709.802 52.38C708.45 51.704 706.76 51.002 704.732 50.274L701.3 49.026C699.792 48.506 698.258 47.804 696.698 46.92C695.19 46.036 693.812 44.97 692.564 43.722C691.316 42.474 690.276 41.018 689.444 39.354C688.664 37.638 688.274 35.714 688.274 33.582C688.274 31.398 688.69 29.37 689.522 27.498C690.406 25.574 691.628 23.91 693.188 22.506C694.8 21.05 696.698 19.932 698.882 19.152C701.118 18.32 703.588 17.904 706.292 17.904C709.1 17.904 711.518 18.294 713.546 19.074C715.626 19.802 717.368 20.764 718.772 21.96C720.228 23.104 721.398 24.378 722.282 25.782C723.166 27.186 723.816 28.512 724.232 29.76L714.95 33.66C714.43 32.1 713.468 30.696 712.064 29.448C710.712 28.2 708.84 27.576 706.448 27.576C704.16 27.576 702.262 28.122 700.754 29.214C699.246 30.254 698.492 31.632 698.492 33.348C698.492 35.012 699.22 36.442 700.676 37.638C702.132 38.782 704.446 39.9 707.618 40.992L711.128 42.162C713.364 42.942 715.392 43.852 717.212 44.892C719.084 45.88 720.67 47.076 721.97 48.48C723.322 49.884 724.336 51.496 725.012 53.316C725.74 55.084 726.104 57.138 726.104 59.478C726.104 62.39 725.506 64.912 724.31 67.044C723.166 69.124 721.684 70.84 719.864 72.192C718.044 73.544 715.99 74.558 713.702 75.234C711.414 75.91 709.178 76.248 706.994 76.248ZM769.799 65.25C768.135 68.474 765.795 71.126 762.779 73.206C759.815 75.234 756.097 76.248 751.625 76.248C748.661 76.248 745.931 75.754 743.435 74.766C740.991 73.726 738.859 72.296 737.039 70.476C735.271 68.656 733.867 66.524 732.827 64.08C731.839 61.584 731.345 58.854 731.345 55.89C731.345 52.926 731.839 50.196 732.827 47.7C733.867 45.204 735.271 43.072 737.039 41.304C738.859 39.484 740.991 38.08 743.435 37.092C745.931 36.052 748.661 35.532 751.625 35.532C756.045 35.532 759.763 36.546 762.779 38.574C765.795 40.602 768.005 43.228 769.409 46.452L760.049 50.352C759.165 48.584 758.021 47.258 756.617 46.374C755.265 45.438 753.549 44.97 751.469 44.97C750.117 44.97 748.843 45.23 747.647 45.75C746.451 46.27 745.385 46.998 744.449 47.934C743.565 48.87 742.863 50.014 742.343 51.366C741.823 52.718 741.563 54.226 741.563 55.89C741.563 57.554 741.823 59.062 742.343 60.414C742.863 61.766 743.565 62.91 744.449 63.846C745.385 64.782 746.451 65.51 747.647 66.03C748.843 66.55 750.117 66.81 751.469 66.81C753.601 66.81 755.395 66.342 756.851 65.406C758.359 64.418 759.555 63.014 760.439 61.194L769.799 65.25ZM799.208 70.944H798.584C797.388 72.4 795.932 73.648 794.216 74.688C792.552 75.728 790.394 76.248 787.742 76.248C785.766 76.248 783.894 75.91 782.126 75.234C780.41 74.61 778.902 73.726 777.602 72.582C776.302 71.438 775.288 70.06 774.56 68.448C773.832 66.836 773.468 65.068 773.468 63.144C773.468 61.168 773.858 59.4 774.638 57.84C775.418 56.228 776.51 54.85 777.914 53.706C779.318 52.562 780.956 51.704 782.828 51.132C784.752 50.508 786.832 50.196 789.068 50.196C791.564 50.196 793.618 50.404 795.23 50.82C796.842 51.184 798.168 51.574 799.208 51.99V50.82C799.208 48.792 798.402 47.128 796.79 45.828C795.178 44.476 793.176 43.8 790.784 43.8C787.248 43.8 784.258 45.282 781.814 48.246L774.404 43.176C778.46 38.08 783.998 35.532 791.018 35.532C796.946 35.532 801.47 36.936 804.59 39.744C807.71 42.5 809.27 46.608 809.27 52.068V75H799.208V70.944ZM799.208 59.478C798.012 58.906 796.764 58.464 795.464 58.152C794.216 57.788 792.838 57.606 791.33 57.606C788.886 57.606 786.988 58.152 785.636 59.244C784.336 60.284 783.686 61.584 783.686 63.144C783.686 64.704 784.31 65.952 785.558 66.888C786.858 67.824 788.34 68.292 790.004 68.292C791.356 68.292 792.604 68.058 793.748 67.59C794.892 67.07 795.854 66.42 796.634 65.64C797.466 64.808 798.09 63.872 798.506 62.832C798.974 61.74 799.208 60.622 799.208 59.478ZM817.394 75V19.152H827.612V75H817.394ZM872.172 65.796C870.404 68.916 868.012 71.438 864.996 73.362C862.032 75.286 858.392 76.248 854.076 76.248C851.164 76.248 848.46 75.754 845.964 74.766C843.52 73.726 841.388 72.296 839.568 70.476C837.748 68.656 836.318 66.524 835.278 64.08C834.29 61.584 833.796 58.854 833.796 55.89C833.796 53.134 834.29 50.534 835.278 48.09C836.266 45.594 837.644 43.436 839.412 41.616C841.18 39.744 843.26 38.262 845.652 37.17C848.096 36.078 850.774 35.532 853.686 35.532C856.754 35.532 859.484 36.052 861.876 37.092C864.268 38.08 866.27 39.484 867.882 41.304C869.494 43.072 870.716 45.178 871.548 47.622C872.38 50.066 872.796 52.718 872.796 55.578C872.796 55.942 872.796 56.254 872.796 56.514C872.744 56.826 872.718 57.112 872.718 57.372C872.666 57.632 872.64 57.918 872.64 58.23H843.858C844.066 59.79 844.482 61.142 845.106 62.286C845.782 63.378 846.588 64.314 847.524 65.094C848.512 65.822 849.578 66.368 850.722 66.732C851.866 67.044 853.036 67.2 854.232 67.2C856.572 67.2 858.496 66.68 860.004 65.64C861.564 64.548 862.786 63.196 863.67 61.584L872.172 65.796ZM862.89 50.976C862.838 50.3 862.604 49.546 862.188 48.714C861.824 47.882 861.252 47.102 860.472 46.374C859.744 45.646 858.808 45.048 857.664 44.58C856.572 44.112 855.246 43.878 853.686 43.878C851.502 43.878 849.578 44.502 847.914 45.75C846.25 46.998 845.08 48.74 844.404 50.976H862.89ZM914.557 35.532C917.521 35.532 920.225 36.052 922.669 37.092C925.165 38.08 927.297 39.484 929.065 41.304C930.885 43.072 932.289 45.204 933.277 47.7C934.317 50.196 934.837 52.926 934.837 55.89C934.837 58.854 934.317 61.584 933.277 64.08C932.289 66.576 930.885 68.734 929.065 70.554C927.297 72.322 925.165 73.726 922.669 74.766C920.225 75.754 917.521 76.248 914.557 76.248C911.593 76.248 908.863 75.754 906.367 74.766C903.923 73.726 901.791 72.322 899.971 70.554C898.203 68.734 896.799 66.576 895.759 64.08C894.771 61.584 894.277 58.854 894.277 55.89C894.277 52.926 894.771 50.196 895.759 47.7C896.799 45.204 898.203 43.072 899.971 41.304C901.791 39.484 903.923 38.08 906.367 37.092C908.863 36.052 911.593 35.532 914.557 35.532ZM914.557 66.81C915.857 66.81 917.105 66.576 918.301 66.108C919.549 65.588 920.641 64.86 921.577 63.924C922.513 62.988 923.241 61.844 923.761 60.492C924.333 59.14 924.619 57.606 924.619 55.89C924.619 54.174 924.333 52.64 923.761 51.288C923.241 49.936 922.513 48.792 921.577 47.856C920.641 46.92 919.549 46.218 918.301 45.75C917.105 45.23 915.857 44.97 914.557 44.97C913.205 44.97 911.931 45.23 910.735 45.75C909.539 46.218 908.473 46.92 907.537 47.856C906.601 48.792 905.847 49.936 905.275 51.288C904.755 52.64 904.495 54.174 904.495 55.89C904.495 57.606 904.755 59.14 905.275 60.492C905.847 61.844 906.601 62.988 907.537 63.924C908.473 64.86 909.539 65.588 910.735 66.108C911.931 66.576 913.205 66.81 914.557 66.81ZM959.136 18.528C960.592 18.528 961.944 18.658 963.192 18.918C964.44 19.178 965.558 19.516 966.546 19.932L963.66 29.058C963.14 28.798 962.568 28.59 961.944 28.434C961.372 28.278 960.644 28.2 959.76 28.2C958.252 28.2 957.056 28.694 956.172 29.682C955.288 30.618 954.846 31.944 954.846 33.66V36.78H964.362V45.516H954.846V75H944.628V45.516H937.764V36.78H944.628V33.036C944.628 30.696 944.966 28.642 945.642 26.874C946.37 25.054 947.384 23.546 948.684 22.35C949.984 21.102 951.518 20.166 953.286 19.542C955.054 18.866 957.004 18.528 959.136 18.528ZM989.648 19.152H1000.18V75H989.648V19.152ZM1010.19 36.78H1019.78V41.772H1020.4C1021.6 39.9 1023.21 38.392 1025.24 37.248C1027.32 36.104 1029.61 35.532 1032.1 35.532C1035.02 35.532 1037.46 36.208 1039.44 37.56C1041.41 38.912 1042.82 40.576 1043.65 42.552C1044.84 40.628 1046.53 38.99 1048.72 37.638C1050.9 36.234 1053.55 35.532 1056.67 35.532C1059.01 35.532 1061.04 35.922 1062.76 36.702C1064.47 37.43 1065.88 38.47 1066.97 39.822C1068.11 41.174 1068.97 42.812 1069.54 44.736C1070.12 46.608 1070.4 48.662 1070.4 50.898V75H1060.18V52.77C1060.18 47.57 1058.05 44.97 1053.79 44.97C1052.44 44.97 1051.24 45.282 1050.2 45.906C1049.16 46.478 1048.28 47.284 1047.55 48.324C1046.87 49.312 1046.33 50.508 1045.91 51.912C1045.55 53.316 1045.36 54.824 1045.36 56.436V75H1035.15V52.77C1035.15 47.57 1032.91 44.97 1028.44 44.97C1027.14 44.97 1025.99 45.282 1025.01 45.906C1024.02 46.478 1023.19 47.284 1022.51 48.324C1021.83 49.312 1021.31 50.508 1020.95 51.912C1020.59 53.316 1020.4 54.824 1020.4 56.436V75H1010.19V36.78ZM1078.5 36.78H1088.1V41.382H1088.72C1089.66 39.77 1091.11 38.392 1093.09 37.248C1095.07 36.104 1097.51 35.532 1100.42 35.532C1102.87 35.532 1105.18 36.052 1107.36 37.092C1109.6 38.08 1111.55 39.484 1113.21 41.304C1114.93 43.072 1116.28 45.204 1117.27 47.7C1118.26 50.196 1118.75 52.926 1118.75 55.89C1118.75 58.854 1118.26 61.584 1117.27 64.08C1116.28 66.576 1114.93 68.734 1113.21 70.554C1111.55 72.322 1109.6 73.726 1107.36 74.766C1105.18 75.754 1102.87 76.248 1100.42 76.248C1097.51 76.248 1095.07 75.676 1093.09 74.532C1091.11 73.388 1089.66 72.01 1088.72 70.398H1088.1L1088.72 75.858V91.848H1078.5V36.78ZM1098.32 66.81C1099.67 66.81 1100.94 66.55 1102.14 66.03C1103.39 65.51 1104.48 64.782 1105.41 63.846C1106.35 62.91 1107.1 61.766 1107.68 60.414C1108.25 59.062 1108.53 57.554 1108.53 55.89C1108.53 54.226 1108.25 52.718 1107.68 51.366C1107.1 50.014 1106.35 48.87 1105.41 47.934C1104.48 46.998 1103.39 46.27 1102.14 45.75C1100.94 45.23 1099.67 44.97 1098.32 44.97C1096.96 44.97 1095.66 45.23 1094.42 45.75C1093.22 46.218 1092.15 46.92 1091.22 47.856C1090.28 48.792 1089.53 49.936 1088.96 51.288C1088.38 52.64 1088.1 54.174 1088.1 55.89C1088.1 57.606 1088.38 59.14 1088.96 60.492C1089.53 61.844 1090.28 62.988 1091.22 63.924C1092.15 64.86 1093.22 65.588 1094.42 66.108C1095.66 66.576 1096.96 66.81 1098.32 66.81ZM1148.84 70.944H1148.21C1147.02 72.4 1145.56 73.648 1143.85 74.688C1142.18 75.728 1140.02 76.248 1137.37 76.248C1135.4 76.248 1133.52 75.91 1131.76 75.234C1130.04 74.61 1128.53 73.726 1127.23 72.582C1125.93 71.438 1124.92 70.06 1124.19 68.448C1123.46 66.836 1123.1 65.068 1123.1 63.144C1123.1 61.168 1123.49 59.4 1124.27 57.84C1125.05 56.228 1126.14 54.85 1127.54 53.706C1128.95 52.562 1130.59 51.704 1132.46 51.132C1134.38 50.508 1136.46 50.196 1138.7 50.196C1141.19 50.196 1143.25 50.404 1144.86 50.82C1146.47 51.184 1147.8 51.574 1148.84 51.99V50.82C1148.84 48.792 1148.03 47.128 1146.42 45.828C1144.81 44.476 1142.81 43.8 1140.41 43.8C1136.88 43.8 1133.89 45.282 1131.44 48.246L1124.03 43.176C1128.09 38.08 1133.63 35.532 1140.65 35.532C1146.58 35.532 1151.1 36.936 1154.22 39.744C1157.34 42.5 1158.9 46.608 1158.9 52.068V75H1148.84V70.944ZM1148.84 59.478C1147.64 58.906 1146.39 58.464 1145.09 58.152C1143.85 57.788 1142.47 57.606 1140.96 57.606C1138.52 57.606 1136.62 58.152 1135.27 59.244C1133.97 60.284 1133.32 61.584 1133.32 63.144C1133.32 64.704 1133.94 65.952 1135.19 66.888C1136.49 67.824 1137.97 68.292 1139.63 68.292C1140.99 68.292 1142.23 68.058 1143.38 67.59C1144.52 67.07 1145.48 66.42 1146.26 65.64C1147.1 64.808 1147.72 63.872 1148.14 62.832C1148.6 61.74 1148.84 60.622 1148.84 59.478ZM1202.91 65.25C1201.25 68.474 1198.91 71.126 1195.89 73.206C1192.93 75.234 1189.21 76.248 1184.74 76.248C1181.77 76.248 1179.04 75.754 1176.55 74.766C1174.1 73.726 1171.97 72.296 1170.15 70.476C1168.38 68.656 1166.98 66.524 1165.94 64.08C1164.95 61.584 1164.46 58.854 1164.46 55.89C1164.46 52.926 1164.95 50.196 1165.94 47.7C1166.98 45.204 1168.38 43.072 1170.15 41.304C1171.97 39.484 1174.1 38.08 1176.55 37.092C1179.04 36.052 1181.77 35.532 1184.74 35.532C1189.16 35.532 1192.88 36.546 1195.89 38.574C1198.91 40.602 1201.12 43.228 1202.52 46.452L1193.16 50.352C1192.28 48.584 1191.13 47.258 1189.73 46.374C1188.38 45.438 1186.66 44.97 1184.58 44.97C1183.23 44.97 1181.96 45.23 1180.76 45.75C1179.56 46.27 1178.5 46.998 1177.56 47.934C1176.68 48.87 1175.98 50.014 1175.46 51.366C1174.94 52.718 1174.68 54.226 1174.68 55.89C1174.68 57.554 1174.94 59.062 1175.46 60.414C1175.98 61.766 1176.68 62.91 1177.56 63.846C1178.5 64.782 1179.56 65.51 1180.76 66.03C1181.96 66.55 1183.23 66.81 1184.58 66.81C1186.71 66.81 1188.51 66.342 1189.96 65.406C1191.47 64.418 1192.67 63.014 1193.55 61.194L1202.91 65.25ZM1212.98 45.516H1206.27V36.78H1212.98V25.08H1223.2V36.78H1232.56V45.516H1223.2V60.336C1223.2 61.22 1223.27 62.052 1223.43 62.832C1223.64 63.56 1224 64.184 1224.52 64.704C1225.25 65.536 1226.29 65.952 1227.64 65.952C1228.53 65.952 1229.23 65.874 1229.75 65.718C1230.27 65.51 1230.76 65.25 1231.23 64.938L1234.12 73.908C1232.92 74.48 1231.62 74.896 1230.22 75.156C1228.86 75.468 1227.36 75.624 1225.69 75.624C1223.77 75.624 1222.03 75.338 1220.47 74.766C1218.96 74.142 1217.68 73.31 1216.64 72.27C1214.2 69.93 1212.98 66.602 1212.98 62.286V45.516Z" fill="white" fill-opacity="0.5"/>
<path d="M1305 0H1920V91H1265L1305 0Z" fill="#1F2324"/>
<path d="M615 0H0V91H655L615 0Z" fill="#1F2324"/>
</svg>
