<svg width="38" height="38" viewBox="0 0 38 38" fill="none" xmlns="http://www.w3.org/2000/svg">
<rect width="38" height="38" fill="#C4C4C4" fill-opacity="0.1"/>
<path d="M30.706 11.9371C29.871 12.3071 28.974 12.5571 28.031 12.6701C29.004 12.0879 29.7319 11.1715 30.079 10.0921C29.1648 10.6351 28.1643 11.0173 27.121 11.2221C26.4194 10.4729 25.4901 9.9764 24.4773 9.80955C23.4646 9.6427 22.4251 9.81487 21.5202 10.2993C20.6154 10.7838 19.8958 11.5534 19.4732 12.4888C19.0505 13.4241 18.9485 14.4728 19.183 15.4721C17.3307 15.3791 15.5186 14.8976 13.8644 14.059C12.2102 13.2203 10.7508 12.0432 9.581 10.6041C9.181 11.2941 8.951 12.0941 8.951 12.9461C8.95055 13.7131 9.13943 14.4683 9.50088 15.1448C9.86232 15.8213 10.3852 16.3981 11.023 16.8241C10.2833 16.8005 9.55987 16.6007 8.913 16.2411V16.3011C8.91293 17.3768 9.28503 18.4195 9.96618 19.2521C10.6473 20.0847 11.5956 20.656 12.65 20.8691C11.9638 21.0548 11.2443 21.0821 10.546 20.9491C10.8435 21.8747 11.423 22.6841 12.2034 23.264C12.9837 23.8439 13.9259 24.1653 14.898 24.1831C13.2478 25.4785 11.2099 26.1812 9.112 26.1781C8.74038 26.1782 8.36908 26.1565 8 26.1131C10.1295 27.4823 12.6083 28.2089 15.14 28.2061C23.71 28.2061 28.395 21.1081 28.395 14.9521C28.395 14.7521 28.39 14.5501 28.381 14.3501C29.2923 13.6911 30.0789 12.875 30.704 11.9401L30.706 11.9371Z" fill="white"/>
</svg>
