<svg width="38" height="38" viewBox="0 0 38 38" fill="none" xmlns="http://www.w3.org/2000/svg">
<rect width="38" height="38" fill="#C4C4C4" fill-opacity="0.1"/>
<path d="M19.244 11C19.778 11.003 21.114 11.016 22.534 11.073L23.038 11.095C24.467 11.162 25.895 11.278 26.604 11.475C27.549 11.741 28.291 12.515 28.542 13.497C28.942 15.057 28.992 18.099 28.998 18.836L28.999 18.988V19.162C28.992 19.899 28.942 22.942 28.542 24.501C28.288 25.486 27.545 26.261 26.604 26.523C25.895 26.72 24.467 26.836 23.038 26.903L22.534 26.926C21.114 26.982 19.778 26.996 19.244 26.998L19.009 26.999H18.754C17.624 26.992 12.898 26.941 11.394 26.523C10.45 26.257 9.707 25.483 9.456 24.501C9.056 22.941 9.006 19.899 9 19.162V18.836C9.006 18.099 9.056 15.056 9.456 13.497C9.71 12.512 10.453 11.737 11.395 11.476C12.898 11.057 17.625 11.006 18.755 11H19.244ZM16.999 15.5V22.5L22.999 19L16.999 15.5Z" fill="white"/>
</svg>
